<svg width="1000" height="800" viewBox="0 0 1000 800" xmlns="http://www.w3.org/2000/svg">
  <g transform="translate(28 106)" fill-rule="nonzero" fill="none">
    <path fill="#3F3D56" d="M76 325.7h186v174H76zM230 557.7h420v2H230z"/>
    <path d="M338 560.2H0v-295h338v295zm-336-2h334v-291H2v291zM809 426.7c-74.4 0-135-60.6-135-135 0-74.5 60.6-135 135-135s135 60.5 135 135c0 74.4-60.6 135-135 135zm0-268c-73.3 0-133 59.7-133 133s59.7 133 133 133 133-59.7 133-133-59.7-133-133-133z" fill="#3F3D56"/>
    <circle fill="#3F3D56" cx="805" cy="291.7" r="65"/>
    <path fill="#FF6584" d="M635 147l-31.7 18.3-18.2-31.6 31.6-18.3z"/>
    <path fill="#3F3D56" d="M170 164l-31.7 18.3-18.2-31.6 31.6-18.3z"/>
    <path fill="#D0CDE1" d="M572 492l-31.7 18.3-18.2-31.6 31.6-18.3z"/>
    <path fill="#5770BE" d="M152 395.7h34v34h-34z"/>
    <circle fill="#5770BE" cx="805" cy="291.7" r="16"/>
    <path fill="#2F2E41" d="M499.8 112l-69.3 1.8-9.4-82.6h78.7zM426.4 219.1l-25.3 175.4s-21.9 62.4-23.6 92.7l-6.7 43.9 30.3 6.7 32-123L477 303.4l-5 128.1-10.2 104.5 30.4 5L510.7 408l20.2-97.8s15.2-84.3-8.4-92.7l-96 1.6z"/>
    <path d="M399 520.3l-3.3 41s36.1 21 24.5 25c-11.5 4-27.4-1.2-30.7-2.1-3.4-1-9.8-2.5-14.6-3.7a10.8 10.8 0 01-8.3-9.8c-.3-5 11-49 11-49l21.5-1.4zM486.8 521.3l2.8 39.3s41.2 15.3 30.6 21.5c-10.6 6.1-27.2 4-30.6 3.8-6.2-.5-21.6-1-21.6-1s-2.8 2.4-4-2.5c-1.3-4.9 1.6-48.7 1.6-48.7l21.2-12.4z" fill="#2F2E41"/>
    <circle fill="#FFB8B8" cx="461.8" cy="45.5" r="32"/>
    <path fill="#FFB8B8" d="M443.3 64l-6.8 37.1 28.7 13.5 6.7-47.2z"/>
    <path d="M461.8 104.5L458.4 91 438.2 81l-6.7 8.4-22 6.8L434.8 231s86 5 87.7-8.5c1.7-13.5-16.8-50.6-16.8-50.6s5-18.5 3.3-28.6l-6.7-40.5-27-8.4-6.2-7.5-5.6 9.2-1.7 8.4z" fill="#D0CDE1"/>
    <path d="M424.5 43.2c24-9.6 47.6-11.7 70.6 0V23.8a12.6 12.6 0 00-12.6-12.6h-48a10 10 0 00-10 10v22z" fill="#2F2E41"/>
    <path fill="#5770BE" d="M565.5 321.7l-67.7 39.1-39.1-67.7 67.7-39.1z"/>
    <path d="M439.9 239.4l35.4 25.3s15.2 38.8 27 32c11.8-6.7-13.5-40.5-13.5-40.5l-28.7-28.6-20.2 11.8zM541 227.6l3.4 20.2S536 290 526 281.5c-10.1-8.4 3.4-35.4 3.4-35.4l-1.7-16.8 13.5-1.7z" fill="#FFB8B8"/>
    <path d="M414.6 99.4l-5-3.3s-10.2 1.7-13.5 15.1c-3.4 13.5 0 74.2 8.4 86 8.4 11.8 32 47.2 32 47.2l32-15.1-33.7-38.8-8.4-49-11.8-42zM488.8 106.2l13.5-3.4s8.4 3.4 11.8 15.2c3.4 11.8 22 70.8 20.2 75.9-1.7 5 15.2 38.7 15.2 38.7l-23.6 1.7-13.5-35.4-13.5-35.4-10.1-57.3z" fill="#D0CDE1"/>
    <path d="M406.3 75.9c6.8-3.7 9.9-12 10.1-19.7.2-7.7-1.6-15.4-1.8-23 0-1.6 0-3.2.4-4.8a18 18 0 012.6-5.3A50 50 0 01457.8 0c2.3 0 4.6.4 6.7 1.2 1.7.7 2.3.6 2.6 2.7a17 17 0 0111.6.3c3.7 1.5 7.2 3.6 10.2 6.1a46 46 0 015.2 4.5c8.5 8.8 10.5 22.4 8 34.4-.8 3.9 3 7.6 6.2 10 3.2 2.4 6.9 4.6 8.4 8.3 1.5 3.5.7 7.5 1 11.3.7 7.4 5.5 13.7 12.4 16.4a6 6 0 01-5.8 2c-2.2-.5-4.2-1.5-6-2.9A35.8 35.8 0 01505 74.5c-1 4.3-.6 8.7-.6 13 0 4.9.9 9.7 2.7 14.2 1.8 4.5 5.2 8.2 9.5 10.5-4.1 2-8.7.6-12.3-2.4-3.5-3-5.6-7.4-7-11.8a58.8 58.8 0 01-2.9-22.3 31.8 31.8 0 00-4 21.7 33.2 33.2 0 0011.3 19.5 64.7 64.7 0 01-29.6-7.4c-2.4-1.1-4.5-2.7-6-4.7-3-4-2.3-9.6-1.5-14.6.6-4-4.3-9.6-1.5-12.4.9-.8 2-1.3 3.2-1.3 8.5-.9 16.4-5.2 21-12.4 3.2-5.1 5.3-11 5.3-16.4a29.8 29.8 0 10-58.2 8.8c1 3.3 1.7 6.7 2.2 10.1.5 4 1.3 8 2.4 11.8 2.1 7.4 5.7 14.9 12.4 18.7-2.3 1.3-4.9 1.3-7.4 1.6-8.4 1-17.1.7-24.7-3-7.5-3.6-13.5-11.4-13-19.8z" fill="#2F2E41"/>
    <ellipse fill="#FFB8B8" cx="432" cy="49.5" rx="3.5" ry="5.7"/>
  </g>
</svg>
