<svg width="1000" height="800" viewBox="0 0 1000 800" xmlns="http://www.w3.org/2000/svg">
  <defs>
    <linearGradient x1="50%" y1="100%" x2="50%" y2="0%" id="a">
      <stop stop-color="gray" stop-opacity=".3" offset="0%"/>
      <stop stop-color="gray" stop-opacity=".1" offset="54%"/>
      <stop stop-color="gray" stop-opacity=".1" offset="100%"/>
    </linearGradient>
  </defs>
  <g fill-rule="nonzero" fill="none">
    <path fill="#3F3D56" d="M78.9 578.8h741.8v1.8H78.9z"/>
    <path fill="#5770BE" d="M368.7 71.9h306.6v218.9H368.7z"/>
    <path d="M7 422.8S125 73.7 486.7 289C848 504.4 994.4 438 994.4 438" fill="#F2F2F2"/>
    <path fill="#3F3D56" d="M374 638.2h331.5v1.8H374z"/>
    <path d="M893.2 609H628s-5.4-79 26.5-79.8c31.8-1 28.2 35 68-14.4 40-49.3 88.4-46.6 94.6-17.4 6.3 29.1-12 52.4 21.6 45.2 33.6-7.1 82 11.7 54.6 66.4z" fill="#5770BE"/>
    <path d="M756.1 609h-.9c2-52 13-85.4 21.7-104.2a94.5 94.5 0 0118.8-28.8l.6.6c-.1.1-9.2 8.3-18.6 28.6-8.7 18.8-19.5 52-21.6 103.8zM852.1 609l-.8-.2a139 139 0 0135-58.2l.6.7A138 138 0 00852 609zM669.7 609l-.9-.1c3.5-25.4-2.8-45-8.8-57a78.6 78.6 0 00-13.8-20.3l.6-.6s7.5 7.3 14 20.4c6 12.2 12.5 32 9 57.6z" fill="#F2F2F2"/>
    <path d="M266.6 648.8H1.3S-4 570 27.8 569.1c31.8-1 28.2 35 68.1-14.4 39.9-49.3 88.3-46.6 94.6-17.5 6.2 29.2-12.1 52.5 21.5 45.3 33.6-7.2 82 11.7 54.6 66.3z" fill="#5770BE"/>
    <path d="M129.5 648.9h-.9c2.1-52 13-85.4 21.7-104.2a94.5 94.5 0 0118.8-28.9l.6.7c0 .1-9.1 8.3-18.6 28.6-8.7 18.8-19.5 52-21.6 103.8zM225.5 649l-.8-.3a139 139 0 0135-58.2l.6.6a138 138 0 00-34.8 57.9zM43.1 648.9l-.9-.1c3.6-25.4-2.8-45-8.7-57a78.6 78.6 0 00-13.9-20.3l.6-.7c.1.1 7.6 7.3 14 20.5 6 12.2 12.5 32 9 57.6z" fill="#F2F2F2"/>
    <path fill="#3F3D56" d="M23.9 701.1h975.8v1.8H23.9zM723.2 291.7H320.8V71h402.4v220.7zm-400.6-1.8h398.8V72.8H322.6v217.1z"/>
    <path d="M522 127.4a42.5 42.5 0 00-60.2 60.2l60.2 60.1 60.2-60.1a42.5 42.5 0 00-60.2-60.2z" fill="#FFF"/>
    <g transform="translate(117 81)">
      <ellipse fill="#5770BE" opacity=".1" cx="72" cy="423.5" rx="72" ry="11.5"/>
      <path d="M154.6 118.2l-.1-.2c-1.1-1.1-15.2-21-15.2-21s-.7-2.2-1.9-5a5 5 0 001-2.5v-.2c.3-1 .3-2 0-3l-.3.7-1.1-2.5c-1.9-3.2-4.5-6-6.5-9-3-4.9-4.2-10.6-3.3-16.3v.9c0-1.1.2-2.2.4-3.3a23 23 0 011.2-3.7c1.8-4 4.6-7.5 6.4-11.6a22 22 0 001.3-4.2c.6-2.4.8-5 .7-7.4l-.2 1.7a24 24 0 00-6.8-16 40 40 0 00-23-9.6c-3.6-.5-6.9-1.7-9.8-3.7C94.2.2 90.1-.3 86.4.2 82 .6 78 2.6 75 5.7 71.2 10 69.5 16.2 65 19.8c-2.8 2.2-6.3 3.3-9.6 4.8-3.2 1.5-6.3 3.7-7.4 7v-.2.4c-1 3.8 1 7.7 2 11.5 1.2 4 1.3 8.1 1.4 12.2a460.8 460.8 0 01-.2 21 31 31 0 00-5.1 2c-1.7 1-7.9 7.7-7.9 7.7L26 132.5l.2.2-.2.6.6-.1c1.7 1.8 6.9 7.1 12.4 10.4l.5 9s.6 9.2 9 13c.2 3 .8 16-2 21-1.9 3.7-2.8 7.8-2.6 12 0 0 1 7.7-.1 11.8-.7 2.7-.7 5.5-.2 8.2V314s-.6 26-2.8 33c-2.3 7-1.7 30.3-1.7 30.3s-1.4 27.7 3.5 33.2v1.1c-.1 2.1.3 4.3 2.1 5a31 31 0 019.5 7c1 1.1 6.3 4.2 13.4 3.4 4.4-.5 8.8-.7 13.2-.6 0 0 2.8-.5 1.9-4-.6-2.1-2.8-5.4-4.3-7.6l.8.2h1.4c1.9-.1 8.8 3 10 5.2 1.3 2.2 5.6 3.8 8.9 4.2a63.2 63.2 0 0017.2-1.8c1-.4 1.2-1.6.9-3a7.5 7.5 0 00-2.6-4.2c-1.2-.9-2.7-3.1-4-5l-.2-.5c2-2 5.8-8.4 6.9-9.7 1.4-1.6-2.2-60.8-2.2-60.8v-29.7l5.5-28 3.9-15 3.3-22.4s5.7-26.2 4-28.8c0 0-1.5-27-3-33.5-.7-2.9-.6-9.4-.2-15.7.9-.8 1.2-2.1.8-3.2l-.5-1.1v-.4a51 51 0 0110-3.4c5.5-1 4.1-3.9 4.1-3.9l2.1-3.9a85.3 85.3 0 00-.8-21.2c1.8-1.3 4.1-2.9 6.6-4.3 4.8-2.9 3.7-5.8 3.3-6.6zm-72 187.4s-4 10.5-2.4 13.2c1.6 2.7-.3 12.7-.3 12.7l-1.4 14.9s-3.8 27.6-2.5 34c1.1 5.1 1.5 20.3 1.7 26.6l-.3.2h-.2c.6-2.4.4-7.5-2.8-17.6l-.3-41.9s-.5-48.4 3.4-53.8c3.8-5.4 5.2-14.6 5.2-14.6s-.9 13.3-1.4 16.8c-.6 3.5 1.4 9.5 1.4 9.5zm-7.6 104c0 .2-.1.3-.2.3l-.2-.2h.4z" fill="url(#a)"/>
      <path d="M118 426.1c-2.2.8-13.9 2.2-17.1 1.8-3.3-.4-7.6-2-8.8-4.1-1.3-2.1-8.2-5.3-10-5.1-.8 0-1.5-.1-2.3-.3l-3.7-1.4a6.7 6.7 0 01.3-3.3 4.9 4.9 0 012.5-2.8l.2-.1 1.6-.5c5.9-1.1 30 1.1 30 1.1l1.7 2.7c1.2 1.8 2.7 4 4 4.9a7.5 7.5 0 012.5 4.3c.3 1.3 0 2.5-1 2.8z" fill="#FFF"/>
      <path d="M118 426.1c-2.2.8-13.9 2.2-17.1 1.8-3.3-.4-7.6-2-8.9-4.1-1.2-2.1-8-5.4-10-5.1-1.8.2-5.9-1.8-5.9-1.8s-.6-2.9 1.2-4.9l3.8 2.6s10 3 11.8 5.9c1.8 2.8 5.2 4.4 10 4.7a96 96 0 0016-1.9c.3 1.3 0 2.5-1 2.8z" fill="#000" opacity=".1"/>
      <path d="M82 430.2c-4.4 0-8.8.2-13.2.7-7 .8-12.3-2.3-13.2-3.6a31 31 0 00-9.4-7c-1.8-.8-2.3-3.1-2.2-5.3v-.3c0-1.4.3-2.7.6-4l29-.7 2.5 3.5.3.5 1.6 2a61.2 61.2 0 005.8 10.2c1 3.5-1.8 4-1.8 4z" fill="#FFF"/>
      <path d="M82 430.2a97 97 0 00-13.2.7c-7 .8-12.3-2.3-13.2-3.6-1-1.3-5.7-5.6-9.4-7.1-1.8-.7-2.3-3-2.2-5.2 2 .5 6.4 1.8 8.1 4 2.2 2.9 6.2 7.8 12 8 4.5.3 15.6-.5 19.7-.8.9 3.5-1.8 4-1.8 4z" fill="#000" opacity=".1"/>
      <path d="M79 410.7c-.3 2.5-1.3 3.2-2 3.4H76s-25.6 5.8-30.7 1c-.2 0-.3-.2-.4-.4 0-1.3.3-2.7.6-4L74 410l2.4 3.5a5 5 0 012.5-2.9zM112 414.1c-.6.6-1 1-1.4.9-1.3-.6-12.5-2.4-16-.8-3.6 1.6-15.5.2-15.5.2l-.1-3.6 1.6-.5c5.8-1 29.8 1.1 29.8 1.1l1.6 2.7z" fill="#000" opacity=".1"/>
      <path d="M128.7 247l-3.2 22.5-3.8 15-5.4 28.2v29.9s3.5 59.4 2.1 61c-1.3 1.6-6.5 10.9-7.8 10.3-1.4-.5-12.5-2.4-16-.8-3.5 1.6-15.5.3-15.5.3s-.3-23-1.6-29.6c-1.4-6.5 2.4-34.2 2.4-34.2l1.4-14.9s1.9-10 .2-12.8c-1.6-2.7 2.5-13.2 2.5-13.2s-2-6-1.4-9.5c.6-3.6 1.4-16.9 1.4-16.9s-1.4 9.3-5.1 14.7c-3.8 5.4-3.3 54-3.3 54l.3 42c6.7 22.3 0 20.1 0 20.1s-25.8 5.7-31 1.1c-5.2-4.6-3.7-33.7-3.7-33.7s-.5-23.3 1.6-30.4c2.2-7 2.9-33 2.9-33s-.2-52.2 0-55.7v-37.6-2.5l3-7.7 37-4.6h17.5s26.6 6.2 29.3 9h.2c1.7 2.7-4 29-4 29z" fill="#5770BE"/>
      <path d="M84 365s8.4 19.6 12.4 21c4 1.3-12.4-21-12.4-21zM87 394s27.3 1.3 27 4.3c-.3 3-27-4.3-27-4.3zM50 386c1 1 20.5 2.9 19 4.7-1.7 1.8-17.4 5.3-17.4 5.3L50 386zM47 353c0 .8 4 25.8 5 26.9 1.2 1 10 2.1 10 2.1l-15-29z" fill="#000" opacity=".1"/>
      <path d="M76.5 6.8C72.6 11 71 17.3 66.4 21c-2.8 2.2-6.3 3.3-9.5 4.8s-6.4 3.8-7.3 7.2c-1.1 3.9 1 7.8 2 11.7 1.2 4 1.2 8.1 1.3 12.3v15c0 8-.7 16.2-4.9 22.8a176.4 176.4 0 0056 5.9c2.6-.6 5.2-1.2 7.7-2 5-1.3 10.2-2 15.5-2 2.2 0 4.5.2 6.7-.4 2.2-.6 4.3-2.1 5-4.3.5-2-.3-4.1-1.3-5.9-1.9-3.2-4.5-5.9-6.4-9a25 25 0 01-1.6-22.6c1.7-4 4.5-7.6 6.2-11.7 3.6-8.9 1.7-19-5-26-5.9-6.2-14.5-8.6-22.7-9.8-3.4-.4-6.7-1.7-9.6-3.7-3.1-2.1-7.2-2.6-10.9-2.1-4.2.4-8.2 2.4-11 5.6z" fill="#3F3D56"/>
      <path d="M130 49.9a24 24 0 00-2 11.1c.2-2.7.9-5.4 2-8 1.7-4 4.5-7.4 6.2-11.4 1.4-3.4 2-7 1.7-10.6-.1 2.5-.7 5-1.7 7.4-1.7 4-4.5 7.5-6.3 11.5zM52.9 56.3a635.4 635.4 0 010-3.3c0-4.1-.1-8.3-1.4-12.3-.8-2.6-2-5.1-2.4-7.7-.7 3.6 1.4 7.3 2.4 11 1.3 3.9 1.3 8.1 1.4 12.3zM134 92.1c-2.3.6-4.5.5-6.8.4a60 60 0 00-15.5 2l-7.7 2a184.9 184.9 0 01-54.5-5.3L48 93.8a178.4 178.4 0 0056 5.7c2.6-.5 5.2-1.1 7.7-1.9a60 60 0 0115.4-2c2.3 0 4.6.2 6.8-.4 2.2-.6 4.3-2 5-4.2.2-1 .2-2.1-.1-3.1-.7 2-2.7 3.5-4.8 4.1z" fill="#000"/>
      <path d="M113 83.5c-.6 1.2-3 11.8-3.5 13-.5 1-3.5 18.4-3.8 19.4-.3 1-19.8-4.1-19.8-4.1L74 102 62 90s-.4-10.7 8.6-14.2l1.8-.6C83.2 72.6 82.1 40 82.1 40l22.2 9.5s-4 19-4 22.7c.1 1.3 1 2 2.3 2.5 2 .6 4 .8 6.1.7 0 0 4.8 6.9 4.3 8.1z" fill="#FBBEBE"/>
      <path d="M152.4 118.6l3.1.8s2.3 3.5-3.1 6.8a95 95 0 00-10 7L126 138l-3.1-9.7 15-11.3 14.4 1.6z" fill="#5770BE"/>
      <path d="M152.4 118.6l3.1.8s2.3 3.5-3.1 6.8a95 95 0 00-10 7L126 138l-3.1-9.7 15-11.3 14.4 1.6z" fill="#000" opacity=".1"/>
      <path d="M34.2 128.8L28 135s11.2 13.1 19.8 14c8.6.8 14.2-10 14.2-10l-7.5-12-20.3 1.8z" fill="#5770BE"/>
      <path d="M34.2 128.8L28 135s11.2 13.1 19.8 14c8.6.8 14.2-10 14.2-10l-7.5-12-20.3 1.8z" fill="#000" opacity=".1"/>
      <ellipse fill="#000" opacity=".1" cx="94" cy="39.5" rx="22" ry="21.5"/>
      <ellipse fill="#FBBEBE" cx="94" cy="37.5" rx="22" ry="21.5"/>
      <path d="M133 220.5a70 70 0 00-14.5 3.3c-8.1 2.7-71.6 0-72.5 0v-2.5l3.1-7.7L86 209h17.7s26.5 6.2 29.2 9l.2 2.5zM113 83.7c-.6 1.3-3 11.8-3.5 12.9-.5 1-3.5 18.3-3.8 19.3-.3 1-19.8-4-19.8-4L74 102 62 90.2s-.4-10.7 8.6-14.1l22 25 10-26.1c2 .6 4 .8 6.1.6 0 0 4.8 7 4.3 8.1z" fill="#000" opacity=".1"/>
      <path d="M92.2 101.3L69.6 75.4c-2.6-1.7-6-2-8.9-.6-5 2.1-11.3 4-13 5-1.6 1-7.7 7.8-7.7 7.8l18.3 47.7-8 31.4s1.1 16-2 21.9a24 24 0 00-2.6 12s1 7.8-.1 11.9c-.6 2.7-.7 5.5-.2 8.3 0 0 64.7 2.7 73 0 4.6-1.6 9.5-2.7 14.5-3.3 0 0-1.5-27.2-3-33.7-1.5-6.5 1.3-31.4 1.3-31.4l-1.8-26.6L140 98.4s-5.8-17.5-11.7-19.3c0 0-11-2.6-13.3-3.8-2.3-1.2-9-2.3-9-2.3l-3.7 1.2-10.1 27z" fill="#5770BE"/>
      <path d="M77 122l45.8 3.2a3 3 0 012.7 3l-5 73.2a3 3 0 01-3 2.8L71.5 201a3 3 0 01-2.7-3l5-73.2a3 3 0 013-2.8z" fill="#000" opacity=".1"/>
      <path d="M78.6 120.4l45.8 3.1a3 3 0 012.8 3.2l-5 73.1a3 3 0 01-3.2 2.7l-45.8-3a3 3 0 01-2.7-3.2l5-73.1a3 3 0 013.1-2.8z" fill="#3F3D56"/>
      <path fill="#FFF" d="M78.6 126.4l45 3-4.6 68-45-3z"/>
      <path fill="#000" opacity=".1" d="M82.8 144.2l36.8 2.6-.7 10.2-36.8-2.5zM112.4 187l5.9.5-.4 5.3-5.8-.4zM82.6 172.6l29.9 2-.4 5.3-29.8-2z"/>
      <path fill="#3F3D56" d="M87 124.8l31 2.1-.5 8.2-31.1-2.1z"/>
      <path fill="#000" opacity=".1" d="M87 124.8l31 2.1-.5 8.2-31.1-2.1zM94.7 219s-.3 40-10.7 63c0 0 12.6-30.3 12.6-31.5 0-1.2 7-14 5-17.7L94.8 219zM95.2 31.8a15 15 0 012.4-10.1 12.4 12.4 0 009.7 13.1c-.5-.4-.7-1.1-.5-1.8 1.6 1.7 2.7 3.8 4.4 5.3 1.8 1.5 4.3 2.4 6.3 1.3 2.8-1.5 2.8-5.4 2.1-8.4a39.3 39.3 0 00-9-17.3 12 12 0 00-9.6-4.8c-4.2-.3-8.6 0-12.4 2a32.8 32.8 0 00-5.9 4l-10.3 8.5c-1 .7-1.9 1.6-2.5 2.6-.5.9-.8 1.8-.8 2.8-.6 5.6 2.1 11 7 14a11 11 0 016.5-10.3c.7.5 1 1.3 1 2.1L86 31c.3-.7.8-1.3 1.4-1.7 1.4-.7 3 .1 4.2 1.2 1.2 1 2.3 2.3 3.8 2.5V27"/>
      <path d="M95.2 31.8a15 15 0 012.4-10.1c-.6 5.9 3.8 12 9.7 13.1-.5-.4-.7-1.1-.5-1.8 1.6 1.7 2.7 3.8 4.4 5.3 1.7 1.5 4.3 2.4 6.3 1.3 2.8-1.5 2.8-5.4 2.1-8.4a39.3 39.3 0 00-9-17.3c-1.5-1.6-3.2-3-5.2-3.9a23.6 23.6 0 00-16.8 1 33.2 33.2 0 00-5.9 4.1l-10.3 8.5c-1 .7-1.9 1.6-2.5 2.6-.5.9-.8 1.8-.8 2.8-.6 5.6 2.1 11 7 14a11 11 0 016.5-10.3c.7.5 1 1.3 1 2.1L86 31c.3-.8.8-1.4 1.4-1.8 1.4-.7 3 .1 4.2 1.2 1.2 1 2.3 2.3 3.8 2.5V27" fill="#3F3D56"/>
      <path d="M106 169c-1.9-.9-33.5 4-33.5 4s-5.2-1.5-17.8-3.5c-12.5-2-13.3-14.3-13.3-14.3L40 130.7l4.2-3.7 18.2 11.8s.3 6 0 7c-.2.8-.6 1.7-.6 2.3 0 .3.3.6.6.7l18 3s39-2.7 48.7 10.4c.8 1 1.4 2 1.7 3.2 2.4 9-23 4.5-24.8 3.7z" fill="#FBBEBE"/>
      <path d="M130 164.9l-2.4 1.1s-13.8-.4-21.6-3.2c-7.7-2.7-17.1-2.2-17.1-2.2S56.5 155 61.5 148c0 .3.3.6.6.6 1.3.4 18 3 18 3s38.5-2.6 48.1 10.1c.8 1 1.4 2 1.8 3.2z" fill="#000" opacity=".1"/>
      <path d="M143.6 122l2 14.7c.1 1.1.8 14.4 0 16l-2 4s1.3 2.8-4.1 4c-5.4 1-11.8 4.3-11.8 4.3s-13.9-.4-21.6-3.3c-7.7-2.9-17.2-2.3-17.2-2.3s-41.1-7.2-23.5-15.9a27 27 0 0130.1 3l19.7-1.1s7.3-4.6 9.4-4.2c1.4.2 2.9 0 4.2-.6l.1-14.5 14.7-4.1z" fill="#FBBEBE"/>
      <path d="M43.8 89.2l-4-.2L28 135.1s12.8-3.2 18.3 0A44.6 44.6 0 0062 139l-3.8-36.7-14.4-13.1z" fill="#000" opacity=".1"/>
      <path d="M43.8 88.2l-4-.2L28 134.1s12.8-3.2 18.3 0A44.6 44.6 0 0062 138l-3.8-36.7-14.4-13.1z" fill="#5770BE"/>
      <path d="M134.6 98l5.4 1.2s13.8 20.1 14.9 21.2c1 1.1-5.2 5.2-7.7 5.2-2.6 0-15.1 1.5-18.8 5-3.6 3.4-2-13.9-2-14.3 0-.4 4.4-11.3 4.4-11.3l3.8-7z" fill="#000" opacity=".1"/>
      <path d="M134.6 97l5.4 1.2s13.8 20.1 14.9 21.2c1 1.1-5.2 5.2-7.7 5.2-2.6 0-15.1 1.5-18.8 5-3.6 3.4-2-13.9-2-14.3 0-.4 4.5-11.3 4.5-11.3l3.7-7z" fill="#5770BE"/>
      <path d="M98 21.7V20a15 15 0 00-2.3 5.6v5.6h-.2v0c-1.5-.2-2.6-1.5-3.7-2.5-1-1-2.8-1.9-4.2-1.1-.7.4-1.2 1-1.5 1.7l-2.2 3.9c0-.8-.4-1.6-1-2.1A11 11 0 0076 41.4a15 15 0 01-7-11.8A14.8 14.8 0 0076 43a11 11 0 016.7-10.3c.7.5 1 1.3 1 2.1l2.3-3.9c.3-.7.8-1.3 1.5-1.7 1.3-.7 3 .1 4.2 1.2 1.2 1 2.3 2.3 3.9 2.5v-5.7c.4-2 1.1-3.8 2.3-5.5z" fill="#000"/>
      <path d="M95.3 29c0-.6.2-1.1.3-1.7V25c-.2 1.3-.3 2.7-.3 4zM117.6 37.9c-2 1-4.5.1-6.2-1.4-1.7-1.6-2.8-3.7-4.3-5.5-.2.7 0 1.4.5 1.9l-.5-.2c1.5 1.8 2.6 3.9 4.3 5.4 1.7 1.6 4.2 2.5 6.2 1.4s2.5-3.7 2.4-6.3c-.2 2-.8 3.8-2.4 4.7z" fill="#000"/>
      <path d="M107.5 33.2c-5.2-1.4-9-5.9-9.5-11.2-.4 6 4.1 11.9 10 13-.5-.4-.7-1.1-.5-1.8z" fill="#000"/>
    </g>
    <g transform="translate(390 339)">
      <path fill="#3F3D56" d="M89.3 227H88l3.8-69H170v1.3H93z"/>
      <path d="M.6 317l-.6-.2A87.8 87.8 0 0122.6 280l.4.4c-.2.2-15.8 14.3-22.4 36.6z" fill="#F2F2F2"/>
      <path d="M163 175c-14.5 0-27.2 15.3-34.2 38.2A144.2 144.2 0 00123 254c0 43.6 18 79 40 79s40-35.4 40-79-18-79-40-79zm0 156.7c-21.4 0-38.8-34.8-38.8-77.7a143.4 143.4 0 015.8-40.7c6.8-22.2 19-37 33-37 21.4 0 38.8 34.8 38.8 77.7 0 42.9-17.4 77.7-38.8 77.7z" fill="#3F3D56"/>
      <path d="M171 301c-7.9 0-14-20-14-45.5s6.1-45.5 14-45.5 14 20 14 45.5-6.1 45.5-14 45.5zm0-89.8c-6.9 0-12.7 20.3-12.7 44.3 0 24 5.8 44.3 12.7 44.3 6.9 0 12.7-20.3 12.7-44.3 0-24-5.8-44.3-12.7-44.3z" fill="#3F3D56"/>
      <ellipse fill="#CFCCE0" cx="173" cy="254.5" rx="5" ry="10.5"/>
      <path fill="#3F3D56" d="M161 112.3l87-.3v33.6l-87 3.4zM88.7 338L45 331.1l.3-1.1 43.7 6.9zM97.8 353.6l.1-1.3 53 4.4v1.3zM110 155v10h37v-9.3zM221 227c-.5 1.4-1 3-1.3 4.5l-1.3.1-40.6 4.4-92.8-9.1 96.6-4.9 38.2 4.8 1.2.2z"/>
      <path d="M133.4 146.9l-.5 59s-8.3 32.9 8.2 28.9c16.4-4 4.4-27.4 4.4-27.4l4-62-16.1 1.5z" fill="#FFB9B9"/>
      <path d="M152.8 154.8l6.9-36.2L175.2 96l.3-3.8-4.4-8.4 5.1-9.3-4.7-5.2s-3.9-3-7.9.4v-.2l-.5.7c-1 1-2 2.4-3 4.5l-18.7 28.6-13.7 44.4 25 7.1z" fill="#CFCCE0"/>
      <path d="M199.3 3.3S185.8-1.5 177 18C168.5 37.3 155 58.6 155 58.6l7.7 2s2-13.6 6.7-15.6l-1.9 17.5s57.7 20.4 83.7-2l-1-6.7s4 1 4 6.8l2.8-3s-2.9-5.8-11.5-13.5c-5.7-5.1-7.7-14.8-8.4-20.9-.5-5-2.5-9.8-5.7-13.7-5.8-6.7-16.3-13.9-32.1-6.2z" fill="#2F2E41"/>
      <path fill="#FFB9B9" d="M82.4 288L76 309l12 10 9-26.7zM129.1 303l-6.1 23 21.3 14s.7-26.2 3.7-31.3l-18.9-5.7z"/>
      <path d="M157.1 184.6l-3.1 6.2s-35.6-16.2-45 6.3c-9.4 22.4-30 93.4-30 93.4l18.1 7.5 33.2-75.4 75.6-1.9L209 179l-51.9 5.6z" fill="#2F2E41"/>
      <path d="M182 194.4s-51-10.6-54.7 15.1c-3.8 25.7 1.8 74.6 2.5 75.9.6 1.3-2.5 24.5-2.5 24.5l22.3 3.1s14.3-68.4 8.1-86l42-2.6a29 29 0 0027.3-27.1c.3-5.6-1.1-10.7-6-13.5-14.8-8.8-42.2-8.8-42.2-8.8l3.1 19.4zM81.6 310s-4.4-9.2-10.6-4.9c-6.2 4.4-20.4 13.6-20.4 13.6s-22 7.8-2.5 13c17.4 4.7 21.7 3.7 21.7 3.7s14.2 2.5 16.1 1.3c1.9-1.3 3.1-21 3.1-21s-8.7-1.9-7.4-5.6zM131.3 328.8s-6.3-8.6-10.7-4.9c-4.3 3.7-20 14-20 14s-26.2 7.4-3 14.1c23 6.7 48.6 5.5 49.3 3 .6-2.4-1.3-20.1-1.3-20.1s-13.1-.6-14.3-6.1z" fill="#2F2E41"/>
      <circle fill="#FFB9B9" cx="206.5" cy="43.5" r="22.5"/>
      <path d="M190.7 53s-1.2 25.8-7.3 27.7c-6.1 1.9-23.3 22.6-15.3 29 8 6.2 53.9 1.8 53.9 1.8l-4.3-32.7s-9.8-7-1.8-18.9L190.7 53z" fill="#FFB9B9"/>
      <path d="M189.2 95l-4.4-20.4-14.5-5.6-11.9 27.2s-13.5 88.2-9.7 89.4c2 .7 4.3 1 6.6 1 0 0 20-6.3 26.3-3.2 6.3 3.1 39 5.6 39 5.6s22.6-11.8 21.3-22.3c-1.2-10.5 0-69.2 0-69.2l-2.8-26.3-24.8 3.8-25.1 20z" fill="#CFCCE0"/>
      <path d="M178 45s7.7-10.3 14.4-12.2c6.7-1.9 7.7-11.3 7.7-11.3s17.3 18.8 28 19.7c10.5 1 .9-22.5.9-22.5L209.7 14l-18.3 1.9-14.4 9.4 1 19.7z" fill="#2F2E41"/>
      <path fill="#3F3D56" d="M249.8 188.9l-.7-25.7h-58l-1.9 68.8H188l1.9-70h60.5v.6l.6 26.2zM248.2 155H247v-47l20 5.8-.3 1.2-18.5-5.4z"/>
      <path d="M254 188c-14.5 0-27.2 15.3-34.2 38.2A144.2 144.2 0 00214 267c0 43.6 18 79 40 79s40-35.4 40-79-18-79-40-79zm0 156.7c-21.4 0-38.8-34.8-38.8-77.7a143.4 143.4 0 015.8-40.7c6.8-22.2 19-37 33-37 21.4 0 38.8 34.8 38.8 77.7 0 42.9-17.4 77.7-38.8 77.7z" fill="#3F3D56"/>
      <path d="M264 313c-7.9 0-14-20-14-45.5s6.1-45.5 14-45.5 14 20 14 45.5-6.1 45.5-14 45.5zm0-89.8c-6.9 0-12.7 20.3-12.7 44.3 0 24 5.8 44.3 12.7 44.3 6.9 0 12.7-20.3 12.7-44.3 0-24-5.8-44.3-12.7-44.3z" fill="#3F3D56"/>
      <ellipse fill="#CFCCE0" cx="265" cy="267.5" rx="5" ry="10.5"/>
      <path fill="#3F3D56" d="M257 107l13 5.5-2.5 7.5-10.5-4.8zM205 161v10h37v-9.3z"/>
      <circle fill="#D0CDE1" cx="165" cy="131" r="3"/>
      <path d="M238.2 158.4l-57.8-1s-32.3 7-28-8.4c4.3-15.6 27-3.6 27-3.6l60.6-2.2-1.8 15.2z" fill="#FFB9B9"/>
      <path d="M232 76l5.5-4.3s9-5 10.8 12.4c1.9 17.3 15.2 75 1.9 75.7-13.3.6-47.2 1.2-47.2 1.2l3.6-19.2 27.8-1.9L232 76z" fill="#CFCCE0"/>
      <path fill="#000" opacity=".1" d="M235 102l-2 35.4-28 5.6 25.5-10z"/>
    </g>
    <g transform="translate(249 121)">
      <path d="M79.1 21.8s2.1 2.4-1.5 7.1c-3.7 4.7-.7 15 6.2 15.2 7 .3 10.3 3.2 8.7 7-1.7 3.8-3.7 12.9 3.9 11.5 7.5-1.4 10 1.6 8.6 4-1.4 2.2 3.4-4.7 3.4-4.7s4.2 6.3 9.3 2c5.2-4.5 7.3-44.1-3.3-44.8-10.5-.7-35.3 2.7-35.3 2.7z" fill="#2F2E41"/>
      <path fill="#9F616A" d="M133 212.4l2.4 16.6H146l-3.5-19z"/>
      <path d="M147.6 219s14.4 13.1 10.8 14.3c-3.6 1.2-16.9 15.5-19.3 16.7-2.2 1.1-25.3 8.4-21.7 0 3.6-8.3 12-13 12-13l2.5-14.4 15.7-3.6z" fill="#F2F2F2"/>
      <path d="M147.6 219s14.4 13.1 10.8 14.3c-3.6 1.2-16.9 15.5-19.3 16.7-2.2 1.1-25.3 8.4-21.7 0 3.6-8.3 12-13 12-13l2.5-14.4 15.7-3.6z" fill="#000" opacity=".1"/>
      <path fill="#9F616A" d="M148 199.4l2.4 16.6H161l-3.5-19z"/>
      <path d="M102 154l15.7-52.6S91.4 77.2 109.3 70c18-7.3 22.7 29 22.7 29l-6 63h-23.9l-.1-8z" fill="#FFB8B8"/>
      <path d="M139 116s-31.3 40.2-26.5 46.1c4.8 6 13.2 42.4 13.2 42.4s-1.2 14.5 3.7 14.5c4.8 0 17-2.4 17-6 0-3.7-11-49.7-11-49.7L167 122l-28-6.1z" fill="#5770BE"/>
      <path d="M141.6 118l31.5-17s22 10.9 15.8 20.6c-6 9.6-34 35-34 35s8.5 41.2 7.3 42.4c-1.2 1.2-14.6 6-18.2 4.8-3.6-1.2-23-48.4-18.2-50.8 4.8-2.4 20.6-27.8 20.6-27.8l-4.8-7.3z" fill="#5770BE"/>
      <path d="M56 561.7s21.6 13.5 24 13.5c2.4 0 34.7 8.5 20.3 14.7-14.4 6-69.5-2.5-68.3-6.2 1.2-3.6 0-25.7 2.4-25.7a394 394 0 0121.6 3.7z" fill="#2F2E41"/>
      <path d="M80 578.7s21.6 13.5 24 13.5c2.4 0 34.7 8.5 20.3 14.7-14.4 6-69.5-2.5-68.3-6.2 1.2-3.6 0-25.7 2.4-25.7a394 394 0 0121.6 3.7z" fill="#2F2E41"/>
      <path d="M57.1 322.5s3.7 18.1 9.7 31.4c6.1 13.3-1.2 76.2-4.8 85.9-3.7 9.6-38.8 124.5-28 125.7 11 1.2 32.8 0 32.8 0l35.2-110L96 308 57 322.5z" fill="#575A88"/>
      <path d="M57.1 322.5s3.7 18.1 9.7 31.4c6.1 13.3-1.2 76.2-4.8 85.9-3.7 9.6-38.8 124.5-28 125.7 11 1.2 32.8 0 32.8 0l35.2-110L96 308 57 322.5z" fill="#000" opacity=".1"/>
      <path d="M64.2 323.6s4.8 32.6 15.6 39.9c10.9 7.2 7.2 14.4 7.2 14.4l-4.8 64S35.3 558 49.8 572.6c14.4 14.5 27.6 8.4 33.6 7.2 6-1.2 16.9-26.6 10.9-33.8-6-7.3 12-50.8 16.8-58 4.8-7.3 0-17 6-19.3 6-2.4 19.3-18.2 19.3-29 0-10.9 16.8-126.9 6-134.1-10.9-7.3-80.2 15-80.2 15l2 3z" fill="#575A88"/>
      <circle fill="#FFB8B8" cx="41.5" cy="127.5" r="26.5"/>
      <ellipse fill="#9F616A" cx="101.5" cy="31" rx="21.5" ry="22"/>
      <path d="M59.1 128s14.6 26.4 22 26.4c7.2 0-29.3 27.6-29.3 27.6s-12.2-34.8-14.6-36c-2.5-1.2 21.9-18 21.9-18z" fill="#FFB8B8"/>
      <path d="M64.7 152.3S33.4 163 34.6 166.8c1.2 3.6-8.4 12-8.4 15.7 0 3.6-2.5 36.2 12 62.8 14.5 26.6 37.4 46 26.5 58C54 315.5 37 336 55.1 336c18 0 47-26.6 73.5-17 26.5 9.7 20.5-26.5 20.5-26.5s3.6-27.8-3.6-36.3c-7.3-8.4-32.6-68.9-32.6-76.1 0-7.3-24-35.1-30.1-35.1-6 0-18 7.3-18 7.3z" fill="#8985A8"/>
      <path d="M108 44.4s10 19 10.4 22.3c.6 3.4 17.6-22.3 17.6-22.3L116.5 31 108 44.4z" fill="#9F616A"/>
      <path d="M111.7 58.9L132 37l24 11s22.5 49.7 23.9 53.4c1.4 3.6-35.9 20.6-39.5 20.6-3.6 0-28.8-37.6-28.8-37.6s-6-18.3 0-25.5z" fill="#F2F2F2"/>
      <path fill="#9F616A" d="M102 88v22h14l-4.6-22z"/>
      <path d="M110 104a9 9 0 00-8.6 5.7c-1 2.5-.6 5.1 4 6.2 9.6 2.4 10.8 0 10.8 0s16.9-2.3 13.3-7.1c-3.6-4.8-13.3-4.8-13.3-4.8H110z" fill="#9F616A"/>
      <path d="M161.6 209s14.4 13.1 10.8 14.3c-3.6 1.2-16.9 15.5-19.3 16.7-2.2 1.1-25.3 8.4-21.7 0 3.6-8.3 12-13 12-13l2.5-14.4 15.7-3.6z" fill="#F2F2F2"/>
      <path d="M31.8 107c1.7-1 3.7-2.3 3.7-4.2 0-1.5-1-2.7-2.4-3.2-1.3-.5-2.7-.7-4.1-.6-.6 0-1.1 0-1.7.2-1.3.4-2.1 1.8-3.2 2.8-1.6 1.3-3.7 1.8-5.7 2.3-3.4.9-6.7 2.2-9.7 4-.6.3-1.1.7-1.5 1.3-.5 1-.7 2-.6 3.1-.3 4.1-2.7 7.7-4.6 11.4-1.8 3.7-3 8.3-.9 11.8.9 1.1 1.7 2.2 2.4 3.4 1.6 3.2-.3 7.1.8 10.5a9.2 9.2 0 002.3 3.5c2 2.1 4.7 3.7 7.5 4.6 2.8.9 6.2 1.4 7.3 4.1.4 1.2.3 2.5 1 3.6.8 1.3 2.4 1.7 4 2 1.6.4 3.3.5 5 .3 1.8-.1 3.4-1 4.5-2.3.5-1 1-1.9 1.8-2.7 1.7-1.5 4.4-.3 6.6-.7a4.9 4.9 0 003.8-3.6c0-1 .3-1.9.8-2.7 1.4-1.8 5-.6 6-2.6.5-1.4-.7-2.8-2-3.7-1.9-1.3-4-2.4-5.8-4-1.8-1.7-3.1-4-2.6-6.4.9-3.6 5.4-5.5 5.6-9.1 0-2-1.4-3.9-3-5.1-1.7-1.3-3.6-2.1-5.1-3.6-1.1-1-2-2.4-3-3.3-2.2-1.7-5.1-2-7.8-2.2-1.5-.2-7.3-.8-7-3 .2-1.9 6.2-5.1 7.6-6z" fill="#2F2E41"/>
      <path d="M111.1 58s-13.4 4.8-13.4 10.8c0 6-6 25.2 0 25.2 6.1 0 18.3-4.6 18.3-4.6L111.1 58z" fill="#F2F2F2"/>
      <path d="M107.1 144.8s35.1-12 36.3-12c1.2 0 18.2-9.8 17-13.4L155.5 89s-19.3-40-6-40S170 80.5 170 80.5s29 54.6 13.3 66.8c-15.7 12.1-81 34-84.6 30.3-3.6-3.6 8.4-32.8 8.4-32.8z" fill="#FFB8B8"/>
      <path d="M141.6 66.5l8 8-10.4 10.3s-14.3-6.1-13.1-2.4c1.2 3.6 8.3 14.6 13.1 14.6C144 97 169 81.1 169 76.3c.1-5-15.4-22-19-23.2-3.6-1.2-8.4 13.4-8.4 13.4z" fill="#9F616A"/>
      <path d="M126 58.2S143.8 74 146.2 74c2.4 0 6.8-23.7 6.8-23.7s-14.3-9.4-19.6-6.9C128 46 126 58.2 126 58.2z" fill="#F2F2F2"/>
      <path d="M64 158.9s0-16.9 36.3-16.9H116l-7.3 39.8-24.1 7.2L64 158.9z" fill="#8985A8"/>
      <path d="M143 22.2c-3.6 0-7-.2-10.6-.7-2.7-6.6-6.2-12.2-10-14.3-2.7-2.4-6.9-4.1-10.1-5.5-8-3.4-21.3-1.3-22.1 2.6C74.5 11.8 78.4 25 78.4 25c2.5 5.2 8 2.9 12.6.5 1.2 3.8 4 7 8 7.1 7.7.3 11.4 3.5 9.6 7.7-1.9 4.3-4 14.3 4.3 12.8s11 1.8 9.5 4.4c-1.5 2.5 3.7-5.1 3.7-5.1s4.7 7 10.4 2c.6-.5 1-1.2 1.2-2 2.7 1.2 4.8 1.6 6 1 6.8-3 2.6-10.2 2.6-10.2s9.1-1.4 6.2-1.2c-3 .3-4.8-3.5.1-10.4 5-7-5-9.3-9.6-9.4z" fill="#2F2E41"/>
      <path fill="#5770BE" d="M93.2 15.8l3.5 1.1-3.5 10.4-3.4-1.2z"/>
    </g>
    <g transform="matrix(-1 0 0 1 804 254)">
      <path fill="#381E1D" d="M89 241h10v233H89z"/>
      <path d="M89 240.8s17-21.2 31 6.3c0 0-6.7 12.2-8.7 6.3-2-6-6.8-14.9-12.4-9.6" fill="#381E1D"/>
      <path d="M87 200s24.8 24.7 12.6 45.6c-.7 1.3-2 2.2-3.5 2.4-1.5.2-3-.4-4-1.4-4.3-4.2-11-14.7-19.1-40.6l14-6z" fill="#FDA57D"/>
      <path d="M69.7 70s25.6 8 20.7 39.3c-5 31.4-3 53.4-3 53.4l6.6 40L82.2 219s-20.4-20.7-27.3-41.7c-6.9-21-6.2-104 14.8-107.3z" fill="#000" opacity=".1"/>
      <path d="M69.7 69s25.6 8 20.7 39.3c-5 31.4-3 53.4-3 53.4l6.6 40L82.2 218s-20.4-20.7-27.3-41.7c-6.9-21-6.2-104 14.8-107.3z" fill="#5770BE"/>
      <path d="M39.2 425.5L35 457.7s10.8 4.5 14 3.5c3.3-1 9 3 9 3s24.1 7.9 28.8.9c4.8-7-6-9.2-14.7-14.4-8.7-5.3-12.4-25.7-12.4-25.7l-20.5.5z" fill="#000"/>
      <path d="M86 201v117.7L63.3 431H39.2l3.7-107.7s-25.1-87-14-119.6L86 201z" fill="#333"/>
      <path d="M66.9 215s34.6 5 37 29.5a5 5 0 01-1.4 4.1c-1.1 1-2.6 1.6-4.1 1.3-6-.8-17.5-5.3-39.4-21.4l7.9-13.5zM72 63.7s-5.7 9.6-3.3 26.3c0 0-33.7-2.8-32.7-22.2 0 0 16.4-4 20.3-18.8L72 63.7z" fill="#FDA57D"/>
      <path d="M16.2 432.5L12 464.7s10.8 4.5 14 3.5c3.3-1 9 3 9 3s24.1 7.9 28.8.9c4.8-7-6-9.2-14.7-14.4-8.7-5.3-12.4-25.7-12.4-25.7l-20.5.5z" fill="#000"/>
      <path d="M61 210v117.7L38.3 440H14.2l3.7-107.7s-25.1-87-14-119.6L61 210z" fill="#000" opacity=".1"/>
      <path d="M60 210v117.7L37.3 440H13.2l3.7-107.7s-25.1-87-14-119.6L60 210z" fill="#333"/>
      <path d="M47.5 70.2s-21-13.6-35 26.9S4 212.3 4 212.3s59.7 19.3 81-7.6v-40.2s11.3-45.8-4.7-85.7c0 0-14 5.7-33-8.6z" fill="#000" opacity=".1"/>
      <path d="M46.5 71.2s-21-13.6-35 26.9S3 213.3 3 213.3s59.7 19.3 81-7.6v-40.2s11.3-45.8-4.7-85.7c0 0-14 5.7-33-8.6z" fill="#000" opacity=".1"/>
      <path d="M46.5 70.2s-21-13.6-35 26.9S3 212.3 3 212.3s59.7 19.3 81-7.6v-40.2s11.3-45.8-4.7-85.7c0 0-14 5.7-33-8.6z" fill="#5770BE"/>
      <path d="M25.9 90s25.9 8 20.9 39.4-3 53.5-3 53.5L77 216.6 65 233s-47-14.4-54-35.4S4.7 93.3 25.9 90z" fill="#000" opacity=".1"/>
      <path d="M23.9 91s25.9 8 20.9 39.4-3 53.5-3 53.5L75 217.6 63 234s-47-14.4-54-35.4S2.7 94.3 23.9 91z" fill="#000" opacity=".1"/>
      <path d="M24.9 90s25.9 8 20.9 39.4-3 53.5-3 53.5L76 216.6 64 233s-47-14.4-54-35.4S3.7 93.3 24.9 90z" fill="#5770BE"/>
      <path d="M55.6 51L71 65.7l-.7 1.4c-2.2.6-4.5.9-6.9.9-5.9 0-11-3-15.4-6.3 3-2.9 5.7-5.6 7.6-10.7z" fill="#000" opacity=".1"/>
      <circle fill="#E0E0E0" cx="59" cy="27" r="27"/>
      <circle fill="#FDA57D" cx="64" cy="39" r="27"/>
      <path d="M37.3 27s-9.8 26.8 11 35c3.5-1.9 6-5.4 6.6-9.4.6-4-.7-8.2-3.5-11.1L37.4 27z" fill="#E0E0E0"/>
      <path d="M85.4 20.7s9.2 2.3-7 8a20.5 20.5 0 00-12 11A12.4 12.4 0 0149 45.5l-5.1-2.9-8.9-21L45.5 9.3 63.6 7l21.8 13.7z" fill="#E0E0E0"/>
      <ellipse fill="#FDA57D" cx="56.5" cy="48.5" rx="2.5" ry="4.5"/>
      <path d="M47 70s18.3 28 28.7 28c10.4 0-7.3-26.3-7.3-26.3L68 79l-21-9z" fill="#333"/>
    </g>
  </g>
</svg>
