<svg width="1000" height="800" xmlns="http://www.w3.org/2000/svg"><g transform="translate(0 88)" fill="none"><path d="M1000 431.6c.1-51.1-24.6-99.2-66.4-128.7A155.7 155.7 0 0 0 780 129.7c-26.3 0-52.1 6.7-75 19.7-60.4-39.8-139.3-63.8-225.6-63.8-140.5 0-261.3 63.7-314.9 155l-9-.2A155.7 155.7 0 0 0 1 397c-.1 30.6 8.7 60.6 25.4 86.2 0 78 73.5 141 164.2 141h657.7c71.3 0 129-49.5 129-110.7 15-24.7 22.9-53 22.8-82z" fill="#5770BE" opacity=".1"/><path d="M724.5 143.3a153 153 0 0 0-19.3 9.3c-2.8 1.6-5.5 3.5-8.3 5-3.1 1.6-6.4 2.9-9.6 4.2-9 3.7-17.7 8-26 12.8.6-9.4-.7-19.6-6.3-27l-2.8-3c-4-3.7-9.6-4.6-13.5-7.8 2.4-4.2 7.6-8 11.2-11.2a175 175 0 0 1 38.6-25.8c6-3 12-5.5 18.6-6.4a4 4 0 0 1 2.5.2c1 .6 1.3 1.8 1.6 3 1.2 5.6 1.8 11.4 2.8 17a73 73 0 0 0 5.8 18.6l4.7 11.1z" fill="#FBBEBE"/><path d="M537.6 302.5a55 55 0 1 1-110 0 55 55 0 0 1 110 0z" fill="#BE6F72"/><path d="M462.9 351c3 5.1 5.9 10.2 7.8 15.8a29.7 29.7 0 0 1 1 17.3c18.8-10 41-9.1 61.7-14.1.6 0 1-.3 1.4-.8.3-.5.3-1.2 0-1.8a151 151 0 0 1-4.9-49l-10.7 6.3c-4.8 3-9.6 5.5-14.7 7.9-7 3-14.6 5-22 7.1-6 1.8-17.6 4-21.3 9.2.6.6 1.2 1.3 1.7 2.1z" fill="#BE6F72"/><path d="M432.6 277c-3.6 1.5-7.8 3.1-11.1 1.1-2.4-1.5-3.4-4.6-3.3-7.4.2-2.8 1.2-5.5 2.1-8.2 1.8-5.6 2.7-11.4 4.6-17a25 25 0 0 1 10.2-13.7c9.3-5.4 21.3-1 31.7-4 4.3-1.2 8.1-3.7 12.2-5.7 4-2 8.6-3.5 13-2.4 5.1 1.2 9 5.5 13.7 7.7 5.2 2.4 11.5 2.2 16.3 5.5a25 25 0 0 1 7.4 9.6c6 11.6 10.8 23.9 14.3 36.6 1.3 4.5 2.1 9.2 2.3 14 0 6-1.6 12-3.2 17.8l-2.6 9.2c-1 3.5-2 7-3.8 10.2a14 14 0 0 1-8.2 6.7 10 10 0 0 1-11.4-5.1c-1.1-2.5-1-5.4-1.1-8.2-.1-5.5-.7-11-1.8-16.3-.5-2.6-1.3-5.4-3-7.5-2.4-2.6-6.2-3.5-9.7-3.5-4 0-8.6 1-11 4.4-1.9 2.6-2.2 6.4-4.7 8.5a8 8 0 0 1-4 1.5 13 13 0 0 1-13.6-8.2c-.9-2.3-1.2-5.2-3.4-6.3-1.2-.5-2.5-.4-3.7-.8-3.8-1.1-4.7-5.8-5-9.7-.5-4.5 1-13.5-4.6-13.8-6-.3-13 3.2-18.6 5zm13.2 59.7c-2 1-4.1 2-4.9 4-.3.8-.3 1.7-.6 2.5-1.2 3.5-6 4.2-8.5 7a11.2 11.2 0 0 0-2.2 5c-1.6 7-1.1 14.4 1.6 21.1.7 2.2 2 4.1 3.4 5.8 4.5 4.5 12.1 4.4 17.7 1.3 5.5-3 9.3-8.4 12.5-14 1.8-2.7 3.2-5.6 4.3-8.7 1-3 1.7-6.2 2.2-9.5 1.9-12.6 4.4-26.5 3.6-39.3-2.7-.1-7.7-.3-10 1.3-2.9 2-2 6.2-3.1 9.2-2.5 7.3-9.7 11.1-16 14.3z" fill="#3F3D56"/><path d="M448 338.3c-3.2.3-9.1-3.4-12.4-3.2-2.2-3.9-4.2-8-6-12.1 1.8-2.5 4.7-3.1 9 0a38 38 0 0 1 9.4 15.3z" fill="#3F3D56"/><path d="M497.4 200.4c-3.5 1.8-5.7 2-7.5 1.5-1.8-.3-5.2 1.4-5.2 1.4-30.8 10.6-32 15.5-32 15.5l35.6-12.6c6.9-3 7-2 7-2 5.2 5 11.9 1.7 11.9 1.7s9.2-4.4 6.5-8.6c-2.7-4.2-12.7 1.2-16.3 3zm14.9-.8s-2.7 7-12 5.8c0 0-4.7-.7-2.8-4.1 0 0 9.6-4 12.2-3.8 2.5.3 2.5 2.1 2.5 2.1z" fill="#E8E8F0"/><path d="M497.4 200.4c-3.5 1.8-5.7 2-7.5 1.5-1.8-.3-5.2 1.4-5.2 1.4-30.8 10.6-32 15.5-32 15.5l35.6-12.6c6.9-3 7-2 7-2 5.2 5 11.9 1.7 11.9 1.7s9.2-4.4 6.5-8.6c-2.7-4.2-12.7 1.2-16.3 3zm14.9-.8s-2.7 7-12 5.8c0 0-4.7-.7-2.8-4.1 0 0 9.6-4 12.2-3.8 2.5.3 2.5 2.1 2.5 2.1z" fill="#000" opacity=".1"/><path d="M499.4 180.9c-5.4.2-6.5 4.1-6.5 4.1a7.7 7.7 0 0 0-.5 9.2l-9.4 9.4c-1.8.7-3.4 2-4.4 3.5 0 0-20.8 18.4-20.5 20 0 0 3.4 1.8 24.9-17.8l5.6-5s1.3-9.3 10-11.1c0 0 1 .4 1.4-1.7.5-1 1.2-1.9 2-2.7 1.1-1 2.7-8.1-2.6-8zm1.5 6.3s-2.9 7.4-7 5.2c-4-2 0-7 0-7 7-6.9 7 1.8 7 1.8z" fill="#E8E8F0"/><circle fill="#000" opacity=".1" cx="483.2" cy="206.2" r="1.1"/><path d="M581.7 170.6a74.4 74.4 0 0 0-10.2-4.5 68 68 0 0 0-14.3-2.4 577.5 577.5 0 0 0-46-2.6c-2.7 0-5.5 0-8 1-2.4.8-4.5 2.2-6.2 4-3 2.8-5.4 6.2-7 10-.5 1-.6 2.1-.4 3.2.3 1 1.7 1.7 2.5 1a13 13 0 0 0-4.2 14 8 8 0 0 0-4.3 6.5c6.4 1.2 12.9.9 19.1-1-1.8-.4-3.8 1.3-3.9 3.2 0 2 1.2 3.8 3 4.6 1.7.8 3.6 1.2 5.5 1.1 7.4 0 14.6-2.5 22-2.8 5.6-.3 11.4.8 16.8-.9 6.2-2 11.8-7.4 18.3-6.3 5.1 1 8.5 5.7 11.8 9.7 5.4 6.4 12 11.6 18.6 16.7 5 4 10.4 8 16.6 9.3 2 .6 3.9.5 5.7-.2 1.5-.8 2.8-2 3.7-3.5 6.8-9.6 6.8-21.7 6.4-33-.2-5.7-1.4-6.5-6.8-8.9a978.8 978.8 0 0 1-38.7-18.2z" fill="#FBBEBE"/><path d="M652.5 192.1c-1 .6-2.1 1.2-3.3 1.6-1.9.4-3.8-.4-5.7-1-7.9-2.6-16.6-2-24.2-5.3a55 55 0 0 1-9 41c-1.6 2.2-3.7 4.5-6.4 4.6 1.2 3.8 5 6 8.5 7.7A91.2 91.2 0 0 0 630 247c1.8.5 4 .7 5-.8.5-.9.8-2.4 1.9-2.3 1.6 1.7 1 5.3 3.3 6 .8.2 1.5.2 2.2 0l5-.8c1.6-.1 3-.6 4.3-1.5.8-.7 1.5-1.5 2-2.5a74 74 0 0 0 8.7-31.9c.4-5.4 1-11.3.6-16.8-.4-4.7-6.4-6.1-10.5-4.2z" fill="#E8E8F0"/><path d="M652.5 192.1c-1 .6-2.1 1.2-3.3 1.6-1.9.4-3.8-.4-5.7-1-7.9-2.6-16.6-2-24.2-5.3a55 55 0 0 1-9 41c-1.6 2.2-3.7 4.5-6.4 4.6 1.2 3.8 5 6 8.5 7.7A91.2 91.2 0 0 0 630 247c1.8.5 4 .7 5-.8.5-.9.8-2.4 1.9-2.3 1.6 1.7 1 5.3 3.3 6 .8.2 1.5.2 2.2 0l5-.8c1.6-.1 3-.6 4.3-1.5.8-.7 1.5-1.5 2-2.5a74 74 0 0 0 8.7-31.9c.4-5.4 1-11.3.6-16.8-.4-4.7-6.4-6.1-10.5-4.2z" fill="#000" opacity=".1"/><path d="M359.7 475.4c-2.5-3.2-5-6.6-8.7-8.3a24 24 0 0 0-6.7-1.6c-12.2-1.7-24.6-3.6-37-3.9-4-.1-8.4 0-11.7 2.4-3.7 2.7-5.2 7.6-5.4 12.3-.5 11.2 4.5 22 13.4 28.8 7.4 5.7 16.8 8 26 9.9 4.7 1 9.6 1.9 14.4 2.6 4.9.8 9.8 1.4 14.5 2.9 10 3.2 18.9 10.4 29.4 11 .5.1 1 0 1.5-.2.4-.4.7-.9.8-1.5 2.3-8.1 10.4-27.7 0-33.4-5.4-3-11.4-3.1-16.7-7-5.3-3.7-9.8-8.8-13.8-14zm-88.3 54.2c-6.8-6-16.2-9-21.1-16.6-2.2-3.3-3.3-7.2-4.4-11l-3.2-11.6a6 6 0 0 1-.3-2.2c.2-2.4 3-3.5 5.5-3.9 12.2-2 25 3 34 11.4a68 68 0 0 1 18.6 31.7c.2.6.2 1.3 0 1.9a3 3 0 0 1-1.3 1.3c-4.4 2.6-10.3 6.4-15.5 7.2-5.2.8-8.6-5-12.3-8.2z" fill="#BE6F72"/><path d="m570 479.8 35.7 14.4c7 2.8 11 10.3 9.2 17.7l-26.6 112h-66.6l11.5-127.5s25.4-21 36.7-16.6z" fill="#3F3D56"/><path d="M604.5 466.4c-.6 1.4-1.6 2.9-1.5 4.4.1 1 .6 1.9.5 2.8-.1 1.8-2.2 2.9-4 2.9-1.9 0-3.7-.6-5.6-.3-3 .5-5 3.3-7.5 4.8-3.6 2.2-8 2.1-12.2 2.5-8.8.8-17 4-25 7.8-5.3 2.5-11 5.8-13 11.3-3 7.9 2.7 16.2 4 24.5.3 2.8.4 5.6.2 8.4-1 29.4-2.5 59-4.2 88.4l-320.1.4 15.8-27.6c15.3-27 31.1-54.4 54.3-75 3.4-3.1 7.3-5.7 11.5-7.7l18.6 16.6c1.5 1.4 3.2 2.7 5 3.6 3.6 1.4 7.5.6 11.2.7 7.2.2 13.8 3.9 20 7.5 4.7 2.5 9 5.3 13.3 8.4 2.4 1.9 6 3 8.6 4.8l-.6-31.4c-.1-2.8-.1-5.7.7-8.4 1.6-5.2 6.3-9 8.6-14 1-2.2 1.5-4.6 2.4-7 1.2-2.9 2.7-5.7 4.4-8.4l11.6-18.6c2.9-4.6 5.8-9.2 8.9-13.6 13.6-19.4 31.9-35 49.7-50.5-.4-4.5.6-9 2.9-12.7 1-1.3 1.7-2.7 2.3-4.1.3-1.7.4-3.5.3-5.3v-1.3c.2-2.9 1.4-5.6 3.4-7.6 2-2.1 4.7-3.4 7.4-4.6a244 244 0 0 1 43.3-14.7 14 14 0 0 1 7.2-.4c.7 2.3 3 3.1 5.5 3.7l1.5.3c4.1 1 8 2.8 11.2 5.5 3.3 3 5.7 6.9 8 10.8 17 29.2 24.8 67.5 51 88.7 1.3 1 1 3 .4 4.4z" fill="#5770BE"/><path d="M711.8 107.8c-9.2 20.2-27.4 40.2-51 40.2-2 0-4-.1-5.8-.3-.9-1.1-1.8-2.1-2.8-3-4-3.7-9.6-4.7-13.5-8 2.4-4 7.7-7.9 11.3-11a175 175 0 0 1 38.5-26c6-2.8 12.1-5.4 18.6-6.3a4 4 0 0 1 2.5.2c1 .6 1.4 1.9 1.6 3 1.2 5.6-.4 5.5.6 11.2z" fill="#000" opacity=".1"/><circle fill="#FBBEBE" cx="660.8" cy="87.7" r="58.5"/><path d="M782.6 282.3a106.3 106.3 0 0 1-8 28c-6.5 13.8-10 28.7-11.8 43.8l-.6 3.6c-1.3 4.9-4 9.2-6.1 13.8-2.1 5-3.9 10.1-5.2 15.3a8.5 8.5 0 0 0-.5 4.2c.3 1.4 1.4 2.6 2.1 4 3.9 6.6-.6 14.8-2.1 22.3-.5 2.6-.7 5.5-2.4 7.5a12.5 12.5 0 0 1-5.9 3.3 661.4 661.4 0 0 1-93.4 24.3c-4.7 1-9.6 1.7-14.3.8-4.7-.8-9.3-3.7-11-8.2-.9-2.7-.7-5.5-.6-8.3.1-5.8 0-11.7-.4-17.6-1-19.3-3.3-38.7 1.8-57.3 1.5-5.4 3.6-10.7 5.3-16.1 3.4-10.6 4.3-21.5 5-32.4.8-9 1.5-18 3.5-27 1.5-6.6.5-13.5.4-20.3a76.5 76.5 0 0 1 13-43.6c1.6-2.3 3.3-4.5 4-7 1.2-3.7.4-7.6-.1-11.4a80.1 80.1 0 0 1 1.5-29.1c.7-3.6 2.1-7 4-10 2.2-3.2 5.3-5.6 8.5-7.9a221 221 0 0 1 59.2-30.3c2 5 3.8 10.7 5.3 15.7.2.7.3 1.5-.2 2-.6.4-1.1.2-1.8.2-1.2.1-2.3 1-2.7 2.3-.3 1.3-.1 2.6.4 3.7 1.2 3 3.7 5.4 6.2 7.5L748 169c1.5 1.4 3 2.6 4.8 3.7 1.6.9 3.2 1.5 4.8 2.3a29 29 0 0 1 13.4 16.3c2.4 6.7 1.3 14.8 4.5 21.2 10.7 21.3 10.7 46.4 7 69.9z" fill="#E8E8F0"/><path d="M774.5 504.4c3.7 15.1 3.6 31-.3 46.1-.7 2.7-1.5 5.5-1 8.2.4 1.6 1.1 3 1.3 4.6 0 1.5 0 3-.5 4.3a193.8 193.8 0 0 0-.9 56.1c-.7 0-.9.3-1.6.3h-16.8c-.3-4.9-6.4-8.6-9.4-12.5a32.4 32.4 0 0 1-5.6-27.2c2.7-10.5 10.4-18.9 14.3-28.9 4.4-11 4-23.5 8.7-34.4 2.6-6.3 7.6-11.2 11.8-16.6z" fill="#3F3D56"/><path d="M774.5 504.4c3.7 15.1 3.6 31-.3 46.1-.7 2.7-1.5 5.5-1 8.2.4 1.6 1.1 3 1.3 4.6 0 1.5 0 3-.5 4.3a193.8 193.8 0 0 0-.9 56.1c-.7 0-.9.3-1.6.3h-16.8c-.3-4.9-6.4-8.6-9.4-12.5a32.4 32.4 0 0 1-5.6-27.2c2.7-10.5 10.4-18.9 14.3-28.9 4.4-11 4-23.5 8.7-34.4 2.6-6.3 7.6-11.2 11.8-16.6z" fill="#000" opacity=".1"/><path d="M739.2 420.3c-14.3-2.3-28.2 5-42 9.3-21.1 6.7-44.4 7-63.9 17.6-1.7.8-3.3 2-4.6 3.3-1.6 2-2.6 4.4-3 6.9-.8 5.5.3 11.2 3.1 16 1.2 2 2.8 4 3.7 6.2 2.2 5.2.7 11.2.4 17-1 12.8 4 25.2 5 38 .6 7.5-.1 15.3 1.6 22.6 1.1 4.6 3.2 9 4.1 13.6.9 4.7.5 9.3.8 13.9.8 13.2 6.8 26 5.3 39.2l113.6.4c-4.2-14.7-7.7-29.8-4-44.6 1.4-4.7 3-9.2 5-13.7 6.4-15.3 12.9-30.7 16.4-47a86.8 86.8 0 0 0-2.1-49c-6.6-17.3-20.7-31.7-23.7-50-5.3-.6-10.5 1.1-15.7.3zM620 59.1c-1-2.3-4.2-3.8-6.3-2.3-2.1 1.4-1.8 4.7-2.3 7.3-1 5.2-6.2 8.7-11.4 9.5-2.5.4-5.2.2-7-1.4a9.9 9.9 0 0 1-2.7-4.2 46.8 46.8 0 0 1 13.2-49.7c7.2-5.2 16.9-5.2 25.8-5 1.8.3 3.7 0 5.4-.5 1.3-.7 2.5-1.6 3.5-2.7a44.7 44.7 0 0 1 31.5-10c11.3.5 22.1 4.3 32.2 9.5 4.7 2.4 9.4 5.2 13.2 9.1 9 9.3 11.2 23 13 35.9 1.9 13.8 3.8 28 .6 41.6-1.8 7.7-5.3 15.2-4.8 23.2-7.3 2-14.7 3.7-22.1 4.8-3.5.6-7.6 1-10.1-1.6a10 10 0 0 1-2.3-4c-2.8-8.2-1.9-17.6-6-25.1A21 21 0 0 0 666 82.8c-2.8 0-5.9.6-7.3 3a18 18 0 0 0-1.2 3.5c-2 5.9-9.9 8.8-15.1 5.5-2.6-1.6-4.4-4.3-6.8-6.4-3-2.6-6.9-3.9-10.2-6-11.3-7-1.1-14.1-5.5-23.3zm-87.6 297.6c-4.8 1.5-9.1 4.3-13.8 6.2-8.1 3.4-17.1 4.2-25.7 6.4-8.3 2.2-16.2 5.4-23.7 9.6l-3.7 2.7v-1.3c.2-2.9 1.4-5.6 3.4-7.7 2-2 4.8-3.4 7.5-4.6a244 244 0 0 1 43.3-14.6 14 14 0 0 1 7.2-.4c.7 2.3 3.1 3.1 5.5 3.7z" fill="#3F3D56"/><path d="M408.6 580.7c9.4 10.4 17.8 21.9 28.8 30.7-12.7-16.7-30.8-28-47.1-40.6-3.3-2.5-10-6.2-12-9.9-3.2-5.8 3.8-1.7 6.7 0a91 91 0 0 1 23.6 19.8zm338.1-306a129.5 129.5 0 0 1-15.8 36c-3.6 5.4-8 10.2-11.7 15.4-3.9 5.5-7.5 11.3-10.7 17.2-6 10.6-11.8 21.2-17.4 32-2.7 5-5.4 10.3-8.9 14.9a103 103 0 0 1-7.8 9c-6.2 6.4-12.4 12.3-17.9 19.3-2.7 3.5-7.2 4.9-11.4 6-1.5.5-3 .8-4.4.8a15 15 0 0 1-4.4-1c-4.7-1.4-9.3-3.1-13.8-5.2-1-19.3-3.3-38.7 1.8-57.3 1.5-5.4 3.6-10.7 5.3-16.1 3.4-10.5 4.2-21.4 5-32.4l3.3-6.5c7.3-14.4 13.4-30.2 11.5-46.2a33 33 0 0 1 .8-19.3 58.3 58.3 0 0 1 33.2-35.8c2.5-1.2 5.1-1.8 7.9-1.8 3.5.2 6.8 2 10.2 1.4a65.5 65.5 0 0 1 27.9 24.2c7 10.5 7.3 24.5 15 34.6 2.2 3 2.8 7 2.3 10.8z" fill="#000" opacity=".1"/><path fill="#000" d="m494.2 227.3-.4-.7-14.2 6.5-2.4 1.1-2.4 1.1 20.1 43.7 2.4-1.1 2.4-1.1 14.3-6.6-.4-.8-14.3 6.6-.3-.8 14.2-6.6-.3-.8-14.3 6.6-.4-.8 14.3-6.6-.4-.8-14.2 6.6-.4-.8 14.3-6.6-.4-.8-14.3 6.6-.3-.8 14.2-6.6-.3-.8-14.3 6.6-.4-.8 14.3-6.6-.4-.8-14.2 6.6-.4-.8 14.3-6.5-.4-.8-14.3 6.5-.3-.7 14.2-6.6-.3-.8-14.3 6.6-.4-.8 14.3-6.6-.4-.8-14.2 6.6-.4-.8 14.3-6.6-.4-.8-14.3 6.6-.3-.8 14.2-6.6-.3-.8-14.3 6.6-.4-.8 14.3-6.6-.4-.8-14.2 6.6-.4-.8 14.3-6.6-.4-.8-14.3 6.6-.3-.8 14.2-6.5-.3-.8-14.3 6.5-.4-.7 14.3-6.6-.4-.8-14.2 6.6-.4-.8 14.3-6.6-.4-.8-14.3 6.6-.3-.8 14.3-6.6-.4-.8-14.3 6.6-.4-.8 14.3-6.6-.3-.8-14.3 6.6-.4-.8 14.3-6.6-.4-.8-14.3 6.6-.3-.8L500 240l-.4-.8-14.3 6.6-.4-.8 14.3-6.6-.3-.7-14.3 6.5-.4-.8 14.3-6.5-.4-.8-14.3 6.6-.3-.8 14.3-6.6-.4-.8-14.3 6.6-.3-.8 14.2-6.6-.3-.8-14.3 6.6-.4-.8 14.3-6.6-.4-.8-14.2 6.6-.4-.8 14.3-6.6-.4-.8-14.3 6.6-.3-.8 14.2-6.6-.3-.8-14.3 6.6-.4-.8z"/><path d="M539 323.3a14 14 0 0 1-8.2 6.7 10 10 0 0 1-11.3-5.1c-1.2-2.5-1.1-5.4-1.2-8.2 0-5.5-.7-11-1.7-16.3-.6-2.7-1.3-5.4-3.1-7.5-2.4-2.6-6.1-3.5-9.6-3.5-4.1 0-8.6 1-11 4.3-1.9 2.7-2.2 6.5-4.8 8.6a8 8 0 0 1-3.9 1.5 13 13 0 0 1-13.7-8.2c-.8-2.3-1.2-5.2-3.4-6.3-1.1-.5-2.5-.4-3.7-.8-3.7-1.1-4.7-5.8-5-9.7-.4-4.5 1-13.5-4.5-13.8-6-.3-13 3.2-18.6 5-3.6 1.5-7.8 3.1-11.1 1.1-2.4-1.5-3.4-4.6-3.3-7.4.2-2.9 1.2-5.5 2.1-8.3 1.5-4.5 2.3-9.3 3.7-14l-1.7 4.1c-2 5.5-2.8 11.4-4.6 16.9-.9 2.7-2 5.4-2.1 8.2-.2 2.9.9 6 3.3 7.5 3.2 2 7.5.3 11-1.1 5.6-1.9 12.6-5.4 18.6-5 5.7.3 4.2 9.2 4.6 13.7.3 4 1.3 8.6 5 9.8 1.2.3 2.6.2 3.7.8 2.2 1 2.6 4 3.4 6.2a13 13 0 0 0 13.7 8.3 8 8 0 0 0 3.9-1.6c2.5-2 2.9-5.8 4.8-8.5 2.4-3.3 6.9-4.4 11-4.4 3.4 0 7.2 1 9.5 3.6 1.9 2 2.6 4.8 3.1 7.5 1.1 5.3 1.7 10.8 1.8 16.2 0 2.8 0 5.7 1.2 8.2 1.9 4.1 7 6.3 11.3 5.2 3.5-1 6.3-3.6 8.2-6.8a35 35 0 0 0 3.2-8l-.6 1z" fill="#000" opacity=".1"/><path d="M584 317.5c-7-6.7-13.4-14.1-19.6-21.5-6-7.1-12-14.2-17-22.2-3-4.9-5.6-10.2-10.2-13.6-3.5-2.7-7.8-3.9-11.6-5.9-2.8-1.4-5.3-3.3-8-4.7-6-3.3-12.8-4.9-19.6-4.6-2.8 0-6 .7-7.5 3.1l-1.2 2.7c-1.6 2.6-5.3 3.3-6.6 6-2.2 4.7 4.3 9 4.7 14 .2 2.6-1.2 5-1.6 7.5-.7 4.4 1.6 8.5 3.8 12.3 4.6 8.2 10.3 17.1 19.5 19.2 3.3.7 6.7.5 9.9 1.5 2.5 1 4.9 2.4 7 4.2 8.6 6.8 16.2 14.8 22.5 23.7 3 4.2 5.6 8.5 8.6 12.7 9.5 13 22 23.8 36.3 31.2l10.7-34c1.7-5.3 3-12.5-1.7-16.6-5.9-5.3-12.7-9.5-18.5-15z" fill="#FBBEBE"/><path d="M700.6 200.7c-3.4.7-6.8-1.1-10.3-1.3-2.7 0-5.4.6-7.8 1.7a58.3 58.3 0 0 0-33.2 35.8c-1.2 3.4-1.8 7-1.8 10.6 0 3 .7 5.8 1 8.8 2 16-4.2 31.8-11.5 46.2-4 8-8.6 16.4-7.6 25.3.1 1.1.3 2.5-.4 3.4-.9 1.2-2.8 1.3-3.6 2.5-.8 1.2 0 3-.7 4.4-.9 2-3.7 1.7-5.8 1a46.3 46.3 0 0 1-15.2-8.6c-7.2 4.2-15 9.2-17.4 17.3-.5 2-1 4.2-1.1 6.3l-3.8 31.2c-.5 4.2-.7 9 2.4 11.8 5.4 4.8 15-1.4 20.7 2.9 1.5 1.1 2.5 2.7 3.5 4.2 6.3 8.7 17.2 12.5 27.3 15.8 1.4.5 3 .8 4.4 1 1.5-.1 3-.4 4.4-.9 4.2-1.2 8.7-2.5 11.4-6 5.5-7 11.8-13 17.9-19.4 2.8-2.8 5.4-5.8 7.8-9 3.5-4.6 6.2-9.7 8.9-14.9 5.6-10.7 11.4-21.3 17.4-31.9 3.3-6 6.9-11.6 10.8-17.1 3.8-5.3 8.1-10 11.7-15.4a134 134 0 0 0 15.8-36 15 15 0 0 0-2.4-10.8c-7.6-10.1-8-24.1-15-34.6a65.4 65.4 0 0 0-27.8-24.3z" fill="#E8E8F0"/><path d="M494.4 231c-.4.2-.7.6-.7 1.1 0 .4.3.8.5 1.2.6 1-.3 2.4-1.3 3.2-1 .7-2.1 1.3-2.7 2.4v.5c0 .3.1.5.3.6.6.7 1.3 1.2 2.2 1.4 1.3.3 2.6-.6 3.7-1.3 1.3-.8 2.6-1.4 4-2 .4 0 .8-.2 1.1-.5.5-.4.7-1 .8-1.6.3-2.2-.9-4.3-2.2-6.1-1.6-2.2-4.3-.2-5.7 1zM270 443.6l90.3 46c.7.4 1 1.4.6 2.1l-22.9 45c-.4.7-1.3 1-2 .6l-90.4-46c-.7-.5-1-1.4-.6-2.1l22.9-45c.4-.7 1.3-1 2-.6z" fill="#3F3D56"/><path fill="#E8E8F0" d="m273.9 451 78.2 40-19.8 38.8-78.3-40z"/><ellipse fill="#E6E8EC" transform="rotate(-63 261 469)" cx="261" cy="468.9" rx="1" ry="1.4"/><ellipse fill="#E6E8EC" transform="rotate(-63 345.7 512.3)" cx="345.7" cy="512.3" rx="1.6" ry="2.4"/><path d="M728.7 90c-1.8 7.8-5.3 15.3-4.9 23.2-7.2 2-14.6 3.7-22 4.9-3.5.5-7.6.9-10.1-1.6a10 10 0 0 1-2.3-4.1c-2.8-8.2-1.9-17.5-6-25A21 21 0 0 0 666 76.6c-2.8-.1-5.9.5-7.3 2.9a18 18 0 0 0-1.2 3.6c-2 5.8-10 8.7-15.1 5.5-2.7-1.7-4.5-4.4-6.8-6.4-3-2.6-6.9-4-10.3-6-3-1.9-4.4-3.8-5-5.7-.8 4.2-1 8 5 11.8 3.4 2 7.3 3.4 10.3 6 2.3 2 4.1 4.7 6.8 6.4 5.2 3.2 13.1.4 15-5.5a18 18 0 0 1 1.3-3.6c1.4-2.3 4.5-3 7.3-3a21 21 0 0 1 17.2 10.7c4.2 7.6 3.3 17 6 25.1a10 10 0 0 0 2.4 4.1c2.6 2.5 6.6 2.2 10 1.6 7.5-1.2 15-2.8 22.2-4.9-.5-7.9 3-15.4 4.8-23 1.4-6.4 2-12.9 1.7-19.3-.2 4.4-.7 8.8-1.7 13zM620.9 61.6c.6-2.9.3-5.9-1-8.6-1-2.3-4.1-3.8-6.2-2.3-2.1 1.4-1.8 4.7-2.3 7.3-1 5.2-6.2 8.7-11.4 9.5-2.5.4-5.2.2-7-1.4a9.9 9.9 0 0 1-2.7-4.2 40.6 40.6 0 0 1-2.4-11.3c-.5 5.9.4 11.8 2.4 17.4a9.9 9.9 0 0 0 2.6 4.2c2 1.6 4.6 1.8 7.1 1.4 5.2-.8 10.3-4.4 11.4-9.5.5-2.6.1-5.8 2.3-7.3 2.1-1.5 5.2 0 6.3 2.4l.9 2.4z" opacity=".1" fill="#000"/></g></svg>