<svg width="1000" height="800" xmlns="http://www.w3.org/2000/svg"><defs><linearGradient x1="50%" y1="100%" x2="50%" y2="0%" id="a"><stop stop-color="gray" stop-opacity=".3" offset="0%"/><stop stop-color="gray" stop-opacity=".1" offset="54%"/><stop stop-color="gray" stop-opacity=".1" offset="100%"/></linearGradient></defs><g transform="translate(179 19)" fill="none"><path d="M225 107c-12 0-24-4-35-10-20-11-37-29-55-43C96 23 49 5 0 0v162h274l1-1-50-54zm25-4 27 29V95c-9 1-17 4-27 8zm27 453V425h-57v-2 2H0v95l6 5 7 5 2 2a142 142 0 0 0 13 10 445 445 0 0 0 89 54 488 488 0 0 0 160 41v-81h1-1zM0 166v129h277V166H0zm0 133v122h277V299H0zM298 95v41l34-37c-11-2-22-4-34-4zm0 204v122h269V299H298zm269 267V425H298v213h53l24-3c44-5 87-16 127-34m117-282a413 413 0 0 0-9-20h-21v122h53c0-35-9-70-23-102zm-30 106v121c15-14 28-30 37-49 11-23 16-47 16-72h-53zm0-162v32h19l-19-32zM406 119l-4-2c-15-5-30-10-45-13l-52 56-1 1 1 1h184c-26-18-54-32-83-43zm88 47H302l-4 3v126h269v-61c-21-26-46-49-73-68z" fill="#5770BE" opacity=".1"/><path fill="#5770BE" opacity=".1" d="M221 171h56v124h-56zm57 385h-1v81a457 457 0 0 1-160-41 473 473 0 0 1-102-64l-9-7-6-5v-95h220v-2 2h57v131h1zm144-394h-36v-11h16v-34l4 2v32h16v11zm88 133H298V171h10v92h42v-54h36v-43h36v43h36v54h52v32zm-212 4v122h212V299H298zm269 267v-98h-57v-43H298v213h53l24-3c44-5 87-16 127-34m91-176h49c0 25-5 49-16 72-9 19-22 35-37 49v-78h4v-43zm49-4h-49V319h26c14 32 23 67 23 102z"/><path fill="#5770BE" opacity=".1" d="M247 206h30v38h-30zm0 80h30v9h-30zm0 13h30v26h-30zm0 67h30v39h-30zm0 80h30v39h-30zm30 110h1-1v9h-30v-38h30v29zm0 51v30l-30-4v-26h30zm73-296h26v25h-26zm97 0h25v25h-25zm-97 62h26v25h-26zm97 0h25v25h-25zm-97 62h26v25h-26zm97 0h25v25h-25zm-97 62h26v25h-26zm97 0h25v25h-25zm-97 62h26v25h-26zm97 0h25v25h-25zm-97 79v-17h25v14z"/><ellipse fill="#5770BE" opacity=".1" cx="386.7" cy="749.7" rx="86.4" ry="13.9"/><path d="M465 412s-4-1-4-6l-2-15s-2-16-5-19c-3-2-7-18-7-18l-2-10-6-12c-3-7-14-11-14-11l-25-15-2-2-5-1-1-9v-1c6-4 11-10 13-17v-1l2-1 1-4 4-3c3-2 3-6 3-10v-11l2-6-1-7c-2-2-5-3-9-3-3-1-7 0-9-3l-4-5-5-3c-5-3-10-3-15-2l-8 3c-5 1-12 0-16 3l-6 7a688 688 0 0 1-9 21v2l1 1v4h1v1l1 2 7 6v1c0 10 5 19 14 24v9l-3-1h-1c-2 1-5 3-7 8 0 0-7 8-12 8-6 0-19 8-19 8s-13 9-16 17l-6 15-16 33-3 27s2 12 1 13l7 18s24 42 33 44l1-1 1 1 2-1v4c-1 4 1 31 3 36s2 74 2 74l-1 6v8l-1 10s-7 43-3 51l5 18s4 11 1 13c-4 1-13 4-11 9l9 17-1 15 1 5c2 3 5 6 10 6h3l21-6-1-1-2-4-6-18v-1s11-11 9-21c0 0-12-7-8-11l11-15v-48a52 52 0 0 1 1-15 113 113 0 0 0 23 1v2l2 35 7 36s-11 7 1 23v7l-2 9v8c2 4 14 3 14 3 4 0 9 1 13 4 4 4 21 2 31 1l6-1v-1c0-3-2-8-14-12 0 0-12-8-11-15h-2 1s-4-16-2-17c2-2-4-20-4-20l-3-32 1-6-1-17v-7l-1-5v-1l7-3v-58c3-7 4-22 4-33v-13l5-8s1-10-1-12v-3h1v-1h1v-4l4 2v1-1l2 1s8-15 8-18c-1-2 5-12 5-12s0-5 3-7 3-17 3-17l3-12c2-3-2-7-2-7zm-150-7v3l-1-2 1-1z" fill="url('#a')"/><path d="m445 478-2 9s-15-8-18-18c-2-10 5-14 5-14l14 6 1 17z" fill="#FFF"/><path d="m445 478-2 9s-15-8-18-18c-2-10 5-14 5-14l14 6 1 17z" fill="#000" opacity=".1"/><path d="M359 756s-14 5-24 6c-5 0-8-3-9-6l-1-5 1-14 1-8 20-5 3 9 6 18 2 4 1 1zm97-7v1s-30 5-37 0c-3-3-8-4-12-4 0 0-12 1-14-3v-8l2-9 3-2 33-1c0 6 11 14 11 14 12 4 14 9 14 12z" fill="#FFF"/><path d="M456 749v1s-30 5-37 0c-3-3-8-4-12-4 0 0-12 1-14-3v-8c4 0 12 1 14 4 5 4 12 8 16 9l33 1zm-97 7s-14 5-24 6c-5 0-8-3-9-6 4 1 9 2 11 1l21-2 1 1z" fill="#000" opacity=".1"/><path d="M380 336c-11-5-26-20-23-27l2-5v-8l-2-13s37 1 35 6l-1 7 1 10 2 7-4 3c-1 0 7 26-10 20z" fill="#CF6F80"/><path d="M350 733v1c-11-14-24 3-24 3v-8l21-5 3 9zm81-9s-8-1-12 3-25 1-24 0v-1l3-2 33-1v1z" fill="#000" opacity=".1"/><path d="m364 620-1 4-1 13v48l-11 15c-4 4 8 11 8 11 2 10-9 22-9 22-11-14-24 3-24 3l-9-17c-2-4 7-7 10-9s0-13 0-13l-6-17c-3-9 4-51 4-51l1-10v-6a41 41 0 0 0 0-2l4-9s36 13 34 18zm67 103s-8-1-12 3-25 1-24 0l1-7c-12-16-2-23-2-23l-6-35-2-35-1-8 10-2h1l24-5a384 384 0 0 0 2 20v22l3 33s5 18 3 19c-1 1 3 18 3 18z" fill="#5770BE"/><path d="m392 289-1 7c-10 6-22 6-32 0l-2-13s37 1 35 6z" fill="#000" opacity=".1"/><path d="M406 269a30 30 0 1 1-61 1v-1a30 30 0 0 1 61 0z" fill="#CF6F80"/><path d="M380 336c-11-5-26-20-23-27l2-5 16 13 10 8 7-19 2 7-4 3c-1 0 7 26-10 20z" fill="#000" opacity=".1"/><path fill="#5770BE" d="m422 394-14 225-17 1-45-130 7-155 2-33 20 17 10 8 7-20 15 13z"/><path d="m364 620-1 4c-13-1-25-5-37-11v-2l4-8s36 12 34 17zm31 5-9 1-1-8 10-2v9zm26-6c-6 2-16 4-24 3l-1-6 24-5 1 8z" fill="#000" opacity=".1"/><path d="M396 623c-36 6-69-12-69-12v-6s1-68-1-74c-3-5-4-31-3-35s-5-66-5-66l-1-24-35-15 15-33 6-15c3-8 16-17 16-17s13-8 18-8 12-7 12-7c5-13 10-7 10-7v1c-2 15 28 59 29 60l3 71 2 89 3 98z" fill="#000" opacity=".1"/><path d="M395 623c-36 6-69-12-69-12v-6s1-68-1-74a890 890 0 0 0-8-101l-1-24-35-15 15-33 6-15c3-8 16-17 16-17s13-8 18-8 12-7 12-7c5-13 11-7 11-7v1c3 14 27 59 28 60l3 71 3 89 2 98z" fill="#FFF"/><path d="M386 367c-4-2-25-25-25-25v-6c-1-1-5 0-9 1l2-33 2 2c3 13 29 60 30 61z" fill="#000" opacity=".1"/><path d="M387 365c-4-2-25-25-25-25v-6c-1-1-5 0-9 1l2-33 1 2c4 14 30 60 31 61z" fill="#FFF"/><path d="m327 483 25-3s15 30 14 37-3 14-9 12c-6-1-32 1-32 1l2-47z" fill="#000" opacity=".1"/><path d="m326 481 25-3s15 30 14 37-3 14-9 12c-6-1-32 1-32 1l2-47z" fill="#FFF"/><path d="M345 467s22 12 23 16c0 4-12-1-14-2l-6-1-17 1 14-14z" fill="#CF6F80"/><circle fill="#000" opacity=".1" cx="379.3" cy="366.2" r="2.4"/><circle fill="#3F3D56" cx="379.3" cy="365.2" r="2.4"/><circle fill="#000" opacity=".1" cx="383.7" cy="469.8" r="2.4"/><circle fill="#3F3D56" cx="383.7" cy="468.8" r="2.4"/><circle fill="#000" opacity=".1" cx="381.7" cy="418" r="2.4"/><circle fill="#3F3D56" cx="381.7" cy="417" r="2.4"/><path d="M437 480s2 2 0 3 0 4 0 4-4 2-2 5c2 2 0 11 0 11l-4 9v12c0 11-1 26-4 33v58s-17 6-31 5l-3-93 5-63 1-16s-1-16-3-23l-2-41a1132 1132 0 0 1 1-53l-3-25s3-1 4 1l2 1a881 881 0 0 0 39 26l5 12c2 2 2 10 2 10s4 16 7 18c3 3 5 19 5 19l-26 21-3 35 10 31z" fill="#FFF"/><path d="M438 480v3c-2 1 0 4 0 4s-4 2-2 5c2 2 0 11 0 11l-4 9v12c0 11-1 26-4 33v58s-17 6-31 5l-2-93 4-63 1-16s-1-16-3-23l-2-41 1-28v-25l-4-26s4 0 5 2l2 1a871 871 0 0 0 39 26l5 12c2 2 2 10 2 10s4 16 7 18c3 3 5 19 5 19l-26 21-3 35 10 31z" fill="#FFF"/><path d="m407 339 2 7-12 12v-25l-4-26s4 0 5 2l2 1 10 30-3-1z" fill="#000" opacity=".1"/><path d="m406 337 2 7-12 12v-25l-4-26s4 0 5 2l2 1 10 30-3-1z" fill="#FFF"/><path d="m406 269-2 10h-1a39 39 0 0 0-13-27c-2-2-5-2-7-2l-8 2c-3 1-7-2-10-2s-6 1-8 3l-4 8-2 13c0 2 0 5-2 6 0-3-1-7-4-10v-1a30 30 0 0 1 61 0z" fill="#000" opacity=".1"/><path d="M388 221c-5-2-10-2-15-1l-7 3c-5 1-11 0-16 3-3 1-4 4-5 7l-4 7-5 11c-1 4 0 9 3 12l6 6c3 3 4 7 4 10 2-1 2-4 2-6l2-13 4-8c2-2 5-3 8-3 4 0 7 3 10 2l8-2c2 0 5 0 7 2l4 5c5 6 9 14 9 22l3-2 1-3 4-3c2-3 3-7 3-10v-11l2-7-1-6c-2-3-5-3-9-4-3 0-7 1-9-3l-4-4-5-4z" fill="#512E4E"/><path d="m292 408-10-17-2 26 1 14a130 130 0 0 0 39 61l32-23-8-10h-4l-17-29c-2-2-2-6-2-6s-2-3-1-5c0-3-5-11-5-11l5-5-28 5z" fill="#000" opacity=".1"/><path d="m283 389-2 2-3 26 1 14a130 130 0 0 0 39 61l32-23-8-10h-4l-17-29c-2-2-2-6-2-6s-2-3-1-5c1-3-5-11-5-11l5-5-35-14z" fill="#FFF"/><path d="M435 493c2 2 0 11 0 11l-4 9v12l-8 2a5 5 0 0 1-7-4l2-46 19 7c-2 1 0 4 0 4s-4 2-2 5z" fill="#000" opacity=".1"/><path d="M436 492c2 2 0 11 0 11l-4 9v12l-9 2a5 5 0 0 1-6-4l2-46 19 7c-2 1 0 4 0 4s-4 2-2 5z" fill="#FFF"/><path d="M442 470s-1 8-4 9c-4 0-5 13-8 13-4-1-2-12-1-15 0-2-4-11-1-13 2-3 11 0 11 0l3 6z" fill="#CF6F80"/><path d="m449 406 6-13 3 15c0 5 3 5 3 5s4 5 2 8-3 11-3 11 1 16-2 18-4 7-4 7l-5 12-8 18s4-20-18-28c0 0 0-7 2-8 1-2 4-3 2-12v-22l5-16 17 5z" fill="#000" opacity=".1"/><path d="m452 392 5 1 3 15c0 5 3 5 3 5s4 5 2 8-3 11-3 11 1 16-2 18-4 7-4 7l-5 12-8 18s4-20-18-28c0 0 0-7 2-8 1-2 4-3 2-12v-22l5-16 18-9z" fill="#FFF"/><path d="M333 713s9-5 14-1c6 4-14 1-14 1zm67-17s7 0 14 6c6 7-14-6-14-6z" fill="#000" opacity=".1"/><path d="m411 268-4 3-1 3-3 2a39 39 0 0 0-13-27c-2-2-5-2-7-2l-8 2c-3 1-7-2-10-2s-6 1-8 4l-4 7-2 13c0 2 0 5-2 6v2c2-1 2-4 2-6l2-13 4-8c2-2 5-3 8-3 4 0 7 3 10 2l8-2c2 0 5 0 7 2l4 5c5 6 9 14 9 22l3-2 1-3 4-3c2-3 3-7 3-10v-1c0 4-1 7-3 9zm-66-1c-2-2-5-3-6-6-2-2-3-4-3-7l3 9 6 6 4 8c0-3-1-7-4-10zm71-26-2 6v2l2-7v-3 2z" fill="#000"/></g></svg>