<svg width="1000" height="800" xmlns="http://www.w3.org/2000/svg"><g transform="translate(56 17)" fill="none"><path d="m827.5 655.1 5.6-21.8c9.8-4.2 19.8-7.8 30-10.8l.8 10.2 2.8-11.2c12.7-3.7 21.3-5.3 21.3-5.3s-11.7 44.4-36.1 78.2l-28.5 5 22.1 3.2c-3 3.7-6.3 7.2-9.8 10.5-35.6 33-75.2 48.2-88.5 33.8-13.3-14.3 4.7-52.6 40.3-85.6a151 151 0 0 1 38.7-25l1.3 18.8z" fill="#E6E6E6"/><path d="m774.9 631.4-6.6-21.5c6.3-8.7 13-17 20.2-24.8l5.8 8.3-3.3-11c9-9.7 15.5-15.5 15.5-15.5s13 44 9.5 85.6l-21.8 19 20.6-8.7c-.7 4.7-1.7 9.4-3 14-13.4 46.7-39.5 80.1-58.3 74.7-18.7-5.4-23.1-47.5-9.8-94.2A151 151 0 0 1 764 616l10.9 15.4z" fill="#E6E6E6"/><ellipse fill="#E6E6E6" cx="674" cy="750" rx="214" ry="17"/><path fill="#E6E6E6" d="M223 34v143H17V34H0v160h240V34zm0 231v143H17V265H0v160h240V265zm0 231v143H17V496H0v160h240V496z"/><path d="m196 138.8 1.2-1.5-12.2-19s-21.4-35.5-25.1-46c-1.9-5.3-5-7.8-7.7-9.1-.3-.8-.8-1.4-1.5-1.8-4.8-3-14.4-6.8-18.4-8.4l1-.5 3-1.9v2.5l16-1.9s4.2-.6-5-11c0 0-2.4-4-1.3-7.5.8-2.7 1-5.5.6-8.2-2-11.5-10.1-34.3-41.5-19.8 0 0-9 3-9.4 14.7 0 1.7.1 3.5.5 5.1l-4.8 16.2c-2 3-3.7 6-5.3 9.3l9.8 1.2 11.5 2-.8 1.3c-.6 0-16.7.9-23.3 7.5l-.5.5c-3 1-7.4 3.5-11.7 9.9-8 11.6-28.8 30-19 39.2 9.8 9.2 36.1 15.3 36.1 15.3l.3-.5c1.1 3.9 3 8.3 5.7 10.1-2.4 6.7-6 15.5-9.2 24.5a352 352 0 0 0-5.8 17h85.7c0-5.7-.3-11.4-.8-17-1.8-17.3-7-36.8-20.1-46.4V99.3s2.8-2.4 3-8.4l17.8 29.2 23.9 27 2.8-3.2c3.7 10.3 16.4 18 18.6 13.6 2-4-9.6-14.7-14.2-18.7zM92.7 118.6l1.5-2.7L68 103l16.8-12.6.4 1s14.7 24.5 12.2 35.5c0 .2 0 .4-.2.6-1.3-3-2.7-6-4.4-8.9zm12.6 144.1-4.5 5.8-23.5 17.4s-4.3 7.8-4.3 8.7l-1.8 46.1s-3 45.7 2.2 54.4l.5-.6c1 3.7 2.5 7.2 4.3 10.5v4h72.2v-10.4c3-1.8 5.6-4 7.9-6.5-5.2-15.7-4.4-38.3-4.4-38.3l2.2-21.5L174 380l6.3 15.1h4.4c1.3 4.2 8.3 25.7 17.3 19 6.2-4.5 3.3-13.2 0-19.2.5-8.7-21-64.5-21-64.5s-12.2-34.9-13-42.7c-1-7.8-6.1-10.4-6.1-10.4l-28-12.3-4.8-5.2.9-4.6c4.2-2.6 7.2-6.6 8.4-11.4l.3.7c1.6-1.3 2.6-3.1 2.9-5 .2-2 .2-4-.2-6l5.9.6-5.7-3.6 1.6-3.6h-4c-2.4-5.3-6.5-10-10-14.1-6.6-7.7-13.9-4.7-13.9-4.7l3 3.2c-10.6-.7-18.3 7.7-18.3 7.7l3.7 1.5c-9.6 5.5-2.9 24.2-2.9 24.2l.7-1a19 19 0 0 0 4.4 8.1l-.6 10.9zm-.1 2.3.1-2.3-.1 2.3zm69.6 318.8-2-26.8h.8s-1.1-20.7-1.1-25.8c0-5.2-6.9-8-6.9-8l-1.8-.6-13.6-3.7c-3-4-3.6-10.3-3.2-16a136 136 0 0 0 21.6-5.1l-1.5-13.3c3.7 1.4 5.2 11.8 5.2 11.8l6-1.5s-10.4-16.2-17-31c-6.7-14.8-17-11.1-17-11.1-12.3-5.9-20.3-.4-24.7 4.7-2.5 3-4 6.6-4.5 10.5-.5 4.6-2 12-6.3 15.8-6.7 6-8.9 10.4-8.9 10.4l2.2 2.2c0-4.4 3-5.2 3-5.2l-.8 5.2c6 5.1 14.3 7.3 22.8 7.8a23.2 23.2 0 0 1-9.5 8.3l-14 3c-2.8-.2-7 .6-11.3 5.5L77.4 538l1 1c-5.6 5.2-17.1 16.3-19.3 23.6-2.8 9.8 11 11 11 11l29.7 2.8s.5 13.7 5.7 15.4c.9.3 1.5-.2 2-1.2l-.2 2.7c-4.7 4.4-8 16-10.3 29.7-1 5.4-1.7 11.2-2.3 17h84v-1.2A72 72 0 0 0 177 623a103 103 0 0 0-14.6-34l33.5 27s-.6 23 9.2 22.4c9.7-.6-.1-26.4-.1-26.4l-30.2-28.2zM77.4 561l10.7-11.1.8.8 9.8-6c1.6 5.4 3.5 10.6 5.7 15.8 1 2.8 1.7 5.7 2.1 8.7l-29-8.2zm84.2 27-.6-.9c-.3-1.2-1.4-6.2-3.4-7.7-2.3-1.8 0 0 1.7-3 1.7-2.8-1.1-1.6-2.3-2.2-1.1-.6-2.3-4 2.3-10.3l1-1.8 1.3 25.9z" fill="#E6E6E6"/><path fill="#5770BE" d="M280.2 611H201v90h90v-79.2z"/><path d="M246 677a21 21 0 1 1 0-42 21 21 0 0 1 0 42zm0-40a19 19 0 1 0 0 38 19 19 0 0 0 0-38z" fill="#FFF"/><path fill="#5770BE" d="M280.2 376H201v90h90v-79.2z"/><path d="M246 442a21 21 0 1 1 0-42 21 21 0 0 1 0 42zm0-40a19 19 0 1 0 0 38 19 19 0 0 0 0-38z" fill="#FFF"/><path fill="#5770BE" d="M280.2 149H201v90h90v-79.2z"/><path d="M246 215a21 21 0 1 1 0-42 21 21 0 0 1 0 42zm0-40a19 19 0 1 0 0 38 19 19 0 0 0 0-38z" fill="#FFF"/><path d="M646.1 620.7s0 68.3-15.7 86.2l-4.4 12.3a47 47 0 0 1-2.3 5.6v4.5s-30.2-3.4-33.5-11.2l5.6-6.7s1-1.2 0-4.5a2.3 2.3 0 0 1 2.2-3.4l7.8-17.9-1-73.8 5.5-101.8 48.1-2.3-12.3 113z" fill="#2F2E41"/><path d="M621.5 722.6s7.8 23.5 0 24.6c-7.8 1-76.1 2.2-75-6.7 1.1-9 23.5-7.9 23.5-7.9l23.5-14.5 28 4.5zM690.9 510s2.2 14.5-6.7 30.2c-9 15.6-3.4 68.2-3.4 68.2l79.4 69.4s-15.6 26.9-21.2 25.7c-5.6-1-94-72.7-94-72.7l-34.7-116.4 80.6-4.4z" fill="#2F2E41"/><path d="M759.2 674.8s24 6 20.7 13.2c-3.2 7.2-38.8 65.5-45.8 59.7-7-5.7 6-24 6-24l.3-27.6 18.8-21.3z" fill="#2F2E41"/><circle fill="#A0616A" cx="647.2" cy="301.8" r="25.7"/><path d="m667.5 311-1.2 33-21.6 8.6s-2.1-34-5.1-35.8c-3-1.9 27.9-5.9 27.9-5.9z" fill="#A0616A"/><path d="M639.4 356.7s30.2-30.3 38-29.1c7.9 1 7.9 4.4 7.9 6.7 0 2.2-2.3 3.3 0 4.5 2.2 1 4.4 0 4.4 3.3 0 3.4 20.2 37 13.5 73.9-6.7 36.9-14.6 54.8-11.2 75 3.3 20 1.1 24.5 1.1 24.5s-84 6.8-85-1c-1.2-7.9 3.3-3.4-2.3-9s-3.3-5.6-3.3-9c0-3.3 24.6-139.8 36.9-139.8z" fill="#575A89"/><path d="M655 508.8s-13.4 32.5-23.4 24.7c-10.1-7.9 4.4-34.7 4.4-34.7l19 10z" fill="#A0616A"/><path d="M687.5 358.9s26.3 3 16.5 51.3-47.8 104.2-47.8 104.2l-25.8-12.3 33.6-66-7.8-41.4s-4.5-39.2 31.3-35.8z" fill="#575A89"/><path fill="#000" opacity=".2" d="m664.6 436.7-37 61.5 3.4 3.4zm19.5 28.6L654.5 514h10z"/><path d="M658.9 317.3c-2.1-1.1-4.5-1.3-6.8-2a17.7 17.7 0 0 1-11.7-19.8c.3-1.1.4-2.2.4-3.3-.3-2.5-2.8-4-5.2-4.6-2.4-.6-5-.5-7.2-1.4a11 11 0 0 1-6.5-8.8c-.3-3.8.5-7.6 2.5-11l.8 2.6a9.2 9.2 0 0 0 2.9-4.3c2 .4 3.7 1.7 4.4 3.6 1.4.8 1.6-2.5 3.1-3 .7-.1 1.4 0 2 .4 3 1.5 6.7.2 10-.6a37.7 37.7 0 0 1 17.5 0 21 21 0 0 1 10.3 5.3 47.9 47.9 0 0 1 8.7 31.6 33 33 0 0 1-7.7 17.4c-2.2 2.6-9.4 11.5-13.4 10-5-2 1.7-9-4.1-12.1z" fill="#2F2E41"/><path fill="#000" opacity=".2" d="m615.7 554.1 1.5-.6 29.5 77.2-1.5.6z"/><circle fill="#D0CDE1" cx="639.6" cy="361.2" r="1.6"/><path fill="#D0CDE1" d="M639.6 361.2 626 405m0 .8c.4 0 .7-.2.8-.6l13.5-43.8a.8.8 0 0 0-1.5-.4l-13.5 43.7a.8.8 0 0 0 .7 1z"/></g></svg>