<svg xmlns="http://www.w3.org/2000/svg" xmlns:xlink="http://www.w3.org/1999/xlink" width="1000" height="800"><defs><path id="a" d="M.5 0h768v587H.5z"/></defs><g fill="none" fill-rule="evenodd"><g transform="translate(116 107)"><mask id="b" fill="#fff"><use xlink:href="#a"/></mask><use fill="#DFE2F2" fill-rule="nonzero" xlink:href="#a"/><g mask="url('#b')"><g transform="translate(462 281)"><ellipse fill="#5770BE" cx="148.8" cy="152.6" rx="55.3" ry="55.1"/><g transform="translate(148.8 135.7)"><ellipse fill="#5770BE" cx="103.1" cy="14.8" rx="7.4" ry="14.8"/><path stroke="#5770BE" stroke-width="3" stroke-linecap="square" d="M100.9 14.8H1.1"/></g><g transform="matrix(-1 0 0 1 153 135.7)"><ellipse fill="#5770BE" cx="103.1" cy="14.8" rx="7.4" ry="14.8"/><path stroke="#5770BE" stroke-width="3" stroke-linecap="square" d="M100.9 14.8H1.1"/></g><g transform="matrix(0 -1 -1 0 163.6 150.6)"><ellipse fill="#5770BE" cx="103.1" cy="14.8" rx="7.4" ry="14.8"/><path stroke="#5770BE" stroke-width="3" stroke-linecap="square" d="M100.9 14.8H1.1"/></g><g transform="matrix(0 1 1 0 134 146.1)"><ellipse fill="#5770BE" cx="103.1" cy="14.8" rx="7.4" ry="14.8"/><path stroke="#5770BE" stroke-width="3" stroke-linecap="square" d="M100.9 14.8H1.1"/></g><g transform="rotate(45 -87.4 265.7)"><ellipse fill="#5770BE" cx="98.5" cy="15.1" rx="7.1" ry="15.1"/><path stroke="#5770BE" stroke-width="3" stroke-linecap="square" d="M96.5 15.1H1"/></g><g transform="scale(-1 1) rotate(-45 87.4 265.7)"><ellipse fill="#5770BE" cx="98.5" cy="15.1" rx="7.1" ry="15.1"/><path stroke="#5770BE" stroke-width="3" stroke-linecap="square" d="M96.5 15.1H1"/></g><g transform="scale(1 -1) rotate(45 275.7 115)"><ellipse fill="#5770BE" cx="98.5" cy="15.1" rx="7.1" ry="15.1"/><path stroke="#5770BE" stroke-width="3" stroke-linecap="square" d="M96.5 15.1H1"/></g><g transform="scale(-1 1) rotate(45 -238.9 -100.6)"><ellipse fill="#5770BE" cx="98.5" cy="15.1" rx="7.1" ry="15.1"/><path stroke="#5770BE" stroke-width="3" stroke-linecap="square" d="M96.5 15.1H1"/></g><g transform="rotate(22.5 -275.2 464.8)"><ellipse fill="#5770BE" cx="75.8" cy="11.1" rx="5.5" ry="11.1"/><path stroke="#5770BE" stroke-width="3" stroke-linecap="square" d="M74.2 11.1H.8"/></g><g transform="scale(-1 1) rotate(-22.5 273.3 458.8)"><ellipse fill="#5770BE" cx="75.8" cy="11.1" rx="5.5" ry="11.1"/><path stroke="#5770BE" stroke-width="3" stroke-linecap="square" d="M74.2 11.1H.8"/></g><g transform="scale(1 -1) rotate(67.5 197.9 43.7)"><ellipse fill="#5770BE" cx="75.8" cy="11.1" rx="5.5" ry="11.1"/><path stroke="#5770BE" stroke-width="3" stroke-linecap="square" d="M74.2 11.1H.8"/></g><g transform="scale(-1 1) rotate(67.5 -178.8 -32.8)"><ellipse fill="#5770BE" cx="75.8" cy="11.1" rx="5.5" ry="11.1"/><path stroke="#5770BE" stroke-width="3" stroke-linecap="square" d="M74.2 11.1H.8"/></g><g transform="rotate(67.5 -28 194.4)"><ellipse fill="#5770BE" cx="75.9" cy="11.6" rx="5.5" ry="11.6"/><path stroke="#5770BE" stroke-width="3" stroke-linecap="square" d="M74.3 11.6H.8"/></g><g transform="scale(-1 1) rotate(-67.5 28 194.4)"><ellipse fill="#5770BE" cx="75.9" cy="11.6" rx="5.5" ry="11.6"/><path stroke="#5770BE" stroke-width="3" stroke-linecap="square" d="M74.3 11.6H.8"/></g><g transform="scale(1 -1) rotate(22.5 483.1 310.4)"><ellipse fill="#5770BE" cx="75.9" cy="11.6" rx="5.5" ry="11.6"/><path stroke="#5770BE" stroke-width="3" stroke-linecap="square" d="M74.3 11.6H.8"/></g><g transform="scale(-1 1) rotate(22.5 -424.4 -301.4)"><ellipse fill="#5770BE" cx="75.9" cy="11.6" rx="5.5" ry="11.6"/><path stroke="#5770BE" stroke-width="3" stroke-linecap="square" d="M74.3 11.6H.8"/></g></g></g><g mask="url('#b')"><g transform="translate(-168 241)"><ellipse fill="#5770BE" cx="148.8" cy="152.6" rx="55.3" ry="55.1"/><g transform="translate(148.8 135.7)"><ellipse fill="#5770BE" cx="103.1" cy="14.8" rx="7.4" ry="14.8"/><path stroke="#5770BE" stroke-width="3" stroke-linecap="square" d="M100.9 14.8H1.1"/></g><g transform="matrix(-1 0 0 1 153 135.7)"><ellipse fill="#5770BE" cx="103.1" cy="14.8" rx="7.4" ry="14.8"/><path stroke="#5770BE" stroke-width="3" stroke-linecap="square" d="M100.9 14.8H1.1"/></g><g transform="matrix(0 -1 -1 0 163.6 150.6)"><ellipse fill="#5770BE" cx="103.1" cy="14.8" rx="7.4" ry="14.8"/><path stroke="#5770BE" stroke-width="3" stroke-linecap="square" d="M100.9 14.8H1.1"/></g><g transform="matrix(0 1 1 0 134 146.1)"><ellipse fill="#5770BE" cx="103.1" cy="14.8" rx="7.4" ry="14.8"/><path stroke="#5770BE" stroke-width="3" stroke-linecap="square" d="M100.9 14.8H1.1"/></g><g transform="rotate(45 -87.4 265.7)"><ellipse fill="#5770BE" cx="98.5" cy="15.1" rx="7.1" ry="15.1"/><path stroke="#5770BE" stroke-width="3" stroke-linecap="square" d="M96.5 15.1H1"/></g><g transform="scale(-1 1) rotate(-45 87.4 265.7)"><ellipse fill="#5770BE" cx="98.5" cy="15.1" rx="7.1" ry="15.1"/><path stroke="#5770BE" stroke-width="3" stroke-linecap="square" d="M96.5 15.1H1"/></g><g transform="scale(1 -1) rotate(45 275.7 115)"><ellipse fill="#5770BE" cx="98.5" cy="15.1" rx="7.1" ry="15.1"/><path stroke="#5770BE" stroke-width="3" stroke-linecap="square" d="M96.5 15.1H1"/></g><g transform="scale(-1 1) rotate(45 -238.9 -100.6)"><ellipse fill="#5770BE" cx="98.5" cy="15.1" rx="7.1" ry="15.1"/><path stroke="#5770BE" stroke-width="3" stroke-linecap="square" d="M96.5 15.1H1"/></g><g transform="rotate(22.5 -275.2 464.8)"><ellipse fill="#5770BE" cx="75.8" cy="11.1" rx="5.5" ry="11.1"/><path stroke="#5770BE" stroke-width="3" stroke-linecap="square" d="M74.2 11.1H.8"/></g><g transform="scale(-1 1) rotate(-22.5 273.3 458.8)"><ellipse fill="#5770BE" cx="75.8" cy="11.1" rx="5.5" ry="11.1"/><path stroke="#5770BE" stroke-width="3" stroke-linecap="square" d="M74.2 11.1H.8"/></g><g transform="scale(1 -1) rotate(67.5 197.9 43.7)"><ellipse fill="#5770BE" cx="75.8" cy="11.1" rx="5.5" ry="11.1"/><path stroke="#5770BE" stroke-width="3" stroke-linecap="square" d="M74.2 11.1H.8"/></g><g transform="scale(-1 1) rotate(67.5 -178.8 -32.8)"><ellipse fill="#5770BE" cx="75.8" cy="11.1" rx="5.5" ry="11.1"/><path stroke="#5770BE" stroke-width="3" stroke-linecap="square" d="M74.2 11.1H.8"/></g><g transform="rotate(67.5 -28 194.4)"><ellipse fill="#5770BE" cx="75.9" cy="11.6" rx="5.5" ry="11.6"/><path stroke="#5770BE" stroke-width="3" stroke-linecap="square" d="M74.3 11.6H.8"/></g><g transform="scale(-1 1) rotate(-67.5 28 194.4)"><ellipse fill="#5770BE" cx="75.9" cy="11.6" rx="5.5" ry="11.6"/><path stroke="#5770BE" stroke-width="3" stroke-linecap="square" d="M74.3 11.6H.8"/></g><g transform="scale(1 -1) rotate(22.5 483.1 310.4)"><ellipse fill="#5770BE" cx="75.9" cy="11.6" rx="5.5" ry="11.6"/><path stroke="#5770BE" stroke-width="3" stroke-linecap="square" d="M74.3 11.6H.8"/></g><g transform="scale(-1 1) rotate(22.5 -424.4 -301.4)"><ellipse fill="#5770BE" cx="75.9" cy="11.6" rx="5.5" ry="11.6"/><path stroke="#5770BE" stroke-width="3" stroke-linecap="square" d="M74.3 11.6H.8"/></g></g></g><g mask="url('#b')"><g transform="translate(480 -151)"><ellipse fill="#5770BE" cx="148.8" cy="152.6" rx="55.3" ry="55.1"/><g transform="translate(148.8 135.7)"><ellipse fill="#5770BE" cx="103.1" cy="14.8" rx="7.4" ry="14.8"/><path stroke="#5770BE" stroke-width="3" stroke-linecap="square" d="M100.9 14.8H1.1"/></g><g transform="matrix(-1 0 0 1 153 135.7)"><ellipse fill="#5770BE" cx="103.1" cy="14.8" rx="7.4" ry="14.8"/><path stroke="#5770BE" stroke-width="3" stroke-linecap="square" d="M100.9 14.8H1.1"/></g><g transform="matrix(0 -1 -1 0 163.6 150.6)"><ellipse fill="#5770BE" cx="103.1" cy="14.8" rx="7.4" ry="14.8"/><path stroke="#5770BE" stroke-width="3" stroke-linecap="square" d="M100.9 14.8H1.1"/></g><g transform="matrix(0 1 1 0 134 146.1)"><ellipse fill="#5770BE" cx="103.1" cy="14.8" rx="7.4" ry="14.8"/><path stroke="#5770BE" stroke-width="3" stroke-linecap="square" d="M100.9 14.8H1.1"/></g><g transform="rotate(45 -87.4 265.7)"><ellipse fill="#5770BE" cx="98.5" cy="15.1" rx="7.1" ry="15.1"/><path stroke="#5770BE" stroke-width="3" stroke-linecap="square" d="M96.5 15.1H1"/></g><g transform="scale(-1 1) rotate(-45 87.4 265.7)"><ellipse fill="#5770BE" cx="98.5" cy="15.1" rx="7.1" ry="15.1"/><path stroke="#5770BE" stroke-width="3" stroke-linecap="square" d="M96.5 15.1H1"/></g><g transform="scale(1 -1) rotate(45 275.7 115)"><ellipse fill="#5770BE" cx="98.5" cy="15.1" rx="7.1" ry="15.1"/><path stroke="#5770BE" stroke-width="3" stroke-linecap="square" d="M96.5 15.1H1"/></g><g transform="scale(-1 1) rotate(45 -238.9 -100.6)"><ellipse fill="#5770BE" cx="98.5" cy="15.1" rx="7.1" ry="15.1"/><path stroke="#5770BE" stroke-width="3" stroke-linecap="square" d="M96.5 15.1H1"/></g><g transform="rotate(22.5 -275.2 464.8)"><ellipse fill="#5770BE" cx="75.8" cy="11.1" rx="5.5" ry="11.1"/><path stroke="#5770BE" stroke-width="3" stroke-linecap="square" d="M74.2 11.1H.8"/></g><g transform="scale(-1 1) rotate(-22.5 273.3 458.8)"><ellipse fill="#5770BE" cx="75.8" cy="11.1" rx="5.5" ry="11.1"/><path stroke="#5770BE" stroke-width="3" stroke-linecap="square" d="M74.2 11.1H.8"/></g><g transform="scale(1 -1) rotate(67.5 197.9 43.7)"><ellipse fill="#5770BE" cx="75.8" cy="11.1" rx="5.5" ry="11.1"/><path stroke="#5770BE" stroke-width="3" stroke-linecap="square" d="M74.2 11.1H.8"/></g><g transform="scale(-1 1) rotate(67.5 -178.8 -32.8)"><ellipse fill="#5770BE" cx="75.8" cy="11.1" rx="5.5" ry="11.1"/><path stroke="#5770BE" stroke-width="3" stroke-linecap="square" d="M74.2 11.1H.8"/></g><g transform="rotate(67.5 -28 194.4)"><ellipse fill="#5770BE" cx="75.9" cy="11.6" rx="5.5" ry="11.6"/><path stroke="#5770BE" stroke-width="3" stroke-linecap="square" d="M74.3 11.6H.8"/></g><g transform="scale(-1 1) rotate(-67.5 28 194.4)"><ellipse fill="#5770BE" cx="75.9" cy="11.6" rx="5.5" ry="11.6"/><path stroke="#5770BE" stroke-width="3" stroke-linecap="square" d="M74.3 11.6H.8"/></g><g transform="scale(1 -1) rotate(22.5 483.1 310.4)"><ellipse fill="#5770BE" cx="75.9" cy="11.6" rx="5.5" ry="11.6"/><path stroke="#5770BE" stroke-width="3" stroke-linecap="square" d="M74.3 11.6H.8"/></g><g transform="scale(-1 1) rotate(22.5 -424.4 -301.4)"><ellipse fill="#5770BE" cx="75.9" cy="11.6" rx="5.5" ry="11.6"/><path stroke="#5770BE" stroke-width="3" stroke-linecap="square" d="M74.3 11.6H.8"/></g></g></g><g mask="url('#b')"><g transform="translate(62 46)"><ellipse fill="#5770BE" cx="220.4" cy="221" rx="80.5" ry="80.8"/><g transform="translate(220.4 199.8)"><ellipse fill="#5770BE" cx="146.3" cy="21.3" rx="10.6" ry="21.3"/><path stroke="#5770BE" stroke-width="3" stroke-linecap="square" d="M143.2 21.3H1.5"/></g><g transform="matrix(-1 0 0 1 224.6 199.8)"><ellipse fill="#5770BE" cx="146.3" cy="21.3" rx="10.6" ry="21.3"/><path stroke="#5770BE" stroke-width="3" stroke-linecap="square" d="M143.2 21.3H1.5"/></g><g transform="matrix(0 -1 -1 0 239.5 218.7)"><ellipse fill="#5770BE" cx="146.3" cy="21.3" rx="10.6" ry="21.3"/><path stroke="#5770BE" stroke-width="3" stroke-linecap="square" d="M143.2 21.3H1.5"/></g><g transform="matrix(0 1 1 0 197 214.8)"><ellipse fill="#5770BE" cx="146.3" cy="21.3" rx="10.6" ry="21.3"/><path stroke="#5770BE" stroke-width="3" stroke-linecap="square" d="M143.2 21.3H1.5"/></g><g transform="rotate(45 -127.9 389.2)"><ellipse fill="#5770BE" cx="143.3" cy="22.1" rx="10.3" ry="22.1"/><path stroke="#5770BE" stroke-width="3" stroke-linecap="square" d="M140.3 22.1H1.5"/></g><g transform="scale(-1 1) rotate(-45 127.9 389.2)"><ellipse fill="#5770BE" cx="143.3" cy="22.1" rx="10.3" ry="22.1"/><path stroke="#5770BE" stroke-width="3" stroke-linecap="square" d="M140.3 22.1H1.5"/></g><g transform="scale(1 -1) rotate(45 403.4 169)"><ellipse fill="#5770BE" cx="143.3" cy="22.1" rx="10.3" ry="22.1"/><path stroke="#5770BE" stroke-width="3" stroke-linecap="square" d="M140.3 22.1H1.5"/></g><g transform="scale(-1 1) rotate(45 -349.9 -147)"><ellipse fill="#5770BE" cx="143.3" cy="22.1" rx="10.3" ry="22.1"/><path stroke="#5770BE" stroke-width="3" stroke-linecap="square" d="M140.3 22.1H1.5"/></g><g transform="rotate(22.5 -403 680.7)"><ellipse fill="#5770BE" cx="110.2" cy="16.2" rx="8" ry="16.2"/><path stroke="#5770BE" stroke-width="3" stroke-linecap="square" d="M108 16.2H1.1"/></g><g transform="scale(-1 1) rotate(-22.5 399.5 672)"><ellipse fill="#5770BE" cx="110.2" cy="16.2" rx="8" ry="16.2"/><path stroke="#5770BE" stroke-width="3" stroke-linecap="square" d="M108 16.2H1.1"/></g><g transform="scale(1 -1) rotate(67.5 289.4 64.3)"><ellipse fill="#5770BE" cx="110.2" cy="16.2" rx="8" ry="16.2"/><path stroke="#5770BE" stroke-width="3" stroke-linecap="square" d="M108 16.2H1.1"/></g><g transform="scale(-1 1) rotate(67.5 -262 -48)"><ellipse fill="#5770BE" cx="110.2" cy="16.2" rx="8" ry="16.2"/><path stroke="#5770BE" stroke-width="3" stroke-linecap="square" d="M108 16.2H1.1"/></g><g transform="rotate(67.5 -41 284.7)"><ellipse fill="#5770BE" cx="110.4" cy="16.9" rx="8" ry="16.9"/><path stroke="#5770BE" stroke-width="3" stroke-linecap="square" d="M108.1 16.9H1.1"/></g><g transform="scale(-1 1) rotate(-67.5 41 284.7)"><ellipse fill="#5770BE" cx="110.4" cy="16.9" rx="8" ry="16.9"/><path stroke="#5770BE" stroke-width="3" stroke-linecap="square" d="M108.1 16.9H1.1"/></g><g transform="scale(1 -1) rotate(22.5 707 455.6)"><ellipse fill="#5770BE" cx="110.4" cy="16.9" rx="8" ry="16.9"/><path stroke="#5770BE" stroke-width="3" stroke-linecap="square" d="M108.1 16.9H1.1"/></g><g transform="scale(-1 1) rotate(22.5 -621.3 -440.8)"><ellipse fill="#5770BE" cx="110.4" cy="16.9" rx="8" ry="16.9"/><path stroke="#5770BE" stroke-width="3" stroke-linecap="square" d="M108.1 16.9H1.1"/></g></g></g></g><path fill="#504F88" fill-rule="nonzero" d="M402 94h171v24H402z"/></g></svg>