<svg width="1000" height="800" xmlns="http://www.w3.org/2000/svg"><g transform="translate(86 102)" fill="none"><circle fill="#5770BE" cx="431.4" cy="548" r="46"/><path d="M706 591c26-7 53-15 74-34 18-16 30-41 23-66-8-24-30-41-54-49-13-5-27-7-41-9l-45-6a2079 2079 0 0 0-275-13c-27 0-56 0-81-11-20-9-37-25-43-47-6-25 6-50 22-68a471 471 0 0 1 179-94l33-10c20-8 40-22 45-45 5-21-3-45-18-61a97 97 0 0 0-67-28c-28-1-55 6-80 14-28 10-55 20-83 28-28 7-57 13-85 16-15 1-29 3-43 2-12-1-24-5-33-13-7-7-12-17-10-28 0-2 3-1 3 1-2 13 7 25 17 31 13 7 28 7 41 6a538 538 0 0 0 173-39c26-9 53-19 81-21 24-1 49 2 70 15 19 11 33 29 37 51 4 21-2 42-17 56-17 15-39 22-60 27a546 546 0 0 0-150 69c-22 15-44 34-51 62-4 12-3 26 2 38 5 10 13 19 23 26 22 16 50 20 77 20h91a2081 2081 0 0 1 231 17c14 1 28 3 41 6 24 6 48 17 63 37 7 9 11 20 12 31s-2 23-7 33c-12 23-33 37-56 47l-38 12c-2 1-3-2-1-3z" fill="#F2F2F2"/><circle fill="#F2F2F2" cx="125.9" cy="69.5" r="24"/><circle fill="#F2F2F2" cx="292.4" cy="115" r="24"/><circle fill="#F2F2F2" cx="433.4" cy="24" r="24"/><circle fill="#F2F2F2" cx="521.4" cy="126" r="24"/><circle fill="#F2F2F2" cx="402.4" cy="244" r="24"/><circle fill="#F2F2F2" cx="251.4" cy="301" r="24"/><circle fill="#F2F2F2" cx="411.4" cy="390" r="24"/><circle fill="#F2F2F2" cx="583.4" cy="440" r="24"/><circle fill="#F2F2F2" cx="784.4" cy="429" r="24"/><path d="M426 68a133 133 0 0 0-131 142c0 19 15 34 33 34a34 34 0 0 0 34-34v-7a64 64 0 1 1 99 54s-48 31-63 73c-3 9-4 18-4 27l1 63c0 19 16 34 35 34a35 35 0 0 0 34-35v-55c0-26 25-51 46-68a139 139 0 0 0 50-95A133 133 0 0 0 426 68z" fill="#5770BE"/><path d="M843 595H1a1 1 0 0 1 0-2h842a1 1 0 0 1 0 2z" fill="#3F3D56"/><circle fill="#2F2E41" cx="628.4" cy="243" r="30"/><path fill="#A0616A" d="M573 582h-12l-6-47h18z"/><path d="M552 579h24v15h-39a15 15 0 0 1 15-15z" fill="#2F2E41"/><path fill="#A0616A" d="M668 582h-12l-6-47h18z"/><path d="M647 579h24v15h-39a15 15 0 0 1 15-15z" fill="#2F2E41"/><circle fill="#A0616A" cx="623.9" cy="248.6" r="24.6"/><path d="m639 352 11-25a31 31 0 0 0-11-38 31 31 0 0 0-32-4l-1 1-2 1c-9 5-15 14-16 24l-5 40c-1 4-44 119-29 207 0 2 2 3 4 3l15 2c3 1 5-1 5-3l26-123a4 4 0 0 1 7-1l36 130a4 4 0 0 0 6 3l18-3c3-1 4-3 4-5-3-31-17-186-36-209z" fill="#2F2E41"/><path d="M528 269a10 10 0 0 0 11 11l14 33 10-15-14-29a10 10 0 0 0-21 0zm95 117a10 10 0 0 0 8-13l29-21-18-7-24 21a10 10 0 0 0 5 20z" fill="#A0616A"/><path d="M575 335h-3c-5-1-10-5-12-10l-19-23a5 5 0 0 1 1-7l14-8a5 5 0 0 1 6 1l14 23 25-20a10 10 0 0 1 12 16l-26 24c-3 3-7 4-12 4zm71 36h-1l-3-2-12-14a4 4 0 0 1 1-7l23-15-21-25a10 10 0 0 1 15-12l25 24a17 17 0 0 1-4 27l-20 22-3 2z" fill="#2F2E41"/><path d="M618 318h-1c-2 0-3-1-4-3l-9-28c0-1 0-3 2-4a35 35 0 0 1 15-3c6 0 12 2 17 5l1 4-18 27-3 2z" fill="#E6E6E6"/><circle fill="#2F2E41" cx="652.1" cy="219.8" r="9.8"/><path d="M618 209c-14 0-26 12-26 26v11h14l6-11 2 11h41l-11-11c0-14-11-26-26-26zm39 4c2-7 9-11 17-10 6 1 11 6 14 11l6 18c2 6 5 12 10 16s13 5 17 1a20 20 0 0 1-37 7c-3-4-3-10-4-15s-2-11-5-15-9-7-14-5l-4-8z" fill="#2F2E41"/><path d="M338 228c-19 0-34-15-34-34v-11c0-21 6-42 16-60a132 132 0 0 0-26 87c0 19 15 34 34 34 15 0 28-10 32-25-6 6-14 9-22 9zm91-89a64 64 0 0 1 55 90 64 64 0 1 0-107-67c13-16 32-24 52-23zm10 299c-19 0-34-15-35-34v-63c0-9 1-18 4-27l5-12c-7 8-12 18-15 28-3 9-4 18-4 27v63c1 19 16 34 35 34 16 0 29-10 34-25-7 6-15 9-24 9z" fill="#3F3D56"/><path fill="#FFB8B8" d="M127 583h12l6-48h-18z"/><path d="M162 594h-38v-15h24c8 0 14 7 14 15z" fill="#2F2E41"/><path fill="#FFB8B8" d="M83 583h12l6-48H83z"/><path d="M118 594H80v-15h24c8 0 14 7 14 15zm-25-26-12-1a5 5 0 0 1-4-5l14-158 66 18 6-2-19 140c-1 2-3 4-5 4l-13 1a5 5 0 0 1-5-5l3-84a2 2 0 0 0-3 0l-23 88a5 5 0 0 1-5 4z" fill="#2F2E41"/><circle fill="#FFB8B8" cx="128.7" cy="249.8" r="24.6"/><path d="m88 322 3 58 1 21c0 2 1 4 3 5l63 23h2a5 5 0 0 0 4-5l-2-105a37 37 0 1 0-74 3z" fill="#CCC"/><path d="M188 417a10 10 0 0 1-5-15l-22-29 19-1 17 27a10 10 0 0 1-9 18z" fill="#FFB8B8"/><path d="m173 396-2-2-33-77a12 12 0 1 1 23-10l33 77c1 3-1 5-3 6l-14 6h-4z" fill="#CCC"/><path d="m121 394 31-60c1-2 4-3 6-2l46 24c2 1 3 4 2 6l-31 60c-2 2-5 3-7 2l-45-24c-2-1-3-4-2-6z" fill="#3F3D56"/><path d="M142 367a10 10 0 0 0-16-5l-30-20v19l29 16a10 10 0 0 0 17-10z" fill="#FFB8B8"/><path d="m104 371-24-20a17 17 0 0 1-8-27l22-29a10 10 0 0 1 17 11l-17 28 25 12a5 5 0 0 1 2 7l-10 17a5 5 0 0 1-7 1z" fill="#CCC"/><path d="M110 266a2 2 0 0 1 2-3l4 2 3 3 3-1v-4l-2-9c0-4 1-8 3-11 2-4 7-5 12-5l13 2h4v-5c-1-5-2-9-5-13s-7-6-12-7c-4 0-9 0-13 2-7 2-14 6-18 12-5 6-7 14-6 22 1 6 5 13 10 17l2-2z" fill="#2F2E41"/><path d="M421 583a46 46 0 0 1-17-72 46 46 0 1 0 63 67 46 46 0 0 1-46 5z" fill="#3F3D56"/></g></svg>