<svg data-name="Layer 1" xmlns="http://www.w3.org/2000/svg" width="850" height="520.845"><path d="M542.337 273.358a14.652 14.652 0 0 0 11.039-26.925l-31.1-35.284-26.306 5.683 36.998 36.239a14.573 14.573 0 0 0 9.369 20.287z" fill="#a0616a"/><path fill="#3f3d56" d="m440.016 147.04 77.515 97.3 23.628-10.848-91.11-141.845-10.033 55.393z"/><path data-name="a9adb9ea-63bd-4fab-ab8c-5a8362c24c0e" d="M792.413 483.321c4.858-9.424 2.219-21.314-3.828-30.024s-14.976-14.916-23.71-20.929l-12.142-8.362 5.8 29.112c1.958 9.843 4.37 20.472 12.058 26.924a22.728 22.728 0 0 0 21.947 3.866" fill="#e6e6e6"/><path data-name="ed5b34f6-0534-4519-a094-dcdf83ab50dc" d="M791.496 519.153a.878.878 0 0 1-1.074.61.9.9 0 0 1-.61-1.074c.677-4.93 1.348-9.863 1.665-14.83.528-8.213.04-16.642-3-24.374a35.3 35.3 0 0 0-13.963-16.847c-.948-.598-.072-2.107.88-1.507a37.132 37.132 0 0 1 9.528 8.633c4.992 6.436 7.443 14.285 8.209 22.321.862 9.05-.402 18.116-1.631 27.07z" fill="#f2f2f2"/><path data-name="e0867f2b-861c-49f4-a2d1-8ca31a29fe8f" d="M667.903 463.862c38.258 23.543 25.505 54.934 25.505 54.934z" fill="#e6e6e6"/><path data-name="b461d634-05fb-4647-ba4f-16823402cab1" d="M743.092 496.043c-30.11-.192-34 22.182-34 22.182z" fill="#e6e6e6"/><circle cx="257.333" cy="512.15" r="8.502" fill="#3f3d56"/><path d="M263.516 340.953s20.096-61.06 21.641-65.31 17.777 2.705 22.028 3.864 3.092 5.41 3.092 5.41l-21.642 62.605 6.57 3.092 20.095-62.992c11.594-11.98 3.092-12.752 3.092-12.752s-24.733-8.502-34.008-9.275-5.796 10.434-5.796 10.434l-22.414 59.513z" fill="#3f3d56"/><path d="m311.822 355.637-.004-.003a24.1 24.1 0 0 0-11.59-8.885q-.249-.093-.579-.209c-10.647-3.721-84.826-23.75-84.826-23.75s-14.685-5.411-21.254 9.274-45.601 136.417-45.601 136.417 76.339 40.825 98.595 45.269a13.442 13.442 0 0 0 4.2.332 59.233 59.233 0 0 0 11.118-2.655 46.532 46.532 0 0 0 11.296-5.46l43.283-129.461s6.183-14.299-4.638-20.869z" fill="#6c63ff"/><path d="m311.822 355.638-.004-.004a24.1 24.1 0 0 0-11.59-8.885q-.249-.093-.579-.208c3.501 6.136 4.83 15.666 4.83 15.666s-42.509 126.37-46.373 138.35c-2.945 9.131-8.885 12.234-11.543 13.193a13.442 13.442 0 0 0 4.2.332 59.234 59.234 0 0 0 11.118-2.655 24.738 24.738 0 0 0 2.794-3.915s43.283-129.46 47.147-135.644c3.865-6.183 0-16.23 0-16.23z" fill="#3f3d56"/><circle cx="231.248" cy="512.343" r="8.502" fill="#3f3d56"/><circle cx="148.74" cy="476.596" r="8.502" fill="#3f3d56"/><path d="M298.6 280.818a14.652 14.652 0 0 1-11.992-26.515l29.824-36.369 26.49 4.743-35.682 37.533a14.573 14.573 0 0 1-8.64 20.608zm203.266 160.028 18.474-.29-2.222 62.966h-16.249l-.003-62.676z" fill="#a0616a"/><path d="m497.724 498.217 32.001-.001h.001a20.395 20.395 0 0 1 20.394 20.393v.663l-52.395.002z" fill="#2f2e41"/><path fill="#a0616a" d="m379.549 424.146 20.181 12.956-40.368 48.565-13.674-8.779 33.861-52.742z"/><path d="m345.066 470.184 26.93 17.289a20.395 20.395 0 0 1 6.143 28.18l-.358.557-44.09-28.306z" fill="#2f2e41"/><path d="M372.36 231.875s44.839-148.927 59.25-150.94 37.627 38.213 37.627 38.213c30.103 38.408 61.144 162.821 61.144 162.821s-51.746 3.238-89.573 23.364-82.468-1.02-82.468-1.02z" fill="#3f3d56"/><path d="M372.36 231.875s44.839-148.927 59.25-150.94 31.73 38.621 31.73 38.621c15 62 67.041 162.413 67.041 162.413s-51.746 3.238-89.573 23.364-82.468-1.02-82.468-1.02z" opacity=".1" style="isolation:isolate"/><path fill="#2f2e41" d="M409.147 187.317v74.835l-8.807 108.404-44 82 21 15 60-78 23.731-77.449 37.269 171.449 28-2-19.446-237.711-36.901-66.91-60.846 10.382z"/><path d="M454.356 114.935c14 14 1 29 1 29l16 36-63 17-22.016-98.379 15-16c30-1 30.016-1.621 30.016-1.621 5.257 5.144 23 34 23 34z" fill="#ccc"/><path d="M383.455 88.62a26.88 26.88 0 0 0-7.777 34.33c7.217 13.778 14.981 35.12 10.978 58.55-7.244 42.402-30.467 74.618-43.402 84.964-4.504 3.601-4.66 8.846-4 12.612 1.847 10.52 12.048 22.459 19.103 24.853a4.56 4.56 0 0 0 1.473.231c11.462.004 39.656-36.501 72.055-107.81 20.178-44.411 5.533-80.02-10.305-102.072a26.884 26.884 0 0 0-37.777-5.913z" fill="#3f3d56"/><path fill="#3f3d56" d="m413.34 131.556-90.984 119.379-24-10 86-145 28.984 35.621z"/><path d="M440.328 67.974h-62.579a4.86 4.86 0 0 1-4.855-4.855V36.145a36.145 36.145 0 1 1 72.29 0v26.974a4.86 4.86 0 0 1-4.856 4.855z" fill="#2f2e41"/><circle cx="591.466" cy="230.423" r="26.5" transform="rotate(-61.337 344.123 283.187)" fill="#a0616a"/><path d="M453.734 38.842H415.47l-.393-5.494-1.962 5.494h-5.892l-.777-10.888-3.889 10.888h-11.4v-.54a28.624 28.624 0 0 1 28.591-28.591h5.395a28.624 28.624 0 0 1 28.592 28.592z" fill="#2f2e41"/><path d="M415.156 73.009a4.958 4.958 0 0 1-.86-.076l-28.02-4.944V21.681h30.845l-.764.89c-10.624 12.391-2.62 32.484 3.097 43.357a4.783 4.783 0 0 1-.38 5.079 4.836 4.836 0 0 1-3.918 2.002z" fill="#2f2e41"/><path d="M0 519.845a1 1 0 0 1 1-1h848a1 1 0 0 1 0 2H1a1 1 0 0 1-1-1z" fill="#cbcbcb"/></svg>