<svg width="1000" height="800" xmlns="http://www.w3.org/2000/svg"><g transform="translate(58 64)" fill="none"><path fill="#E6E6E6" d="M.2 607h883.6v65.3H.2z"/><path fill="#3F3D56" d="M882.6 607H0v-2h883z"/><path d="M693.2 251.2v193.2H190.8V251.2a251.2 251.2 0 1 1 502.4 0z" fill="#E6E6E6"/><path d="M450.3.1v444.3h-22.8V.4a249.1 249.1 0 0 1 22.8-.3z" fill="#FFF"/><path d="M643 100.5H241c6-8 12.5-15.6 19.4-22.8h363.2a252 252 0 0 1 19.4 22.8zm-166.1 65.2h178v301.4h-178z" fill="#FFF"/><path fill="#E6E6E6" d="M512.1 216.7H539v26.9h-26.9zm43.4 0h26.9v26.9h-26.9zm43.3 0h26.9v26.9h-26.9zm-86 61.3h26.9v26.9h-26.9zm43.4 0h26.9v26.9h-26.9zm43.4 0h26.9v26.9h-26.9zm-86 61.3h26.9v26.9h-26.9zm43.4 0h26.9v26.9H557zm43.3 0h26.9v26.9h-26.9zm-86 61.4h26.9v26.9h-26.9zm43.4 0h26.9v26.9h-26.9zm43.4 0H628v26.9h-26.9z"/><path fill="#E6E6E6" d="M514.3 400.7h26.9v26.9h-26.9zm43.4 0h26.9v26.9h-26.9zm43.4 0H628v26.9h-26.9z"/><circle fill="#FFF" cx="250.5" cy="346" r="37.1"/><path fill="#FFF" d="M250.6 346h.1l1.9 105.2h-4z"/><path fill="#FFF" d="m256.6 401.7.8 1.6-6.1 3.2-.8-1.6z"/><circle fill="#FFF" cx="359.7" cy="291.2" r="56.4"/><path fill="#FFF" d="M359.8 291.2h.2l2.8 160h-6z"/><path fill="#FFF" d="m368.8 375.9 1.3 2.5-9.3 4.9-1.3-2.5zM243.2 237.3l9.6-7.7c-7.4-.8-10.5 3.3-11.7 6.5-5.8-2.4-12.1.7-12.1.7l19 7c-.9-2.6-2.6-4.9-4.8-6.5zm100.5-62.2 9.5-7.6c-7.4-.8-10.4 3.2-11.7 6.4-5.7-2.4-12 .8-12 .8l19 6.9c-1-2.6-2.6-4.8-4.8-6.5zm-38.3 59.1 9.5-7.7c-7.4-.8-10.4 3.3-11.7 6.5-5.8-2.5-12 .7-12 .7l19 7c-1-2.6-2.6-4.9-4.8-6.5z"/><path fill="#E6E6E6" d="M164.4 421.6h555.2v45.6H164.4zM81.5 540.2s-112.3-51.7-72.9-87.5c39.5-35.9 72.9 87.5 72.9 87.5z"/><path d="M79.5 552.3S28 382.7 104 390.8c76 8.1-24.4 161.5-24.4 161.5z" fill="#E6E6E6"/><path d="m41.9 537.2 2.1 28.4v.5c0 4.4.3 8.9.8 13.3 2.9 29 15.5 42.1 30.3 42.1s26.9-13.2 29.8-42.1c.4-4.4.7-8.9.7-13.3v-.4l2.2-28.5h-66z" fill="#E6E6E6"/><path d="M105.6 565.6v.5c0 4.4-.3 8.9-.7 13.3H44.8c-.5-4.4-.7-8.9-.7-13.3v-.5h61.5z" fill="#FFF"/><path d="M832.9 540.2s-112.3-51.7-72.9-87.5c39.5-35.9 72.9 87.5 72.9 87.5z" fill="#E6E6E6"/><path d="M831 552.3s-51.7-169.6 24.3-161.5c76 8.1-24.4 161.5-24.4 161.5z" fill="#E6E6E6"/><path d="m793.3 537.2 2.2 28.4v.5c0 4.4.2 8.9.7 13.3 3 29 15.6 42.1 30.3 42.1 14.8 0 26.9-13.2 29.8-42.1.5-4.4.7-8.9.7-13.3v-.4l2.2-28.5h-65.9z" fill="#E6E6E6"/><path d="M857 565.6v.5c0 4.4-.2 8.9-.7 13.3h-60.1c-.5-4.4-.7-8.9-.7-13.3v-.5H857z" fill="#FFF"/><path d="m683.8 643-7.4.8a35.9 35.9 0 0 1-20.2 4.6 6 6 0 0 1-1.2-11.9l5.6-1.3 13.5-13.2 8.1-14.7 11.9 1.3 2.4 18.7c.7 7.8-5 14.7-12.7 15.6zm-114.7-9.5-7.2 1.7c-5.4 4.1-12 6.2-19.6 6.8a6 6 0 0 1-2.6-11.6l5.5-2 11.9-14.6 6.4-15.6h12l4.5 18.3a14.5 14.5 0 0 1-10.9 17z" fill="#FFB8B8"/><path d="m563.2 599.2 13.5 2.1 21.2-107.2 36.8-62.7 44.5 182.3 16.6 3.1c-1.9-102.6 7.2-231.9-13.5-247.5l-90.1 10.3-39.4 105.7 10.4 114z" fill="#2F2E41"/><circle fill="#FFB8B8" cx="628.4" cy="178.7" r="31.1"/><path fill="#FFB8B8" d="m672 226.3-37.3 6.2-9.4-33.1 27-8.3z"/><path d="m687.5 373.4-99.4 9.3c8-27.7 15.2-55.3 9.3-82.8-7.6-24.6-.3-39.2 19.7-50.8l13.4-30 36.3-4.2a78.3 78.3 0 0 1 11 51.8c-5 39.2-3.7 75.5 9.7 106.7z" fill="#5770BE"/><path d="M627.7 142c-10.3 2.3-22.1 5.7-22.8 8.8-10.7 2.7-18.7 9.2-20.4 19a5.9 5.9 0 0 0 6 6.8 61 61 0 0 0 20.2-3c16.7 10.7 19.5 38.7 12.2 57.8l11.5-1 11.9-34.8 3 33.4 26.2-3.5-3.4-42.6a63.5 63.5 0 0 0-11.8-30.6 33.3 33.3 0 0 0-32.6-10.3z" fill="#2F2E41"/><path d="M562 653.6a3.6 3.6 0 0 0 3.5 4l11.7.2c1.3-.1 2.3-1.2 2.3-2.5 0-1-.6-2-1.6-2.3l-3.4-1.4-5-7h-4c-2 2.6-3.2 5.7-3.6 9zm-28 0a3.6 3.6 0 0 1-3.5 4l-11.7.2a2.5 2.5 0 0 1-.7-4.8l3.4-1.4 5-7h4c2 2.6 3.2 5.7 3.6 9z" fill="#FFB8B8"/><path fill="#3F3D56" d="M525.5 644.6h6l21-91 11 92h7l9.5-118.5-48.5-.5z"/><path d="M498.5 477.6h8v-19l1.8-3.6a5.2 5.2 0 0 0-3.8-7.5 5.2 5.2 0 0 0-6 5.2v25z" fill="#FFB8B8"/><circle fill="#FFB8B8" cx="546" cy="412.1" r="18.5"/><path fill="#FFB8B8" d="M557.5 443.7h-19v-22h19z"/><path d="M529.5 529.6c16.8 10.4 34.6 9.4 53 1l-4-93-21-1-22 3-11 9 5 81z" fill="#5770BE"/><path fill="#5770BE" d="m509.5 496.6 22-17-7-31-13 24-4-4-12 9z"/><path d="m607.2 439.2-7 3.9-9.3-16.6-3.3-2.3a5.2 5.2 0 0 1-.2-8.4 5.2 5.2 0 0 1 7.7 1.6l2.8 5.2 9.3 16.6z" fill="#FFB8B8"/><path fill="#5770BE" d="m568 467.1 26.6-14 13.9-7.5 2-12-9-9-11 7 1 8-13-2z"/><circle fill="#2F2E41" cx="550" cy="405.1" r="22"/><circle fill="#2F2E41" cx="562" cy="380.1" r="10"/><path d="M561.5 388.5a10 10 0 0 0 12.8-14.6 10 10 0 1 1-14.2 13.7l1.4.9z" fill="#2F2E41"/><path d="m623.3 404.5.7 24a13.1 13.1 0 1 1-25.8-3l5.4-20 15.5-85-1-49.6 33.1-1-6.2 55.9-21.7 78.7z" fill="#FFB8B8"/><path d="M653.3 275a52.4 52.4 0 0 0-37.3 0l2-41.4c0-9.2 7.5-16.6 16.7-16.6 9.1 0 16.5 7.4 16.5 16.6l2.1 41.4z" fill="#5770BE"/></g></svg>