<svg width="1000" height="800" xmlns="http://www.w3.org/2000/svg"><g transform="translate(159 61)" fill="none" fill-rule="evenodd"><ellipse fill="#E6E6E6" fill-rule="nonzero" cx="123.6" cy="230.5" rx="95.4" ry="194.6"/><path d="M123 233c4-85 14-142 14-143h-2s-10 58-14 142c-5 79-6 197 14 317l2-1c-20-119-19-237-14-315z" fill="#3F3D56" fill-rule="nonzero"/><path fill="#3F3D56" fill-rule="nonzero" d="m123 237 86-46 1 2-86 46zm-91-21 1-2 86 46-1 2z"/><ellipse fill="#5770BE" fill-rule="nonzero" cx="635.8" cy="379" rx="46.2" ry="94.3"/><path d="M636 383v1l42-23-1-2-41 22c2-41 7-69 7-70h-2s-6 34-8 82l-41-22-1 1 42 23v-1c-1 40 0 89 8 139h2c-9-54-9-109-7-150zm-2 203a795 795 0 0 0-633 0l-1-2c1 0 73-38 187-57a791 791 0 0 1 447 57v2zm-317-22s0-15 14-13" fill="#3F3D56" fill-rule="nonzero"/><circle fill="#5770BE" fill-rule="nonzero" cx="312.5" cy="542.9" r="7.1"/><path fill="#3F3D56" fill-rule="nonzero" d="M311 555h2v14h-2zm264 12s0-15 14-13"/><circle fill="#5770BE" fill-rule="nonzero" cx="570.5" cy="545.9" r="7.1"/><path fill="#3F3D56" fill-rule="nonzero" d="M569 558h2v14h-2zm-419-16s0-15 14-13"/><circle fill="#5770BE" fill-rule="nonzero" cx="145.5" cy="520.9" r="7.1"/><path fill="#3F3D56" fill-rule="nonzero" d="M144 533h2v14h-2zm115-10s0-15 14-13"/><circle fill="#5770BE" fill-rule="nonzero" cx="254.5" cy="501.9" r="7.1"/><path fill="#3F3D56" fill-rule="nonzero" d="M253 514h2v14h-2zm279 36s0-15 14-13"/><circle fill="#5770BE" fill-rule="nonzero" cx="527.5" cy="528.9" r="7.1"/><path fill="#3F3D56" fill-rule="nonzero" d="M526 541h2v14h-2z"/><path fill="#2F2E41" fill-rule="nonzero" d="m399 131 53 12 22-42-45-17z"/><path d="M427 356s-17 39-17 50c0 0 7 31 5 39l-8 16-15-7-4-42v-67l39 11zm10-231s1 23-2 30 11 20 11 20l21-27s-14-14-11-30l-19 7z" fill="#FFB9B9" fill-rule="nonzero"/><path d="M393 285s-21 38-1 36c20-3 13-37 13-37" fill="#E6E6E6" fill-rule="nonzero"/><path fill="#FFB9B9" fill-rule="nonzero" d="m405 284 7-66-1-41-15 3v38l-3 67"/><path d="m388 450 30-12 4 59s6 19 4 26c0 0 1 12-2 12l-14 2-1-3s-7 5-8 10c0 0-29 10-30 1-1-8 15-15 15-15l12-19-10-61z" fill="#2F2E41" fill-rule="nonzero"/><path d="M490 356s-17 39-17 50c0 0 7 31 5 39l-8 16-15-7-4-42v-67l39 11z" fill="#FFB9B9" fill-rule="nonzero"/><path d="m452 450 30-12 4 59s6 19 4 26c0 0 1 12-2 12l-14 2-1-3s-7 5-8 10c0 0-29 10-30 1-1-8 15-15 15-15l12-19-10-61z" fill="#2F2E41" fill-rule="nonzero"/><path d="M466 109a22 22 0 1 1-45 0 22 22 0 0 1 45 0z" fill="#FFB9B9" fill-rule="nonzero"/><path d="m446 154 18-9 8 6s19-1 26 7c7 9 11 30 11 30s-24-5-21 15l-4-11-4 9-47 17-21-36s-14-5-19 5c0 0 1-35 15-36l16-1 8-1 5-2 9 7z" fill="#575A89" fill-rule="nonzero"/><path d="M476 231s37 110 27 126c0 0-40 19-118-7l32-124c19-4 39-3 59 5z" fill="#2F2E41" fill-rule="nonzero"/><path d="m476 231 11-36c-13-14-2-44-2-44l-15-3s-15 41-31 36c-15-5-7-37-7-37l-14 2-6 24 5 53c19-2 39 0 59 5z" fill="#575A89" fill-rule="nonzero"/><path fill="#FFB9B9" fill-rule="nonzero" d="m495 284 4-66 2-41-16 3v38l-3 67"/><path d="M482 285s-20 38 0 36c19-3 13-37 13-37" fill="#FFF" fill-rule="nonzero"/><path d="M509 188s-3-36-24-36v42s16-9 24-6z" fill="#575A89" fill-rule="nonzero"/><path d="M451 114a1 1 0 0 1-1-1l12-9a1 1 0 1 1 1 1l-12 9z" fill="#FFF" fill-rule="nonzero"/><path d="m452 128-1 1a22 22 0 0 1-31-15l11-2 21 2c-5 5-5 7 0 14z" fill="#FFF" fill-rule="nonzero"/><path d="M431 77s-12 2-14 17l-1 7c1 3 0 9-6 16l-11 14 12 3 6-20c2-10 6-19 12-28 0 0 4 11 15 13l-4-5 20 10a5 5 0 0 1 2 8c-6 4-16 14-12 23s-1 11-1 11l9-4 4-2v4h20s6 0-4-15c0 0-2-5 0-10l2-10c-1-15-7-45-49-32zM145 500s0 95-22 120l-6 17-4 8v7s-42-5-47-16l8-10s2-1 0-6c-1-4 3-4 3-4l11-26-1-103 8-142 67-3-17 158z" fill="#2F2E41" fill-rule="nonzero"/><path d="M110 642s11 33 0 35c-11 1-106 3-105-10 2-12 33-11 33-11l33-20 39 6zm97-297s3 20-9 42c-13 22-5 95-5 95l111 98s-22 37-29 36c-8-2-132-102-132-102L95 351l112-6z" fill="#2F2E41" fill-rule="nonzero"/><path d="M303 575s33 9 29 19c-5 10-54 91-64 83s8-33 8-33l1-39 26-30z" fill="#2F2E41" fill-rule="nonzero"/><path d="M182 54a36 36 0 0 1-72 0 36 36 0 0 1 72 0z" fill="#A0616A" fill-rule="nonzero"/><path d="m175 66-2 47-30 12s-3-48-7-50c-5-3 39-9 39-9z" fill="#A0616A" fill-rule="nonzero"/><path d="M135 130s43-42 54-40c10 1 10 6 10 9s-3 5 0 6c4 2 7 0 7 5s28 52 19 103c-10 52-21 77-16 105s1 35 1 35-117 9-119-2c-1-11 5-5-3-12-7-8-4-8-4-13s34-196 51-196z" fill="#575A89" fill-rule="nonzero"/><path d="M157 343s-19 46-33 35 7-49 7-49l26 14z" fill="#FFF" fill-rule="nonzero"/><path d="M203 134s36 4 23 71c-14 68-67 146-67 146l-36-17 47-93-11-57s-6-55 44-50z" fill="#575A89" fill-rule="nonzero"/><path fill="#000" fill-rule="nonzero" opacity=".2" d="m171 242-52 86 5 5zm27 40-42 68h15zm-96 125 2-1 41 108-2 1z"/><circle fill="#D0CDE1" fill-rule="nonzero" cx="135.5" cy="136.8" r="2.2"/><path d="m136 137-19 61"/><path d="m117 199 1-1 19-61a1 1 0 1 0-3-1l-18 62a1 1 0 0 0 1 1z" fill="#D0CDE1" fill-rule="nonzero"/><path d="m139 81-9 9c-9-5-18-17-21-28l12-5c1 11 8 18 18 24z" fill="#FFF" fill-rule="nonzero"/><path d="m141 62-21-3a1 1 0 1 1 0-2l21 3a1 1 0 0 1 0 2zm-3 19a1 1 0 0 1 0-1l7-12a1 1 0 1 1 1 1l-7 12h-1z" fill="#FFF" fill-rule="nonzero"/><path d="m163 75-10-2c-11-4-19-17-16-28v-5c0-3-4-5-7-6l-10-2c-5-2-8-7-9-12-1-6 1-11 3-16l2 4 3-6c3 0 6 2 7 5 2 1 2-4 4-4h3c4 2 9 1 14-1 8-2 16-2 24 0 6 2 11 4 15 8 3 3 5 7 6 11 5 11 7 22 6 33-1 9-5 17-11 24-3 4-13 16-19 14-7-2 3-12-5-17z" fill="#2F2E41" fill-rule="nonzero"/></g></svg>