<svg width="1000" height="800" xmlns="http://www.w3.org/2000/svg"><g transform="translate(149 61)" fill="none"><path fill="#3F3D56" d="M36 335h177v2H36zm406 0h177v2H442z"/><circle fill="#5770BE" cx="124.2" cy="336.4" r="10.7"/><circle fill="#5770BE" cx="601.3" cy="336.4" r="10.7"/><path d="M116 155c12 36 8 69 8 69s-23-24-35-60-8-69-8-69 24 24 35 60z" fill="#5770BE"/><path d="M132 155c-12 36-8 69-8 69s24-24 35-60c12-36 8-69 8-69s-23 24-35 60z" fill="#5770BE"/><path d="M137 155c0 38-13 69-13 69s-16-31-16-68c-1-38 13-68 13-68s15 30 16 67z" fill="#3F3D56"/><circle fill="#5770BE" cx="122.1" cy="122.1" r="3.7"/><circle fill="#5770BE" cx="115" cy="151.5" r="2"/><circle fill="#3F3D56" cx="90.1" cy="131.3" r="2"/><circle fill="#3F3D56" cx="162.2" cy="111.5" r="2"/><circle fill="#3F3D56" cx="100.7" cy="150.5" r="2"/><circle fill="#3F3D56" cx="143.6" cy="138.6" r="2"/><circle fill="#3F3D56" cx="101.9" cy="180.5" r="2"/><circle fill="#3F3D56" cx="145.6" cy="168.9" r="2"/><circle fill="#5770BE" cx="125.8" cy="170.9" r="2"/><path fill="#3F3D56" d="m137 247-1-2 110-28-46-175L2 94l34 129-2 1L0 93l202-53v1l46 177z"/><path d="M520 159c16 50 10 96 10 96s-32-34-49-83c-16-50-10-96-10-96s32 34 49 83z" fill="#5770BE"/><path d="M541 159c-16 50-11 96-11 96s33-34 49-83c17-50 11-96 11-96s-33 34-49 83z" fill="#5770BE"/><path d="M548 160c1 52-19 95-19 95s-21-42-22-94c-1-53 18-95 18-95s22 42 23 94z" fill="#3F3D56"/><circle fill="#5770BE" cx="527.5" cy="113.7" r="5.1"/><circle fill="#5770BE" cx="517.5" cy="154.5" r="2.8"/><circle fill="#3F3D56" cx="482.9" cy="126.4" r="2.8"/><circle fill="#3F3D56" cx="583.1" cy="98.9" r="2.8"/><circle fill="#3F3D56" cx="497.7" cy="153.1" r="2.8"/><circle fill="#3F3D56" cx="557.3" cy="136.6" r="2.8"/><circle fill="#3F3D56" cx="499.4" cy="194.8" r="2.8"/><circle fill="#3F3D56" cx="560.1" cy="178.7" r="2.8"/><circle fill="#5770BE" cx="532.6" cy="181.5" r="2.8"/><path fill="#3F3D56" d="m548 287-1-2 153-39L637 2 361 74l47 180-2 1-48-182L638 0v1l64 246z"/><circle fill="#5770BE" cx="557.6" cy="81.3" r="12.4"/><circle fill="#3F3D56" cx="500.6" cy="87.9" r="6.6"/><circle fill="#3F3D56" cx="124.2" cy="380.4" r="17.6"/><circle fill="#3F3D56" cx="530.3" cy="380.4" r="17.6"/><path d="M309 677h-1c-45 0-87-2-119-6h-2a572 572 0 0 1-17-3c-23-4-35-9-35-14s8-9 24-13a313 313 0 0 1 34-5 1039 1039 0 0 1 140-6c72 2 148 10 148 23 0 9-27 14-51 17-32 5-75 7-121 7zm-1-45a1037 1037 0 0 0-149 11c-20 5-22 9-22 10 0 3 3 8 33 13a383 383 0 0 0 18 3h1c32 4 74 6 119 6h1c102 0 171-11 171-21s-55-20-147-22h-25z" fill="#3F3D56"/><path d="m224 634-1-1s-22-8-32-27-5-42-5-42v-1l1 1c1 0 22 8 33 27 10 19 5 42 5 42l-1 1zm-31-29c9 16 26 24 30 26 1-4 3-23-5-39-9-16-26-24-30-26-1 4-4 23 5 39z" fill="#3F3D56"/><path d="M199 599c18 12 25 33 25 33s-22 4-41-7c-18-11-25-33-25-33s23-4 41 7z" fill="#5770BE"/><path d="M342 243s-16-2-23 27c-8 28-10 30-10 30s45 7 46 5c1-3 10-55-13-62z" fill="#2F2E41"/><circle fill="#FFB8B8" cx="332.8" cy="202.7" r="29.6"/><path d="M320 227s9 25 6 28c-3 4 41 8 41 8s3-16-10-26c0 0-6-17-5-20 2-3-32 10-32 10z" fill="#FFB8B8"/><path d="M335 238c-11 4-10 11-19 19-13 15-19 19-19 19s-16 6-10 32c1 4 7 10 3 12-8 3-31 9-31 40 0 42 14 43 21 48 2 1 1 3-1 5 0 0-101 211-67 226 34 14 65 18 67 15s42-174 42-174 11 183 38 183 72-8 72-8l-56-219s14-37-19-64l-5-12c19 0 27-115 8-124 0 0-15-4-24 2z" fill="#2F2E41"/><path d="m319 297-10 40-13 33s-45 7-32 7c3 0-8-11-8-7-1 4 4 19 7 20 12 5 46 0 46 0 6-4 13-15 21-33s15-39 20-62l-31 2z" fill="#FFB8B8"/><ellipse fill="#2F2E41" cx="245.7" cy="651.8" rx="19.2" ry="11"/><ellipse fill="#2F2E41" cx="392.5" cy="651.8" rx="19.2" ry="11"/><path d="m344 161-4 1c-3-2-6-2-9-2h-1c-15 0-27 13-27 30h5l1-6 1 6h4l-2 16v31h8l4-12-1 12h49l5-11-1 11h5v-25c0-28-16-51-37-51z" fill="#2F2E41"/></g></svg>