<svg xmlns="http://www.w3.org/2000/svg" width="1000" height="800"><defs><linearGradient x1="50%" y1="100%" x2="50%" y2="0%" id="a"><stop stop-color="gray" stop-opacity=".3" offset="0%"/><stop stop-color="gray" stop-opacity=".1" offset="54%"/><stop stop-color="gray" stop-opacity=".1" offset="100%"/></linearGradient></defs><g transform="translate(0 19)" fill="none"><path d="M877 563.2a90.6 90.6 0 0 1-47.3 23c-5.1 1-10.4 1.7-15.6 2.1a228 228 0 0 1-41.8-1.1 494 494 0 0 1-137.5-35.5c-31.3-13.1-63.7-29.8-97.1-24.6-16.2 2.5-31.4 10.1-47.6 12.4a85 85 0 0 1-34-2.5c-5.3-1.4-10.6-3.2-15.7-5.4-11.4-5-22.4-11.1-32.5-18.4-24.5-17-46.4-38.2-72.2-53-28.3-16.4-59.7-24.1-91.8-29.9l-15.6-2.7c-14.8-2.4-29.7-4.7-44.3-7.4a112 112 0 0 1-40.7-13.6 101.8 101.8 0 0 1-22.9-21.4 256 256 0 0 1-33.2-51.9 340.4 340.4 0 0 1-28.3-89.5l-.4-2.7a505.3 505.3 0 0 1-6.6-94.1v-2.8a658 658 0 0 1 2.8-46.4c1-10.8 2.4-22 8-31S77.3 52 86.4 47.1c40-21.2 78.2-27.2 121.2-16.8a778 778 0 0 1 36.3 9.5c36.1 10 72.1 20.8 109.5 24a265.5 265.5 0 0 0 32.2 1 370.1 370.1 0 0 0 70.5-8.7 692.2 692.2 0 0 0 80.2-22.2l30.3-10a476.6 476.6 0 0 1 91.6-22.2A315 315 0 0 1 673.8.4a261 261 0 0 1 176.6 57.3c13.7 11 26.5 23.4 36.3 38.4a138.7 138.7 0 0 1 19.8 50.8 221.8 221.8 0 0 1-4.2 94.1l-.7 2.8c-6.3 26.3-14.4 52.5-12.3 79.4a117.6 117.6 0 0 0 1.8 12.9c4 21.9 13.4 42.7 19 64.4a198.6 198.6 0 0 1-8.6 124.3c-5.9 14.3-13.6 28-24.5 38.4z" fill="#5770BE" opacity=".1"/><path d="M829.7 147h76.8l-.6-2.8h-76.2V42.8c-5-3.4-10.3-6.5-15.6-9.5v110.9H673.8V.4a214.4 214.4 0 0 0-15.6 1.3v142.5H458l-.5-.6L566.5 24l-30.2 9.9-80.2 88V56.1l-15.7 3v65.8l-54.8-60.2c-7.1.2-14.3.1-21.4-.2l72 79.1-.4.6H244V39.8l-15.7-4.3v108.7H52v2.7h176.4V241H58.5l.4 2.8h169.4v89.5H87.2l1.3 2.8h139.8v91.5l15.6 2.7v-94.2h196.5v195.5c5.1 2.2 10.4 4 15.7 5.4V336h202v224.7c5.3 2 10.5 3.7 15.7 5.4v-230h140.3v252.2c5.2-.4 10.5-1 15.6-2V336h61.4l-.5-2.8h-60.9v-89.5h71.9l.6-2.8h-72.5v-94zm-15.6 0v94H673.8v-94h140.3zm-156 94h-202v-94h202v94zM244 147h193.8l2.7 2.5V241H244v-94zm0 186.3v-89.5h196.5v89.5H244zm212.2 0v-89.5h202v89.5h-202zm358 0H673.8v-89.5h140.3v89.5z" fill="#5770BE" opacity=".1"/><path d="M746.6 82.1h-1.2a3 3 0 0 0 1.5-2.4c0-1.9-2.3-3.4-5.2-3.4h-36.4c-2.8 0-5.2 1.5-5.2 3.4 0 2 2.4 3.5 5.2 3.5h1.2a3 3 0 0 0-1.4 2.4c0 1.6 1.7 3 4 3.4h-10.5c-2.9 0-5.2 1.5-5.2 3.4 0 2 2.3 3.5 5.2 3.5H735c2.8 0 5.1-1.6 5.1-3.5 0-1.6-1.7-3-4-3.3h10.5c2.9 0 5.2-1.6 5.2-3.5s-2.3-3.5-5.2-3.5zm-394 33h-1.2a3 3 0 0 0 1.5-2.4c0-1.9-2.4-3.4-5.2-3.4h-36.4c-2.9 0-5.2 1.5-5.2 3.4 0 2 2.3 3.5 5.2 3.5h1.2a3 3 0 0 0-1.5 2.4c0 1.6 1.7 3 4 3.4h-10.5c-2.8 0-5.2 1.5-5.2 3.4 0 2 2.4 3.5 5.2 3.5H341c2.9 0 5.2-1.6 5.2-3.5 0-1.6-1.7-3-4-3.3h10.5c2.9 0 5.2-1.6 5.2-3.5 0-2-2.4-3.5-5.2-3.5zm449.8 141.2h-1.2a3 3 0 0 0 1.5-2.4c0-1.9-2.3-3.5-5.2-3.5H761c-2.8 0-5.2 1.6-5.2 3.5 0 2 2.4 3.5 5.2 3.5h1.2a3 3 0 0 0-1.4 2.4c0 1.6 1.7 3 4 3.4h-10.5c-2.9 0-5.2 1.5-5.2 3.4 0 2 2.3 3.5 5.2 3.5h36.3c2.9 0 5.2-1.6 5.2-3.5 0-1.6-1.7-3-4-3.3h10.5c2.9 0 5.2-1.6 5.2-3.5s-2.3-3.5-5.2-3.5z" fill="#5770BE" opacity=".1"/><ellipse fill="#5770BE" opacity=".1" cx="484.9" cy="671.9" rx="389.8" ry="43"/><path d="M565.9 365.7v135.4a25.5 25.5 0 0 1-25.5 25.5H426a25.5 25.5 0 0 1-25.5-25.5V365.7a25.5 25.5 0 0 1 25.5-25.5h114.4a25.5 25.5 0 0 1 25.5 25.5z" fill="#5770BE"/><path d="M402.3 365.7v135.4c0 2.3-.3 4.6-1 6.8-.5-2.2-.8-4.5-.8-6.8V365.7c0-2.3.3-4.6.9-6.8.6 2.2 1 4.5 1 6.8z" fill="#000" opacity=".1"/><rect fill="#5770BE" x="200" y="340.2" width="200.5" height="186.3" rx="27.7"/><path d="M565.9 365.7v135.4a25 25 0 0 1-1 6.8c-.5-2.2-.9-4.5-.9-6.8V365.7c0-2.3.4-4.5 1-6.8a25 25 0 0 1 .9 6.8z" fill="#000" opacity=".1"/><rect fill="#5770BE" x="565.9" y="340.2" width="200.5" height="186.3" rx="27.7"/><path d="M390.3 540.4H207.2l-1-16c-1-18 22.3-32.9 51.3-32.9H382c9.8 0 17.3 5.3 16 11.3l-7.8 37.6z" fill="#000" opacity=".1"/><path d="M390.3 542.2H207.2l-1-16c-1-18 22.3-32.9 51.3-32.9H382c9.8 0 17.3 5.3 16 11.3l-7.8 37.6z" fill="#4E64AA"/><path d="M573.8 541.5H757l1-16c1-18-22.3-33-51.3-33H582c-9.7 0-17.2 5.4-16 11.3l7.8 37.7z" fill="#000" opacity=".1"/><path d="M573.8 543.3H757l1-16c1-18-22.3-32.9-51.3-32.9H582c-9.7 0-17.2 5.3-16 11.3l7.8 37.6z" fill="#4E64AA"/><path d="M422 492.6h124.1a26.4 26.4 0 0 1 26.4 26.3v16.4H393.1v-13.8c0-16 13-29 29-29z" fill="#000" opacity=".1"/><path d="M422 494.4h124.1a26.4 26.4 0 0 1 26.4 26.4v16.4H393.1v-13.9c0-16 13-28.9 29-28.9z" fill="#4E64AA"/><path d="M219.7 510.9h148.5a25 25 0 0 1 25 24.9v33.7H208.5v-47.6c0-6 5-11 11-11z" fill="#5770BE"/><path d="M411.5 510.9h141.2a25 25 0 0 1 24.9 24.9v33.7H388v-35.1c0-13 10.5-23.5 23.5-23.5z" fill="#000" opacity=".1"/><path d="M415.2 510.9h141.2a25 25 0 0 1 24.9 24.9v33.7H391.7v-35.1c0-13 10.5-23.5 23.5-23.5z" fill="#000" opacity=".1"/><path d="M413.4 510.9h141.1a25 25 0 0 1 25 24.9v33.7H389.8v-35.1c0-13 10.5-23.5 23.5-23.5z" fill="#5770BE"/><path d="M585.2 510.9H736a23.8 23.8 0 0 1 23.8 23.7v34.9H575.3v-48.7c0-5.5 4.5-10 10-10z" fill="#000" opacity=".1"/><path d="M587 510.9h151a23.8 23.8 0 0 1 23.7 23.7v34.9H577.2v-48.7a9.9 9.9 0 0 1 9.9-10z" fill="#5770BE"/><path d="M211.3 647.4v25.1c0 7-5.6 12.7-12.6 12.7h-8.8c-7 0-12.7-5.7-12.7-12.7v-25h34.1zm580.7 0v25.1c0 7-5.6 12.7-12.6 12.7h-8.8c-7 0-12.7-5.7-12.7-12.7v-25H792z" fill="#65617D"/><path d="M220.7 482.4a33.7 33.7 0 1 0-40.2 33v136.2h37.8V494.8c1.6-4 2.4-8.1 2.4-12.4zm526.5 0a33.7 33.7 0 1 1 40.2 33v136.2h-37.8V494.8c-1.6-4-2.4-8.1-2.4-12.4z" fill="#5770BE"/><path d="M220.7 482.4a33.7 33.7 0 1 0-40.2 33v136.2h37.8V494.8c1.6-4 2.4-8.1 2.4-12.4zm526.5 0a33.7 33.7 0 1 1 40.2 33v136.2h-37.8V494.8c-1.6-4-2.4-8.1-2.4-12.4z" fill="#000" opacity=".1"/><path fill="#65617D" d="M200 628h570v26.3H200z"/><path fill="#000" opacity=".1" d="M206.3 569.5h560.1v60.4H206.3z"/><path fill="#4E64AA" d="M206.3 567.6h560.1V628H206.3z"/><path fill="#000" opacity=".1" d="M758 647.4h34.1v8.8H758z"/><path d="M755.6 485.2a33.7 33.7 0 1 1 40.1 33v136.1H758V497.6c-1.6-4-2.3-8.2-2.3-12.4z" fill="#5770BE"/><path fill="#000" opacity=".1" d="M177.2 647.4h33.7v8.8h-33.7z"/><path d="M213.2 485.2a33.7 33.7 0 1 0-40.2 33v136.1h38V497.6c1.5-4 2.3-8.2 2.3-12.4z" fill="#5770BE"/><path fill="#000" opacity=".1" d="M218.3 567.6h531.5v1.7H218.3z"/><circle fill="#4E64AA" cx="177.2" cy="484.1" r="15.2"/><circle fill="#4E64AA" cx="792" cy="484.1" r="15.2"/><path d="M338.2 458.4c-14.5-3.6-45.1-41.9-45.1-41.9-11.5-8-35-56.7-35-56.7s-9-4.2-16.8 14.6c-7.8 19-53.5 34-67.1 36.1-7.7 1.2-7 4.6-4.9 7.4 1.5 1.8 3.4 3.1 5.5 3.9 5.8 2.2 23.9 23.8 23.9 23.8 16.8 11.4 35.4 63.9 41.6 77.6 3.5 7.6 7.3 4 10-.8 5.3-9.1 12.5-17 21.2-23.1a156 156 0 0 1 50.3-23.4c2.2 0 31-13.9 16.4-17.5z" fill="#000" opacity=".1"/><path d="M145.4 413.4c-2.3-.9-4.4-2.4-6-4.4-2.4-3-3.5-7 4.6-8.3 14.2-2.3 61.3-19.2 68.3-40.4 7-21.3 16.6-16.5 16.6-16.5s28 55 40.8 64.1c0 0 34.9 43.2 50.4 47.3 15.6 4.2-13.7 19.7-16 19.7-1.9 0-27.8 7.7-51.4 26.2a72.7 72.7 0 0 0-20.7 26c-2.5 5.4-6.3 9.5-10.5.9-7.5-15.5-30.8-74.7-49.3-87.6 0 0-20.5-24.5-26.8-27z" fill="#504F88"/><path d="M145.4 413.4c-2.3-.9-4.4-2.4-6-4.4-2.4-3-3.5-7 4.6-8.3 14.2-2.3 61.3-19.2 68.3-40.4 7-21.3 16.6-16.5 16.6-16.5s28 55 40.8 64.1c0 0 34.9 43.2 50.4 47.3 15.6 4.2-13.7 19.7-16 19.7-1.9 0-27.8 7.7-51.4 26.2a72.7 72.7 0 0 0-20.7 26c-2.5 5.4-6.3 9.5-10.5.9-7.5-15.5-30.8-74.7-49.3-87.6 0 0-20.5-24.5-26.8-27z" fill="#000" opacity=".1"/><path d="M155.4 412.3c-2.2-.8-4.1-2.1-5.6-4-2.2-2.7-3.1-6.2 4.4-7.6 13.5-2.3 58.2-18.4 65-38 6.9-19.6 16-15.3 16-15.3s25.6 49.8 37.5 58c0 0 32.3 39 46.8 42.5 14.6 3.5-13.2 18.1-15.4 18.2-1.7 0-26.4 7.4-48.9 24.7a70 70 0 0 0-19.8 24.1c-2.5 5-6.2 8.7-10 1-6.8-14.1-27.9-68-45.1-79.4 0 0-19-22-24.9-24.2z" fill="#504F88"/><path d="M207.2 429.9s-4.9 4.5 18.3-4.2c23-8.7-18.3 4.2-18.3 4.2zm18.9 22.1s3.6.6 16.8-4.8c13.3-5.4-16.8 4.9-16.8 4.9zm-1.1 40.8s3.3 0 16.5-5.5c13.2-5.4-16.5 5.5-16.5 5.5zm539.5-91.2v17.6c-3.8 7.9-7.5 18-7.5 18-11 14.3-9.3 62.3-10 75.3-.4 7.2-5.1 5.5-9.2 2.5a73 73 0 0 0-27.1-11.9 166.7 166.7 0 0 0-53.3-3c-2 .7-32.5-1.3-20.8-8.8 11.7-7.5 25.7-47.8 25.7-47.8 7.5-10 11.4-56.6 11.4-56.6s6.5-6.1 20.2 6.5c13 12.1 55.4 10.6 70.6 8.2z" fill="#000" opacity=".1"/><path d="M774.6 407.7c1.6-1.2 2.9-2.9 3.6-4.8.9-2.9.4-5.9-7-4.4-13 2.6-59 4.9-72.7-7.8-13.7-12.7-20.2-6.5-20.2-6.5s-3.9 46.5-11.4 56.6c0 0-14 40.3-25.7 47.7-11.7 7.5 18.9 9.6 20.9 9 1.5-.6 26.4-3 53.2 2.8a73 73 0 0 1 27 12c4.2 3 8.9 4.6 9.3-2.6.7-12.9-1-61 10-75.3 0 0 8.6-23 13-26.7z" fill="#504F88"/><path d="M774.6 407.7c1.6-1.2 2.9-2.9 3.6-4.8.9-2.9.4-5.9-7-4.4-13 2.6-59 4.9-72.7-7.8-13.7-12.7-20.2-6.5-20.2-6.5s-3.9 46.5-11.4 56.6c0 0-14 40.3-25.7 47.7-11.7 7.5 18.9 9.6 20.9 9 1.5-.6 26.4-3 53.2 2.8a73 73 0 0 1 27 12c4.2 3 8.9 4.6 9.3-2.6.7-12.9-1-61 10-75.3 0 0 8.6-23 13-26.7z" fill="#000" opacity=".1"/><path d="M771.3 409.8a10 10 0 0 0 3.3-4.6c1-2.8.4-5.6-6.5-4.2-12.3 2.5-56.2 4.6-69.1-7.4-13-12-19.2-6.1-19.2-6.1s-3.7 44.1-10.8 53.7c0 0-13.2 38.2-24.4 45.3-11 7.1 18 9 19.8 8.5 1.5-.5 25.1-2.8 50.6 2.7 9.2 2 18 5.9 25.7 11.4 3.9 2.7 8.3 4.4 8.7-2.4.7-12.3-.9-58 9.6-71.6 0 0 8-21.9 12.3-25.3z" fill="#504F88"/><path d="M738.8 435.2s-3.2 1.9-18.7 7.2c-15.4 5.3 16.2-2.1 18.7-7.2zm-1.6 16.3s-9.7 8-14.6 8.6c-4.8.7 11.8-.8 14.6-8.6zm7.7 36.7s-9.7 7.9-14.5 8.6c-4.9.7 11.7-.9 14.5-8.6z" fill="#000" opacity=".1"/><path d="M598 494.8c-1.4 0-2.7-.2-4-.6-.2-.4-1-.7-2.5-.8h-.3a32.9 32.9 0 0 1-12.5-8.5c-4.5-4.9-17-11-17-11s-9-7.5-14.8-8.1c-5.9-.6-22.1-17-36-32.1-13.7-15.2-35-31.7-35-31.7l-9.1-10s-10.6-7.6-13-11.8c-1.3-2.2-5.5-3.4-9.8-3.8a33.1 33.1 0 0 0-15.8-1 62 62 0 0 0-14 12.1l4.8-62.2c.1-1.8-1-3.5-2.7-4l-16.3 8c-1.2.5-2 1.7-2.1 3l-4.4 66.9-19.3 14c-.4-2.3-1.4-4.5-3-6.4-10.7-14-27.5 12.7-33.8 23.9l-.9.1c0 .4-.3.7-.5.9a80 80 0 0 1-13.5-8.3c-.3-.4-.6-.7-.7-1.1a177.1 177.1 0 0 0-23.9-25.8c-.7-.3-4.1-3-8.4-6.3-.6-1.4-1.3-2.7-2.1-4-3-5-8.1-6.5-11.7-7a85.7 85.7 0 0 0-6.6-4.8 49 49 0 0 1-10.1-14.6c-2.6-5.3-21.1-6-21.1-6a43.3 43.3 0 0 1 4.8-20.8l.6-1.1a33.6 33.6 0 0 0 22.4-43.3c2.4-.8 5.3-.4 7.8-1.3 3.3-1.2 6.4-4 6.9-7.4.2-2.3-.3-4.7-1.6-6.7-1-2-2.5-3.8-4.2-5.3a43.5 43.5 0 0 0-17.5-10 67.6 67.6 0 0 0-25.3-4.4 32 32 0 0 0-22.8 10.3c-1 1.4-2.1 2.6-3.4 3.6-2 1.4-4.5 1.6-7 1.5-7.8-.3-16-3.4-23.3-.3-8.7 3.7-11.8 14.3-13 23.7-1 9.6-1.4 19.5-4 28.8a36.7 36.7 0 0 1-16.3 23.3c-2.5 1.3-5.2 2.3-7.6 3.9-2.3 1.6-4.3 4-4.4 6.9 0 3.9 3.5 6.7 5.3 10.2 1 1.7 1.5 3.7 2.4 5.4l.3.5v.1a9.4 9.4 0 0 0 .4.5l.3.4v.1l.5.4.5.5.4.4c4 4 11 1.8 16 4.2 1 .5 1.9 1.1 2.7 1.9 1.7 1.8 3 4 4.6 6.1l.1.1.5.6.2.3.4.4.6.7.4.4.5.5c4.2 4.2 10.4 5.6 16.3 6 3.2.2 6.5.2 9.5-1 1.3-.6 2.6-1.5 3.7-2.5 1.7 1.4 3.6 2.6 5.5 3.6 4.9 3.2 10.2 6.2 15.3 9.5 5.3 5 11.7 12.2 11.8 17.4.1 6.9 9.6 20.4 13.8 26.1l.3 1.8 19.5 28.7s1.5 4.4 9 4.7c-1.3 8.6-.9 23.8 5.9 25.4 7.8 1.8 20.5.3 22.4 2.6 1.8 2.3 32.2-1.2 32.2-1.2s16.9-3.9 28-.5c7 2 14.4 1.4 21-1.5 0 0 12.2-1.2 13.7-5.9.3-.4.5-1 .6-1.5l.4-1.5c1.3-2 3.1-2.5 2.4-3 1-.8 1.2-1-1.7-1.4-1.9-.3-3.8-.2-5.7.2l2-2.2h1.3c4.3.2 4-1.6 8-2.6 4.5-1.2 9.1-1.6 15.1-2.3 6-.7 12.2-4.1 14.8-7.4 2.5-3.2 13.3-1.4 16.3-6.9 2.6-4.7-6.5-8.7-11.3-8.4-1.2-.1-2.4 0-3.4.6-2.9 1.9-13 2.7-16.6 3-.7-.3-3.8-1.4-7.4-2.3a348 348 0 0 1 11.5-17.8c7.2-10.3 11.5-14 11.5-14 1.5-2.3 3.3-4.5 5.5-6.2 5.4 13.6 37.2 36.5 52.6 39.2a85.4 85.4 0 0 1 33.4 16.6s-1.5 6.5-1.5 9.3c0 1.2 3 1.8 7 2.1 2.5 2 15 1.7 19.8 1 5.4-1 20.6 2.8 33 3.6 12.4.8 23.9-5 16.4-5.4z" fill="url('#a')"/><path d="m291.5 390.3-1.2 14.6 7.2 15.5 10 8.8 11 6.5 10.1 7 10.1-9s-14.8-9.6-16.1-12.9c-1.4-3.2-8-9.8-8-9.8l-9.5-9-7.6-7-6-4.7z" fill="#E6E6E6"/><path d="m291.5 390.3-1.2 14.6 7.2 15.5 10 8.8 11 6.5 10.1 7 10.1-9s-14.8-9.6-16.1-12.9c-1.4-3.2-8-9.8-8-9.8l-9.5-9-7.6-7-6-4.7z" fill="#000" opacity=".1"/><path d="M245.4 333.4a40 40 0 0 0-3.2 29.8c6.6 22.2-41.7-8.8-41.7-8.8s10.4-15.5 13.4-29c1-4.3 1.2-8.4 0-11.7-4.7-13.5 38 9.9 38 9.9a46 46 0 0 0-6.5 9.8z" fill="#FFBEC5"/><path d="M239.3 353.8s18.2.7 20.6 5.8a47.6 47.6 0 0 0 10 14.4c2.2 1.2 26 20.7 28 21.6 2 .9 22.5 22.2 22.5 24.5 0 2.2 21 15.3 34.6 17.3 13.4 2 34 26.3 40.2 25.3 6-.9 18.4 3.6 18.4 3.6s14-.6 17.3-2.9c3.4-2.2 16 2.3 13 7.7-2.9 5.3-13.4 3.6-16 6.7a23.7 23.7 0 0 1-14.3 7.2c-5.8.7-10.3 1.1-14.8 2.2-4.5 1.2-3.4 3.4-10.2 2.3-6.7-1.1-33-47.9-33-47.9l-29.2-13.2s-11-9-11.9-12c-.9-2.8-22-22.8-22-22.8l-27.6-20.3-25.6-19.5z" fill="#000" opacity=".1"/><path d="M240.7 353.8s18.1.7 20.6 5.8a47.7 47.7 0 0 0 9.9 14.4c2.2 1.2 26 20.7 28 21.6 2 .9 22.5 22.2 22.5 24.5 0 2.2 21.1 15.3 34.6 17.3s34.1 26.3 40.2 25.3c6-.9 18.5 3.6 18.5 3.6s13.9-.6 17.3-2.9c3.3-2.2 15.9 2.3 13 7.7-3 5.3-13.5 3.6-16 6.7A23.7 23.7 0 0 1 415 485c-5.9.7-10.4 1.1-14.9 2.2-4.5 1.2-3.4 3.4-10.1 2.3-6.8-1.1-33-47.9-33-47.9l-29.3-13.2s-11-9-11.9-12c-.9-2.8-22-22.8-22-22.8l-27.6-20.3-25.5-19.5z" fill="#E6E6E6"/><path d="M335.3 454.1s27.2-24 28.6-25.9c.6-.9 9.2-7.4 17.8-13.8 10.6-8 20.6-16.7 29.7-26.2a68.7 68.7 0 0 1 15-13.3c4.7-1 16.4-.6 18.8 3.4 2.4 4 12.7 11.4 12.7 11.4l8.8 9.9s20.9 16.2 34.3 31c13.5 14.8 29.4 30.8 35 31.4 5.8.6 14.5 8 14.5 8s12.2 6 16.6 10.8a29 29 0 0 0 18.8 9.7c7.4.3-3.9 6-16 5.2-12.1-.7-27-4.5-32.2-3.6-5.2 1-19.9 1-19.9-1.6 0-2.7 1.5-9 1.5-9s-16.2-13.4-32.6-16.3c-16.5-2.8-52.5-29.6-52.2-42 0 0-5-.5-10.9 8.5 0 0-4.2 3.6-11.2 13.6-7 10-15.4 24.4-15.4 24.4s-13 26.3-23.5 26.1c-10.5-.2-21.8-1.4-21.8-1.4l-13.9-9.9-1-12-1.5-18.4z" fill="#FFBEC5"/><path d="M335.3 454.1s27.2-24 28.6-25.9c.6-.9 9.2-7.4 17.8-13.8 10.6-8 20.6-16.7 29.7-26.2a68.7 68.7 0 0 1 15-13.3c4.7-1 16.4-.6 18.8 3.4 2.4 4 12.7 11.4 12.7 11.4l8.8 9.9s20.9 16.2 34.3 31c13.5 14.8 29.4 30.8 35 31.4 5.8.6 14.5 8 14.5 8s12.2 6 16.6 10.8a29 29 0 0 0 18.8 9.7c7.4.3-3.9 6-16 5.2-12.1-.7-27-4.5-32.2-3.6-5.2 1-19.9 1-19.9-1.6 0-2.7 1.5-9 1.5-9s-16.2-13.4-32.6-16.3c-16.5-2.8-52.5-29.6-52.2-42 0 0-5-.5-10.9 8.5 0 0-4.2 3.6-11.2 13.6-7 10-15.4 24.4-15.4 24.4s-13 26.3-23.5 26.1c-10.5-.2-21.8-1.4-21.8-1.4l-13.9-9.9-1-12-1.5-18.4z" fill="#000" opacity=".1"/><path d="M341.5 455.5s27.3-24.1 28.6-26c1.4-1.7 35.2-26.6 35.2-26.6s22.8-25.6 27.4-26.6c4.7-1 16.4-.6 18.8 3.4 2.4 4 12.7 11.4 12.7 11.4l8.8 9.9s20.8 16.1 34.3 31c13.5 14.8 29.4 30.8 35 31.4 5.8.6 14.4 8 14.4 8s12.3 6 16.6 10.7a29 29 0 0 0 18.9 9.8c7.3.3-3.9 6-16 5.2-12.2-.7-27-4.5-32.2-3.6-5.3 1-20 1.1-20-1.7 0-2.7 1.6-9 1.6-9s-16.2-13.4-32.7-16.3c-16.4-2.8-52.3-29.6-52-42 0 0-5.2-.5-11 8.5 0 0-4.2 3.6-11.2 13.7-7 10-15.5 24.4-15.5 24.4s-13 26.3-23.5 26c-10.5-.1-21.7-1.3-21.7-1.3l-13.9-10-1-12-1.6-18.3z" fill="#FFBEC5"/><path d="m429.3 469.5-2.2 1-4.6 2.6c4 .6 8 .7 12.1.3 2.3-.2 5.5-2.1 2.9-4.4-2-1.8-6.2-.4-8.2.5zm-21.1 3.2c2.5-.5 5.2-1 7.5 0l2.3 1.4 4 2.9a50.9 50.9 0 0 1-12 1.9c-.7-.2-1.2-.6-1.7-1-3.1-2.7-5.2-4.2-.1-5.2zM252 323.6a46 46 0 0 0-6.6 9.8 33 33 0 0 1-31.5-8c1-4.3 1.2-8.4 0-11.7-4.7-13.5 38.1 9.9 38.1 9.9z" fill="#000" opacity=".1"/><circle fill="#FFBEC5" cx="236.7" cy="300.7" r="32.9"/><path fill="#504F88" d="m240.7 353.8-1.8 2.9 21.4 23.2 10 7 5.9-7.8z"/><path d="M273.6 378.7s10.5-1.3 15.4 6.8c2.9 4.6 4.7 9.9 5.3 15.3 0 0 4.9 4 4.4 6.1a6 6 0 0 1-2.4 3.4s-9.4-5.3-9.5-5.6c0-.2-7.2-8.1-7.2-8.1l-6-6.3v-11.6z" fill="#504F88"/><path d="M210 346.6s-16.4 1.3-18 12.8c-1.7 11.5-2.3 18 3.6 26 5.8 8 17.8 11.2 17.8 11.2s18 14.3 18.2 23c.2 8.6 15.5 28.1 15.5 28.1s29 21.6 27 28.5c-2.2 6.8-2.8 26.5 4.9 28.3 7.6 1.8 20 .3 21.8 2.5 1.8 2.3 31.5-1.2 31.5-1.2s16.4-3.7 27.4-.4c6.8 1.8 14 1.3 20.5-1.6 0 0 12.7-1.2 13.5-6.3.7-5 6.4-4.9 1-5.8-5.4-.9-8.8 2-12.7.6-4-1.3-7.2-5.8-16.2-5.7-9 .2-11 .3-12 .2-.9-.2 5.7-5.3 2.1-13.5s-10.5-14.7-10.2-19.3c.4-4.6-13.4-20.3-13.4-20.3s-6.6-9.6-15.2-12.8c-8.5-3.1-24.5-22.4-24.5-22.4S278.9 377 271.4 376c-7.4-1.2-31.8-23.1-31.8-23.1s-20.7-8.5-29.5-6.3z" fill="#000" opacity=".1"/><path d="M209.6 347.5s-16.4 1.4-18.1 12.8c-1.7 11.5-2.3 18 3.6 26 5.8 8 17.8 11.2 17.8 11.2s18.1 14.3 18.3 23c.1 8.6 15.4 28.1 15.4 28.1s29 21.6 27 28.5c-2.1 6.9-2.7 26.5 5 28.3 7.5 1.8 20 .3 21.8 2.5 1.8 2.3 31.4-1.2 31.4-1.2s16.5-3.7 27.4-.4c6.8 1.9 14 1.3 20.5-1.5 0 0 12.8-1.2 13.5-6.3.8-5.1 6.5-5 1-5.9-5.3-.9-8.8 2-12.7.6-3.9-1.3-7.2-5.8-16.1-5.7-9 .2-11.1.3-12 .2-1-.2 5.6-5.2 2-13.5-3.5-8.2-10.4-14.7-10-19.3.2-4.6-13.6-20.4-13.6-20.4s-6.6-9.5-15-12.7c-8.6-3.1-24.6-22.5-24.6-22.5S278.4 378 271 376.8c-7.4-1.1-31.9-23-31.9-23s-20.7-8.5-29.5-6.3z" fill="#E6E6E6"/><path d="M316.4 477c-1 2.3-1.3 5.3.5 7 1 1 2.4 1.6 3.7 2 2.9 1 5.6 3 6.5 5.9.2.8.5 1.5 1 2.2.4.5 1 1 1.6 1.2 8 3.6 16.8 5.4 25.6 5.2a20 20 0 0 0-10.6-5.3c-3.2-.5-6.6-.3-9.5-1.6a19 19 0 0 1-6.8-6.3 8.8 8.8 0 0 1-1.6-2.8c-.7-2.2.4-4.6-.3-6.9-.3-1.3-3.4-5.8-4.7-6.1-2-.4-4.8 4-5.4 5.6zm116.2-55.5c1.9-.6 11.2-2.3 8.4-6-2.6-3.2-6.4 5.3-8.4 6z" fill="#000" opacity=".1"/><path d="m399 329.8 15.9-7.8-5.6 80-16.8-3.3 4.4-66c0-1.2.9-2.3 2-2.9z" fill="#CBE3FF"/><path d="m414.9 322-5.6 80c1.3 0 2.3-1 2.4-2.2l5.8-73.9c.1-1.7-1-3.3-2.6-3.9z" fill="#C8BFCA"/><path d="M392.6 398.2 342 435.4a3.7 3.7 0 0 0-.6 5.4l5 5.7 64-47.8-15.6-1.1c-.8 0-1.6.1-2.2.6z" fill="#F1F1F2"/><path fill="#7E7A98" d="m391.3 402-34 23.8 4.7 5.2 39.7-28.3z"/><path d="m346.4 446.5 64-47.8a5 5 0 0 1-1.6 6.2L352.7 447a4.7 4.7 0 0 1-6.3-.5z" fill="#C8BFCA"/><path d="M335.4 433.6s22.3-45 35.5-27.8-20.2 36-20.2 36l-15.3-8.2z" fill="#FFBEC5"/><path d="M216.4 359.5c-9 2.4-16.1 9.2-18.8 18.1-1.5 5-1.4 10.4 3.5 14 11.3 8.3 27.1 14.2 34.5 27.8 4.6 9 7.8 18.5 9.4 28.4l19 28s2.9 9 22.2 2c19.2-7 29.7-10.6 29.7-10.6s15-8 21.6-11c1-.4 2-.8 3-1 2.2 0 18.3-13.8 19-15.6.8-2-16.2-9.8-23-8 0 0-1 4-13.7 3.4-12.7-.6-17.5 4.8-17.5 4.8s-6.3-2.3-10.3-2c-4 .2-11.4-3.8-16.9-3.3 0 0 2.8-5.5-.8-10.1-3.6-4.6-6.9-4.2-8.4-9.7l-6-21c-3-10.6-9-20.1-17.2-27.5-5.3-4.7-11.7-8.6-18.1-8.3-3.8.1-7.6.6-11.2 1.6z" fill="#000" opacity=".1"/><path d="M216.8 357.3c-9 2.3-16.1 9.2-18.9 18-1.4 5-1.3 10.4 3.6 14 11.2 8.4 27.1 14.2 34.5 27.8 4.6 9 7.7 18.5 9.4 28.4l19 28.1s2.9 9 22.1 2l29.8-10.7s15-8 21.6-11l3-1c2.2 0 18.3-13.7 19-15.6.7-1.9-16.2-9.7-23-8 0 0-1 4-13.7 3.4-12.7-.6-17.5 4.8-17.5 4.8s-6.3-2.2-10.3-2c-4 .2-11.4-3.7-16.9-3.2 0 0 2.8-5.6-.8-10.2-3.6-4.6-6.9-4.2-8.4-9.6l-6-21c-3-10.6-9-20.2-17.2-27.5-5.4-4.7-11.7-8.6-18.1-8.3a50 50 0 0 0-11.2 1.6z" fill="#000" opacity=".1"/><path d="M216.4 358.2c-9 2.3-16.1 9.2-18.8 18-1.5 5-1.4 10.4 3.5 14 11.3 8.4 27.1 14.2 34.5 27.9 4.6 8.9 7.8 18.4 9.4 28.3l19 28.1s2.9 9 22.2 2l29.7-10.7s15-8 21.6-11l3-1c2.2 0 18.3-13.7 19-15.6.8-1.9-16.2-9.7-23-8 0 0-1 4-13.7 3.4-12.7-.6-17.5 4.8-17.5 4.8s-6.3-2.2-10.3-2c-4 .2-11.4-3.7-16.9-3.2 0 0 2.8-5.6-.8-10.2-3.6-4.6-6.9-4.2-8.4-9.6l-6-21c-3-10.6-9-20.2-17.2-27.5-5.3-4.8-11.7-8.6-18.1-8.3-3.8 0-7.6.6-11.2 1.6z" fill="#E6E6E6"/><path d="M275.4 288.7c3.3-1.2 6.3-3.8 6.8-7.3.2-2.3-.3-4.6-1.5-6.5-4.1-7.4-12.4-11.3-20.3-14-8-2.8-16.3-4.9-24.7-4.4-8.4.5-16.9 3.7-22.3 10.1-1 1.4-2 2.5-3.4 3.6-1.9 1.3-4.3 1.5-6.7 1.4-7.7-.3-15.7-3.3-22.8-.3-8.5 3.6-11.5 14-12.6 23.2-1.2 9.4-1.4 19-4 28.3a35.9 35.9 0 0 1-16 22.7c-2.4 1.3-5 2.2-7.3 3.8-2.3 1.6-4.3 4-4.3 6.8 0 3.8 3.4 6.6 5.2 10 1.3 2.4 1.8 5.3 3.7 7.3 3.9 3.9 10.8 1.7 15.7 4 4.4 2.2 6.3 7.4 9.8 10.8 4 4 10 5.5 15.8 5.9 3.2.2 6.4.2 9.3-1 5.8-2.5 8.9-9.1 9.2-15.4.3-6.2-1.5-12.4-2.8-18.5-.4-2-.8-4.2 0-6.1a9.2 9.2 0 0 1 3.1-3.7c6.8-5.4 16.6-7.9 20.5-15.6 2.6-5.2 1.8-11.4 2.4-17.2.3-2.1.8-4.4 2.4-5.8 1.9-1.8 4.8-1.9 7.4-2 7.6-.9 14.9-4 20.7-9.1 2.8-2.5 4.5-5.5 7-8.2 2.4-2.7 6.4-1.7 9.7-2.8z" fill="#000" opacity=".1"/><path d="M274.5 287.8c3.3-1.2 6.3-3.8 6.8-7.3.2-2.3-.4-4.6-1.6-6.5-4-7.4-12.3-11.3-20.3-14-8-2.8-16.2-4.9-24.6-4.4-8.4.5-16.9 3.7-22.3 10.1-1 1.4-2.1 2.6-3.4 3.6a11 11 0 0 1-6.7 1.4c-7.7-.2-15.7-3.3-22.8-.3-8.6 3.6-11.6 14-12.7 23.2-1.1 9.5-1.4 19-3.9 28.3a35.9 35.9 0 0 1-16 22.7c-2.4 1.3-5 2.2-7.4 3.8-2.2 1.6-4.2 4-4.2 6.8 0 3.8 3.4 6.6 5.2 10 1.2 2.4 1.8 5.3 3.7 7.3 3.8 3.9 10.7 1.7 15.6 4 4.5 2.2 6.4 7.4 9.8 10.8 4 4 10.1 5.5 15.9 5.9 3 .2 6.4.2 9.3-1 5.7-2.5 8.8-9.1 9.1-15.4.4-6.2-1.4-12.4-2.7-18.5-.5-2-.8-4.2 0-6.1a9.3 9.3 0 0 1 3-3.7c6.8-5.4 16.5-7.8 20.5-15.6 2.6-5.2 1.8-11.4 2.4-17.2.3-2.1.8-4.4 2.4-5.8 1.9-1.8 4.8-1.8 7.3-2 7.7-.8 15-4 20.8-9 2.8-2.5 4.5-5.6 7-8.3 2.4-2.7 6.5-1.7 9.8-2.8z" fill="#FFE2DA"/><path d="M157.7 373.8c-4.6-2.2-10.9-.4-14.8-3.3.3.7.8 1.4 1.4 2 3.8 3.8 10.7 1.6 15.7 4 1 .6 2.1 1.3 3 2.2-1.4-2-3.2-3.7-5.3-4.9zM279.8 274c-1-1.7-2.1-3.2-3.4-4.6l1.1 1.9c1.3 2 1.8 4.2 1.6 6.5-.5 3.5-3.5 6.1-6.8 7.3-3.3 1.1-7.4 0-9.8 2.7-2.4 2.7-4.2 5.8-7 8.3-5.8 5-13 8.2-20.7 9-2.7.2-5.5.3-7.4 2-1.6 1.5-2.1 3.7-2.4 5.9-.6 5.8.2 12-2.4 17.2-4 7.7-13.7 10.2-20.5 15.6a9.3 9.3 0 0 0-3 3.7c-.8 1.9-.5 4 0 6 1.3 6.2 3.1 12.3 2.7 18.6-.3 6.3-3.4 12.8-9.1 15.3-3 1.2-6.2 1.3-9.3 1a24.5 24.5 0 0 1-15.9-5.8c.7.9 1.4 1.8 2.3 2.7 4 4 10 5.5 15.8 5.9 3.1.2 6.4.1 9.3-1.1 5.8-2.5 8.8-9 9.2-15.3.3-6.3-1.5-12.4-2.8-18.5-.4-2-.8-4.2 0-6.1a9.3 9.3 0 0 1 3-3.7c6.9-5.4 16.6-7.9 20.5-15.6 2.6-5.2 1.9-11.4 2.5-17.2.2-2.2.8-4.4 2.3-5.8 2-1.8 4.8-1.9 7.4-2.1 7.7-.8 15-4 20.8-9 2.8-2.5 4.5-5.6 7-8.3 2.4-2.6 6.5-1.6 9.8-2.7 3.3-1.2 6.2-3.8 6.7-7.3.2-2.3-.3-4.6-1.5-6.5z" opacity=".1" fill="#000"/><ellipse fill="#5770BE" opacity=".1" cx="930.4" cy="715" rx="68.8" ry="10.6"/><ellipse fill="#5770BE" opacity=".1" cx="98.4" cy="756.4" rx="38.2" ry="5.9"/><path d="M86.2 514.8s6.6 8.6-3 21.6c-9.6 13-17.6 24-14.4 32 0 0 14.5-24 26.3-24.4 11.8-.3 4.1-14.7-8.9-29.2z" fill="#5770BE"/><path d="M86.2 514.8c.6.8 1 1.8 1.3 2.7 11.6 13.6 17.7 26.2 6.6 26.5-10.3.3-22.7 18.8-25.6 23.4 0 .4.2.7.3 1 0 0 14.5-24 26.3-24.4 11.8-.3 4.1-14.7-8.9-29.2z" fill="#000" opacity=".1"/><path d="M98.4 525.8c0 3-.3 5.5-.7 5.5-.4 0-.8-2.5-.8-5.5s.4-1.6.9-1.6c.4 0 .6-1.5.6 1.6z" fill="#FFD037"/><path d="M102.6 529.4c-2.6 1.4-5 2.3-5.1 2-.2-.4 1.7-1.9 4.4-3.3 2.7-1.5 1.6-.4 1.9 0 .2.4 1.5-.1-1.2 1.3z" fill="#FFD037"/><path d="M51.4 514.8s-6.5 8.6 3 21.6c9.7 13 17.6 24 14.4 32 0 0-14.5-24-26.3-24.4-11.8-.3-4-14.7 9-29.2z" fill="#5770BE"/><path d="M51.4 514.8c-.5.8-1 1.8-1.3 2.7-11.5 13.6-17.7 26.2-6.6 26.5 10.3.3 22.7 18.8 25.7 23.4l-.4 1s-14.5-24-26.3-24.4c-11.8-.3-4-14.7 9-29.2z" fill="#000" opacity=".1"/><path d="M39.2 525.8c0 3 .3 5.5.8 5.5.4 0 .7-2.5.7-5.5s-.4-1.6-.8-1.6-.7-1.5-.7 1.6z" fill="#FFD037"/><path d="M35 529.4c2.7 1.4 5 2.3 5.2 2 .2-.4-1.8-1.9-4.5-3.3-2.6-1.5-1.6-.4-1.8 0-.3.4-1.6-.1 1.1 1.3z" fill="#FFD037"/><ellipse fill="#5770BE" opacity=".1" cx="68.8" cy="623.8" rx="68.8" ry="10.6"/><path d="m104.2 556.9-.3 2.7-.5 3.8-.2 1.5-.4 3.8-.2 1.6-.5 3.8-5.2 43.2c-.5 3.9-6.8 6.9-14.4 6.9H55.1c-7.6 0-13.8-3-14.3-6.9l-5.3-43.2-.5-3.8-.2-1.5-.4-3.8-.2-1.6-.5-3.8-.3-2.7c-.3-2.2 3.1-4 7.4-4h56c4.3 0 7.7 1.8 7.4 4z" fill="#65617D"/><path fill="#9D9CB5" d="m104 559.6-.5 3.8H34.2l-.5-3.8zm-.7 5.4-.5 3.7h-68l-.4-3.8zm-.7 5.3-.5 3.8H35.5l-.5-3.8z"/></g></svg>