<svg data-name="Layer 1" xmlns="http://www.w3.org/2000/svg" xmlns:xlink="http://www.w3.org/1999/xlink" viewBox="0 0 1142.7 866.8"><defs><linearGradient id="a" x1="919.5" y1="866.9" x2="919.5" y2="345" gradientUnits="userSpaceOnUse"><stop offset="0" stop-color="gray" stop-opacity=".3"/><stop offset=".5" stop-color="gray" stop-opacity=".1"/><stop offset="1" stop-color="gray" stop-opacity=".1"/></linearGradient><linearGradient id="b" x1="212" y1="596.2" x2="490.7" y2="596.2" xlink:href="#a"/><linearGradient id="c" x1="325.3" y1="618.4" x2="326.5" y2="618.4" xlink:href="#a"/><linearGradient id="d" x1="326.3" y1="619.3" x2="327.5" y2="619.3" xlink:href="#a"/><linearGradient id="e" x1="326.3" y1="618.4" x2="327.5" y2="618.4" xlink:href="#a"/></defs><ellipse cx="566.3" cy="835.3" rx="434.8" ry="31.4" fill="#6c63ff" opacity=".1"/><path d="M1129.4 691a86.3 86.3 0 0 1-17.3 19.4 100 100 0 0 1-5.7 4.4c-24.8 17.8-58 25.7-90.4 30.7-62.7 9.9-126.8 11.8-190.5 13.7-53.7 1.6-107.4 3.2-161.1 4.2-76.8 1.6-153.6 2-230.2 0q-62.9-1.6-125.6-5.8c-77.7-5.3-157.3-14.7-224.8-47.4a231.9 231.9 0 0 1-35.4-21A120.1 120.1 0 0 1 7 640.7c-13-30.8-6.1-65.4 8.7-95.6 9-18.3 20.7-35.4 32.8-52.4 7.2-10 14.6-20 21.5-30.2l2.2-3 4-6c5.5-8.5 10.7-17.2 15.4-26a294.3 294.3 0 0 0 12.9-27.3 237.4 237.4 0 0 0 9-26c1.6-6 3-12 4.1-17.9 6-32.5 2.8-65-14.7-94.4l-.5-.9-.3-.3c-4.9-8.1-10.9-15.8-16.7-23.4-7-9.2-14-18.5-18.8-28.6-12.7-26.8-10-57-5.3-85.5 6.2-38 17.7-79 53.4-102.7C151.6-4.2 204.2-3 250.2 5.8c71.5 13.7 137.5 42.4 204 68.2s136.5 49.6 209.7 52c64.7 2.3 140.2-14.5 183.1-58.2 41.7-42.4 120-45.6 176.6-20 54 24.5 88.8 76.3 86.2 128-3.8 75.2-76.4 133-119.7 198.8l-5.6 9c-17 28.7-27.5 61.7-15 91.6 16.9 40 66.8 59.6 109 84.8 20.3 12.2 38.9 25.6 50.9 43.4l1.2 1.9a78.7 78.7 0 0 1-1.2 85.7Z" fill="#6c63ff" opacity=".1"/><path d="M76 453.3c5.5-8.4 10.7-17.1 15.5-26a294.3 294.3 0 0 0 12.9-27.2 237.4 237.4 0 0 0 9-26c1.6-6 3-12 4.1-17.9 6-32.5 2.8-65-14.7-94.4l-.5-.9-17-23.7h126.1v83.7h35.1v251.3h45.3v-81.5H346v81.5h45.3V432.9h2.2v-72.4h43v72.4h99.6v108.7h55.5v-34h34v34h55.5V220h72.4v-51H766v51h20.4v101h36.3v-84h30.5v-86h63.4v86h30.6v84h37.3v62.7c-17 28.7-27.5 61.7-15 91.6 16.9 40 66.8 59.6 109 84.8 20.3 12.2 38.9 25.6 50.9 43.4V691a86.3 86.3 0 0 1-17.3 19.4 100 100 0 0 1-5.7 4.4c-24.8 17.8-58 25.7-90.4 30.7-62.7 9.9-126.8 11.8-190.5 13.7-53.7 1.6-107.4 3.2-161.1 4.2H434q-62.8-1.6-125.6-5.8C231 752.3 151.3 743 83.7 710.2a231.9 231.9 0 0 1-35.3-21V492.7c7.2-10 14.5-20 21.5-30.2Z" fill="#6c63ff" opacity=".3"/><path d="M117.5 356.2V374h-4.1c1.6-6 3-12 4-18ZM223.8 374h-47.5v-27h47.5zm-106.3 26.1v27.2h-26a294.3 294.3 0 0 0 12.9-27.2Zm106.3 27.2h-47.5V400h47.5zm-147.7 26h41.4v27.2H69.9v-18.1l6.2-9.1zm147.7 27.2h-47.5v-27.2h47.5zm-153.9 26h47.5v27.2H69.9zm153.9 27.2h-47.5v-27.2h47.5zm-153.9 26h47.5v27.2H69.9zm153.9 27.2h-47.5v-27.2h47.5zm-153.9 26h47.5v27.2H69.9zM223.8 640h-47.5v-27h47.5zM69.9 666.1h47.5v27.2H69.9zm153.9 27.2h-47.5V666h47.5zm39.7-94h110.9v13.6H263.5zm0 20.4h110.9v13.6H263.5zm0 20.4h110.9v13.6H263.5zm289.8-34h110.9v13.6H553.3zm0 20.4h110.9v13.6H553.3zm0 20.4h110.9v13.6H553.3zm-289.8 13.6h110.9v13.6H263.5zm0 20.3h110.9v13.6H263.5zm0 20.4h110.9v13.6H263.5zM415.1 459h30.6v39.6h-30.6zm97.4 39.6h-30.6V459h30.6zm-97.4 23.8h30.6V562h-30.6zm97.4 39.6h-30.6v-39.7h30.6zm-97.4 23.7h30.6v39.6h-30.6zm97.4 39.6h-30.6v-39.6h30.6zm-97.4 23.8h30.6v39.6h-30.6zm97.4 39.7h-30.6v-39.6h30.6zm168.6-442.6h40.8v52.1h-40.8zm0 74.7h40.8V373h-40.8zm0 74.7h40.8v52.1h-40.8zm0 74.7h40.8v52.1h-40.8zm0 74.7h40.8v52.1h-40.8zm0 74.7h40.8v52.1h-40.8zm128.5-267.1h151.7v44.1H809.6zm.6 95h151.7v44.1H810.2zm.6 95.1h151.7v44.1H810.8zm.5 95.1H963v44.1H811.3zM102.7 260.9v.9l-.5-1Zm1026.7 342.5v16.3h-51V560c20.4 12.2 39 25.6 51 43.4Zm0 45.7v42a86.3 86.3 0 0 1-17.3 19.3 100 100 0 0 1-5.7 4.4h-28V649Z" fill="#fff" opacity=".4"/><path d="M348 205h-7.8a5.5 5.5 0 0 0 0-10.8h-63a5.5 5.5 0 0 0 0 10.9h7.7a5.5 5.5 0 0 0 0 10.9H274a5.5 5.5 0 1 0 0 10.9h63.1a5.5 5.5 0 0 0 0-11h11a5.5 5.5 0 0 0 0-10.8Zm278.5 137h-7.8a5.5 5.5 0 0 0 0-10.9h-63.1a5.5 5.5 0 0 0 0 11h7.8a5.5 5.5 0 0 0 0 10.8h-11a5.5 5.5 0 1 0 0 11h63.2a5.5 5.5 0 0 0 0-11h10.9a5.5 5.5 0 0 0 0-10.9Zm474.2-178.8h-7.8a5.5 5.5 0 1 0 0-11h-63a5.5 5.5 0 0 0 0 11h7.7a5.5 5.5 0 0 0 0 10.9h-10.9a5.5 5.5 0 0 0 0 10.9h63.1a5.5 5.5 0 1 0 0-11h11a5.5 5.5 0 0 0 0-10.8Z" fill="#6c63ff" opacity=".1"/><path d="m1038.8 448.3.1-.1-.2-.2-.5-.3a2 2 0 0 0-2.6.7l-.3.4-14 20-2.4 3.6c-7.4-2.2-19.3 7.1-25.4 12.5l-1 1-.8-1.8c-.3 3.2-12 8.2-14.7 10a10 10 0 0 1-4 1.3c.4-12.5-9.2-25.7-9.2-25.7l-23.6-30a26.5 26.5 0 0 1 2.4-16l.6-1.2h1.1a33 33 0 0 0 5.8-.5 31.5 31.5 0 0 0 25.9-29c2.4-.6 4.4-2.8 4-5.4a4 4 0 0 0 0-1.4 5.4 5.4 0 0 0-.2-1c-.7-1.6-2.1-3-3.2-4.6a14.3 14.3 0 0 1-2.2-7.6 30.2 30.2 0 0 1 1-7 12 12 0 0 0 .8-4.2v-.3a6.1 6.1 0 0 0 0-1.2 5.3 5.3 0 0 0-.3-.8 7.5 7.5 0 0 0-3.1-3.8c-3.8-2.5-8.6-2.5-12.8-4-6-2.2-11.6-7.8-18-6.4-3.5.7-6.1 3.4-9.1 5.2a22.1 22.1 0 0 1-11 3.4c-3.4.1-6.7-.5-10 0a10.3 10.3 0 0 0-1.6.5 25.4 25.4 0 0 0-8.6-1.4 14.4 14.4 0 0 0-8 2.2c-4.5 3-5.6 9-5.6 14.3a.5.5 0 0 0 0 .2v1c0 2.5.3 5 .3 7.6a23.3 23.3 0 0 1-1 7c-2 6.3-7.8 11.1-9 17.6a15 15 0 0 0-.1 3.4c-.1 3.7 1 7.4 2.2 11 2.2 7.3 4 15.2 4 22.8a37.8 37.8 0 0 1-2.8 13.9 20.6 20.6 0 0 1-2 3.7l-.8 1v.2l-.9.8-.2.2a9.9 9.9 0 0 1-.8.6l-.3.2a8.6 8.6 0 0 1-1.2.7l2-.1a9.5 9.5 0 0 1-2 1.3l10.7-.7a2 2 0 0 1 0 .4 5.4 5.4 0 0 1-.1.8 6.3 6.3 0 0 1-.3.7 1 1 0 0 1 0 .1 6.1 6.1 0 0 1-.8 1.3l-.1.1a5.7 5.7 0 0 1-.5.6 5.3 5.3 0 0 1-.6.5h-.1a6.2 6.2 0 0 1-.7.4 5.6 5.6 0 0 1-.7.3h-.2a4.4 4.4 0 0 1-.7.2l1-.1 2-.3h.2a5.3 5.3 0 0 1-3.2 1.6 29.3 29.3 0 0 0 6.7-1.4c1.4 9.3 4.5 37.6 2.8 42.9-1.8 5.5 2.8 46.4 2.8 46.4l1.7 7.8a267 267 0 0 1-7.7 17c-3.3 6-1.7 36.5 9.6 50 0 0 4.7 6.7 3.4 9s.2 6.7.2 6.7l1.8 39.4a102 102 0 0 1-.8 12 73 73 0 0 1-15.7 16c-5.4 2.2-45.6 51-45.6 51l1 1.6-1.1 1.3-7.8 9-.6.7c-1.4-.3-11-2-18.7-2.6h-.8v-.2a28.4 28.4 0 0 0-8 .2h-.1a2.6 2.6 0 0 0-1.3.7c-2.6 3.2-4 53.4-4 53.4s2.7 25.1 11.4 26.5a5 5 0 0 0 1.4.3 3.9 3.9 0 0 0 .5 0c6.2-.4 9-4 10.3-6.4a10.5 10.5 0 0 0 .8-2.4s-1-4.4 1.7-10.6 7.8-17 7.8-17 9.2-9.6 7.5-14.3l1-1.3c3.4-4.9 10.3-14.6 16-21.1l1-1.3a27.9 27.9 0 0 0 6.5 1.9s8.6-3.4 11.9-11c1.3-3.2 6.7-9 12.4-14.4l-.2 1.4-.2 48a33.7 33.7 0 0 0 6 3.3v1.2a154.8 154.8 0 0 1-1.3 20.5l-.2 1c-.7-.5-1.3-.7-1.7-.3-1.8 1.8-2.9 13.3-3 18.6v.3c-.1 2.2-.7 4.8-.7 7 0 3.4 1 6.3 6.4 6.5 6.8.3 36 .8 51.5 1a34.6 34.6 0 0 0 23-8.1c2.9-2.5 5-5.2 5.1-7.8.2-2-.9-3.8-3.9-5.5a1.2 1.2 0 0 1 0 .2l-1.3-.6-15-2.3-25.5-13s-.1-8-3.2-6.6a8.5 8.5 0 0 0-2.6 1l-.5-1A29.5 29.5 0 0 1 919 810v-1.3a23 23 0 0 0 2.2-2.2s-.2-18 1.8-21.3 8.2-37.7 8.2-37.7.2-6.3 4.2-10.1 2.6-14.8 2.6-14.8 5.7-3 7.5-12.7 7.6-31 7.6-31 12-31.6 11.3-51.5 1.2-30.3 1.2-30.3l2.5-46.3v-.7l1.7 1.4v-.5l.5.5s1.3-21 .9-29.3c7-2.4 17.7-6.3 18.3-8.3 1-3 13-12.4 13-12.4a2.2 2.2 0 0 1-.7-.3l1.2-.6c7.9-4.3 22.6-16.6 20.1-24.2l16-23.1a4 4 0 0 0-.3-5ZM908 425.8a9.2 9.2 0 0 0-1.2.1 88.8 88.8 0 0 0-3-12.2c-1.8-6.2-3.8-12.5-4.1-19v-.9a23 23 0 0 1 .6-5l1.3 2c2.6 3.9 5.6 7.6 7.1 12 .8 2 1.2 4.1 2.3 6s3.1 3.3 5.3 3a4.1 4.1 0 0 0 2-1 84.5 84.5 0 0 1-10.3 15Z" transform="translate(-28.6 -16.6)" fill="url('#a')"/><path d="M971.5 488.9a10.6 10.6 0 0 1-3.8 1.4c-5 .2-9-13.2-9-13.2l3.7-3.4c6.6-6 20.5-16.8 27-10.7 7.4 6.8-9.3 21.3-17.9 25.9Zm-75.1 319.4L878 828s-16.9.1-13.6-9.2a35.6 35.6 0 0 0 1.4-6.2 151.8 151.8 0 0 0 1.2-20v-7.4s26.5-11.7 23.8.5a22.6 22.6 0 0 0-.5 4.7 29 29 0 0 0 3 13 29.6 29.6 0 0 0 3 4.9Z" fill="#ecb4b6"/><path d="M896.4 808.3 878 828s-16.9.1-13.6-9.2a35.6 35.6 0 0 0 1.4-6.2c2.4 1.9 6 7.4 6 7.4s11.5 3.4 14.7-6.8c1.8-5.7 4.7-8.5 6.8-9.9a29.6 29.6 0 0 0 3 5Z" opacity=".1"/><path d="M938.7 838a33.2 33.2 0 0 1-22.2 8c-15-.3-43.2-.7-49.7-1-8.8-.4-5.9-7.8-5.6-13v-.5c0-5.2 1.2-16.3 2.9-18s7.7 7.7 7.7 7.7 11.6 3.4 14.8-6.8 9.8-11.2 9.8-11.2c3-1.3 3 6.4 3 6.4l24.7 12.7 14.5 2.3 1.3.6c6.5 3.7 3.6 8.6-1.2 12.7Z" fill="#6c63ff"/><circle cx="893.1" cy="817.3" r="1.1" fill="#fff" opacity=".3"/><circle cx="903.1" cy="822.2" r="1.1" fill="#fff" opacity=".3"/><circle cx="908.3" cy="824.5" r="1.1" fill="#fff" opacity=".3"/><circle cx="919" cy="828.6" r="1.1" fill="#fff" opacity=".3"/><circle cx="913.5" cy="826.9" r="1.1" fill="#fff" opacity=".3"/><path d="M938.7 838a33.2 33.2 0 0 1-22.2 8c-15-.3-43.2-.7-49.7-1-8.8-.4-5.9-7.8-5.6-13l54.9 3.4s22.4-3.4 23.8-10.1c6.5 3.6 3.6 8.5-1.2 12.6Z" fill="#6c63ff"/><path d="M938.7 837.7a33.2 33.2 0 0 1-22.2 8c-15-.3-43.2-.7-49.7-1-8.8-.4-5.9-7.8-5.6-13l54.9 3.4s22.4-3.4 23.8-10.1c6.5 3.6 3.6 8.6-1.2 12.7Z" fill="#fff" opacity=".3"/><path d="M836.6 758.8a38 38 0 0 0-5.5 5.5 293.6 293.6 0 0 0-15.6 20.6l-2 3-7.3-1.1s-7.9-12-7.8-12.3l6.2-13.3 2.4-2.7 7.5-8.7 3.3-4s25.4 8.2 18.8 13Z" fill="#ecb4b6"/><path d="m815.5 784.9-2 3-7.3-1.1s-7.9-12-7.8-12.3l6.2-13.3 2.4-2.7.8.1h1.8c-6.5 6.8.5 21.8.5 21.8s3 .3 5.4 4.5Z" opacity=".1"/><path d="m807.4 800-7.5 16.6c-2.6 6-1.7 10.4-1.7 10.4a10 10 0 0 1-.8 2.2 11.4 11.4 0 0 1-10 6.3 2.5 2.5 0 0 1-.4 0c-8.8-.2-11.6-26-11.6-26s1.3-48.8 3.8-52a2.4 2.4 0 0 1 1.3-.6 27.1 27.1 0 0 1 7.8-.2c8 .6 18.3 2.5 18.3 2.5h1.8c-6.5 6.8.5 21.8.5 21.8s3.1.3 5.6 4.6-7.1 14.5-7.1 14.5Z" fill="#6c63ff"/><circle cx="796.7" cy="785.5" r="1.1" fill="#fff" opacity=".3"/><circle cx="796.2" cy="794" r="1.1" fill="#fff" opacity=".3"/><path d="M796.7 829c-1.2 2.4-4 5.9-10 6.3h-.3c-8.9-.2-11.7-25.9-11.7-25.9s1.4-48.9 3.9-52a2.4 2.4 0 0 1 1.3-.7 27.2 27.2 0 0 1 7.8-.2c-.2 8.8-.6 36.6 0 39.4s5.5 25.7 9 33.1Z" fill="#6c63ff"/><path d="M797.4 829.2a11.4 11.4 0 0 1-10 6.3 2.5 2.5 0 0 1-.5 0c-8.8-.2-11.6-26-11.6-26s1.4-48.8 3.9-52a2.4 2.4 0 0 1 1.2-.6 27.2 27.2 0 0 1 7.8-.2c-.1 8.8-.5 36.6 0 39.3s5.6 25.8 9.2 33.2Z" fill="#fff" opacity=".3"/><path d="M786.4 835.3c-8.9-.2-11.7-25.9-11.7-25.9s1.4-48.9 3.9-52a2.4 2.4 0 0 1 1.3-.7c1.8 2.8 3.4 8.9 2 22.4-2.8 25.4.5 27 .5 27s4.1 21.6 4 29.2Z" fill="#6c63ff"/><path d="M786.2 835.3c-8.8-.2-11.6-26-11.6-26s1.3-48.8 3.9-52a2.4 2.4 0 0 1 1.2-.6c1.9 2.8 3.5 8.9 2 22.3-2.7 25.5.6 27.1.6 27.1s4.1 21.6 4 29.2Zm185.3-346.4a10.6 10.6 0 0 1-3.8 1.4c-5 .2-9-13.2-9-13.2l3.7-3.4c1.5 3.6 6 13.4 9.1 15.2Z" opacity=".1"/><path d="M939.8 484s4 .4 6.7-1.4 13.8-6.5 14.1-9.7c0 0 6.7 16.3 10.5 16.9 0 0-11.7 9.1-12.5 12s-23.6 10-23.6 10Z" fill="#ff748e"/><path d="M939.8 484s4 .4 6.7-1.4 13.8-6.5 14.1-9.7c0 0 6.7 16.3 10.5 16.9 0 0-11.7 9.1-12.5 12s-23.6 10-23.6 10Z" fill="#6c63ff"/><path d="M836.6 758.8a38 38 0 0 0-5.5 5.5 39.3 39.3 0 0 1-16.6-14.5l3.3-4s25.4 8.2 18.8 13Z" opacity=".1"/><path d="M878.1 676.1s-14.2 19-19.4 21.2-44 49.7-44 49.7 8.3 15.4 23.7 17.9c0 0 8.3-3.3 11.4-10.7s27.6-28.2 27.6-28.2Z" fill="#5e5a6b"/><path d="M878.1 676.1s-14.2 19-19.4 21.2-44 49.7-44 49.7 8.3 15.4 23.7 17.9c0 0 8.3-3.3 11.4-10.7s27.6-28.2 27.6-28.2Z" opacity=".1"/><path d="M835 739.9a61.6 61.6 0 0 0 13 0c7.6-.8 1.8 3.9-13 0Zm-3.5 4.9s10.2 5.8 14 3-3.7 2.7-14-3Zm59.5 40.9a22.6 22.6 0 0 0-.6 4.7c-8 7.1-17.4 5-23.3 2.3v-7.4s26.5-11.7 23.8.4Z" opacity=".1"/><path d="m938 532.5-.2 5.4-2.4 45s-2 10.2-1.2 29.6-10.8 50-10.8 50-5.7 20.8-7.4 30.3-7.2 12.5-7.2 12.5 1.4 10.6-2.5 14.3-4 10-4 10-6 33.3-8 36.6-1.8 20.8-1.8 20.8c-12.7 15-31.1 1.3-31.1 1.3l.2-46.7s5.2-43.1 9.1-49.1 3.9-22.6 3.9-22.6l-1.7-38.4s-1.4-4-.2-6.4-3.3-8.7-3.3-8.7c-11-13.2-12.5-43-9.3-48.7s12.6-29.2 12.6-29.2l13-7.5 23.5.7Z" fill="#5e5a6b"/><path d="M882.9 761.3s3 10.6 5.5 11.8-5.5-11.8-5.5-11.8Zm4.1-35.4s8 6.3 11.4 6.3-11.3-6.3-11.3-6.3Z" opacity=".1"/><path d="M935 463.1V476l-8.5-3.6-8.4-3.7-18.4-18s-14.5-9.4-22.2-18c-4.5-5-6.7-9.5-2.8-12a24.5 24.5 0 0 0 5-4.5 83.5 83.5 0 0 0 10.2-14.9l.4-.7c3.8-6.9 6.2-12.8 6.2-12.8a77.5 77.5 0 0 0 19.1 9.4c3.8 3.1 5.7 6.8 2.2 10.4a27 27 0 0 0-2.5 3 22.7 22.7 0 0 0-1.6 2.4l-.6 1.2a26.1 26.1 0 0 0-2.3 15.5Z" fill="#ecb4b6"/><path d="M917.8 407.5a27 27 0 0 0-2.5 3 22.7 22.7 0 0 0-1.6 2.5l-.6 1a30.5 30.5 0 0 1-22.8-12.3l-.4-.5.4-.6c3.8-7 6.2-12.9 6.2-12.9a77.5 77.5 0 0 0 19.1 9.4c3.8 3.2 5.8 6.8 2.2 10.4Z" opacity=".1"/><path d="M945.4 382.4A30.5 30.5 0 0 1 915 413h-1.2a30.6 30.6 0 1 1 31.5-34 31.1 31.1 0 0 1 .2 3.4Z" fill="#ecb4b6"/><path d="M918.9 458s15.4 8.7 11.4 1.3l-20-29.7L933 459s14.6 20 6.6 33.8c0 0-1.1 11.5.2 14.2s-.4 31.6-.4 31.6-5.4-5-8.3-4-23.5 2.7-23.5 2.7Z" opacity=".1"/><path d="m938 532.5-.2 5.4c-1.8-1.4-4.4-2.9-6.1-2.3-3 1-23.5 2.7-23.5 2.7l1-6.6Z" opacity=".1"/><path d="M919.5 458s15.4 8.7 11.4 1.3l-20-29.7 22.7 29.3s14.6 20 6.6 33.8c0 0-1.1 11.5.2 14.2s-.4 31.6-.4 31.6-5.4-5-8.3-4-23.5 2.7-23.5 2.7Z" fill="#464353"/><path d="M927.7 472.9c-1 9.3-4.8 20.4-4.8 20.4s-2.7 27.6-6.2 35.7-2 19.4-3.9 40.2a26.3 26.3 0 0 1-6.3 16c-5.3 5.8-13 7-19 6.6H886c-9.7-1-19-47.8-19-47.8s-4.5-39.8-2.8-45.3-1.7-36.5-2.9-43.3a37.6 37.6 0 0 1 3.2-15.9c1-2.6 1.9-4.4 1.9-4.4s3.3-10.5 8.7-16a8 8 0 0 1 5.8-2.4 14.3 14.3 0 0 1 7.2 2.3l.2.1s35.3 36.1 38.6 44.5c1 2.3 1 5.7.7 9.3Z" opacity=".1"/><path d="M926.5 472.3c-.9 9.3-4.7 20.4-4.7 20.4s-2.7 27.6-6.2 35.7-2 19.4-4 40.2a26.3 26.3 0 0 1-6.3 16.1c-5.3 5.7-13 6.9-19 6.5H885c-9.7-1-19-47.8-19-47.8s-4.5-39.8-2.7-45.3-1.8-36.4-3-43.2a37.6 37.6 0 0 1 3.3-16l1.8-4.4s3.3-10.5 8.8-16a8 8 0 0 1 5.7-2.4 14.3 14.3 0 0 1 7.2 2.3l.3.2s35.3 36 38.6 44.4c.9 2.4 1 5.7.6 9.3Z" fill="#6c63ff"/><path d="M887 614.4s-8 7.1-10.8 6.8 10.7-6.8 10.7-6.8Zm2 6.8s-8.4 4-11 4.5 7.8-5.5 11-4.5ZM921.7 514s12.5.2 14.4 4.1-10.3-5.6-14.4-4Zm-1.7 7s9.6 2 12.5 4.3-12.5-4.4-12.5-4.4Zm-16.2-23.8s-1.1 39.4-5.4 44.5 5.4-44.5 5.4-44.5ZM893 608.7s-8 34.8 8.1 37 11.2-39.6 11.2-39.6Z" opacity=".1"/><path d="M892.5 608.1s-8 34.8 8 37 11.2-39.6 11.2-39.6Z" fill="#ecb4b6"/><path d="M906.2 462c-.8-20.9-30-25.2-36.9-5.4l-.1.4c-4.5 13.4-2.5 47.3-2.5 47.3s.5 22.8 2.7 30.3 8.1 29.3 8.1 32.8 5.6 17 8 18 3.5 8.5 4 9.8 2.4 19 2.4 19 22-1.4 22.3-4.8-4.8-20.6-4.8-20.6-4-7-4.4-12.6-3.6-8.2-3-12-1.8-5.9-1.8-8.4-1.7-9.3-1.7-9.3-3.7-2.9-3.1-6.4-5.2-10.5-3.7-13 2-8.7 2-8.7 1.9-28 3.2-35.6 9.4-19.7 9.4-19.7v-1Z" opacity=".1"/><path d="M905.4 584.7c-5.4 5.7-13 6.9-19 6.5-.7-2.6-1.7-5.9-3.2-6.5-2.4-1-8-14.3-8-17.8s-6-25.3-8.1-32.8-2.7-30.4-2.7-30.4-2-33.9 2.5-47.3v-.4c7-19.8 36.2-15.5 37 5.4v1s-8 12.3-9.3 19.8-3.3 35.6-3.3 35.6-.4 6.2-2 8.7 4.3 9.5 3.7 13 3.1 6.4 3.1 6.4 1.8 6.8 1.8 9.3 2.3 4.5 1.7 8.4 2.6 6.4 3 12a31.4 31.4 0 0 0 2.8 9.1Z" opacity=".1"/><path d="M905 461.5c-.8-21-30-25.3-36.8-5.5l-.2.4c-4.4 13.4-2.5 47.3-2.5 47.3s.6 22.8 2.7 30.4 8.2 29.3 8.2 32.8 5.5 16.9 7.9 17.8 3.5 8.6 4.1 10 2.3 19 2.3 19 22-1.4 22.3-5-4.8-20.5-4.8-20.5-3.9-7-4.4-12.6-3.6-8.2-3-12-1.7-5.9-1.7-8.4-1.8-9.3-1.8-9.3-3.7-3-3-6.4-5.3-10.5-3.8-13 2-8.7 2-8.7 2-28 3.3-35.6 9.3-19.8 9.3-19.8v-1Z" fill="#6c63ff"/><path d="M869 515.2c.6-.6 11.7-12.8 15.2-8.4s-15.2 8.4-15.2 8.4Zm1 9.5c.5-.4 11.1-.9 13.7-6.9s-13.6 6.9-13.6 6.9ZM858 417.4a3 3 0 0 1 .5 1 4.5 4.5 0 0 0-.6-4c-.5-.6-1.2-1-1.7-1.5l-.1-.2a3 3 0 0 0 0 3c.6.7 1.3 1 1.8 1.7Zm14.8-37.8v-3.3c-.3-4-1-8-1.2-12-.2 4.9.9 10 1.1 15Z" opacity=".1"/><path d="m975.8 480.6.6.4a2.4 2.4 0 0 1-.6-3.4l27-39.1a2.4 2.4 0 0 1 3.3-.6l-.6-.4a3.9 3.9 0 0 1 1 5.3l-25.3 36.8a3.9 3.9 0 0 1-5.4 1Z" fill="#464353"/><path d="m1005.6 437.5.6.4-29.7 43.1-.6-.4a1.7 1.7 0 0 1-.5-2.4l27.7-40.3a1.7 1.7 0 0 1 2.5-.4Z" fill="#9f9eff"/><rect x="1029.5" y="459.7" width=".5" height="4.3" rx=".2" ry=".2" transform="rotate(34.6 1042.3 407.6)" fill="#464353"/><path d="M949.3 378.6c-.5-2-2.2-3.6-3.3-5.4-3-4.4-2.5-10.2-1.2-15.4a11 11 0 0 0 .7-4.4 7 7 0 0 0-3.3-4.5c-3.6-2.4-8.2-2.4-12.3-3.9-5.9-2.2-11.2-7.5-17.3-6.3-3.4.8-6 3.4-8.9 5.2a21.3 21.3 0 0 1-10.6 3.3c-3.2 0-6.4-.6-9.6 0a9.6 9.6 0 0 0-1.6.4 24.8 24.8 0 0 0-8.3-1.3 13.9 13.9 0 0 0-7.8 2.2c-4.2 3-5.3 8.7-5.3 13.9s1 10.5-.6 15.4c-2 6.1-7.5 10.8-8.7 17.1-.7 4.4.7 8.7 2 12.9 3.6 12 6 25.3 1.2 37-1.2 2.9-3 5.8-6 7.1l10.3-.6a5.6 5.6 0 0 1-4.7 6.4 23.8 23.8 0 0 0 7.5-1.7 8 8 0 0 0 4.8-5.8c.2-1.4-.1-2.8.2-4.2.7-2.3 3-3.6 5-5 5-4 7.4-10.5 7.6-16.9s-1.5-12.5-3.3-18.6-3.8-12.3-4-18.6a24.4 24.4 0 0 1 .6-7l1.2 2c2.5 3.8 5.4 7.4 7 11.7a33.8 33.8 0 0 0 2 5.9c1.1 1.8 3 3.3 5.2 3s3.6-2.6 4.3-4.7 1-4.4 2.2-6.2c2.5-3.5 7.4-3.8 11.6-3.6 8.8.2 21 1.6 28-5.2 1.3-1.3 2-3.3 4-2.8 1.8.4 2.8 3.4 4.8 4.1 3.2 1.1 7.3-1.9 6.6-5.5Z" opacity=".1"/><path d="M949.3 377.5c-.5-2-2.2-3.6-3.3-5.4-3-4.4-2.5-10.3-1.2-15.4a11 11 0 0 0 .7-4.4 7 7 0 0 0-3.3-4.5c-3.6-2.4-8.2-2.4-12.3-4-5.9-2.1-11.2-7.5-17.3-6.2-3.4.7-6 3.3-8.9 5.2a21.4 21.4 0 0 1-10.6 3.2c-3.2.1-6.4-.5-9.6 0a9.6 9.6 0 0 0-1.6.5 24.8 24.8 0 0 0-8.3-1.3 14 14 0 0 0-7.8 2.1c-4.2 3-5.3 8.8-5.3 14s1 10.5-.6 15.4c-2 6.1-7.5 10.8-8.7 17.1-.7 4.3.7 8.7 2 12.9 3.6 12 6 25.3 1.2 36.9-1.2 3-3 5.9-6 7.2l10.3-.6a5.6 5.6 0 0 1-4.7 6.3 23.5 23.5 0 0 0 7.5-1.7 8 8 0 0 0 4.8-5.7c.2-1.4-.1-2.9.2-4.2.7-2.3 3-3.6 5-5 5-4 7.4-10.5 7.6-16.9s-1.5-12.6-3.3-18.7-3.8-12.2-4-18.6a24.4 24.4 0 0 1 .6-6.9l1.2 2c2.5 3.8 5.4 7.4 7 11.7a33.4 33.4 0 0 0 2 5.8c1.1 1.8 3 3.3 5.2 3s3.6-2.5 4.3-4.6 1-4.5 2.2-6.3c2.5-3.4 7.4-3.7 11.6-3.6 8.8.3 21 1.6 28-5.2 1.3-1.2 2-3.2 4-2.7 1.8.4 2.8 3.4 4.8 4 3.2 1.2 7.3-1.8 6.6-5.4Z" fill="#464353"/><path d="M860.6 359.3v2l.2 6.5c.1-2.8-.1-5.7-.2-8.5Zm-3.6 68c.3-8-1.5-16.3-3.8-24a45.5 45.5 0 0 1-2-8.5c-.5 4 .8 8 2 11.9a82.5 82.5 0 0 1 3.9 20.6Zm86.8-65a32.2 32.2 0 0 1 1-5.6 11 11 0 0 0 .7-4.4 4.8 4.8 0 0 0-.2-.8l-.5 1.8a26.6 26.6 0 0 0-1 9Zm-85.1 84.5-6.2.4a10.3 10.3 0 0 1-4 3.6l9.6-.5a5.2 5.2 0 0 0 .6-3.5Zm90.3-70.2a5.4 5.4 0 0 1-6.3 3c-2-.7-3-3.7-4.8-4.1-2-.5-2.7 1.5-4 2.8-7 6.8-19.2 5.4-28 5.1-4.2 0-9.1.2-11.6 3.7-1.3 1.8-1.6 4-2.2 6.2s-2.1 4.3-4.3 4.7-4-1.2-5.1-3a34 34 0 0 1-2.2-5.9c-1.5-4.3-4.4-7.9-6.9-11.6l-1.2-2a24.4 24.4 0 0 0-.6 6.9v.5a22.4 22.4 0 0 1 .6-4c.3.7.7 1.3 1.2 2 2.5 3.8 5.4 7.3 6.9 11.6a33.4 33.4 0 0 0 2.1 5.9c1 1.8 3 3.3 5.1 3s3.6-2.6 4.3-4.7 1-4.4 2.3-6.2c2.4-3.5 7.3-3.8 11.5-3.6 8.9.2 21 1.6 28-5.2 1.3-1.3 2-3.3 4-2.8 1.9.4 2.9 3.4 4.9 4.1 3.2 1 7.3-2 6.5-5.5a6.9 6.9 0 0 0-.2-.9Zm-77.5 59.9c-1.9 1.5-4.3 2.7-5 5-.3 1.4 0 2.8-.2 4.2a8 8 0 0 1-4.8 5.8 15 15 0 0 1-3 1 5.6 5.6 0 0 1-4.5 4 23.5 23.5 0 0 0 7.5-1.6 8 8 0 0 0 4.8-5.8c.2-1.4-.1-2.8.3-4.2.6-2.3 3-3.5 5-5A22 22 0 0 0 879 423v-2.9a22 22 0 0 1-7.6 16.3Z" opacity=".1"/><path d="M484.1 835.4h.3s-36.7-99.6-47-113.1c0 0-10.8-6.3-10.3-17L413.9 642l.5-.6.3-.3.3-.3a29.8 29.8 0 0 0 4.4-6.8l.2-.5a25.5 25.5 0 0 0 1.2-3.4 3.7 3.7 0 0 0 2.9-.1s0-.4 0-1l-.2-9.6v-5.3a47 47 0 0 0 1-4.6l-.5-.3v-.2l-.4-.2a198.6 198.6 0 0 1 5.4-45c4-13.3 4.2-29.4 5.2-43a42.2 42.2 0 0 1 2.2 5.2 8 8 0 0 1 1.7-1.4l4.1 32.4v38s-6.8 49.4 14.7 40.2 5.9-43 5.9-43 0-18.9 3-28.5c1.9-6.4.6-27-.5-40.3l3.4.6a22.3 22.3 0 0 0 .6-5.9c.4-22.3-27.4-58.2-38.7-71.9a32.4 32.4 0 0 0-13.1-11.3l-21.8-10.5s-10.2-2.5-14.2-10.3l-.1-.4 1.3-.7a24.2 24.2 0 0 0 8.5-6.7 58.9 58.9 0 0 0 9-20.2c2.5-8.4 5-16.9 4.7-25.6s-4-17.7-11.5-22.4c-6.4-3.9-15.3-4.6-19.3-11-1-1.6-1.7-3.7-3.1-5a1.2 1.2 0 0 0-1-1.3l-11.1-2.1a1.2 1.2 0 0 0-1.4 1 67 67 0 0 0-28.2 7.1 65 65 0 0 0-9 5.2c-4 2.9-8 6.6-8.5 11.4-.3 2.4.3 4.9-.2 7.3-1.3 6.3-9.9 10.4-8.6 16.7.8 4.3 5.7 6.2 10.4 6.2a34 34 0 0 0-1.3 9.2 34.5 34.5 0 0 0 27.7 33.6 98.1 98.1 0 0 1 8.8 14.8c-5.7 5.3-17.5 17.6-10.2 21.7l-15 36.8 1.4 37.8-6.3 5.7 1.4 1.7c-7.2 8.2-23.6 26-35.7 30.8a37 37 0 0 0-5 2.5 20.5 20.5 0 0 1-7.2 2.7 19.5 19.5 0 0 0-3.3.7l-2.9-6a4.3 4.3 0 0 0-5.7-2l-1.8 1-4.2 2-1.7.8-1.3.6a4.2 4.2 0 0 0-2 5.7l3.4 7c-4.9 4.4-7.3 9.5-.6 14.3a14.8 14.8 0 0 0 9 2.8l2.1 4.4a4.3 4.3 0 0 0 5.8 2l3-1.5 6-2.8a4.2 4.2 0 0 0 2-5.7l-1.7-3.6a70.4 70.4 0 0 0 10.6-10s9-5.6 14.2-6.8c3.5-.8 15.8-8.8 23.3-13.8l2.2 55.8a12.5 12.5 0 0 1-1.7 2l1.7-1.1v.4l-.7.7.7-.5v.7a7.5 7.5 0 0 1-.8.8l.8-.5.2 5.8 3.7-6 .2 6 .9-1.5a299.2 299.2 0 0 0-31 68.6s-11.3 19.4-9.8 39.2L272 828.6l.4.1c-6.7 4.8-20.8 13.6-34.7 14 0 0-33.2-1-24 6.2s92 17.9 92 17.9l3.2-24.4.8.2v-.4l1 .4s-2-12 5.3-18.8 24.5-75.4 23-86c0 0 13.1-32.5 29.6-58.3l19.3 49 21.6 36.8s28.6 63 27.7 77c-6 7.2-16.8 18.6-24.8 18.2 0 0-32.8 6.3-10.3 12.1s88.7-16 88.7-16ZM340.7 610.5l.2-.1-3.3 5.2Z" transform="translate(-28.6 -16.6)" fill="url('#b')"/><path d="m326.5 618-1.2.8a5.2 5.2 0 0 0 1.2-.9Z" transform="translate(-28.6 -16.6)" fill="url('#c')"/><path d="m327.5 618.9-1.3.9a5.3 5.3 0 0 0 1.3-1Z" transform="translate(-28.6 -16.6)" fill="url('#d')"/><path d="m327.5 618-1.3.8a5.2 5.2 0 0 0 1.3-.9Z" transform="translate(-28.6 -16.6)" fill="url('#e')"/><path d="M410.9 820.2s-17.2 24.3-28.7 23.9c0 0-32 6.2-10 11.9s86.4-15.8 86.4-15.8l-7.6-25Z" fill="#333"/><path d="m334 651.3 24.4 62.5 21 36.2s28.8 64.2 27 76.6l46-7.4s-35.8-98.3-45.8-111.6c0 0-10.6-6.2-10-16.7l-13-62.5s12.6-12.1 5.6-27.2a25.4 25.4 0 0 0-1.2-2.4c-9.6-16.2-45.9-7.2-45.9-7.2Z" fill="#535461"/><path d="M406.6 707.6s-10.5-6.2-10-16.7l-13-62.5s12.6-12.1 5.6-27.2a25.4 25.4 0 0 0-1.2-2.4c-4.7-7.9-15.6-9.8-25.6-9.7 9.6.1 19.7 2.2 24.1 9.7a23 23 0 0 1 1.3 2.4c7 15.1-5.6 27.2-5.6 27.2l13 62.5c-.5 10.5 10 16.7 10 16.7 10 13.4 45.7 111.7 45.7 111.7l-44.5 7v.3l46-7.4s-35.8-98.3-45.8-111.6Z" opacity=".1"/><path d="M249.6 809.7s-19.1 16.2-37.7 16.7c0 0-32.5-1-23.4 6.2s89.7 17.7 89.7 17.7l3.6-28Z" fill="#333"/><path d="M319.7 587.8s-31.5 44.4-43.9 89.2c0 0-11 19.1-9.5 38.7l-20 96.9 36.7 13.8s-2-12 5.2-18.6 23.9-74.5 22.5-85c0 0 22.9-57.2 45.8-79.7s34.3-27.6 37.6-47c0 0-53.9-26-74.4-8.3Z" opacity=".1"/><path d="M318.8 587.8s-31.5 44.4-44 89.2c0 0-11 19.1-9.5 38.7l-20 96.9 36.7 13.8s-1.9-12 5.3-18.6 23.8-74.5 22.4-85c0 0 22.9-57.2 45.8-79.7s34.3-27.6 37.7-47c0 0-54-26-74.4-8.3Z" fill="#535461"/><path d="M339.1 581.2c23.7.2 53.1 14.5 53.1 14.5-3.3 19.3-14.7 24.5-37.6 47s-45.9 79.7-45.9 79.7c1.5 10.5-15.2 78.3-22.4 85-6.2 5.8-5.6 15.6-5.3 18l1.5.6s-2-12 5.2-18.7 23.9-74.4 22.5-85c0 0 22.9-57.2 45.8-79.6s34.3-27.6 37.7-47c0 0-30.7-14.8-54.6-14.5Z" opacity=".1"/><path d="M295.4 518.6s-22.8 28.3-38.2 34.5a37 37 0 0 0-4.9 2.4 19.9 19.9 0 0 1-7 2.8 17 17 0 0 0-5.3 1.4c-8 3.6-26.5 13.6-14.3 22.3 15.3 11 35.8-14.3 35.8-14.3s8.7-5.4 13.8-6.7 28.7-17.6 28.7-17.6Z" fill="#ecb4b6"/><path fill="#6c63ff" d="m299.7 512.9-9.1 8.1 13.4 16.7-4.3-24.8z"/><path d="m299.7 512.9-9.1 8.1 13.4 16.7-4.3-24.8z" opacity=".1"/><path d="M322.7 417.9s-21.8 18.6-12.7 23.8L295.4 478l5 132.7 20.7-34.4L307 502s-4-44.4 7.6-55l11-22Z" fill="#6c63ff"/><path d="M325.5 411.2s-21.7 18.6-12.6 23.9l-14.7 36.3 5 132.7 20.8-34.4-14.1-74.5s-4-44.4 7.5-54.9l11.2-22Z" opacity=".1"/><path d="M305.9 398.3s17.6 21.5 17.2 33.9 33.4-21.5 33.4-21.5-13-15.7-9.6-32.4-41 20-41 20Zm100.7 107.9 4.8 38.2V582s-6.7 48.7 14.3 39.6 5.7-42.5 5.7-42.5 0-18.6 2.8-28.2-1.4-51.5-1.4-51.5Z" fill="#ecb4b6"/><path d="M341.2 416s-12.8 12.4-19.6 8l-9.1 22.8a104.8 104.8 0 0 0-7.5 44l3.3 86 14.3-2 4.8-81.5 7.1-49.7Z" fill="#f2f2f2"/><path d="M352 402.8s-17 11.7-21.8 21.8c0 0-.5 11-4.3 15.7s-7.6 28.6-8.6 57.3-5.2 66.8-5.2 66.8-7.2 37.2-14.8 41c0 0 35.3-26.7 52.5-17.7s36.7 31 42.5 27.7c0 0-1.4-41.8 4.8-64.1l.4-1.3c6.7-22 2.4-52 10-64.9 0 0 0-23.3-4.4-40.7a31.5 31.5 0 0 0-16.8-20.6L365 413.6s-11.3-1.7-13.2-10.8Z" opacity=".1"/><path d="M352 402.8s-16 12.7-20.8 22.7c0 0-.5 11-4.3 15.8s-7.7 28.6-8.6 57.2-5.3 66.9-5.3 66.9-7.1 37.2-14.8 41c0 0 35.4-26.7 52.5-17.7s36.8 31 42.5 27.7c0 0-1.4-41.8 4.9-64.1l.4-1.3c6.7-22 2.4-52 10-64.9 0 0 0-23.3-4.4-40.7a31.5 31.5 0 0 0-16.9-20.6L366 414.5s-12.2-2.6-14-11.7Z" opacity=".1"/><path d="M351.7 402.6s-15.8 12-20.5 22c0 0-.5 11-4.3 15.7s-7.7 28.7-8.6 57.3-5.3 66.8-5.3 66.8-7.1 37.2-14.8 41c0 0 35.4-26.7 52.5-17.7s36.8 31 42.5 27.7c0 0-1.4-41.8 4.9-64.1l.4-1.3c6.7-22 2.4-52 10-64.9 0 0 0-23.3-4.4-40.7a31.4 31.4 0 0 0-16.9-20.6L366 413.5s-10.7-2.6-14.3-10.9Z" fill="#6c63ff"/><path d="M395.4 430.5s48.4 55.1 41.7 81.4c0 0-24.8-5.7-31.5 1.9 0 0-5.2-17.7-21-27.7s-30.2-74.2 10.8-55.6Z" opacity=".1"/><path d="M395.4 429.6s48.4 55 41.7 81.3c0 0-24.8-5.7-31.5 2 0 0-5.2-17.7-21-27.7s-30.2-74.3 10.8-55.6Z" fill="#6c63ff"/><path d="M348.1 389c-.7-3.9-.1-4.1.7-8.3 3.4-16.8-41 20-41 20s2.5 3 5.6 7.4a33.9 33.9 0 0 0 6.8.7c12.2 0 22-10.2 28-19.8Z" opacity=".1"/><circle cx="318.3" cy="372.5" r="33.9" fill="#ecb4b6"/><path d="M287.8 363.3c-5 .6-11.3-1-12.3-6-1.2-6.2 7.2-10.3 8.5-16.5.5-2.4-.1-4.8.2-7.2.5-4.8 4.4-8.4 8.3-11.2a64.2 64.2 0 0 1 42.7-11.4 9.5 9.5 0 0 1 5.3 1.7c1.7 1.3 2.3 3.5 3.4 5.3 3.9 6.3 12.6 7 18.8 11 7.3 4.5 10.9 13.4 11.2 22s-2.1 17-4.5 25.2c-2 7-4.2 14.2-8.8 20s-12 9.7-19.1 8c3.3-2.4.9-7.8-2.6-9.7s-8-2.3-11-4.9-3.9-7-4.8-10.9c-1.3-5-3-10-6.7-13.5-7-7.1-19.9-3.1-28.6-2Z" opacity=".1"/><path d="M288.8 362.8c-5 .7-11.3-1-12.3-6-1.2-6.2 7.1-10.3 8.4-16.5.5-2.3 0-4.8.2-7.2.6-4.7 4.4-8.4 8.4-11.2a64.3 64.3 0 0 1 42.7-11.4 9.6 9.6 0 0 1 5.3 1.7c1.6 1.4 2.3 3.5 3.4 5.4 3.9 6.2 12.5 7 18.8 10.8 7.2 4.6 10.9 13.5 11.2 22.1s-2.1 17-4.6 25.3c-2 7-4.2 14.2-8.7 20s-12 9.7-19.1 8c3.2-2.4.9-7.9-2.7-9.8s-7.9-2.2-10.9-4.9-4-7-4.9-10.8c-1.2-5-3-10-6.6-13.6-7.1-7-20-3-28.6-2Z" fill="#464353"/><path d="m338.7 328.4 3.1-15.7a1.2 1.2 0 0 0-1-1.4l-10.7-2.1a1.2 1.2 0 0 0-1.4 1l-3 15.6-10.6 38.8 19.3 3.8Z" fill="#6c63ff"/><path d="M284.6 341.6a10.8 10.8 0 0 0 1.4-3.6c.5-2.3 0-4.7.2-7.1a10.8 10.8 0 0 1 .6-2.5 11.4 11.4 0 0 0-1.7 4.8c-.3 2.3.3 4.8-.2 7.1a7.5 7.5 0 0 1-.3 1.3Zm78.1 51.8c-4.4 5.7-11.8 9.7-18.8 8.1a3.6 3.6 0 0 1-1.4 2.2c7 1.8 14.6-2.3 19-8a34.9 34.9 0 0 0 4.3-7 31.7 31.7 0 0 1-3 4.7Zm-18.7 7.7c2.6-2.4.3-7.5-3-9.3-3.6-2-8-2.3-11-4.9s-3.9-7-4.9-10.9c-1.2-5-3-10-6.6-13.6-7-7-19.9-3-28.6-1.9-5 .7-11.3-1-12.3-6a6.5 6.5 0 0 1 .3-3.4 7.7 7.7 0 0 0-1.4 5.7c1 5 7.3 6.7 12.3 6 8.7-1.2 21.5-5.2 28.6 2 3.6 3.5 5.4 8.5 6.6 13.5 1 4 1.9 8.2 5 10.9s7.3 3 10.8 4.8c2.6 1.4 4.5 4.6 4.2 7.1Z" opacity=".1"/><circle cx="322.8" cy="373.3" r="16.7" opacity=".1"/><circle cx="322.8" cy="373.7" r="16.7" fill="#6c63ff"/><circle cx="322.8" cy="373.7" r="10.9" fill="#333"/><circle cx="322.8" cy="373.7" r="3.3" fill="#6c63ff"/><path opacity=".1" d="m326 324.4 13 2.6v.5l-13.2-2.6z"/><rect x="257.5" y="568.3" width="16.2" height="39.6" rx="6.3" ry="6.3" transform="rotate(-25.7 215 642.6)" fill="#cbdae3"/><rect x="257.5" y="568.3" width="16.2" height="39.6" rx="1.4" ry="1.4" transform="rotate(-25.7 215 642.6)" fill="#535461"/><rect x="258.8" y="567.6" width="16.7" height="39.6" rx="1.6" ry="1.6" transform="rotate(-25.7 216.5 641.8)" fill="#6c63ff"/><path fill="#f2f2f2" d="m225.4 558.3 11.4-5.5 13 27.1-11.3 5.5z"/><ellipse cx="274.5" cy="602.1" rx="1.4" ry="1.9" transform="rotate(-25.7 224 656.6)" fill="#f2f2f2"/><path d="M333.8 557.3a54.8 54.8 0 0 1 19.6 3.8c10 4.1 20.6 0 20.6 0s-30.2-8.7-40.2-3.8Z" opacity=".1"/><path d="M678 737.6s6.2 8.1-2.9 20.4-16.6 22.7-13.5 30.3c0 0 13.7-22.8 24.8-23.1s3.9-13.9-8.4-27.6Z" fill="#6c63ff"/><path d="M678 737.6a10 10 0 0 1 1.3 2.6c10.9 12.8 16.7 24.7 6.2 25-9.8.2-21.5 17.7-24.3 22a9 9 0 0 0 .4 1s13.7-22.7 24.8-23 3.9-13.9-8.4-27.6Z" opacity=".1"/><path d="M689.6 748c0 2.9-.4 5.2-.8 5.2s-.7-2.3-.7-5.2.4-1.5.8-1.5.7-1.4.7 1.5Z" fill="#ffd037"/><path d="M693.5 751.4c-2.5 1.4-4.7 2.2-4.9 1.8s1.7-1.7 4.2-3 1.6-.4 1.8 0 1.4-.2-1 1.2Z" fill="#ffd037"/><path d="M645.1 737.6s-6.2 8.1 3 20.4 16.5 22.7 13.5 30.3c0 0-13.7-22.8-24.9-23.1s-3.8-13.9 8.4-27.6Z" fill="#6c63ff"/><path d="M645.1 737.6a10 10 0 0 0-1.2 2.6c-11 12.8-16.7 24.7-6.2 25 9.7.2 21.4 17.7 24.2 22a9 9 0 0 1-.3 1s-13.7-22.7-24.9-23-3.8-13.9 8.4-27.6Z" opacity=".1"/><path d="M633.6 748c0 2.9.3 5.2.7 5.2s.7-2.3.7-5.2-.4-1.5-.8-1.5-.6-1.4-.6 1.5Z" fill="#ffd037"/><path d="M629.6 751.4c2.5 1.4 4.7 2.2 5 1.8s-1.8-1.7-4.3-3-1.5-.4-1.7 0-1.5-.2 1 1.2Z" fill="#ffd037"/><path d="M635.6 787.3s17.4-.6 22.6-4.3 26.7-8.2 28-2.2 26.1 29.8 6.5 30-45.6-3.2-50.8-6.3-6.3-17.2-6.3-17.2Z" fill="#a8a8a8"/><path d="M693 808.6c-19.5.2-45.5-3-50.7-6.2-4-2.4-5.6-11.1-6.1-15.2h-.6s1 14 6.3 17.2 31.2 6.5 50.8 6.3c5.7 0 7.7-2 7.5-5-.7 1.8-2.9 2.9-7.1 3Z" opacity=".2"/><path d="M602 800a9.3 9.3 0 0 0 3-4.6c.4-1.8-.3-4-2-4.6-2-.8-4 .6-5.7 2s-3.4 3-5.4 2.6a8.3 8.3 0 0 0 2.5-7.7 3.3 3.3 0 0 0-.7-1.6c-1-1.2-3-.7-4.3.2-4.1 3-5.3 8.5-5.3 13.5-.4-1.8 0-3.7 0-5.5s-.6-4-2.2-5a6.2 6.2 0 0 0-3.1-.7c-1.9 0-4 .1-5.2 1.5-1.6 1.7-1.2 4.5.2 6.3s3.4 3 5.3 4.3a11.7 11.7 0 0 1 3.9 3.7 3 3 0 0 1 .3.6h11.6a32.2 32.2 0 0 0 7.2-5Z" fill="#6c63ff"/><path d="M523.5 793.5s-11.1-37.7 2-65.5a59.6 59.6 0 0 0 4.9-37.4 101.2 101.2 0 0 0-5.3-17.5" fill="none" stroke="#535461" stroke-miterlimit="10" stroke-width="2"/><path d="M533.4 655.5c0 4.7-8.4 18-8.4 18s-8.4-13.4-8.4-18a8.4 8.4 0 0 1 16.8 0Zm13.7 25.6c-2.5 4-16.8 10.6-16.8 10.6s.3-15.8 2.8-19.7a8.4 8.4 0 0 1 14 9.1Zm-.6 43.9c-4 2-19.8.6-19.8.6S534.9 712 539 710a8.4 8.4 0 1 1 7.5 15Zm-7.9 33c-3.7 2.7-19.5 4-19.5 4s5.8-14.8 9.6-17.5a8.4 8.4 0 0 1 10 13.4Zm-25.9-65.4c3.3 3.3 18.8 6.6 18.8 6.6s-3.8-15.4-7-18.6a8.4 8.4 0 1 0-11.8 12Zm-8.7 38.8c4.1 2 19.8.6 19.8.6s-8.2-13.5-12.3-15.6a8.4 8.4 0 1 0-7.5 15Zm-3.4 38.8c3.7 2.7 19.5 4 19.5 4s-5.8-14.7-9.5-17.5a8.4 8.4 0 1 0-10 13.5Z" fill="#6c63ff"/><path d="M533.4 655.5c0 4.7-8.4 18-8.4 18s-8.4-13.4-8.4-18a8.4 8.4 0 0 1 16.8 0Zm13.7 25.6c-2.5 4-16.8 10.6-16.8 10.6s.3-15.8 2.8-19.7a8.4 8.4 0 0 1 14 9.1Zm-.6 43.9c-4 2-19.8.6-19.8.6S534.9 712 539 710a8.4 8.4 0 1 1 7.5 15Zm-7.9 33c-3.7 2.7-19.5 4-19.5 4s5.8-14.8 9.6-17.5a8.4 8.4 0 0 1 10 13.4Zm-25.9-65.4c3.3 3.3 18.8 6.6 18.8 6.6s-3.8-15.4-7-18.6a8.4 8.4 0 1 0-11.8 12Zm-8.7 38.8c4.1 2 19.8.6 19.8.6s-8.2-13.5-12.3-15.6a8.4 8.4 0 1 0-7.5 15Zm-3.4 38.8c3.7 2.7 19.5 4 19.5 4s-5.8-14.7-9.5-17.5a8.4 8.4 0 1 0-10 13.5Z" fill="#6c63ff"/><path d="M497.2 791.1s13.6-2.6 17.2-6.2 19.8-9.9 21.6-5.4 24.4 19.7 9 22.4-36 3.6-40.6 1.8-7.2-12.6-7.2-12.6Z" fill="#a8a8a8"/><path d="M545 800.2c-15.3 2.7-36 3.6-40.6 1.8-3.4-1.3-5.8-7.9-6.7-11l-.5.1s2.7 10.8 7.2 12.6 25.3.8 40.6-1.8c4.5-.8 5.7-2.6 5.2-5-.3 1.6-1.8 2.8-5.2 3.3Z" opacity=".2"/></svg>