<svg xmlns="http://www.w3.org/2000/svg" width="1000" height="800"><g transform="translate(33.5 40)" fill="none"><path fill="#F2F2F2" d="m840.5 344.7-13.9 62.4-11.2 50.6-9 40.4-11.2 50.6L758.4 714 303.1 503.5 269.6 488l-42.3-19.6-33.5-15.5-40.3-18.6 22.8-33.2 19-27.6 24-35 19-27.6L452 0l226 200.7 40.3 35.7 32.1 28.5 40.3 35.8z"/><path d="M179 529c-30.5-17-49.5-40.2-56.5-69a134.2 134.2 0 0 1 4.4-71.5c6-19.2 15-37.4 26.7-53.8 61.8-87.4 67.3-144.4 61.1-176.8-6.8-35.5-28.9-50.3-29-50.4l.9-1.5c.2.1 22.9 15.2 29.8 51.5 4 20.9 2.2 44.7-5.6 70.8-9.6 32.5-28.4 68.6-55.8 107.4a189.7 189.7 0 0 0-26.4 53.3c-13.3 42.8-15.2 101.5 51.2 138.5l-.8 1.5z" fill="#2F2E41"/><path d="M193 529c30.5-17 49.5-40.2 56.5-69 5.2-21.4 3.7-45.4-4.4-71.5-6-19.2-15-37.4-26.7-53.8-61.8-87.4-67.3-144.4-61.1-176.8 6.8-35.5 28.9-50.3 29-50.4l-.9-1.5c-.2.1-22.9 15.2-29.8 51.5-4 20.9-2.2 44.7 5.6 70.8 9.6 32.5 28.4 68.6 55.8 107.4a189.7 189.7 0 0 1 26.4 53.3c13.3 42.8 15.2 101.5-51.2 138.5l.8 1.5zm664-74c-30.5-17-49.5-40.2-56.5-69a134.2 134.2 0 0 1 4.4-71.5c6-19.2 15-37.4 26.7-53.8 61.8-87.4 67.3-144.4 61.1-176.8-6.8-35.5-28.9-50.3-29-50.4l.9-1.5c.2.1 22.9 15.2 29.8 51.5 4 20.9 2.2 44.7-5.6 70.8-9.6 32.5-28.4 68.6-55.8 107.4a189.7 189.7 0 0 0-26.4 53.3c-13.3 42.8-15.2 101.5 51.2 138.5l-.8 1.5z" fill="#2F2E41"/><path d="M872 455c30.5-17 49.5-40.2 56.5-69 5.2-21.4 3.7-45.4-4.4-71.5-6-19.2-15-37.4-26.7-53.8-61.8-87.4-67.3-144.4-61.1-176.8 6.8-35.5 28.9-50.3 29-50.4l-.9-1.5c-.2.1-22.9 15.2-29.8 51.5-4 20.9-2.2 44.7 5.6 70.8 9.6 32.5 28.4 68.6 55.8 107.4a189.7 189.7 0 0 1 26.4 53.3c13.3 42.8 15.2 101.5-51.2 138.5l.8 1.5zM408.3 262.6c-23-38.7-68.2-40.5-68.2-40.5s-44.2-5.6-72.5 53.3c-26.5 54.8-63 107.8-6 120.6l10.4-32 6.4 34.4c8 .6 16.2.7 24.3.4 61-2 119.2.6 117.3-21.2-2.5-29.1 10.3-77.8-11.7-115z" fill="#2F2E41"/><path d="M314.5 342.8a216.6 216.6 0 0 1 15.8 61.2l63.2-4a87.5 87.5 0 0 1-13.8-71l-65.2 13.8z" fill="#FFB8B8"/><path d="M314.5 342.8a216.6 216.6 0 0 1 15.8 61.2l63.2-4a87.5 87.5 0 0 1-13.8-71l-65.2 13.8z" fill="#000" opacity=".2"/><path d="M21.2 676s-32.5 17.4-16 32.3c16.5 14.9 38.3-19.7 38.3-19.7L21.2 676z" fill="#FFB8B8"/><path fill="#2F2E41" d="m421.5 624.4-.5 24-1.1 51.6-.3 15H209.5l8.5-47.2 7.7-42.2 3.4-19L401.7 583z"/><path d="M421.5 623.8 421 648c-60.8-1.6-155-16.4-194.5-23l3.4-19 171.8-24 19.8 41.8z" fill="#3F3D56"/><circle fill="#FFB8B8" cx="345" cy="310.5" r="49.5"/><path d="M440.3 651.3s6 53.4-29.7 49.5l-6-53.4-31.7-31.7-89.2-2-65.4 61.4s-2-63.4 6-69.3L250 586v-9.9l-53.5-108.8S228.2 402 254 400l33.7-2s11.9-5.9 11.9-7.9-2-17.8 7.9-13.8c0 0 .9-20.3 11.3-14.1 0 0 33 25.7 66.3 1.1 0 0 15.6-2.8 13.6 5-2 8 0 14 4 14 3.9 0 21.7 5.9 21.7 9.8 0 .9 1.3 9 3.4 21.4 7.3 45 24.4 144.8 24.4 144.8s17.8 25.7-11.9 93z" fill="#5770BE"/><path d="m211.1 457-13.8 9.9-126.6 162-67.2 53.4s37.6-6 29.7 25.7l231.3-132.4L211.1 457z" fill="#5770BE"/><path d="M427.5 413.4c-2.6 15.6-88.2 12.3-100 12.3a55 55 0 0 1-33.6-9.9c-11.8-8-6-17.9-6-17.9s10.2-7.7 10.2-9.7c0-2-2-17.8 7.9-13.9 0 0 .9-20.3 11.3-14.1 0 0 34.5 27.6 67.7 2.9 0 0 15.5-2.9 13.5 5-2 8 0 14 4 14s21.7 6 21.7 9.9c0 .8 1.3 9 3.3 21.4z" fill="#3F3D56"/><path d="M417.5 339.1s-15.9-33.7-31.8-17.8c-15.8 15.9 18 39.7 18 39.7l13.8-21.9z" fill="#FFB8B8"/><path d="M417.6 331s-24.5 31-32.1 33.3c0 0 22.2 87.6 50 111.4l16 81.3s67.5-27.8 51.6-73.4l-.5-1.3c-13.3-38-31.6-74-54.5-107.1L417.6 331z" fill="#5770BE"/><path fill="#000" opacity=".2" d="m404.5 423 49 134-18-81.2z"/><path fill="#2F2E41" d="M398.4 258.4 353.8 235l-61.6 9.6-12.7 56.4 31.7-1.2 8.9-20.8v20.4l14.6-.5 8.5-33 5.3 35.1 52-1z"/><path d="m821.5 562.9 25.4 90.5s-5.2 80.3 19.2 64.6c25-16.1 15.7-83.7 15.7-83.7L867.2 553l-45.7 9.9z" fill="#A0616A"/><path d="m835.2 309 21 21v99.8s12.2 18.5 9.8 23.4c-2.5 5-5 5-2.5 8.6 2.5 3.7 5 6.2 2.5 8.6-2.5 2.5-2.5 8.7 0 11.1 2.4 2.5 7.4 6.2 3.7 9.9s-8.7 1.2-3.7 14.8c4.9 13.5 13.5 17.2 11 22.2-2.4 4.9-2.4 17.2-2.4 17.2l-53 7.4-11.1-139.3L835.2 309z" fill="#D0CDE1"/><path fill="#3F3D56" d="m876.5 545-62 2.4L817 573l54.5-9.7z"/><path fill="#A0616A" d="m706.9 180-7.4 74 75 11 5.5-42.5 5.5-42.5z"/><path fill="#000" opacity=".1" d="m706.9 180-7.4 74 75 11 5.5-42.5 5.5-42.5z"/><path d="m543.5 532 42.1 89.9s7.5 41.8 18.6 43c11.2 1.3 22.3-43 22.3-43l-14.9-23.4-17.3-66.5h-50.8z" fill="#A0616A"/><path d="M831 716H593.4l3-48 3.2-5 15.3-23.9 11-17.1 3.7-6 1.4-2.2 15-2.7L800.4 583a187.7 187.7 0 0 0 14.1 40.4 73.4 73.4 0 0 0 14.3 20c1.3 1.2 2.2 4.4 2.8 9.3 1.5 12 1 34.4-.7 63.3z" fill="#2F2E41"/><circle fill="#A0616A" cx="748.5" cy="145" r="59"/><path d="m616.7 266-8.6-5s-38.4 25.9-50.7 83.8c-12.4 58-21 72.7-21 72.7s-12.4 2.5-3.8 11c8.7 8.7 8.7 7.5 1.3 12.4-7.5 5-12.4-5-7.5 5 5 9.8 11.2 7.3 6.2 13.5-5 6.1-13.6 6.1-8.6 11 5 5-5 16.1 1.2 21 6.2 5 8.7 6.2 8.7 14.8 0 5 .8 10 2.4 14.8h64.3s-12.3-23.4-8.6-28.3c3.7-5 5-9.9 2.5-12.4-2.5-2.4-10 2.5-2.5-3.7 7.4-6.1 9.9-2.4 7.4-9.8s-7.4-3.7-2.5-7.4c5-3.7 8.7-2.5 6.2-6.2-2.5-3.7-7.4-3.7-2.5-6.1 5-2.5 8.7 0 7.5-6.2-1.3-6.2-2.5-3.7 0-6.2 2.4-2.4 28.4-86.2 28.4-88.7 0-2.4-19.8-80-19.8-80z" fill="#D0CDE1"/><path fill="#3F3D56" d="m604.5 516-78 5 19.8 18.7 54.5 1.3zm22 93-16 29.7s48 6.2 65.3 12.4a646.6 646.6 0 0 0 61.6 14.9l11.1-43.4-122-13.6zm140 13.6 13.6 40.4 54.4-11-6.2-38z"/><path d="M788.9 224s-3.7-2.5-12.4 2.4c-8.6 5-37 7.4-50.6-7.4-13.5-14.8-23.4-27.2-27.1-24.7-3.7 2.5-6.2 30.9-6.2 30.9l-12.3 9.8-72.8 26 6.2 166.4 11 38.3s-8.6 29.6 2.5 46.8c11.1 17.3-6.1 23.5-6.1 23.5s-3.7 5-1.3 17.2c2.5 12.4-2.4 58-2.4 58s104.8 46.9 214.7 6.2l-12.4-46.9-6.2-104.8s6.2-17.3 5-24.7c-1.2-7.4 37-111 37-111s-6.2-51.8-38.2-63c-32.1-11-37-22.1-37-22.1s14.7-16 8.6-21z" fill="#D0CDE1"/><path d="M688.8 152.4s-6.1-9.2-3.8-19.1a58 58 0 0 0 1.7-17.3s5-16.1 10-25c4.9-9 2.5-12.9 18.2-15.7 15.6-2.8 9.2-23.2 50.3-1.2a12 12 0 0 0 12.6 4.7c8.5-1.6 11.6 10.2 11.6 10.2s5.7-3.3 7.8 1.4c2.1 4.8 17.3-2.8 17.3 29.1 0 32-17.3 60.5-17.3 60.5s1.3-53.7-26.9-59.2c-28.1-5.4-58.4-21.3-65.7-1-7.4 20.4-15.8 32.6-15.8 32.6z" fill="#2F2E41"/><ellipse fill="#A0616A" cx="798" cy="157.5" rx="5.5" ry="7.5"/></g></svg>