<svg xmlns="http://www.w3.org/2000/svg" width="1000" height="800" viewBox="0 0 670 711.6"><path d="M553.5 688.6c-15.4 0-30 .3-43.5.8a2 2 0 0 0 0-.3c0-4.7-16-9-42.5-12.2 77.9-4.3 130-12 130-20.9 0-13.4-118.7-24.3-265.3-24.3S66.8 642.7 66.8 656c0 2.5 4.1 5 11.8 7.2C32.9 664.7 0 669 0 674c0 6.3 52.2 11.5 116.5 11.5 20.6 0 40-.6 56.7-1.5-4 1.6-6.2 3.2-6.2 5 0 10.2 76.8 18.5 171.5 18.5 39.4 0 75.6-1.5 104.5-3.9 15.5 4.6 59.1 7.9 110.5 7.9 64.3 0 116.5-5.2 116.5-11.5s-52.2-11.5-116.5-11.5z" fill="#3f3d56"/><path d="M96 622.1c6.7 24.8 29.7 40.2 29.7 40.2s12.1-24.9 5.4-49.7-29.7-40.1-29.7-40.1-12 24.8-5.4 49.6z" fill="#3f3d56"/><path d="M105.9 616.8c18.4 17.9 20.6 45.4 20.6 45.4s-27.5-1.5-46-19.4S60 597.4 60 597.4s27.6 1.5 46 19.4z" fill="#5770be"/><path d="M337.6 89.5s2 2.4-1.5 7.1-.7 14.9 6.2 15.1 10.2 3.1 8.5 7-3.6 12.7 3.8 11.4 9.9 1.6 8.6 3.9 3.3-4.6 3.3-4.6 4.2 6.2 9.3 1.9 7.2-43.8-3.3-44.5-35 2.7-35 2.7z" fill="#2f2e41"/><path fill="#9f616a" d="m390.5 277 2.4 16.7h10.7l-3.6-19-9.5 2.4z"/><path d="M404.8 283.6s14.3 13 10.7 14.3-16.7 15.4-19 16.6c-2.2 1.1-25 8.4-21.5 0s12-13 12-13l2.3-14.3z" fill="#f2f2f2"/><path d="M404.8 283.6s14.3 13 10.7 14.3-16.7 15.4-19 16.6c-2.2 1.1-25 8.4-21.5 0s12-13 12-13l2.3-14.3z" opacity=".1"/><path fill="#9f616a" d="m404.8 264.6 2.4 16.6h10.7l-3.6-19-9.5 2.4z"/><path d="m360 220.4 15.6-51.6s-26.1-23.8-8.3-30.9 22.6 28.5 22.6 28.5l-6 61.9h-23.7z" fill="#ffb8b8"/><path d="M396.5 182.5s-30.8 39.4-26.1 45.3 13 41.5 13 41.5-1.2 14.3 3.5 14.3 16.7-2.4 16.7-6-10.7-48.7-10.7-48.7l31-40.4z" fill="#5770be"/><path d="m398.8 184.9 31-16.7s21.4 10.7 15.4 20.3-33.3 34.4-33.3 34.4 8.3 40.5 7.2 41.7-14.3 6-17.9 4.7-22.6-47.5-17.8-50 20.2-27.3 20.2-27.3z" fill="#5770be"/><path d="M314.4 621.4s21.4 13.1 23.8 13.1 34.5 8.3 20.2 14.3-69-2.4-67.8-6 0-25 2.4-25 21.4 3.6 21.4 3.6z" fill="#2f2e41"/><path d="M338.2 638s21.4 13.2 23.8 13.2 34.5 8.3 20.2 14.2-69-2.4-67.8-6 0-24.9 2.4-24.9 21.4 3.6 21.4 3.6z" fill="#2f2e41"/><path d="M315.6 385.9s3.5 17.8 9.5 31-1.2 74.9-4.8 84.4-38 122.5-27.3 123.7 32 0 32 0l34.6-108.3-6-145z" fill="#575a88"/><path d="M315.6 385.9s3.5 17.8 9.5 31-1.2 74.9-4.8 84.4-38 122.5-27.3 123.7 32 0 32 0l34.6-108.3-6-145z" opacity=".1"/><path d="M322.7 387s4.8 32.2 15.5 39.3 7.1 14.3 7.1 14.3l-4.8 63s-46.3 114.2-32 128.5 27.3 8.3 33.2 7.2 16.7-26.2 10.7-33.3 12-50 16.7-57.1 0-16.7 6-19 19-18 19-28.6 16.6-125 6-132-79.4 14.7-79.4 14.7z" fill="#575a88"/><circle cx="300.1" cy="194.4" r="26.2" fill="#ffb8b8"/><circle cx="359.6" cy="99.2" r="21.4" fill="#9f616a"/><path d="M318 194.4s14.2 26.2 21.4 26.2-28.6 27.3-28.6 27.3-11.9-34.5-14.3-35.7 21.4-17.8 21.4-17.8z" fill="#ffb8b8"/><path d="M322.7 218.2s-31 10.7-29.7 14.3-8.4 11.9-8.4 15.4-2.3 35.7 12 61.9 36.8 45.2 26.1 57-27.4 32.2-9.5 32.2 46.4-26.2 72.5-16.7 20.3-26.1 20.3-26.1 3.5-27.4-3.6-35.7-32.1-67.8-32.1-75-23.8-34.4-29.8-34.4-17.8 7-17.8 7z" fill="#8985a8"/><path d="M365.5 112.3s9.7 18.4 10.2 21.7 17.2-21.7 17.2-21.7l-19-13z" fill="#9f616a"/><path d="m369 126.6 20.3-21.4 23.8 10.7s22.2 48.8 23.6 52.3-35.5 20.3-39 20.3-28.6-37-28.6-37-6-17.8 0-24.9z" fill="#f2f2f2"/><path fill="#9f616a" d="M359.6 155.1v21.5h14.3l-4.7-21.5h-9.6z"/><path d="M367.7 171.2a8.9 8.9 0 0 0-8.4 5.6c-.9 2.6-.6 5.2 3.8 6.3 9.6 2.4 10.8 0 10.8 0s16.5-2.4 13-7.1-13-4.8-13-4.8z" fill="#9f616a"/><path d="M419 274s14.3 13.2 10.8 14.4-16.7 15.4-19 16.6c-2.2 1-25 8.3-21.5 0s12-13 12-13l2.3-14.3z" fill="#f2f2f2"/><path d="M290.8 174.3c1.6-1 3.6-2.2 3.6-4.1a3.6 3.6 0 0 0-2.4-3.1 10.5 10.5 0 0 0-4-.6 5.4 5.4 0 0 0-1.7.2c-1.3.4-2 1.8-3.2 2.7-1.5 1.3-3.6 1.7-5.6 2.3a37.2 37.2 0 0 0-9.5 3.9 4.5 4.5 0 0 0-1.6 1.2 6 6 0 0 0-.6 3.1c-.2 4-2.6 7.6-4.5 11.2s-3 8.1-.8 11.6a39.4 39.4 0 0 1 2.3 3.3c1.5 3.1-.3 7 .7 10.3a9 9 0 0 0 2.3 3.4 18.1 18.1 0 0 0 7.5 4.5c2.7.9 6 1.4 7.1 4 .5 1.2.4 2.5 1 3.5.8 1.3 2.5 1.7 4 2a16.7 16.7 0 0 0 5 .3 6.3 6.3 0 0 0 4.4-2.3 12.8 12.8 0 0 1 1.7-2.6c1.8-1.4 4.4-.3 6.6-.7a4.8 4.8 0 0 0 3.7-3.5 6.7 6.7 0 0 1 .8-2.7c1.4-1.8 5-.5 5.9-2.6.6-1.3-.6-2.7-1.8-3.5-2-1.3-4.2-2.4-5.9-4s-3-4-2.5-6.3c.8-3.4 5.3-5.3 5.5-8.8 0-2-1.4-3.9-3-5s-3.5-2.1-5-3.6c-1-1-1.9-2.3-3-3.2-2.1-1.7-5-1.9-7.7-2.2-1.4-.1-7.1-.8-6.9-3 .2-1.8 6.1-4.9 7.6-5.7z" fill="#2f2e41"/><path d="M369 125.4s-13 4.8-13 10.7-6 25 0 25 17.9-4.6 17.9-4.6z" fill="#f2f2f2"/><path d="M365.5 211s34.5-11.8 35.7-11.8 17.9-9.6 16.7-13.1l-4.8-29.8s-19-39.2-6-39.2 20.3 31 20.3 31 28.5 53.4 13 65.3-79.6 33.3-83.2 29.8 8.3-32.1 8.3-32.1z" fill="#ffb8b8"/><path d="m398.8 133.7 8 7.8-10.3 10s-14.3-5.9-13.1-2.3 8.3 14.3 13 14.3 29.6-15.5 29.7-20.2-15.4-21.5-19-22.6-8.3 13-8.3 13z" fill="#9f616a"/><path d="M383.7 125.4s17.5 15.5 19.9 15.5 6.7-23.2 6.7-23.2-14.1-9.2-19.3-6.7-7.3 14.4-7.3 14.4z" fill="#f2f2f2"/><path d="M322.7 225.3s0-16.6 35.7-16.6h15.5l-7.2 39.2-23.8 7.2z" fill="#8985a8"/><path d="M400.7 90.6a92.4 92.4 0 0 1-10.5-.7c-2.7-6.6-6.2-12.1-10-14.2-2.6-2.4-6.7-4-10-5.5-7.9-3.3-21.1-1.2-21.9 2.6-15.6 7.5-11.6 20.5-11.6 20.5 2.4 5.2 7.8 2.9 12.5.6 1.1 3.7 4 6.8 7.9 7 7.6.3 11.3 3.5 9.5 7.7s-4 14.2 4.2 12.6 11 1.8 9.5 4.4 3.7-5 3.7-5 4.6 6.8 10.3 2a4.3 4.3 0 0 0 1.1-2c2.7 1 4.8 1.5 6 1 6.7-3 2.5-10.2 2.5-10.2s9.1-1.4 6.2-1.2-4.8-3.5.1-10.3-5-9.2-9.5-9.3z" fill="#2f2e41"/><path fill="#5770be" d="m351.3 84.1 3.4 1.1-3.4 10.2-3.4-1.1z"/><path d="M144 275.3c-46.2.2-83.9 1-83.9 1s44.8-59.4 83.8-37.4 83.8 36.5 83.8 36.5-37.4-.3-83.6 0zm333-234c-46.2.2-83.9 1-83.9 1S438-17.2 477 4.8s83.8 36.5 83.8 36.5-37.4-.3-83.6 0zm77 251c46.2.2 83.9 1 83.9 1S593 233.8 554 255.8s-83.8 36.5-83.8 36.5 37.4-.3 83.6 0z" fill="#f2f2f2"/></svg>