<svg xmlns="http://www.w3.org/2000/svg" width="1000" height="800"><defs><linearGradient x1="50%" y1="100%" x2="50%" y2="0%" id="a"><stop stop-color="gray" stop-opacity=".3" offset="0%"/><stop stop-color="gray" stop-opacity=".1" offset="54%"/><stop stop-color="gray" stop-opacity=".1" offset="100%"/></linearGradient><linearGradient x1="50%" y1="100%" x2="50%" y2="0%" id="b"><stop stop-color="gray" stop-opacity=".3" offset="0%"/><stop stop-color="gray" stop-opacity=".1" offset="54%"/><stop stop-color="gray" stop-opacity=".1" offset="100%"/></linearGradient></defs><g fill="none" fill-rule="evenodd"><path d="M580.6 167c-64.1-2.2-125.2-23-183.4-45.5C339 98.8 281.3 73.8 218.7 61.8 178.5 54 132.5 53 100.1 74.5 69 95.3 59 131.1 53.4 164.3c-4 25-6.4 51.3 4.8 74.8 7.7 16.2 21.5 29.9 31 45.4 33.1 54.2 9.7 121-26.2 173.9-16.8 24.8-36.4 48.5-49.4 74.9-13 26.4-19 56.7-7.6 83.6 11.3 26.7 38.1 46.7 67.2 60.8 59 28.7 128.7 36.9 196.6 41.5 150.3 10.3 301.3 5.9 452 1.4 55.8-1.6 111.8-3.3 166.6-12 30.5-4.7 62-12.3 84-30.7 28.1-23.3 35-62.7 16.3-92C957 537 869.9 525 847.8 472.4c-12.1-29 .3-61.2 18-88 37.8-57.6 101.3-108.1 104.6-173.9 2.3-45.2-28.2-90.5-75.4-111.8C845.6 76 777 79 740.6 116c-37.5 38.2-103.5 53-160 51z" fill="#5770BE" fill-rule="nonzero" opacity=".1"/><path d="M222.9 707s-50.6-38.2-60.2-86.9a96.2 96.2 0 0 0-29.6-53 162 162 0 0 0-23.7-17.8" stroke="#535461" stroke-width="2"/><path d="M103.2 518.7c4.4 6 6.4 31.4 6.4 31.4s-23.7-9.3-28.1-15.3a13.5 13.5 0 0 1 21.7-16.1zm42.5 19.9c.5 7.5-11.7 30-11.7 30s-14.8-20.8-15.3-28.3a13.5 13.5 0 0 1 27-1.7zM187 596c-3.4 6.6-25.2 19.9-25.2 19.9s-2.4-25.4 1-32a13.5 13.5 0 0 1 24.1 12zm21.3 50.3c-2.1 7.2-21.4 24-21.4 24s-6.6-24.7-4.4-31.9a13.5 13.5 0 0 1 25.8 8zm-96.2-59.8c7.4 1 30.6-9.5 30.6-9.5s-19.6-16.2-27-17.2a13.5 13.5 0 0 0-3.6 26.7zm25.9 58.7c7.3-1.3 26.3-18.3 26.3-18.3s-23.6-9.6-31-8.4a13.5 13.5 0 1 0 4.6 26.7zm32.8 53.5c7.5 0 29-13.5 29-13.5s-21.5-13.5-29-13.5a13.5 13.5 0 0 0 0 27z" fill="#5770BE" fill-rule="nonzero"/><path d="M714.4 376.2s31.2-55.3 78.2-71.2a96.2 96.2 0 0 0 48.7-36.4c5.5-8.2 10.3-16.8 14.3-25.9" stroke="#535461" stroke-width="2"/><path d="M885.1 232.6C879.8 237.8 855 243 855 243s6-24.7 11.4-29.9a13.5 13.5 0 0 1 18.8 19.4zM871 277.3c-7.3 1.5-31.1-7.6-31.1-7.6s18.6-17.4 25.9-18.9a13.5 13.5 0 1 1 5.2 26.5zm-51.3 48.5c-7-2.5-23-22.3-23-22.3s24.8-5.7 31.9-3.2a13.5 13.5 0 1 1-8.9 25.5zm-47.1 27.9c-7.4-1.2-26.5-18-26.5-18s23.6-9.9 31-8.7a13.5 13.5 0 0 1-4.5 26.7zm46.5-103.3c0 7.5 13.5 29.1 13.5 29.1s13.5-21.6 13.5-29a13.5 13.5 0 1 0-27 0v-.1zm-54.7 33.4c2.3 7 21.6 23.7 21.6 23.7s6.4-24.7 4.2-31.8a13.5 13.5 0 0 0-25.8 8zm-48.6 39.7c1 7.3 17.2 27 17.2 27s10.5-23.2 9.5-30.6a13.5 13.5 0 1 0-26.7 3.6z" fill="#5770BE" fill-rule="nonzero"/><path d="M885.1 232.6C879.8 237.8 855 243 855 243s6-24.7 11.4-29.9a13.5 13.5 0 0 1 18.8 19.4zM871 277.3c-7.3 1.5-31.1-7.6-31.1-7.6s18.6-17.4 25.9-18.9a13.5 13.5 0 1 1 5.2 26.5zm-51.3 48.5c-7-2.5-23-22.3-23-22.3s24.8-5.7 31.9-3.2a13.5 13.5 0 1 1-8.9 25.5zm-47.1 27.9c-7.4-1.2-26.5-18-26.5-18s23.6-9.9 31-8.7a13.5 13.5 0 0 1-4.5 26.7zm46.5-103.3c0 7.5 13.5 29.1 13.5 29.1s13.5-21.6 13.5-29a13.5 13.5 0 1 0-27 0v-.1zm-54.7 33.4c2.3 7 21.6 23.7 21.6 23.7s6.4-24.7 4.2-31.8a13.5 13.5 0 0 0-25.8 8zm-48.6 39.7c1 7.3 17.2 27 17.2 27s10.5-23.2 9.5-30.6a13.5 13.5 0 1 0-26.7 3.6z" fill="#000" fill-rule="nonzero" opacity=".3"/><path d="M716.2 375s6.1-63 42.6-96.7a96.2 96.2 0 0 0 29.8-53c1.7-9.7 2.6-19.5 2.6-29.4" stroke="#535461" stroke-width="2"/><path d="M814 174.6c-2.7 6.9-23.3 21.9-23.3 21.9s-4.5-25.1-1.7-32a13.5 13.5 0 1 1 25 10.1zm5.3 46.6c-6 4.3-31.5 5.7-31.5 5.7s9.9-23.5 16-27.8a13.5 13.5 0 1 1 15.5 22.1zM792 286.3c-7.4.7-30-11-30-11s20.4-15.3 27.8-15.9a13.5 13.5 0 1 1 2.3 27zM760.3 331c-7.2 1.8-31.5-5.8-31.5-5.8s17.5-18.5 24.7-20.4a13.5 13.5 0 1 1 6.8 26.2zm.7-113.3c3 6.8 24 21.1 24 21.1s3.7-25.2.6-32a13.5 13.5 0 0 0-24.7 10.9zm-36.5 52.6c4.9 5.6 29.3 13 29.3 13s-4.1-25.2-9-30.8a13.5 13.5 0 1 0-20.3 17.8zm-28.5 56c4 6.4 26.8 17.8 26.8 17.8s.2-25.5-3.7-31.9a13.5 13.5 0 0 0-23 14.1z" fill="#5770BE" fill-rule="nonzero"/><path d="M669.3 127.8c1.5-5.6 3.3-11.3 4.6-17-1.5 5.7-3.4 11.4-4.6 17z" fill="url('#a')" fill-rule="nonzero"/><path d="m662.4 181.7-.3-.6-.1-.3-.6.3-1.3.4-.9.3-.8.2v.1c.4 0 .7 0 1-.2l.2 1.2 1-.1h2.4l-.6-1.3zM849.2 479c-4.3-5.8-13-68.3-13-68.3s-17-44.5-12.3-62.2c4.6-17.7-12.7-63.1-12.7-63.1s-11.4-5-12-12.3c0 0-46.6-14.8-48.7-25.8-1.8-9-30.7-15.5-41-17.6a383 383 0 0 0-10.5-36.3c-4-10.2-16.3-11-25.2-10.3-.3-1.7-1-3.3-2-4.8-.2-.5-.5-1-.9-1.3l-.6-.4a3 3 0 0 0-.6-.8 4.4 4.4 0 0 0-1.5-.9l-1.7-.4c-.6-.2-1.3-.2-2-.3 1.7-.7 3.1-1.8 4.3-3a8.8 8.8 0 0 0 2.1-6.3l-.8 1.2c.4-4-1.8-8.2-3-12.3a36.3 36.3 0 0 1-.8-16.2c1.2-8.2 4.3-16.4 6.3-24.7v-.2c1.1-4 1.8-8.3 2-12.6.4-8.5-1.8-17.1-5.3-25-3.2-6.8-7.8-13.7-14.9-16.5-5.2-2.1-11.1-1.8-16.8-2.1-12.7-.8-24.8-5.3-37-9.3-12-4.1-24.5-7.8-37.2-7.1-12.7.7-25.8 6.8-31.6 18.1-1.8 3.5-2.9 7.4-5.1 10.7-4.1 6.3-11.5 9.4-17.7 13.7a35 35 0 0 0-13.8 17.6c-1.2 4-1.3 8.1-.5 12.1l.8 2.7a19 19 0 0 0 8.6 10c2 1.2 4.3 2.1 6.7 2.7l-.3.8a38.5 38.5 0 0 0-1.2 5.2 75.1 75.1 0 0 0-1.3 23.5 76.7 76.7 0 0 0 76.5 68.8h1.8a98.5 98.5 0 0 1 3.4 4.7l-1.4-1.3-1.3-1.3-1.2 1.4-2.7-.7a34 34 0 0 0-17.3 1.1c-7 2.1-15.6 6.5-25.7 14.7l-49 29.4-26.5 16.2-9.6 23.3s-7.2 27.8-15.2 59.6l-.9.3-2-.1a18 18 0 0 0-17.9 17.2c-15.9 19.3-16.8 38.7-13 47.5a223.3 223.3 0 0 1 13 24.7 27 27 0 0 0-.4 2.5s2.8 41.7-6.4 53.6c-2 2.6-1.7 6 0 9.9 6.2 13.6 30.5 31.8 30.5 31.8s29.3-.2 45.5-2v5c-.5 16-.5 29.5-.5 29.5l-.6 16.8s-5.5 35.6-8.2 45.4c-1.8 6.1.2 63 2 104.9h288c3.3-24.8-1.4-100-1.4-100s-4.6-19.4-4.7-36.4v-4.4l2-.1 3.8-.1h.4s0-.4.3-1c.5-1.4 1.2-2.7 2-4a10 10 0 0 1 7.9-4.8 21.3 21.3 0 0 0 9-4.3c9.8-6.6 22.7-18.8 25.8-20.8 4.3-2.7 25-21.1 25-21.1l6.4-8.6v-.2c4.2-5.9 8.5-13 7.4-15.2-1.8-4 1.3-13.4 1.3-13.4 9.6-17.6-.6-40.9-5-46.7zm-178-283 .3.9-.7-1-.3-.2-.1-.2.3-.5c.3.3.5.7.6 1zm-3-8.1-2.3.5-1.9-3.5c1.5.9 3 1.9 4.2 3zm-1.7 1.4 1.1.8.9.6-.6 1a43.9 43.9 0 0 1-1.4-2.4zm-5.6-11.3c1.8-.2 3.6-.2 5.4 0h.7l1.4.5c1.1 1.5 1.8 3.3 2 5.1h-.5l-.5.2-2.6.4-.9.2-2 .5-.3-.7-.6-1.2-.6-1.3-.3-.6-.2-.3-.1-.3-1.6-3.4-.1-.3h.7v.2l.1 1zM441.5 748.7c-.1-13.7-1.1-28.5-3.9-42.4l-3.6-17.7-1-4.3-2.8.4h-.2c-7.7-36.5-15.8-68.6-15.8-68.6S398.2 555 400 550c.2-.7 0-2.4-.7-4.9-4-14-20.1-52.3-25.8-65.4v-.2l-1.9-4 1.4-19.7v-1.1l.2-2.5v-1.3s-14-11.5-37.7-19.7l-2.9-1a320.7 320.7 0 0 1 5.5-28.2l.6-2.5 1.1-4 3.8-1.3.5-.2a67.5 67.5 0 0 0 26.7-107.6c2.7-6 5.8-11.8 6-17.7v-2.2c-.3-3.9-2-7.7-5.8-11.7a39.5 39.5 0 0 0-22-10.3c-8-1.5-16.3-1.5-24.5-2.5-13.5-1.6-26.6-5.8-40.2-7a95.5 95.5 0 0 0-48.6 8.2c-10 4.6-20.2 12.7-20.8 23.7-.5 9.1 5.8 17.9 4.2 26.9-1.5 8.8-10.6 15.8-9.8 24.7.3 3.5 2.1 6.7 4.4 9.5a82 82 0 0 0 2.4 2.7c3.3 3.5 6.9 6.8 8.7 11.2l.2.5c1.6 4.4.9 9.8-3 12.3l.2.2a10 10 0 0 0 5.3 3.3l.8.2-1.9 2.2-.4.5a38.3 38.3 0 0 0-6.7 14.7c-1 6.1.4 12.5-1.1 18.4-1.9 7.4-7.7 13-11 19.9-6.2 12.9-2.7 28-1.4 42.2a253 253 0 0 1-3.8 58l-4.4 30.6-11 77c-1.4 9.3-3 19.3-9.2 26.5 1.8 1 3.8 1.4 5.9 1.6 8.2.8 16.8-3.1 24.2-7.4 5.8-3.4 11.3-7.3 16.5-11.6a1612.1 1612.1 0 0 0-2.4 9c-10.4 39.6-27.1 112.2-27.1 112.2L191 760h259.4a454 454 0 0 1-8-10l-1-1.3zM249.4 382.9l.1-.3v2c0 .1 0 0 0 0l-.1 1.1v.1l1 .3 1 .5a276 276 0 0 0 21.1 7.4l.2 1.1.4 3.5v.1l1.2 9.8s-16.9-6.4-16.7 3.3v1.3c.2 7.6 2.6 12 3 14.4v.3a5 5 0 0 0-.5 2.8c0 1.7.1 3.3.4 5l-1.5.8-1 .8c-2.3-7.8-5.3-15.5-8.9-22.8-2.5-5.2-5.3-10.6-5.3-16.3V397a19.3 19.3 0 0 1 1.7-6.7c.6-1.3 1.2-2.7 2-4l1.5-2.6.4-.8zm413-201.2-.3-.6-.1-.3-.6.3-1.3.4-.9.3-.8.2v.1c.4 0 .7 0 1-.2l.2 1.2 1-.1h2.4l-.6-1.3z" fill="url('#b')" fill-rule="nonzero"/><path d="m461.4 316.9-5.5 2.4s-36 139.8-36 151c0 11.4 76.3 74.2 76.3 74.2l12-80.3S491 279.9 461.3 316.9z" fill="#E8F5FF" fill-rule="nonzero"/><path d="m628.8 272.4-32-16.6c-1.7-7.6-4.9-14.9-9.3-21.3a47.4 47.4 0 0 0-18.5-16.8c-19.6-8.8 82.6-54.8 82.6-54.8 1.6 5.6 3.5 11 5.6 16.3 5.3 13 14 29.8 25.3 34.6 19.1 8.1-53.7 58.6-53.7 58.6z" fill="#FFC1C7" fill-rule="nonzero"/><path d="M657.2 179.2c-9 31.5-37 53.7-69.7 55.3a47.4 47.4 0 0 0-18.5-16.8c-19.6-8.8 82.6-54.8 82.6-54.8 1.6 5.6 3.5 11 5.6 16.3z" fill="#000" fill-rule="nonzero" opacity=".1"/><path d="M660.1 156a76.1 76.1 0 1 1-152.2 0 76.1 76.1 0 0 1 152.2 0z" fill="#FFC1C7" fill-rule="nonzero"/><path fill="#575A89" fill-rule="nonzero" d="m671 262.6-20.7 48.5-18.3 32.1h-58.6l-17-44 6.9-45.5H608l29-1.6 9.7-3.3 6.3 3.6z"/><path d="M664 198s12.9 2.8 1.3 12.3-51.6 39.8-51.6 39.8 14 12.5 11.2 27.1l46.5-26 8.3-41.4s1-12.5-15.8-11.7z" fill="#000" fill-rule="nonzero" opacity=".1"/><path d="m622.9 250-29.6 5s6 22.5 3 29l-.2.6-12 32.6 9 25.7 31.3-42.8-10.7-16.2s11.3-15 18-20.1c6.7-5.2-8.8-13.7-8.8-13.7z" fill="#000" fill-rule="nonzero" opacity=".1"/><path d="m622.9 248.8-29.6 4.9s6 22.6 3 29l-.2.6-12 32.6 9 25.7 31.3-42.8-10.7-16.2s11.3-15 18-20.1c6.7-5.2-8.8-13.7-8.8-13.7z" fill="#DCE6F2" fill-rule="nonzero"/><path d="M665.2 195.6s13 2.8 1.3 12.3c-11.6 9.5-52.8 42.2-52.8 42.2s15.3 10 12.4 24.7l46.5-26 8.3-41.5s1-12.4-15.7-11.7z" fill="#575A89" fill-rule="nonzero"/><path d="M589.6 237.4s2.8 5.2 15.3 14.8c0 0-20.8 11-12.8 26.5l-31.8-8.3-4.9-15.2 34.2-17.8z" fill="#000" fill-rule="nonzero" opacity=".1"/><path d="M588.4 236.1s2.8 5.3 15.2 14.8c0 0-20.7 11-12.8 26.6l-31.7-8.3-4.9-15.2 34.2-17.9z" fill="#575A89" fill-rule="nonzero"/><path d="m671 262.6-20.7 48.5-18.2 32.1h-58.7l-17-44 6.9-45.5h12.4c-.2 10.6 3.7 23.1 3.4 27.8-.4 7.6 11.4 48.8 11.4 48.8s24.7-40 34.5-43.6c6.1-2.2 19.1-20.8 28-34.3l18 10.2z" fill="#000" fill-rule="nonzero" opacity=".1"/><path d="m752.9 517.5-2.2 2.6s15.3 76.6 11 94c-.6 3.2-1 6.4-1.1 9.6v.1c-.8 17.7 4.6 40.7 4.6 40.7s4.2 67.7 1.8 95.5H481.2c-1.6-41.1-3.4-94.5-1.8-100.4 2.8-9.8 8.3-45.2 8.3-45.2l.6-16.8s0-16.2.5-34.2c.2-8.2.5-16.7 1-24.3.5-9.5 1.3-17.5 2.5-21.4.6-3 1-6 1.1-9.1l.1-.9.1-3v-.8c.2-6 .1-13 0-20.3v-1.2a828 828 0 0 0-2.5-46.9L456 319.2l9.4-23.3 26.3-16 48.5-29.3c23.7-19.5 39.2-17.2 45.2-15l1.7.7.5.2.5.3c-1.6.8-3 2-4.1 3.4a15 15 0 0 0-2.6 5.5 25.7 25.7 0 0 0-.8 8c0 3 .3 6 .8 9v.2a144.1 144.1 0 0 0 1 6.3l1.2 6.3.1 1 .3 3.6c.1 3 .5 6 1.2 8.9l.8 3.8 1.4 6 .8 3.3.4 1.4.1.8a865.4 865.4 0 0 0 6.7 24.7s13.8-22.4 24.9-35.2l.5-.5c1-1.3 2.1-2.4 3.2-3.4a19 19 0 0 1 6.9-5c4.5-2.5 11.8-11.8 18.6-21.6l2-2.9a338 338 0 0 0 7.5-11.1l7.8-12.5 6.4-.3h1.8l29-1.4 3.3.6.3.1c10.3 2 38.9 8.5 40.6 17.5 2.1 11 48.2 25.6 48.2 25.6.6 7.4 12 12.2 12 12.2s17 45.2 12.4 62.9c-4.5 17.5 11.8 60.7 12.2 62l-3 3.9-77.2 97.6z" fill="#E8F5FF" fill-rule="nonzero"/><path d="M664 194.9s28.2-8 34.6 8.4c6.4 16.5 20.7 83 20.7 83s-37.2 7-47 0c-5.7-4.1-12.8-6-19.8-5.1l-21 14.3-6.3-1.8s33.7-50.1 41-67.1c7.3-17 9.8-24.7-2.3-31.7z" fill="#000" fill-rule="nonzero" opacity=".1"/><path d="M662.7 191.2s28.2-8 34.7 8.5c6.4 16.4 20.7 83 20.7 83s-37.2 7-47 0c-5.7-4.2-12.8-6-19.8-5.2l-21 14.3-6.3-1.8s33.7-50 41-67.1c7.3-17 9.8-24.6-2.3-31.7z" fill="#E8F5FF" fill-rule="nonzero"/><path d="M473.3 456.6s21 5.2 25 17.1c4 12-15.5 12.2-15.5 12.2s-12-21-9.5-29.3zm78.5 87.9S500.2 650.1 512 660.2c11.9 10 39.7-115.7 39.7-115.7zm71.1-77.8s41.2 102.6 33 118.4c-8.3 15.9 17.6 0 17.6 0L623 466.7z" fill="#000" fill-rule="nonzero" opacity=".1"/><path d="M680.2 568s-139.1 6.8-98.5 50.1c40.6 43.3 123.9 1.8 123.9 1.8L680.2 568z" fill="#FFC1C7" fill-rule="nonzero"/><path d="M660.1 156c0 10-2 19.9-5.8 29.1-1.2.2-2.5.2-3.7.3-1.9-4-.9-8.7-.9-13.1 0-4.5-1.6-9.7-5.8-11-8.6-2.3-14.5 13.6-22.9 10.8-6.4-2.2-4.7-12-8.4-17.6-3-4.5-8.8-5.8-13.4-8.6-9.7-6-9.4-15.5-14-24.5-4.7-9.5-14.7-6.7-23.4-1.1-6.5 4.2-12.2 10-19.3 13.3-6 3-13 4-19.7 4.2-4.2.2-8.3-.3-12.4-1.3A76.1 76.1 0 0 1 660.1 156z" fill="#000" fill-rule="nonzero" opacity=".1"/><path d="M561.9 117.9c-6.6 4.2-12.3 9.9-19.4 13.3-6 3-12.9 4-19.7 4.2-8.2.1-17.2-1.3-22.8-7.3a22 22 0 0 1-4.3-21.2 34.5 34.5 0 0 1 13.7-17.6c6.2-4.4 13.4-7.4 17.5-13.6 2.2-3.3 3.2-7.2 5-10.7 5.8-11.2 18.7-17.3 31.3-18 12.5-.8 25 3 36.9 7 12 4 24 8.5 36.6 9.3 5.6.4 11.4 0 16.6 2.1 7 2.9 11.6 9.7 14.7 16.6a55.4 55.4 0 0 1 5.4 24.8c-.8 18.2-12.8 36-7.5 53.5 1.3 4.6 4 9.4 2.6 14-2 6.8-10.8 8.4-17.9 8.7-1.8-4-.8-8.7-.8-13.1 0-4.5-1.6-9.7-5.9-11-8.5-2.3-14.4 13.6-22.8 10.8-6.4-2.2-4.7-12-8.5-17.6-2.9-4.5-8.8-5.8-13.3-8.6-9.8-6-9.5-15.5-14-24.5-4.7-9.5-14.7-6.7-23.4-1.1z" fill="#99607E" fill-rule="nonzero"/><path d="m427 468-7.1 2.4s2.8 41.5-6.4 53.4c-9.2 11.9 30.2 41.5 30.2 41.5s54-.3 55.5-4.6-2.7-77-2.7-77-29-11.2-26.6-29.2c0 0-8.9 42.4-22 40.6-13-1.9-28-12.8-21-27.2z" fill="#E8F5FF" fill-rule="nonzero"/><ellipse fill="#000" fill-rule="nonzero" opacity=".1" cx="450.3" cy="491" rx="18.5" ry="16.9"/><path d="M470.6 469.2s-3.7-112.4-35.7-87.3c-32 25-32.4 55-26.3 63.8 6.1 8.8 25.7 53 25.7 53a22.4 22.4 0 0 0 33.1-14.7l3.2-14.8z" fill="#FFC1C7" fill-rule="nonzero"/><path d="M670.4 184.7c-.1-.5-.4-1-.8-1.3-1.6-1.4-5-2-10.1-1.5l.2 2.4c6.8-.6 8.2.8 8.3 1v.3l.3.3c1.7 2.3 2.3 5.2 1.8 8-1.5 7.6-10.7 13.5-10.8 13.6l-.2.1-.2.2c-4 6-26.4 22.6-32.3 26.9l-.5-.6c-2.6 2.3-25.8 22.5-27 30.3-.8 4.8-6.3 6.7-8.3 7.2a52 52 0 0 1-12.4-13c-3.4-5.7 10-16.9 11.2-21.2l-1.9-2c-.2.8-17.3 16.8-12.5 25a54.6 54.6 0 0 0 13.2 14c-.8 7.2-5.6 48.9-13.1 58.8-9.3 12.2-17.1 74.1-16.2 95.7.7 19.2-4.3 55.5-21 71-6 5.8-14 8.5-22.2 7.4h-.4c-.2 0-24.5 2.5-45-14.7-16.6-14-26-37-28-68.1h-.4l-.2-9.1a17.7 17.7 0 1 0-2.7.2h.2l.2 9h-.8c2 32.3 12 56 29.4 70.8a68 68 0 0 0 47.5 15.5c1.2.2 2.5.2 3.7.2 7.9 0 15.5-3 21.2-8.5 17.6-16.4 23-54 22.1-73.8-.9-23 7.3-82.6 15.5-93.5 8-10.6 13-52.2 13.8-60.2 3-.8 9.5-3.4 10.7-10.2.8-4.8 16.2-19.8 25.7-28l-.3-.4a358 358 0 0 0 29-23c2.4-2.4 4.8-4.8 7.4-7 3-2.7 6.9-7 8-12 .6-3.5-.1-7-2.1-9.8z" fill="#000" fill-rule="nonzero" opacity=".1"/><path d="M588.1 273.9c-.4-.3-9.5-6.8-14.1-14.7-4.8-8.2 12.4-24.3 12.6-25l1.8 2c-1.2 4.3-14.5 15.4-11.2 21.1 4.2 7.2 13 13.5 13 13.6l-2.1 3z" fill="#353146" fill-rule="nonzero"/><path d="m625.4 236.5-1.4-2c.3-.2 29.2-21.1 33.7-27.9l.2-.2.2-.1c0-.1 9.3-6 10.8-13.6.5-2.8-.1-5.7-1.9-8l-.2-.4v-.2c-.2-.2-1.5-1.6-8.4-1l-.2-2.4c5.2-.5 8.6 0 10.2 1.5l.8 1.3c2 2.8 2.8 6.3 2 9.7-1 5.1-4.8 9.4-7.9 12.1-2.5 2.2-5 4.6-7.4 7a386.5 386.5 0 0 1-30.5 24.2zM438.3 412.2h2.4l.3 14.8h-2.5z" fill="#E8F5FF" fill-rule="nonzero"/><circle fill="#5770BE" fill-rule="nonzero" cx="438.1" cy="396.6" r="17.8"/><circle fill="#E8F5FF" fill-rule="nonzero" cx="438.1" cy="396.6" r="14.8"/><path d="m518.2 510-3.6-.2a68.2 68.2 0 0 1-47.5-15.6c-17.5-14.7-27.4-38.5-29.5-70.7l3.7-.2c2 31.1 11.5 54 28.2 68.1 20.4 17.2 44.6 14.7 44.9 14.7h.4c8.1 1 16.3-1.6 22.1-7.3 16.8-15.6 21.8-51.9 21-71-.9-21.7 7-83.6 16.2-95.9 8.2-10.7 13.2-59.2 13.3-59.7l.1-1.4 1.4-.2s8-1.5 9-7.4c1.3-7.8 24.4-28 27-30.3l2.4 2.7c-9.6 8.3-25 23.3-25.8 28.2-1.1 6.7-7.7 9.3-10.6 10-1 8.1-5.8 49.7-13.8 60.3-8.2 10.9-16.4 70.6-15.5 93.5.8 19.8-4.5 57.4-22.2 73.8a30.2 30.2 0 0 1-21.2 8.6z" fill="#353146" fill-rule="nonzero"/><path d="M668 134.3c1.5-5.6 3.3-11.2 4.5-16.9-1.5 5.7-3.3 11.3-4.6 16.9zM652.6 178c-1.9-4-.9-8.6-.9-13 0-4.5-1.6-9.7-5.8-11-8.6-2.3-14.5 13.6-22.8 10.7-6.5-2.2-4.8-12-8.5-17.6-3-4.4-8.8-5.7-13.4-8.5-9.7-6-9.4-15.5-14-24.5-4.7-9.5-14.6-6.7-23.3-1.1-6.6 4.2-12.3 10-19.3 13.3-6.1 3-13 4-19.8 4.2-8.2.2-17.2-1.3-22.8-7.3-4.4-4.6-6-11.3-5-17.6l-.5 1.3c-2.2 7.2-.9 15.7 4.3 21.2 5.6 6 14.6 7.4 22.8 7.3a48 48 0 0 0 19.7-4.2c7.1-3.4 12.8-9 19.4-13.3 8.6-5.6 18.6-8.4 23.4 1 4.5 9 4.2 18.6 14 24.6 4.5 2.8 10.4 4 13.3 8.5 3.7 5.7 2 15.4 8.4 17.6 8.4 2.9 14.3-13 22.9-10.6 4.2 1.1 5.9 6.4 5.8 10.8 0 4.4-1 9.1.8 13.2 7.1-.4 15.9-1.9 18-8.7l.3-3c-3 5.2-10.7 6.5-17 6.8zM818.8 404.8l10.7 11.3s8.5 62.2 12.8 68c4.3 5.9 14.4 29 4.9 46.4 0 0-3 9.5-1.2 13.4 1.8 4-13.7 23.9-13.7 23.9s-20.5 18.3-24.8 21c-4.3 2.8-26.8 24.7-34.5 25-7.6.3-10 9.8-10 9.8l-43.1 1.5s-23.8-1.2-29 2.1c0 0 2.8-36.3-23.8-60l34-12.3s12.7-5.5 16.7-11.3c2.5-3.5 6-6.2 10.1-7.6 0 0 9.5-6.7 9.8-10.4.3-3.6 11.6-8.1 11.6-8.1l-6.4-54.4 3.3-90.4s10.7-75.7 33.3-71.4c22.6 4.3 39.3 103.5 39.3 103.5z" opacity=".1" fill="#000" fill-rule="nonzero"/><path d="m822.5 404.8 10.7 11.3s8.5 62.2 12.8 68c4.3 5.9 14.3 29 4.9 46.4 0 0-3 9.5-1.2 13.4 1.8 4-13.8 23.9-13.8 23.9s-20.4 18.3-24.7 21c-4.3 2.8-26.8 24.7-34.5 25-7.6.3-10 9.8-10 9.8l-43.1 1.5s-23.8-1.2-29 2.1c0 0 2.8-36.3-23.8-60l33.9-12.3s12.8-5.5 16.8-11.3c2.5-3.5 6-6.2 10.1-7.6 0 0 9.5-6.7 9.8-10.4.3-3.6 11.5-8.1 11.5-8.1l-6.3-54.4 3.3-90.4s10.7-75.7 33.3-71.4c22.6 4.3 39.3 103.5 39.3 103.5z" fill="#E8F5FF" fill-rule="nonzero"/><path d="M782.8 496s31.4-8.3 39.7 1.9c8.2 10-39.7-1.9-39.7-1.9zm-7.3 13.9c10.7 7.5 43.6 7.8 43.6 7.8l-43.6-7.8zm16.1 37.4c1 .3 22.7 23.5 31.8 16.5 9.2-7-31.8-16.5-31.8-16.5zM498.9 352.6s6.4 44 3.2 61.8c-3.1 18 8.4 40.1 8.4 40.1l-11.6-102z" fill="#000" fill-rule="nonzero" opacity=".1"/><path d="M357.5 370.4c-7.3 5.8-12.7 19.5-16.6 34.5-6.8 26.1-9 56.5-9 56.5s-58.6-13.4-54.3-19.5c2.7-3.9-1-32.8-4-53.7-1.8-12.4-3.4-22-3.4-22s107.5-11.6 87.3 4.2z" fill="#FFCCD0" fill-rule="nonzero"/><path d="M357.5 369.2c-7.3 5.8-12.7 19.4-16.6 34.4a67.6 67.6 0 0 1-67.3-16.7l-3.4-22s107.5-11.6 87.3 4.3z" fill="#000" fill-rule="nonzero" opacity=".1"/><path d="M389 336.3a67.8 67.8 0 1 1-135.5 0 67.8 67.8 0 0 1 135.5 0z" fill="#FFCCD0" fill-rule="nonzero"/><path d="M442.5 760H423l-1.6-34-1.7-35.4 11.4-1.6 2.8-.4h.3l4.4 21.9c2.5 13 3.7 26.3 3.8 39.5v10z" fill="#000" fill-rule="nonzero" opacity=".1"/><path d="M438.8 760H196.5l1.7-3.8s19.4-84.8 29.3-120.7c1.2-5 2.7-9.7 4.4-14.5l.4-.9c5-8 11-16.5 2.5-28.7-8.6-12.2-5.5-65.9-5.5-65.9s10.3-45.8 21.3-70.2a32.8 32.8 0 0 1 10-12.7l2.6-1.7.2-.1a42.9 42.9 0 0 1 26.3-4.4c17.8 2.6 32 7 43.4 12 30.7 13.5 40 31.6 40.2 32v.1c1.3 2.9 19.3 45 25.8 64.6 1.7 5.1 2.6 8.7 2.3 9.7-1.9 4.9 14 66 14 66a2114.2 2114.2 0 0 0 19.5 87.2c2.5 13.2 3.7 26.5 3.8 39.9V760z" fill="#FF748E" fill-rule="nonzero"/><path d="M277 415.1s-16.8-6.4-16.5 3.4c.2 9.7 4 14.4 2.8 15.8-1.2 1.4.6 10 .6 10s22.6 0 33 4.7c10.3 4.6 48.6 14 53.5 16.9 4.9 2.8 23 15.6 23 15.6l1.6-24.2s-18.7-15.5-49.4-23.4c-30.7-8-48.6-18.8-48.6-18.8z" fill="#000" fill-rule="nonzero" opacity=".1"/><path d="M277 413.9s-16.8-6.4-16.5 3.3c.2 9.8 4 14.5 2.8 15.9-1.2 1.4.6 10 .6 10s22.6 0 33 4.7c10.3 4.6 48.6 14 53.5 16.8 4.9 2.9 23 15.7 23 15.7L375 456s-18.7-15.4-49.4-23.4C294.9 424.8 277 414 277 414z" fill="#FF748E" fill-rule="nonzero"/><path d="M327.4 472.2s32 34.6 30.3 44.1c-1.6 9.6-30.3-44.1-30.3-44.1z" fill="#000" fill-rule="nonzero" opacity=".1"/><path d="M353.5 668.5s-12.4 25.2-5.7 23.6c6.7-1.6 5.7-23.6 5.7-23.6z"/><path d="M275.5 597s-23.4 21.7-30.3 22.9c-6.9 1.2 5.3 5.3 13.2 2 8-3.2 24.9-11.8 24.9-11.8l-7.8-13z" fill="#000" fill-rule="nonzero" opacity=".1"/><path d="M448.3 760h-54.6a757.8 757.8 0 0 0-19.5-16.4 63.5 63.5 0 0 1-18-26 74 74 0 0 1-2.7-7.2l40.5-24c2.2 2 4.3 4 6.2 6.2l.5.5c2.3 2.7 4.2 5.7 4.4 8.2.2 2.8 8.2 14 16.4 24.6 8.3 10.8 16.7 21.2 17.3 21.9a232.2 232.2 0 0 0 9.5 12.2z" fill="#FFCCD0" fill-rule="nonzero"/><path d="M374.1 294c-2 4.3-3.7 8.9-4 13.7-.6 14.1.5 45.6-15 52.7-7.8 3.4-16-4.2-24.5-4.4-6-.1-11.7 3.8-15.4 8.6-3.7 4.8-6 10.5-8.7 16a109.5 109.5 0 0 1-11.6 18.2A67.8 67.8 0 1 1 374.1 294z" fill="#000" fill-rule="nonzero" opacity=".1"/><path d="M369 305.3c-.8 14 .4 45.5-15.2 52.6-7.7 3.4-16-4.2-24.4-4.4-6.1-.1-11.7 3.8-15.4 8.6-3.7 4.8-6 10.5-8.7 16-2.5 5-5.3 9.7-8.5 14.3-1.9 2.7-4 5.4-6.9 6.9-5 2.6-11.2 1.1-16.7-.6-7-2.2-14-4.7-20.9-7.5.2-1 .3-2 .3-3.1l-.7 1.1-.4.8a83 83 0 0 0-3 5.8c-1 2-1.5 4.3-1.7 6.6-.5 6.1 2.5 12 5.2 17.5 10.4 21.3 16.7 46.3 9 68.7-3.4 9.7-9.2 18.4-13.5 27.8a89.9 89.9 0 0 0-6.3 53.2c2.1 11.1 6.4 22.1 5.4 33.5-1.9 19.4-18.7 33.9-35.5 43.8-9 5.4-20.2 10.2-29.8 6 6.1-7.2 7.7-17.2 9-26.5a135415.4 135415.4 0 0 1 15.3-107.2c2.7-19.1 5.4-38.5 3.8-57.7-1.3-14.2-4.8-29.2 1.4-42 3.2-6.9 9-12.5 10.8-19.8 1.5-6 .1-12.3 1.1-18.4a39 39 0 0 1 8.9-17.4c-2.5-.6-4.8-1.6-6.2-3.7 4-2.6 4.5-8.4 2.8-12.7-1.8-4.4-5.4-7.7-8.7-11.1-3.2-3.5-6.3-7.5-6.7-12.2-.8-9 8.1-15.8 9.7-24.7 1.6-9-4.7-17.6-4.2-26.7.6-11 10.7-19 20.6-23.6 15-7 31.7-9.8 48.1-8.3 13.5 1.3 26.4 5.4 39.8 7 8 1 16.3 1 24.3 2.5a39 39 0 0 1 21.7 10.3c14.8 15.5-3 28.2-3.8 44.6z" fill="#FFE0D0" fill-rule="nonzero"/><path d="M356.5 722c-4.7-2-13.2-.8-27.9-5.3-14.6-4.4-17.4-24.6-17.4-24.6-.2-.5-1.6-3.5-10.8-14-10.2-11.6-32.2-70.2-32.2-70.2s-19.5-21-18.9-28.7c.6-7.7-3.5-28.3-3-51.3.3-23 43.9-38.3 43.9-38.3 83.8-14.8 64 81.8 61.8 89.2-2.2 7.3 9.4 27 9.4 27-1.6 8.7 6.7 22 6.7 22a340 340 0 0 0 2.6 16.9c1.3 4.2 12.3 8 16.7 10.4 4.7 2.4 19.8 23.8 19.8 23.8 3.2 15.7-46 45.2-50.7 43.1z" fill="#000" fill-rule="nonzero" opacity=".1"/><path d="M359 718.3c-4.7-2-13.3-.8-28-5.3-14.6-4.4-17.4-24.6-17.4-24.6-.2-.5-1.5-3.5-10.7-14-10.2-11.6-32.2-70.2-32.2-70.2s-19.6-21-19-28.7c.6-7.7-3.4-28.3-3-51.3.4-23 43.9-38.2 43.9-38.2 83.8-14.9 64.1 81.8 61.9 89.1-2.3 7.3 9.3 27.1 9.3 27.1-1.6 8.6 6.7 22 6.7 22a349.2 349.2 0 0 0 2.6 16.8c1.4 4.3 12.3 8.1 16.8 10.4 4.6 2.5 19.7 23.8 19.7 23.8 3.3 15.7-46 45.2-50.6 43.1z" fill="#FF748E" fill-rule="nonzero"/><path d="M294.3 536.5s36.6 38.6 46.1 38.6c9.6 0-46.1-38.6-46.1-38.6z" fill="#000" fill-rule="nonzero" opacity=".1"/><path d="M359 718.3c-4.7-2-13.3-.8-28-5.3-14.6-4.4-17.4-24.6-17.4-24.6 9.7-6.5 34.3-24.7 44-31.3a67.9 67.9 0 0 0 15.6-16c1.4 4.1 12.3 8 16.8 10.3 4.6 2.4 19.7 23.8 19.7 23.8 3.2 15.7-46 45.2-50.7 43.1z" fill="#FF748E" fill-rule="nonzero"/><g opacity=".1" fill="#000" fill-rule="nonzero"><path d="m225.4 360.3.2.2.9-1-1 .8zm21.4 42.2c.4-5.1 3.1-9.6 5.7-14.1l-5-2 .2-3.1c-2.6 4.6-5.4 9.1-5.8 14.3-.5 6.2 2.6 12 5.2 17.5 10.4 21.3 16.8 46.3 9 68.7-3.4 9.7-9.2 18.4-13.5 27.8a89.8 89.8 0 0 0-6.2 53.2c2 11.1 6.3 22.2 5.3 33.5-1.9 19.4-18.6 33.9-35.4 43.8a44 44 0 0 1-22.6 7.6c-.7 1.1-1.5 2.2-2.4 3.2 9.6 4.3 20.8-.5 29.8-5.9 16.9-10 33.7-24.4 35.5-43.8 1-11.4-3.2-22.4-5.3-33.5a89.9 89.9 0 0 1 6.2-53.2c4.3-9.4 10.1-18 13.5-27.8 7.8-22.4 1.4-47.4-9-68.7-2.6-5.6-5.7-11.4-5.2-17.5z"/><path d="M372.7 260.8c-.9-1-1.8-1.8-2.9-2.6 11.2 14.5-5 26.7-5.7 42.3-.7 14 .4 45.6-15.2 52.6-7.7 3.5-16-4.1-24.4-4.3-6-.1-11.7 3.7-15.4 8.6-3.7 4.8-6 10.5-8.7 16-2.5 5-5.3 9.7-8.5 14.2-1.8 2.7-4 5.4-6.9 7-5 2.6-11.2 1-16.7-.6a261 261 0 0 1-15.7-5.5c0 1-.1 1.9-.3 2.8 6.9 2.8 13.9 5.3 21 7.6 5.4 1.7 11.5 3.1 16.6.5 3-1.5 5-4.2 7-7 3-4.4 6-9.2 8.4-14.2 2.7-5.4 5-11.2 8.7-16 3.7-4.8 9.3-8.7 15.4-8.5 8.4.1 16.7 7.8 24.4 4.3 15.6-7 14.4-38.5 15.2-52.6.8-16.4 18.6-29.1 3.7-44.6z"/></g><path d="M251.5 390a83 83 0 0 0-3 5.8 148.6 148.6 0 0 0-23.1-20c1.6-3.4 3.7-6.5 6.2-9.4 0 0 15.6 8.3 20 23.6z" fill="#000" fill-rule="nonzero" opacity=".1"/><path d="M252 389.2c-3.7-16.3-20.4-25.2-20.4-25.2a39 39 0 0 0-6.2 9.4c7 3.8 19.6 16.5 23.9 20.7l2.6-4.9z" fill="#FF748E" fill-rule="nonzero"/></g></svg>