<svg xmlns="http://www.w3.org/2000/svg" width="1000" height="800"><defs><linearGradient x1="50%" y1="100%" x2="50%" y2="0%" id="a"><stop stop-color="gray" stop-opacity=".3" offset="0%"/><stop stop-color="gray" stop-opacity=".1" offset="54%"/><stop stop-color="gray" stop-opacity=".1" offset="100%"/></linearGradient></defs><g transform="translate(145 60)" fill="none"><g opacity=".2" transform="translate(48.5 91)"><path d="M181.7 530c.5 2 1.1 4 2 6 12.8-5 25.8-9.9 39-14.5l-.4-1.7a34.1 34.1 0 0 0-8.2-15.6c-5.3-5.5-12-8.2-18.6-6.6-6.6 1.7-11.4 7.3-13.6 14.6a34.6 34.6 0 0 0-.2 17.8z" fill="#3F3D56"/><ellipse fill="#3F3D56" transform="rotate(-12.6 194 491.6)" cx="194" cy="491.6" rx="20.9" ry="28"/><ellipse fill="#3F3D56" transform="rotate(-12.6 186.1 458.3)" cx="186.1" cy="458.3" rx="20.9" ry="28"/><ellipse fill="#3F3D56" transform="rotate(-12.6 178.2 425)" cx="178.2" cy="425.1" rx="20.9" ry="28"/><ellipse fill="#3F3D56" transform="rotate(-12.6 170.2 391.8)" cx="170.2" cy="391.8" rx="20.9" ry="28"/><path d="M192 145c2-4.3 3.5-8.7 4.9-13.2l-55.5 4.3 57.8-14a104.7 104.7 0 0 0-17-79.4l-67.6 60.5 58.6-71.6A98.4 98.4 0 0 0 77.2 3 102.7 102.7 0 0 0 3.6 127c5.4 22 17.7 42 35.5 56.2-3 6.7-5.2 13.7-6.8 21l78 19.5-79.8-7c-1 11.2-.1 22.4 2.5 33.3 5.2 22.2 17.7 42 35.5 56.4-9.4 21-11.5 44.4-6.2 66.8a100 100 0 0 0 121 75.3c53.7-13.4 86.6-69 73.5-124-5.2-22.2-17.7-42-35.5-56.3A104.3 104.3 0 0 0 192 145z" fill="#5770BE"/><path d="M33 250c5.2 22.3 17.7 42.1 35.5 56.4-9.4 21-11.5 44.5-6.2 66.8a100 100 0 0 0 121 75.3c53.7-13.4 86.6-68.9 73.5-123.9-5.2-22.2-17.7-42-35.5-56.4 9-20.2-191-29.3-188.3-18.1z" fill="#000" opacity=".1"/></g><path d="M572.3 202c4-3.7 7.6-7.7 11-12L521 170.5l69 10.5c17.5-27.1 23-60.2 15.4-91.6L506 124l94.1-50.4A117.2 117.2 0 1 0 390 176c-6.1 5.8-11.6 12.2-16.3 19.2l76.5 54.8-83.9-42.2a117.3 117.3 0 0 0 3 111.6 117.2 117.2 0 1 0 182.4 26.2 117.2 117.2 0 0 0 20.6-143.4z" opacity=".2" fill="#5770BE"/><ellipse fill="#5770BE" opacity=".1" cx="266.5" cy="646.4" rx="266.5" ry="28.7"/><ellipse fill="#5770BE" cx="479.2" cy="669.4" rx="31.2" ry="6"/><ellipse fill="#3F3D56" cx="478.7" cy="666.8" rx="3.6" ry="4.8"/><ellipse fill="#3F3D56" cx="478.7" cy="661" rx="3.6" ry="4.8"/><ellipse fill="#3F3D56" cx="478.7" cy="655.2" rx="3.6" ry="4.8"/><ellipse fill="#3F3D56" cx="478.7" cy="649.4" rx="3.6" ry="4.8"/><ellipse fill="#3F3D56" cx="478.7" cy="643.6" rx="3.6" ry="4.8"/><ellipse fill="#3F3D56" cx="478.7" cy="637.7" rx="3.6" ry="4.8"/><ellipse fill="#3F3D56" cx="478.7" cy="631.9" rx="3.6" ry="4.8"/><path d="M492.3 592c.5-.5 1-1.2 1.4-1.9l-9.6-1.6 10.4.1c2-4.4 2.1-9.3.3-13.8l-13.9 7.2 12.8-9.4a17.4 17.4 0 1 0-28.8 19.5c-.7 1-1.4 2-2 3.2l12.5 6.5-13.3-4.4a17.5 17.5 0 0 0 2.8 16.3 17.4 17.4 0 1 0 27.4 0c5-6.3 5-15.2 0-21.5v-.1z" fill="#5770BE"/><path d="M461.2 602.9c0 3.9 1.3 7.7 3.7 10.7a17.4 17.4 0 1 0 27.4 0c2.4-3-31-12.7-31-10.7z" fill="#000" opacity=".1"/><path d="M338.4 400.5c-2.4-12.3-5-24.7-5.4-37.2-.3-7.4.2-15-.7-22.3-.5-3.6-1.3-7.2-2.1-10.8l-3.3-14.2a23.8 23.8 0 0 0-1.6-12.4c3-4.3 5.6-9 7.5-13.8.8-2.2 1.6-4.6 1.3-7-.7-4.5-5-7.4-9.1-9.6a20 20 0 0 0-7.9-2.9c-4-.1-7.8 1.6-10.3 4.6-.7-3.6-.5-7.4.6-10.9a210 210 0 0 0-7.3-3 67 67 0 0 1-.3-9.7c0-3.9 0-7.8.3-11.6a34.3 34.3 0 0 0 22.5-32v-1.2a27.8 27.8 0 0 0 2.4-21.3 37.6 37.6 0 0 0-18.3-21.6 63 63 0 0 0-38-6.4c-3.5.8-6.8 2-10 3.7a42.2 42.2 0 0 0-13.5 8.6c-6.3 6.8-7.8 16.7-7 25.9a115 115 0 0 0 15.2 45.4c2 2.4 5.4 2.6 8.1.9-.2 3-.2 5.9-.2 8.9-5-.2-9.9.6-13.9 3.4-1.8 1.4-3.6 3.4-3.2 5.7 2.6 0 4.7 2 5 4.4.3 2-.7 3.9-1.7 5.6l-1.3 2.3c-4 4.2-8 9.6-8.4 14.8l-1.9.3c-3.6.7-7.2 2-10.7 2.8l-25.6 6.8-6.4 1.7-10.1 2.7a72 72 0 0 0-18.8 6.9 23.6 23.6 0 0 0-11.8 15.2c-.6 3.3-.2 6.6-1 9.8v.4c-.6 2-1.4 4-2.4 5.9a80.5 80.5 0 0 0-9 38.6c.4 8.1 2.7 16.1 5 24l7 24.1c1.4 5.8 3.3 11.5 5.6 17 4 8.8 9.8 16.6 17.2 22.9 2 1.8 4.3 3.4 6.8 4.6 3.8 1.6 8 2.3 12 2a59.8 59.8 0 0 0 25.4-9.8c2.9-1.8 5.7-3.7 8.4-5.7.3 3 1 6.2 1.8 9.1.6 2.1 1.3 4.2 1.1 6.4-.3 3-2.5 5.4-3.6 8.2-2.4 5.9 0 12.4.5 18.8.3 5.9-1.1 11.8-2.3 17.6-1.9 9.7-3 19.6-3.4 29.5 0 3.7-.2 7.5-.7 11.2-.9 5.3-2.9 10.3-3.2 15.6-.6 8.3 3 16.4 2.7 24.6-.4 9.8-6.1 19.2-4.1 28.7.2 1.2.9 2.6 2 2.9l-.5.5c-1.7 1.5-3.3 4.3-1.4 5.5.4.3.9.4 1.4.5l8.6 1.6c0 2.7.3 5.4 1 8l1.6 1c-.4 1-.3 2.1.6 2.8l1.4.5c23.8 4.9 48.1 6.9 72.4 6 4.4-.2 9-.5 12.6-2.7 3.7-2.3 6.2-7 4.5-10.9-1.6-3.4-5.7-4.9-9.4-6l-4.3-1.4c1.2-2 1.3-4.3.4-6.4-1.5-3.5-5.6-5-9.3-6.1l-10-3a9.7 9.7 0 0 1-3.5-1.8c-.7-.7-1.4-1.4-2-2.3a11 11 0 0 0-5.4-3.3 42 42 0 0 1 .2-6.4l2.7-33.4c.7-7.6 1.3-15.3-.5-22.7-.7-3-1.9-6.1-1.2-9.1 1.1-5 6.3-7.7 9.8-11.3 5.4-5.6 7-13.5 8.2-21 5-31 6.7-62.4 4.8-93.7 11-3.1 22.5-5 34-5.5 2 0 3-1 3.5-2.8.6-1.8.3-3.8-.1-5.7zm-55.3 1.6.2-1 .7 1h-1z" fill="url('#a')"/><path d="M265 232.5c-.2 3.2-1.3 6.3-1.7 9.5-.5 3.5 0 7.1-.3 10.7-.2 3.5-1.3 7.3-4 9.6 15.8 1.4 31.3 4.7 46.2 10-4.5-5.6-4.7-13.3-4.6-20.4.2-10.5.4-21.3 3.8-31.2a76 76 0 0 0-31.2-.4c-2.2.4-9 .2-10 2.2-.7 1.6 2 7.7 1.9 10z" fill="#A1616A"/><path d="M265 232.5c-.2 3.2-1.3 6.3-1.7 9.5-.5 3.5 0 7.1-.3 10.7-.2 3.5-1.3 7.3-4 9.6 15.8 1.4 31.3 4.7 46.2 10-4.5-5.6-4.7-13.3-4.6-20.4.2-10.5.4-21.3 3.8-31.2a76 76 0 0 0-31.2-.4c-2.2.4-9 .2-10 2.2-.7 1.6 2 7.7 1.9 10z" fill="#000" opacity=".1"/><path d="m283.7 615.5 1.8 2.3c1 .8 2.3 1.4 3.6 1.7l9.7 3c3.5 1.2 7.5 2.7 9 6.1 1.8 4-.7 8.6-4.3 10.9-3.6 2.2-8 2.5-12.3 2.7a289.4 289.4 0 0 1-72.1-6.5c-1.9-1.3-.3-4 1.3-5.6 6.2-5.9 13-12 21.5-13.5 4.5-.7 9-.4 13.4-1.5 3.2-.7 6.2-2 9.4-2.8 5.9-1.5 14.8-2 19 3.2z" fill="#46455B"/><path d="m283.7 615.5 1.8 2.3c1 .8 2.3 1.4 3.6 1.7l9.7 3c3.5 1.2 7.5 2.7 9 6.1 1.8 4-.7 8.6-4.3 10.9-3.6 2.2-8 2.5-12.3 2.7a289.4 289.4 0 0 1-72.1-6.5c-1.9-1.3-.3-4 1.3-5.6 6.2-5.9 13-12 21.5-13.5 4.5-.7 9-.4 13.4-1.5 3.2-.7 6.2-2 9.4-2.8 5.9-1.5 14.8-2 19 3.2z" fill="#000" opacity=".1"/><path d="M235 406.5a58.7 58.7 0 0 0-.8 39.2c-3.2-.3-4.6 4-4.5 7.3.1 4.5.8 9 2 13.4.6 2 1.3 4.2 1.1 6.3-.3 3-2.4 5.4-3.5 8.2-2.3 5.9 0 12.4.4 18.7.4 6-1 11.8-2.1 17.7-2 9.7-3 19.5-3.4 29.4 0 3.8-.2 7.5-.7 11.2-.8 5.3-2.8 10.3-3.1 15.6-.6 8.3 3 16.4 2.6 24.6-.4 9.7-6 19.1-4 28.7.3 1.3 1 2.9 2.4 3 14 0 27-3.8 40.8-1.8 1.4-31.9 2.7-64 9-95.2 5.6-28 15-55.5 14-84-.4-16.2-4.3-32.1-6.6-48.2a63.5 63.5 0 0 0-43.5 5.9z" fill="#BBBDC8"/><path d="M235 406.5a58.7 58.7 0 0 0-.8 39.2c-3.2-.3-4.6 4-4.5 7.3.1 4.5.8 9 2 13.4.6 2 1.3 4.2 1.1 6.3-.3 3-2.4 5.4-3.5 8.2-2.3 5.9 0 12.4.4 18.7.4 6-1 11.8-2.1 17.7-2 9.7-3 19.5-3.4 29.4 0 3.8-.2 7.5-.7 11.2-.8 5.3-2.8 10.3-3.1 15.6-.6 8.3 3 16.4 2.6 24.6-.4 9.7-6 19.1-4 28.7.3 1.3 1 2.9 2.4 3 14 0 27-3.8 40.8-1.8 1.4-31.9 2.7-64 9-95.2 5.6-28 15-55.5 14-84-.4-16.2-4.3-32.1-6.6-48.2a63.5 63.5 0 0 0-43.5 5.9z" fill="#000" opacity=".1"/><path d="m296.6 629.4 1.9 2.3c1 .8 2.2 1.4 3.5 1.7l9.7 3c3.6 1.2 7.6 2.7 9.1 6.1 1.7 3.9-.7 8.6-4.4 10.8-3.6 2.2-8 2.6-12.3 2.7a289.4 289.4 0 0 1-72.1-6.5c-1.8-1.2-.3-4 1.3-5.5 6.3-6 13-12.1 21.6-13.5 4.4-.7 8.9-.4 13.3-1.5 3.2-.8 6.2-2 9.4-2.9 6-1.4 14.8-2 19 3.3z" fill="#46455B"/><path d="M239.9 407.4a23.7 23.7 0 0 0-4.2 16.5c.5 5.8 2.5 11.3 4.4 16.8-2.6 2.3-2 6.4-1.7 9.8 1.2 12.8-3.2 25.5-2.6 38.3.3 5.4 1.5 10.7 1.7 16.1.3 5.9-.4 11.8-1.1 17.6-4.5 37.5-7 75.2-7.4 112.9 0 3.5 0 7 1 10.3a28 28 0 0 0 23.2 3.8 88 88 0 0 0 22.9-10c4-2.1 7.7-4.6 11.3-7.4a6 6 0 0 0 2.2-3c.8-3.8-4.3-5.5-7.3-7.9-4.3-3.4-4.2-9.9-3.8-15.4l2.7-33.4a74 74 0 0 0-.5-22.7c-.7-3-1.8-6-1.1-9 1-5 6-7.7 9.5-11.4 5.3-5.5 6.9-13.4 8-20.9a432 432 0 0 0 3.6-107.4c-6.7 2.4-14.8 1.1-22 1.7-7.1.5-14.2 2.9-21.5 3-6 .2-13.6-3.1-17.3 1.7z" fill="#BBBDC8"/><circle fill="#A1616A" cx="288.8" cy="208.3" r="34.2"/><path d="M308.1 264.6c-11-5-22.4-9-34-11.8-8.3-2-17.8-3.2-24.7 1.8-1.8 1.3-3.5 3.4-3.1 5.6 2.5.1 4.6 2 5 4.5.1 2-.8 3.8-1.8 5.5l-8 14.8a57.8 57.8 0 0 0-3.9 8.4c-1.6 4.6-2 9.7-2.3 14.6l-1 13.5c-.5 8.4-1 16.9-.3 25.3.6 6.4 1.9 12.8 1 19.1-.7 5.1-2.9 9.9-4.1 15-2.3 9.3-1.2 19.7-5.6 28.3 1.7-.8 3.8-1 5.7-.5 13.4 2.5 23.9 13 36.9 17 3.3-4.7 7.7-8.2 11.4-12.7 2.7-3.3 4.5-7.3 5.2-11.6 2.8 3.7 5.1 6.6 6.8 10.9.3 1 .8 1.9 1.5 2.7 1.7 1.7 4.6 1 7 .3 11.4-3.4 23.3-5.4 35.2-6 2 0 2.9-1 3.5-2.8.6-1.8.2-3.8-.1-5.7-2.3-12.3-4.9-24.6-5.3-37.2-.3-7.4.2-14.9-.7-22.2-.5-3.6-1.3-7.2-2-10.8l-6.7-29.3c-.3-1.6-2-2.7-2.8-4.2-3-6.1-8.9-10.6-11.9-16.7a22 22 0 0 1-.9-15.8z" fill="#46455B"/><path d="M260.2 222c0-.5 0-1 .3-1.4a3 3 0 0 1 1.3-.8 7 7 0 0 0 4-7.5l3.2-.6v-11.3c4.9-2.7 11.4-.7 16-3.8 2.5-1.8 3.8-4.8 5.3-7.5 1.6-2.6 3.9-5.3 7-5.6a19.8 19.8 0 0 0 1 16.8 19 19 0 0 0 7.8-7.3l1.6 9.3c0 .5.3 1 .7 1.5.9.6 2-.2 2.7-1l4.2-4c1.8 4.3 3 9 3.6 13.7 6.9-6.7 9-17.4 6.4-26.6a37.4 37.4 0 0 0-18-21.5 60.5 60.5 0 0 0-37-6.5c-3.5.9-6.7 2.1-9.8 3.7a41 41 0 0 0-13.2 8.6c-6.2 6.8-7.6 16.7-7 26a117.2 117.2 0 0 0 15 45.3c3.8 4.7 13 .8 11.8-8.6-.8-6.7-7-4.1-7-10.9z" fill="#3F3D56"/><path d="M273 405a145 145 0 0 1-51.2 58 57.8 57.8 0 0 1-24.8 9.7c-4 .3-8-.4-11.7-2a29.6 29.6 0 0 1-6.7-4.6 65 65 0 0 1-16.7-22.9c-2.3-5.5-4.2-11.1-5.6-16.9l-6.8-24.1c-2.2-7.9-4.4-15.9-5-24a81.8 81.8 0 0 1 9-38.6c.9-1.8 1.7-3.8 2.2-5.8l.1-.4c.7-3.2.4-6.6 1-9.8a23.5 23.5 0 0 1 11.5-15.2 69 69 0 0 1 18.3-6.9l10-2.6 6.1-1.7 25-6.7c3.5-1 7-2.2 10.5-2.8 4-.7 4-.4 4.2 3.5.6 7 .4 13.8 1.9 20.7 1.4 6.6 3.8 13 5.7 19.4 4.7 16.3 5.4 33.5 9.1 50.1.9 3.8 2 7.8 5 10.2 3.6 2.8 9.4 3.4 10.3 7.8.4 2-.5 3.9-1.3 5.7z" fill="#5770BE"/><path d="m200.2 472.3-3.2.4c-4 .3-8-.4-11.7-2a29.6 29.6 0 0 1-6.7-4.6 65 65 0 0 1-16.7-22.9c-2.3-5.5-4.2-11.1-5.6-16.9l-6.8-24.1c-2.2-7.9-4.4-15.9-5-24a81.8 81.8 0 0 1 9-38.6c.9-1.8 1.7-3.8 2.2-5.8l.1-.4c15.1 2.6 33.2 31.5 42.6 69.3 6.8 28.3 7.1 54.3 1.8 69.6zm27.3-99.5-2.5.4c-2.6-6.8-5.2-13.6-8.3-20.2-1.6-3.5-3.3-7-4.6-10.5-5-13.7-4.1-30-13.4-41.3-.6-.9-1.4-1.6-2.2-2.3l6.1-1.7c5.4 8.5 9.2 18 11.2 27.9 1 4.8 1.6 9.7 3.2 14.4 1.4 3.5 3 7 4.8 10.3 3.5 7.2 6.1 15 5.7 23z" fill="#000" opacity=".1"/><path d="M252 268.7a30.6 30.6 0 0 1 24.4-7.4c5 .8 9.7 3 14.3 5.5a76.9 76.9 0 0 1 23.9 17.8 71.4 71.4 0 0 1 12.2 23.7c2.3 10.5-3.3 20.8-8.6 30.1L308 356.2c-4.7 8.2-9.4 16.4-15.6 23.6-2.8 3.3-5.9 6.4-9 9.4l-13.6 13.4a2 2 0 0 1-.9.7 2 2 0 0 1-1.6-.7l-4.5-3.6c4.1-2.8 8-6 11.5-9.7 5.9-6 10.7-13 15.5-20l15-21.7c4.3-6.4 8.9-13.3 8.4-21-.2-3.7-1.6-7.2-3-10.6-2.6-6-5.4-12-8.4-17.8-3.4-6.6-7.1-13-12-18.6a38.9 38.9 0 0 0-18.1-12.1 15 15 0 0 0-6.6-.7c-4.8.8-8.3 5-11.4 8.9l-9.3 12c-2.2 2.7-4.1 5.9-4.3.7-.2-7.4 7.3-15 12-19.7z" fill="#5770BE"/><path d="M255 349.7c1.8 7.1 4.5 15.2 11.4 18 4.8 1.8 10.5.3 14.7-2.8 4.2-3.2 7.2-7.6 10-12 2.2-4 4.8-8 7.5-11.7 5.5-6.8 13-12.3 16.7-20.3 1-2.4 1.8-5 3-7.2 1.4-2.1 2.9-4.1 4.5-6a64.8 64.8 0 0 0 10.1-17.5 14 14 0 0 0 1.3-7c-.7-4.4-5-7.4-9-9.6-2.3-1.3-4.8-2.6-7.6-2.8-4-.3-8 1.8-10.4 5a20 20 0 0 0-3.8 11.2c-.3 5 .7 10-1 14.7-.8 2.2-2 4.3-3.4 6a70.7 70.7 0 0 1-19 17.6c-.2-3.5-1-7-2.2-10.2-.7-1.8-14.5 0-16.3.3-3.5.5-10.4.9-12.7 4.3-2.2 3.4.6 9 1.5 12.5l4.6 17.5z" fill="#A1616A"/><path d="M254.6 272c-2 1.8-4 3.6-5.7 5.6-4 5-6 11.4-6.6 17.8-.5 6.4.4 12.8 1.5 19.2 1 5.6 2.1 11.3 3.5 16.9.4-4.2 3.8-7.7 7.8-9.3 4-1.5 8.3-1.3 12.5-.7 5.4.8 10.7 2.3 15.8 4.6l2-27.4c.3-3.7.3-7.4-.2-11-1.2-7-5.3-13-11.4-16.6-7.4-4.6-12.5-4.8-19.2 1z" fill="#46455B"/><circle fill="#5770BE" opacity=".1" cx="241.7" cy="66.9" r="6.5"/><circle fill="#5770BE" opacity=".1" cx="43" cy="361.7" r="16.6"/><circle fill="#5770BE" opacity=".1" cx="66.1" cy="439.4" r="6.5"/><circle fill="#5770BE" opacity=".1" cx="55.9" cy="291.5" r="6.5"/></g></svg>