<svg version="1" xmlns="http://www.w3.org/2000/svg" width="1208" height="1208" viewBox="0 0 906 906"><path d="m50.2 453.7.3 402.8h805l.3-402.8L856 51H50l.2 402.7zm775.6.1L826 826H81V81l372.3.2 372.2.3.3 372.3z"/><path d="M438.5 239.6c-2.7.2-9.9 1.1-16 2-84.9 11.8-155.8 75-177 157.8-5.1 19.9-6.7 32.6-6.8 53.1-.2 35.7 6.7 65.4 22.5 97.3l7 14.3-14.8 51.4c-8.1 28.3-14.5 51.7-14.2 52 .2.3 23.8-6.2 52.3-14.4l51.8-14.8 6.8 3.8c18.4 10.4 43.1 19 67.4 23.4 11.9 2.2 43.3 3.1 57.2 1.6 73.9-7.8 137.8-52.2 170.4-118.6 15.1-30.9 21.8-59.8 21.9-94.2.1-58.4-21.6-110.9-62.5-151.8-33.2-33.3-75.7-54.6-121.1-60.9-11.4-1.6-36.3-2.7-44.9-2zm40.4 32c53.2 7.7 98.6 36.7 128.4 81.9 26.6 40.4 35.9 91.2 25.5 139.5-12.6 58.9-54.3 108.6-110.3 131.3-54 22-115.8 17-165.5-13.4l-8.5-5.2-15 3.8c-8.2 2.1-23.1 6.4-33 9.6-9.8 3.2-18.1 5.6-18.4 5.4-.2-.3 4-15.2 9.3-33.2l9.7-32.8-6.4-10.7c-23.2-38.5-31.1-85.3-22.1-131.3 4.3-21.7 16.9-50.9 30.1-69.5 8.8-12.3 31.1-34.6 43.3-43.2 23.7-16.8 55.2-29 84-32.7 11.3-1.5 37.5-1.2 48.9.5z"/><path d="M441.8 346c-21.1 3.8-37.6 14.3-51 32.3-4.1 5.5-4.8 7.1-3.7 7.8.8.5 8.1 5.1 16.3 10.1l14.9 9.1 2.1-2.9c4.4-6.2 13.9-15.2 18.8-17.9 6.1-3.3 17.4-4.5 24.5-2.6 19.5 5.3 24.9 32.4 9.3 46.5-7.5 6.7-19.7 11-38.7 13.6l-9.3 1.3.5 3.6c.3 2 1.2 11 2 20.1.8 9.1 1.8 18.4 2.1 20.7l.5 4.3h27.7l.5-4.3c.4-2.3.9-7.2 1.3-10.8l.6-6.5 7.6-1.8c27.7-6.4 47.7-23.6 53.7-46.2 1.9-7.1 2.1-23 .5-29.9-5.1-21-23.1-38.9-45.5-45.1-6.8-1.9-27.5-2.7-34.7-1.4zm-3.5 176c-8.3 1.9-16.2 9.4-19.1 17.9-3.7 10.7 1.7 23.4 12.6 29.9 4 2.3 5.8 2.7 12.2 2.7 5.7 0 8.5-.6 11.5-2.2 12.8-6.8 18-21.8 11.9-34.1-5.5-11.2-17.5-17-29.1-14.2z"/></svg>