<svg width="1000" height="800" xmlns="http://www.w3.org/2000/svg" xmlns:xlink="http://www.w3.org/1999/xlink"><defs><path id="a" d="M0 0h138v138H0z"/></defs><g fill="none" fill-rule="evenodd"><g transform="translate(106 67)"><path fill="#CCC" fill-rule="nonzero" d="M151.6 356h110v123h-110z"/><path fill="#E6E6E6" fill-rule="nonzero" d="M95.6 664h-56l-6-48h68zM208 629.2l-1.9 25.9a8.2 8.2 0 0 0 8.7 8.8l13.3-.8a4.2 4.2 0 0 0 3.8-5.2l-7.4-29.5-16.5.8zm111 15.3a72.1 72.1 0 0 1 34.1 15.9c2.6 2.5 6 4 9.6 4.1 4.6.3 8.4-.3 11.2-1.5 1.5-.7 2.5-2 2.6-3.7.2-1.6-.5-3.2-1.9-4.1l-37-26.4-15.7 6.3-3.7 3.7a3.6 3.6 0 0 0 .8 5.7z"/><path d="m271 222.7-106-1a90.4 90.4 0 0 1 11.8-44.1c5.1-8.9 5-18.6 3.8-26.7a36 36 0 0 1 12.4-33.5 40 40 0 0 1 26.8-9l2.1.2c13.6.5 26 8 32.9 19.7a33.3 33.3 0 0 1 4 20.3c-.7 6.6.9 13.3 4.6 20 6.5 14.8 7.9 33.7 7.5 54z" fill="#2F2E41" fill-rule="nonzero"/><path d="m341.8 630.2-20.8 5.4-101.2-220.4 6.3 215h-20.7C183.2 529 143 412.2 161 375.4l107.5-6.3 73.2 261z" fill="#5770BE" fill-rule="nonzero"/><circle fill="#FFB9B9" fill-rule="nonzero" cx="218.9" cy="157.7" r="28"/><path d="m243.3 209.2-46-2.7a50.6 50.6 0 0 0 4.4-29.8h34.4c-.1 7.2 3.5 19.8 7.2 32.5z" fill="#FFB9B9" fill-rule="nonzero"/><path fill="#5770BE" fill-rule="nonzero" d="M272.2 377.2 171 384.4l10.4-179.3 17.6-5 20 4.6 19.8-10 12.6 4.5z"/><path d="M188.2 506.4 119 490.6c20.5-68.2 57.6-224 45.6-279.6l36.1-16.3-12.6 311.7z" fill="#E6E6E6" fill-rule="nonzero"/><path d="m154.8 309.5-26.2-16.3 22.3-65.4a30.9 30.9 0 0 1 13.5-16l7.5-4.4-4.5 66-12.6 36zm177.5 182c-21.8 12.6-76.4 19.7-100.3 10.8-1.8-61.5-5.2-235.7 5.9-309.4l39.7 16.3L274 258c-19 41.7 36.2 187 58.3 233.5z" fill="#E6E6E6" fill-rule="nonzero"/><path fill="#E6E6E6" fill-rule="nonzero" d="m329.1 301.3-24.4-8.1-32.5-37 5.4-47 54.2 75.9z"/><path d="M252.7 336.5c.8 3.6 4.4 6 8 5.1l20.8-4.7-3-13.2-20.7 4.7c-3.7.8-6 4.4-5.1 8z" fill="#FFB9B9" fill-rule="nonzero"/><path d="M243.3 150.5a59.7 59.7 0 0 0-46-1l-6.4-22.5h57.8l-5.4 23.5z" fill="#2F2E41" fill-rule="nonzero"/><path d="m271.3 321.2 11.8 21.7c19.7-5.5 36.8-22.9 53.3-43.4l-4.6-14.4-28 7.2-32.5 28.9z" fill="#E6E6E6" fill-rule="nonzero"/><path d="M262.7 276.5h-3.6c0-51.1-10.5-86.7-20.8-86.7l-.9-3.7c9.2 0 15 14.9 18.4 27.3 4.5 16.9 7 39.3 7 63zm-83.1-12.7H176c0-46.8 10.6-75.9 26.2-75.9l-1 3.7c-10.7 0-21.6 22.3-21.6 72.2z" fill="#3F3D56" fill-rule="nonzero"/><circle fill="#3F3D56" fill-rule="nonzero" cx="260.9" cy="277.4" r="9"/><path d="M165.2 285.5h-3.7c0-13 7.3-23.5 16.3-23.5v3.6c-7 0-12.6 9-12.6 20zm28.8 0h-3.5c0-11-5.7-19.9-12.7-19.9V262c9 0 16.3 10.6 16.3 23.5z" fill="#3F3D56" fill-rule="nonzero"/><circle fill="#3F3D56" fill-rule="nonzero" cx="192.3" cy="286.4" r="3.6"/><circle fill="#3F3D56" fill-rule="nonzero" cx="163.3" cy="286.4" r="3.6"/><path fill="#5770BE" fill-rule="nonzero" d="m118.2 253.2 22.5 4 51.6 73.3-27.4-6.4z"/><path d="M114.2 252.3a2 2 0 0 0-1.6 3l48.2 73c.2.5.7.8 1.1.9l22.4 5.2a2 2 0 0 0 2-3l-52.8-75.1c-.3-.4-.8-.7-1.3-.8l-17.7-3.2a2 2 0 0 0-.3 0z" fill="#3F3D56" fill-rule="nonzero"/><path d="m144.2 304.6 1.4 13.4 21-2a6.8 6.8 0 0 0-1.2-13.5l-21.2 2z" fill="#FFB9B9" fill-rule="nonzero"/><path d="M125.9 303c0 9.6 7.8 17.3 17.4 17.3h3.4l2.6-21-21-7.6L126 303zM377 0h412v217H377z" fill="#E6E6E6" fill-rule="nonzero"/><path fill="#FFF" fill-rule="nonzero" d="M389 205h388V12H389z"/><g transform="translate(419 40)"><mask id="b" fill="#fff"><use xlink:href="#a"/></mask><use fill="#3F3D56" fill-rule="nonzero" xlink:href="#a"/><g mask="url('#b')"><g transform="translate(87 66)"><circle fill="#5770BE" cx="35" cy="36" r="13"/><g transform="translate(35 32)"><ellipse fill="#5770BE" cx="24.3" cy="3.5" rx="1.8" ry="3.5"/><path stroke="#5770BE" stroke-width="3" stroke-linecap="square" d="M23.8 3.5H.3"/></g><g transform="matrix(-1 0 0 1 36 32)"><ellipse fill="#5770BE" cx="24.3" cy="3.5" rx="1.8" ry="3.5"/><path stroke="#5770BE" stroke-width="3" stroke-linecap="square" d="M23.8 3.5H.3"/></g><g transform="matrix(0 -1 -1 0 38.5 35.5)"><ellipse fill="#5770BE" cx="24.3" cy="3.5" rx="1.8" ry="3.5"/><path stroke="#5770BE" stroke-width="3" stroke-linecap="square" d="M23.8 3.5H.3"/></g><g transform="matrix(0 1 1 0 31.5 34.5)"><ellipse fill="#5770BE" cx="24.3" cy="3.5" rx="1.8" ry="3.5"/><path stroke="#5770BE" stroke-width="3" stroke-linecap="square" d="M23.8 3.5H.3"/></g><g transform="rotate(45 -20.7 62.6)"><ellipse fill="#5770BE" cx="23.2" cy="3.6" rx="1.7" ry="3.6"/><path stroke="#5770BE" stroke-width="3" stroke-linecap="square" d="M22.7 3.6H.2"/></g><g transform="scale(-1 1) rotate(-45 20.7 62.6)"><ellipse fill="#5770BE" cx="23.2" cy="3.6" rx="1.7" ry="3.6"/><path stroke="#5770BE" stroke-width="3" stroke-linecap="square" d="M22.7 3.6H.2"/></g><g transform="scale(1 -1) rotate(45 65 27)"><ellipse fill="#5770BE" cx="23.2" cy="3.6" rx="1.7" ry="3.6"/><path stroke="#5770BE" stroke-width="3" stroke-linecap="square" d="M22.7 3.6H.2"/></g><g transform="scale(-1 1) rotate(45 -56.3 -23.6)"><ellipse fill="#5770BE" cx="23.2" cy="3.6" rx="1.7" ry="3.6"/><path stroke="#5770BE" stroke-width="3" stroke-linecap="square" d="M22.7 3.6H.2"/></g><g transform="rotate(22.5 -65 109.4)"><ellipse fill="#5770BE" cx="17.8" cy="2.6" rx="1.3" ry="2.6"/><path stroke="#5770BE" stroke-width="3" stroke-linecap="square" d="M17.5 2.6H.2"/></g><g transform="scale(-1 1) rotate(-22.5 64.5 108)"><ellipse fill="#5770BE" cx="17.8" cy="2.6" rx="1.3" ry="2.6"/><path stroke="#5770BE" stroke-width="3" stroke-linecap="square" d="M17.5 2.6H.2"/></g><g transform="scale(1 -1) rotate(67.5 46.6 10.3)"><ellipse fill="#5770BE" cx="17.8" cy="2.6" rx="1.3" ry="2.6"/><path stroke="#5770BE" stroke-width="3" stroke-linecap="square" d="M17.5 2.6H.2"/></g><g transform="scale(-1 1) rotate(67.5 -42.1 -7.7)"><ellipse fill="#5770BE" cx="17.8" cy="2.6" rx="1.3" ry="2.6"/><path stroke="#5770BE" stroke-width="3" stroke-linecap="square" d="M17.5 2.6H.2"/></g><g transform="rotate(67.5 -6.7 45.8)"><ellipse fill="#5770BE" cx="17.9" cy="2.7" rx="1.3" ry="2.7"/><path stroke="#5770BE" stroke-width="3" stroke-linecap="square" d="M17.5 2.7H.2"/></g><g transform="scale(-1 1) rotate(-67.5 6.7 45.8)"><ellipse fill="#5770BE" cx="17.9" cy="2.7" rx="1.3" ry="2.7"/><path stroke="#5770BE" stroke-width="3" stroke-linecap="square" d="M17.5 2.7H.2"/></g><g transform="scale(1 -1) rotate(22.5 114 73)"><ellipse fill="#5770BE" cx="17.9" cy="2.7" rx="1.3" ry="2.7"/><path stroke="#5770BE" stroke-width="3" stroke-linecap="square" d="M17.5 2.7H.2"/></g><g transform="scale(-1 1) rotate(22.5 -100 -70.8)"><ellipse fill="#5770BE" cx="17.9" cy="2.7" rx="1.3" ry="2.7"/><path stroke="#5770BE" stroke-width="3" stroke-linecap="square" d="M17.5 2.7H.2"/></g></g></g></g><path fill="#E6E6E6" fill-rule="nonzero" d="M465 37h40v6h-40z"/><path fill="#3F3D56" fill-rule="nonzero" d="M595 40h138v138H595z"/><circle fill="#5770BE" fill-rule="nonzero" cx="690.2" cy="131.8" r="1.8"/><circle fill="#5770BE" fill-rule="nonzero" cx="683.5" cy="125.5" r="1.8"/><path d="M682.5 131.8c-.6 0-1.3.2-1.8.5-.5-.7-1.1-1.4-1.8-2v-.3a3.6 3.6 0 0 0-6-2.6h-3v-.1a3.6 3.6 0 1 0-6 2.7l-1.5 1.7a3.6 3.6 0 1 0-2.4 6.4 11.4 11.4 0 0 0 .4 3.1 6.7 6.7 0 1 0 8.8 8.4c2.5.5 5 0 7.3-1a3.6 3.6 0 1 0 4.8-4.8c.7-1.5 1.2-3.1 1.2-4.8a3.6 3.6 0 0 0 0-7.2z" fill="#5770BE" fill-rule="nonzero"/><circle fill="#5770BE" fill-rule="nonzero" cx="704.3" cy="97.6" r="1.8"/><circle fill="#5770BE" fill-rule="nonzero" cx="708.6" cy="89.4" r="1.8"/><path d="M702.2 90.3c-.1-.7-.5-1.2-1-1.7.6-.7 1.1-1.4 1.5-2.2h.3a3.6 3.6 0 0 0 .8-6.6c0-1-.3-2-.7-2.9a3.6 3.6 0 1 0-4.2-5c-.6-.4-1.3-.8-2-1a3.6 3.6 0 1 0-6.8-.6 11.4 11.4 0 0 0-3 1.2 6.7 6.7 0 1 0-5.6 10.7c.2 2.6 1.3 5 3 6.8a3.6 3.6 0 1 0 5.9 3.3c1.6.3 3.3.3 5 0a3.6 3.6 0 1 0 6.8-2z" fill="#5770BE" fill-rule="nonzero"/><circle fill="#5770BE" fill-rule="nonzero" cx="634.6" cy="73.2" r="1.8"/><circle fill="#5770BE" fill-rule="nonzero" cx="625.4" cy="73.9" r="1.8"/><path d="M629.4 78.8c-.4.5-.7 1.1-.8 1.8-1-.2-1.8-.2-2.7-.1l-.2-.2a3.6 3.6 0 0 0-6 2.7 11 11 0 0 0-2 2.2V85a3.6 3.6 0 1 0-2 6.2v2.4a3.6 3.6 0 1 0 3.2 6 11.4 11.4 0 0 0 2.6 1.9 6.7 6.7 0 1 0 12-.9c2.1-1.5 3.6-3.7 4.2-6.2a3.6 3.6 0 1 0-.3-6.6c-.5-1.6-1.5-3-2.6-4.2a3.6 3.6 0 1 0-5.4-4.9z" fill="#5770BE" fill-rule="nonzero"/><path fill="#E6E6E6" fill-rule="nonzero" d="M641 37h40v6h-40zM25.2 598.2c14.4 19.4 44.3 21.4 44.3 21.4s6.6-29.3-7.8-48.6c-14.5-19.3-44.4-21.3-44.4-21.3s-6.5 29.2 7.9 48.5z"/><path d="M98.6 605.5c-9.5 12.7-29.2 14-29.2 14s-4.4-19.2 5.2-32c9.5-12.7 29.2-14 29.2-14s4.3 19.3-5.2 32z" fill="#E6E6E6" fill-rule="nonzero"/><path fill="#3F3D56" fill-rule="nonzero" d="M0 663.7h519.6v2.2H0z"/></g><g transform="translate(518.4 118)"><circle fill="#5770BE" cx="51.6" cy="51.9" r="19"/><g transform="translate(51.6 47)"><ellipse fill="#5770BE" cx="34.5" cy="5" rx="2.5" ry="5"/><path stroke="#5770BE" stroke-width="3" stroke-linecap="square" d="M33.8 5H.4"/></g><g transform="matrix(-1 0 0 1 52.6 47)"><ellipse fill="#5770BE" cx="34.5" cy="5" rx="2.5" ry="5"/><path stroke="#5770BE" stroke-width="3" stroke-linecap="square" d="M33.8 5H.4"/></g><g transform="matrix(0 -1 -1 0 56.1 51.4)"><ellipse fill="#5770BE" cx="34.5" cy="5" rx="2.5" ry="5"/><path stroke="#5770BE" stroke-width="3" stroke-linecap="square" d="M33.8 5H.4"/></g><g transform="matrix(0 1 1 0 46.1 50.4)"><ellipse fill="#5770BE" cx="34.5" cy="5" rx="2.5" ry="5"/><path stroke="#5770BE" stroke-width="3" stroke-linecap="square" d="M33.8 5H.4"/></g><g transform="rotate(45 -30.1 91.3)"><ellipse fill="#5770BE" cx="33.8" cy="5.2" rx="2.4" ry="5.2"/><path stroke="#5770BE" stroke-width="3" stroke-linecap="square" d="M33.1 5.2H.3"/></g><g transform="scale(-1 1) rotate(-45 30.1 91.3)"><ellipse fill="#5770BE" cx="33.8" cy="5.2" rx="2.4" ry="5.2"/><path stroke="#5770BE" stroke-width="3" stroke-linecap="square" d="M33.1 5.2H.3"/></g><g transform="scale(1 -1) rotate(45 94.8 39.5)"><ellipse fill="#5770BE" cx="33.8" cy="5.2" rx="2.4" ry="5.2"/><path stroke="#5770BE" stroke-width="3" stroke-linecap="square" d="M33.1 5.2H.3"/></g><g transform="scale(-1 1) rotate(45 -82.1 -34.4)"><ellipse fill="#5770BE" cx="33.8" cy="5.2" rx="2.4" ry="5.2"/><path stroke="#5770BE" stroke-width="3" stroke-linecap="square" d="M33.1 5.2H.3"/></g><g transform="rotate(22.5 -94.8 159.6)"><ellipse fill="#5770BE" cx="26" cy="3.8" rx="1.9" ry="3.8"/><path stroke="#5770BE" stroke-width="3" stroke-linecap="square" d="M25.5 3.8H.3"/></g><g transform="scale(-1 1) rotate(-22.5 94 157.5)"><ellipse fill="#5770BE" cx="26" cy="3.8" rx="1.9" ry="3.8"/><path stroke="#5770BE" stroke-width="3" stroke-linecap="square" d="M25.5 3.8H.3"/></g><g transform="scale(1 -1) rotate(67.5 68 15)"><ellipse fill="#5770BE" cx="26" cy="3.8" rx="1.9" ry="3.8"/><path stroke="#5770BE" stroke-width="3" stroke-linecap="square" d="M25.5 3.8H.3"/></g><g transform="scale(-1 1) rotate(67.5 -61.5 -11.2)"><ellipse fill="#5770BE" cx="26" cy="3.8" rx="1.9" ry="3.8"/><path stroke="#5770BE" stroke-width="3" stroke-linecap="square" d="M25.5 3.8H.3"/></g><g transform="rotate(67.5 -9.7 66.8)"><ellipse fill="#5770BE" cx="26" cy="4" rx="1.9" ry="4"/><path stroke="#5770BE" stroke-width="3" stroke-linecap="square" d="M25.5 4H.3"/></g><g transform="scale(-1 1) rotate(-67.5 9.7 66.8)"><ellipse fill="#5770BE" cx="26" cy="4" rx="1.9" ry="4"/><path stroke="#5770BE" stroke-width="3" stroke-linecap="square" d="M25.5 4H.3"/></g><g transform="scale(1 -1) rotate(22.5 166.1 106.5)"><ellipse fill="#5770BE" cx="26" cy="4" rx="1.9" ry="4"/><path stroke="#5770BE" stroke-width="3" stroke-linecap="square" d="M25.5 4H.3"/></g><g transform="scale(-1 1) rotate(22.5 -146 -103.3)"><ellipse fill="#5770BE" cx="26" cy="4" rx="1.9" ry="4"/><path stroke="#5770BE" stroke-width="3" stroke-linecap="square" d="M25.5 4H.3"/></g></g></g></svg>