<svg width="1000" height="800" xmlns="http://www.w3.org/2000/svg"><g transform="translate(80 21)" fill="none"><path fill="#3F3D56" d="m534.3 438.6-116-138-232.9 2.1L44.2 440.3l2.8 1.9h-1v286.1h488V442.2z"/><path fill="#5770BE" d="m418.4 301-145 169.8v257.5H534V438.5z"/><path fill="#FFF" d="M378 585.9h53.2v47H378zm0-81.4h53.2v46.3H378zm-236.4 68.9h53.2v47h-53.2zm0-81.3h53.2v46.3h-53.2z"/><path fill="#3F3D56" d="M0 727.4h840.5v2H0z"/><path fill="#A0616A" d="m714 695.8 4 20-20 4 3-25zm63-4-5 25h-24l10-30z"/><path d="m799 517.8 4 27-5 59-4 22-17 72s-19 0-22-8l5-41s4-33 3-37l-16-68s-22 101-25 110-7 48-7 48-17 3-18 0-2-74-2-85 2-17 2-19-8-97.4-8-97.4l110 17.4zm-41 194s5 1 8 0 0-7 0-7h11s12 27 17 29 21 24 2 24a62 62 0 0 1-33-10s-2-9-11-10-15-12-15-12l13-24s3 11 8 10zm-47-1s-2 4-4 2-4-7-4-7-6-3-7 0-5 19-7 21-23 23-2 27 25-5 25-5-3-5 3-7 7-9 7-9l-4-30s-4 10-7 8z" fill="#2F2E41"/><path d="m822 447.8 3 52s14 33-5 32-7-33-7-33l-18.7-46.4 27.6-4.6zm-154-15-3 52s-14 33 5 32 7-33 7-33l18.5-46.4-27.6-4.6z" fill="#A0616A"/><circle fill="#A0616A" cx="747.9" cy="293.8" r="26"/><path d="M768.4 304.3s-7 28 7 35-44 17-48 0l2-8s8-10 6-19l33-8z" fill="#A0616A"/><path d="M753 339.8s-17.3 1.6-22.7-9.7c0 0-40.4 2.7-49.4 39.7l15 96s-16 28-14 31c0 0-10 28 82 29l40-2c.6-5.7.2-11.4-1-17-2-9-13-72-13-72s30-47 27-54-7.8-34.6-46.4-45.8c0 0-.6 5.8-17.6 4.8z" fill="#E6E6E6"/><path d="m804 363.8 13 17s13 71 9 72-28 9-32 6-22-62-22-62l32-33zm-106-5-17 11s-25 70-18 73 46 1 46 1l-11-85z" fill="#E6E6E6"/><path d="M776.3 270.6s-9-19.5-26.2-15c-17.3 4.5-27 11.2-27.8 18-.7 6.7.4 16.9.4 16.9s1.9-14 13.9-11a81.1 81.1 0 0 0 21 1.5 9.2 9.2 0 0 1 9.6 9.3l-.3 21.5s25-16 9.4-41.2z" fill="#2F2E41"/><path d="M653.7 278.1H300.5c-3.6 0-6.5-2.9-6.5-6.5V109.4c0-3.6 3-6.5 6.5-6.5h353.2c3.6 0 6.5 3 6.5 6.5v162.2c0 3.6-2.9 6.5-6.5 6.5zM300.5 105.5a4 4 0 0 0-3.9 4v162a4 4 0 0 0 4 4h353.1a4 4 0 0 0 4-4v-162a4 4 0 0 0-4-4H300.5z" fill="#E6E6E6"/><circle fill="#5770BE" cx="352.8" cy="160.3" r="26.6"/><path d="M414.3 142.6a4.4 4.4 0 1 0 0 8.8h209.3a4.4 4.4 0 0 0 0-8.8H414.3zm0 26.6a4.4 4.4 0 1 0 0 8.9h90a4.4 4.4 0 1 0 0-8.9h-90zm-81.9 42.6c-3.4 0-6.2 2-6.2 4.4 0 2.5 2.8 4.5 6.2 4.5h288.8c3.3 0 6-2 6-4.5 0-2.4-2.7-4.4-6-4.4H332.4zm0 26.6c-3.4 0-6.2 2-6.2 4.5 0 2.4 2.8 4.4 6.2 4.4h288.8c3.3 0 6-2 6-4.4 0-2.5-2.7-4.5-6-4.5H332.4z" fill="#E6E6E6"/><circle fill="#5770BE" cx="590.1" cy="47.4" r="47.4"/><path fill="#5770BE" d="m590.1 124.4-14.8-25.7-14.8-25.6h59.2L605 98.7z"/><circle fill="#FFF" cx="590.5" cy="47.1" r="17"/><ellipse fill="#A0616A" cx="768.9" cy="293.8" rx="4" ry="5"/></g></svg>