<svg xmlns="http://www.w3.org/2000/svg" xmlns:xlink="http://www.w3.org/1999/xlink" viewBox="0 0 50 50"><defs><path d="M6.6 16.8a1.4 1.4 0 1 1 0 2.8 1.4 1.4 0 0 1 0-2.8zM5.8.4c2-.5 4-.1 5.7 1 1.2.9 2 2.2 2.2 3.6.2 1.4 0 4.8-6.1 6.2v2.7a1 1 0 0 1-2 0V9.5l.8-.2C8.5 9 12 8 11.7 5.3c-.1-1-.6-1.8-1.3-2.3-1.3-.8-2.8-1-4.2-.7-1.4.2-2.8.8-4 1.7A1 1 0 0 1 1 2.4c1.4-1 3-1.7 4.8-2z" id="a"/></defs><g fill="none" fill-rule="evenodd"><path d="M0 0h50v50H0z"/><use fill="#0762C8" xlink:href="#a" transform="translate(18 15)"/></g></svg>