<svg xmlns="http://www.w3.org/2000/svg" xmlns:xlink="http://www.w3.org/1999/xlink" viewBox="0 0 50 50"><defs><filter id="a"><feColorMatrix in="SourceGraphic" values="0 0 0 0 0.965721 0 0 0 0 0.606446 0 0 0 0 0.015825 0 0 0 1.000000 0"/></filter><path d="M34.7 28.2 20.8 2.7a3.2 3.2 0 0 0-5.6 0l-14 25.5a3.2 3.2 0 0 0 3 4.8h27.7a3.2 3.2 0 0 0 2.8-4.7zM16.7 9a1.4 1.4 0 0 1 2.8 0v12a1.4 1.4 0 1 1-2.8 0V9zm1.4 19.9a1.8 1.8 0 1 1 0-3.6 1.8 1.8 0 0 1 0 3.6z" id="b"/></defs><g fill="none" fill-rule="evenodd"><use fill="#A26859" xlink:href="#b" transform="translate(7 9)"/><path d="M0 0h50v50H0z"/></g></svg>