<svg width="1000" height="800" xmlns="http://www.w3.org/2000/svg"><g transform="translate(131 53)" fill="none"><ellipse fill="#E6E6E6" cx="181" cy="671.9" rx="181" ry="21.5"/><path d="m227.2 97.8-.2 1.4a121.8 121.8 0 0 0 2.2 62.2H129l15.8-72a36.8 36.8 0 0 1 37-37h8.7a38.6 38.6 0 0 1 17.4 4.2A38 38 0 0 1 232.5 97c-2.4 20.9 1.1 41.4 9.5 61.5l-5.2.6c-8.4-20-11.9-40.4-9.6-61.3z" fill="#2F2E41"/><path d="M166.7 108.4s8 34-8 36.6c-15.8 2.6 41 10.4 41 10.4s-4-27.4 5.3-36.5l-38.3-10.5zm-66.4 237s-3.2 40.5 10.5 41c13.7.6 6-39.8 6-39.8l-16.5-1.2zm183.7 20s13.4 37.9 0 41.8c-13.3 3.9-16-36.5-16-36.5l16-5.3z" fill="#FBBEBE"/><path fill="#5770BE" d="m214 175.3 18.5-2.9 7.8 5.5 6.6 19.8 15.8 80.7 11.9 52.8 18.4 37-30.3 13.2-29-95.1z"/><path d="M141.1 273.6s-8 52.8-2.6 63.3c0 0-9.9 61.3-17.2 101.6l-10.5 58L87 585l38.3 10.5L203 379.1l22.5 121.4 4 87 40.8-1.3-5.3-151.7s24-100.2-17-137.1c-41-37-47.5-37-47.5-37L141 273.6z" fill="#2F2E41"/><path d="M257.7 582.4 268 618l6.5 31.5s23.4 35.6 0 31.6-26-17-26-17v-8l-6.6-4v-13s-9-6.7 0-17.2l-3.9-36.8 19.6-2.7zm-160.7 0L86.2 618l-6.7 31.5s-23.9 35.6 0 31.6c24-4 26.6-17 26.6-17v-8l6.7-4v-13s9.3-6.7 0-17.2l4-36.8-20-2.7z" fill="#2F2E41"/><circle fill="#FBBEBE" cx="191.5" cy="93.9" r="32.5"/><path d="M158.2 138.4s34.3 14.6 43.6 12c9.2-2.7 11.9 9.2 11.9 9.2L240 178l-8 45s6.7 23.7-1.3 39.5c0 0 21.2 6.6 13.2 17.2 0 0 14.6 7.9 6.6 23.7 0 0-39.6-10.5-43.5-30.3l-41 5.3-29 22.4s-14.5-1.3-9.3-22.4c3.1-13.1 2.7-26.8-1.3-39.6L112 146.4l46.2-8z" fill="#5770BE"/><path d="m116.6 145.5-5.3 1.4a9.3 9.3 0 0 0-4.7 3l-1.7 2c-1.7 2-2.7 4.4-2.9 7l-1.2 16.9-1.8 82 1.7 54-8.7 40.4 32.6 5.2 4.4-99.3-8.1-109.5a3.4 3.4 0 0 0-4.3-3z" fill="#5770BE"/><path d="M198 158.3c-5.4-13.1-13.4-27-18.7-39.5-3.7-14.5-4.6-27 3.7-33.4 0-14 .5-23.1-10.7-30a37 37 0 0 0-7.5 4.5l-1.3 1-.5.4-.3.3a37 37 0 0 0-12.7 28v69.8h40.9c-1.4-5.9-3.2-12-5-18 3 5.8 5.8 11.8 8.2 17.6l3.9-.7z" fill="#2F2E41"/><path d="M229 85c-17.8 5-37.7 4.1-59 0V59.5h32.8A26 26 0 0 1 229 85.1z" fill="#2F2E41"/><path fill="#E6E6E6" d="M378 26h361v225H378z"/><path fill="#FFF" d="M402 70h66v43h-66zm82 0h66v43h-66zm82 0h66v43h-66zm82 0h66v43h-66zm-246 60h66v43h-66zm82 0h66v43h-66zm82 0h66v43h-66zm82 0h66v43h-66zm-246 61h66v43h-66zm82 0h66v43h-66zm82 0h66v43h-66zm82 0h66v43h-66z"/><ellipse fill="#FFF" cx="472.5" cy="43" rx="9.5" ry="10"/><circle fill="#FFF" cx="636" cy="43" r="10"/><path fill="#E6E6E6" d="M468 0h8v46h-8zm164 0h8v46h-8z"/><path d="M696 91c0 7.5-5.3 13.8-12.5 14.9-7.1 1-14-3.6-16-10.7-2-7.2 1.5-14.8 8-17.9 6.6-3 14.4-.6 18.3 5.7 1.4 2.4 2.2 5.2 2.2 8z" fill="#5770BE"/><path d="M694 83.2 679.1 98c-.9-1.4-6.1-8.1-6.1-8.1a21 21 0 0 1 2.1-1.9l4.3 5.7L692.3 81a15 15 0 0 1 1.7 2.2z" fill="#FFF"/><path d="M532 152a15 15 0 1 1-30 0 15 15 0 0 1 30 0z" fill="#5770BE"/><path d="M530 144.2 515.1 159c-.9-1.4-6.1-8.1-6.1-8.1a21 21 0 0 1 2.1-1.9l4.3 5.7 12.9-12.7a15 15 0 0 1 1.7 2.2z" fill="#FFF"/><path d="M450 152a15 15 0 1 1-30 0 15 15 0 0 1 30 0z" fill="#5770BE"/><path d="M448 144.2 433.1 159c-.9-1.4-6.1-8.1-6.1-8.1a21 21 0 0 1 2.1-1.9l4.3 5.7 12.9-12.7a15 15 0 0 1 1.7 2.2z" fill="#FFF"/></g></svg>