<svg width="1000" height="800" xmlns="http://www.w3.org/2000/svg"><g transform="translate(114 65)" fill="none"><path d="M188.3 108.1c-21.5 0-37 16-42.4 39l-6.5 34.3h4.7l10-28.1-2.1 28.1h5.2l3.9-14.5-.8 14.5H223v-35c0-21.2-15.5-38.3-34.7-38.3zM160 292.5s-31.8 44.2-30.3 62c1.6 17.8 21.7 308.2 21.7 308.2l47.3 2.3-14-209 11.6-56.6L225 662.7l58 1.5-51.8-341.5-10-30.2h-61.3z" fill="#2F2E41"/><path d="M170.8 157.8s10 18.6-3.1 31c-13.2 12.3-19.4 45.6-19.4 45.6l74.4-5.4-6.2-41.8s-16.3-10-12.4-27.9l-33.3-1.5z" fill="#FFB8B8"/><path d="M158.4 207.3s4.6 14 24.8 12.4a69 69 0 0 0 34-12.4V298l-62-2.3v-55l3.2-33.3z" fill="#5770BE"/><path d="m162.3 298 4.6-15.5s-1.5-36.4-7.7-51.2c0 0 11.8-38.7 13.6-50l-5.9 4.4-35.6 17 12.4 64.3 8.5 14-8.8 36.5 18.9-19.6zm30.2-3.1 17.8-96.9-5-24 14.3 14 27.8 8.5-13.1 72.8-7.8 15.5 3.9 34.7z" fill="#3F3D56"/><path d="M263.7 359.9s7.7 33.3-7.7 37.2c-15.5 3.8-10.1-37.2-10.1-37.2h17.8zm-136.6-34.6s29.8 16.8 22.2 30.8c-7.5 14-34.2-17.6-34.2-17.6l12-13.2z" fill="#FFB8B8"/><path d="m235.8 198 11.6-1.5s7 9.3 7.8 16.3l13.1 124.6c1 2.6 0 5.1-.7 26.4l-2.3 9.3s-4.7-17.8-22.5-8.6l-2.3-10.8s-4.7-41-4.7-60.4-1.5-40.3-1.5-40.3l1.5-55z" fill="#3F3D56"/><ellipse fill="#2F2E41" cx="179.7" cy="663.9" rx="11" ry="4.1"/><ellipse fill="#2F2E41" cx="254.1" cy="663.9" rx="11" ry="4.1"/><path d="m139.8 202-8.5.7-19.4 75.1s-2.3 97.6 17 79c0 0-7-20.1 10.9-27.1v-41L146 253l-6.2-51z" fill="#3F3D56"/><ellipse fill="#FFB8B8" cx="214.1" cy="150.4" rx="1.2" ry="3.9"/><ellipse fill="#FFB8B8" cx="161.5" cy="150.4" rx="1.2" ry="3.9"/><circle fill="#FFB8B8" cx="187.8" cy="148.5" r="25.6"/><path fill="#2F2E41" d="m176.6 135-.7 6.1h17.7l2.3-4.6-.4 4.6h21.4L202 118l-32.5.8L162 141h11.6z"/><path d="M565.7 426c-114.1 0-207-93-207-207 0-114.2 92.9-207 207-207 114.2 0 207 92.8 207 207 0 114-92.8 207-207 207zm0-412c-113 0-205 91.9-205 205 0 113 92 205 205 205s205-92 205-205c0-113.1-92-205-205-205z" fill="#E6E6E6"/><path d="M565.7 368c-82.1 0-149-67-149-149 0-82.2 66.9-149 149-149 82.2 0 149 66.8 149 149 0 82-66.8 149-149 149zm0-296c-81 0-147 65.9-147 147 0 81 66 147 147 147s147-66 147-147c0-81.1-66-147-147-147z" fill="#E6E6E6"/><path d="M565.7 309.3a90.3 90.3 0 1 1 0-180.7 90.3 90.3 0 0 1 0 180.7zm0-178.7a88.3 88.3 0 1 0 0 176.7 88.3 88.3 0 0 0 0-176.7z" fill="#E6E6E6"/><circle fill="#5770BE" cx="565.7" cy="218.9" r="45.9"/><circle fill="#5770BE" cx="598.5" cy="14.5" r="14.5"/><circle fill="#5770BE" cx="416.2" cy="360.3" r="14.5"/><circle fill="#E6E6E6" cx="418.2" cy="235.3" r="14.5"/><circle fill="#E6E6E6" cx="690.2" cy="137.3" r="14.5"/><circle fill="#E6E6E6" cx="747.2" cy="318.3" r="14.5"/><circle fill="#5770BE" cx="704.8" cy="254" r="14.5"/><circle fill="#5770BE" cx="386" cy="115.2" r="14.5"/><circle fill="#5770BE" cx="619.8" cy="418.5" r="14.5"/><path d="M9.4 647.4c14.4 19.3 44.3 21.4 44.3 21.4s6.6-29.3-7.9-48.6c-14.4-19.3-44.3-21.4-44.3-21.4s-6.6 29.3 7.9 48.6z" fill="#E6E6E6"/><path d="M82.8 654.7c-9.5 12.7-29.3 14-29.3 14s-4.3-19.3 5.2-32 29.3-14 29.3-14 4.3 19.2-5.2 32z" fill="#E6E6E6"/><path fill="#3F3D56" d="M8.2 666.8h664v2.2H8.2z"/></g></svg>