<svg id="a3fb4343-95d2-4a83-b68f-ed4eefcf6705" data-name="Layer 1" xmlns="http://www.w3.org/2000/svg" width="715.296" height="604.17"><path d="M948.018 354.635q1.26 4.92 2.36 9.89h-249.73v-9.89Z" transform="translate(-242.352 -147.915)" fill="#e6e6e6"/><path d="M940.058 328.565a305.612 305.612 0 0 0-14.04-33.26q-2.46-4.995-5.11-9.89c-.29-.56-.6-1.12-.91-1.68v73.6h21.58v-24.39Z" transform="translate(-242.352 -147.915)" fill="#e6e6e6"/><path d="M926.018 295.305h-6.02v-9.89h.91q2.655 4.89 5.11 9.89Z" transform="translate(-242.352 -147.915)" fill="#ccc"/><path fill="#ccc" d="M697.706 180.65h-20.06v9.89h21.58v-5.51l-1.52-4.38z"/><path fill="#e6e6e6" d="M644.385 124.017h21.576v85.404h-21.576z"/><path fill="#ccc" d="M644.385 137.502h21.576v9.889h-21.576zM644.385 180.653h21.576v9.889h-21.576z"/><path d="M809.918 271.435h-77.4a4.507 4.507 0 0 0-4.5 4.5v77.4a4.656 4.656 0 0 0 .19 1.3 4.51 4.51 0 0 0 4.31 3.2h77.4a4.51 4.51 0 0 0 4.31-3.2 4.638 4.638 0 0 0 .19-1.3v-77.4a4.507 4.507 0 0 0-4.5-4.5Z" transform="translate(-242.352 -147.915)" fill="#e6e6e6"/><path d="M804.418 276.935h-66.4a4.507 4.507 0 0 0-4.5 4.5v66.4a4.507 4.507 0 0 0 4.5 4.5h66.4a4.507 4.507 0 0 0 4.5-4.5v-66.4a4.507 4.507 0 0 0-4.5-4.5Z" transform="translate(-242.352 -147.915)" fill="#fff"/><path d="M792.838 288.515h-43.24a4.507 4.507 0 0 0-4.5 4.5v43.24a4.507 4.507 0 0 0 4.5 4.5h43.24a4.523 4.523 0 0 0 4.5-4.5v-43.24a4.507 4.507 0 0 0-4.5-4.5Z" transform="translate(-242.352 -147.915)" fill="#ccc"/><path d="m790.172 328.628-9.132-15.819a2 2 0 0 0-3.465 0l-6.669 11.551-8.746-15.147a2 2 0 0 0-3.464 0l-9.133 15.82-10.865 18.818h20.955l-2.076 3.596h43.461Z" transform="translate(-242.352 -147.915)" fill="#fff"/><circle cx="544.597" cy="150.088" r="6.293" fill="#fff"/><path d="M957.568 424.515q-.105-5.82-.46-11.58c-.1-1.84-.22-3.67-.37-5.5h-42.22a4.507 4.507 0 0 0-4.5 4.5v77.4a4.09 4.09 0 0 0 .13 1.05 4.504 4.504 0 0 0 4.37 3.45h38.92c.2-1.14.39-2.3.56-3.45.11-.68.22-1.37.32-2.05.24-1.63.47-3.26.68-4.89q.45-3.33.81-6.69 1.32-12.045 1.7-24.35v-.01q.135-4.635.14-9.31v-12c0-2.2-.02-4.39-.08-6.57Z" transform="translate(-242.352 -147.915)" fill="#e6e6e6"/><path d="M957.568 424.515q-.105-5.82-.46-11.58h-37.09a4.507 4.507 0 0 0-4.5 4.5v66.4a4.507 4.507 0 0 0 4.5 4.5h34.3c.24-1.63.47-3.26.68-4.89q.45-3.33.81-6.69 1.32-12.045 1.7-24.35v-.01q.135-4.635.14-9.31v-12c0-2.2-.02-4.39-.08-6.57Z" transform="translate(-242.352 -147.915)" fill="#fff"/><path d="M957.568 424.515h-25.97a4.507 4.507 0 0 0-4.5 4.5v43.24a4.507 4.507 0 0 0 4.5 4.5h24.21q1.32-12.045 1.7-24.35v-.01q.135-4.635.14-9.31v-12c0-2.2-.02-4.39-.08-6.57Z" transform="translate(-242.352 -147.915)" fill="#ccc"/><path d="M957.508 452.405q-.375 12.3-1.7 24.35-.36 3.36-.81 6.69h-15.42l2.08-3.59h-20.96l6.4-11.09 4.46-7.73 9.14-15.82a1.991 1.991 0 0 1 3.46 0l8.75 15.15Z" transform="translate(-242.352 -147.915)" fill="#fff"/><path d="M881.738 228.785h-181.09v-9.89h172.11q4.59 4.845 8.98 9.89Z" transform="translate(-242.352 -147.915)" fill="#e6e6e6"/><path d="M796.838 160.195q11.07 6.09 21.58 13.05v48.34h-21.58Z" transform="translate(-242.352 -147.915)" fill="#e6e6e6"/><path fill="#ccc" d="M554.486 44.906h21.576v9.889h-21.576z"/><path d="M851.678 198.645v22.94h-21.58v-40.21q7.546 5.505 14.75 11.45 3.45 2.85 6.83 5.82Z" transform="translate(-242.352 -147.915)" fill="#e6e6e6"/><path d="M851.678 198.645v4.06h-21.58v-9.88h14.75q3.45 2.85 6.83 5.82Z" transform="translate(-242.352 -147.915)" fill="#ccc"/><path d="M774.808 149.175q8.565 3.855 16.84 8.22l-4.44 8.96-14.75 29.81-4.39 8.86-6.87 13.87-1.51 3.05-6.15-3.05-13.18-6.53 8.37-16.92h.01l4.38-8.86 14.76-29.81 4.34-8.76.05-.1Z" transform="translate(-242.352 -147.915)" fill="#e6e6e6"/><path fill="#ccc" d="m549.246 9.57-4.39 8.87-19.33-9.58 4.34-8.76.05-.1 2.54 1.26 16.79 8.31z"/><path transform="rotate(-63.66 520.276 317.055)" fill="#ccc" d="M755.648 185.017h9.889v21.576h-9.889z"/><path d="M953.998 490.385c-.17 1.15-.36 2.31-.56 3.45-.35 2.16-.73 4.3-1.14 6.44h-251.65v-9.89Z" transform="translate(-242.352 -147.915)" fill="#e6e6e6"/><path fill="#e6e6e6" d="M554.486 259.765h21.576v85.404h-21.576z"/><path fill="#ccc" d="M554.486 273.249h21.576v9.889h-21.576zM554.486 316.401h21.576v9.889h-21.576z"/><path fill="#e6e6e6" d="M587.748 259.765h21.576v85.404h-21.576z"/><path fill="#ccc" d="M587.748 273.249h21.576v9.889h-21.576zM587.748 316.401h21.576v9.889h-21.576z"/><path transform="rotate(-63.66 528.652 571.631)" fill="#e6e6e6" d="M726.267 439.594h85.404v21.576h-85.404z"/><path transform="rotate(-63.66 539.422 549.879)" fill="#ccc" d="M774.794 417.841h9.889v21.576h-9.889z"/><path transform="rotate(-63.66 520.276 588.55)" fill="#ccc" d="M755.648 456.513h9.889v21.576h-9.889z"/><path d="M535.15 528.497a19.791 19.791 0 0 1 2.57 1.762l89.03-27.706 5.02-22.088 34.325 3.22-5.088 39.966a15.04 15.04 0 0 1-12.568 12.956l-104.773 16.588a19.736 19.736 0 1 1-8.516-24.698Z" transform="translate(-242.352 -147.915)" fill="#ffb8b8"/><path d="m681.958 496.935-.59-10.08v-.01l-.16-2.76-1.74-29.68a23.473 23.473 0 0 0-21.33-25.35 23.15 23.15 0 0 0-5.34.14 23.543 23.543 0 0 0-20.15 21.18l-3.61 15.02-6.31 26.27a8.418 8.418 0 0 0 4.34 9.48 8.275 8.275 0 0 0 3.13.92l10.52.94 10.13.9 11.69 1.04.84.07 2.16.2 7.23.64h.02a8.563 8.563 0 0 0 6.62-2.36 8.58 8.58 0 0 0 1.59-2.12 8.245 8.245 0 0 0 .96-4.44Z" transform="translate(-242.352 -147.915)" fill="#6c63ff"/><path d="M779.654 374.708c0 34.225-31.647 29.048-70.685 29.048s-70.685 5.177-70.685-29.048 15.458-94.893 70.685-94.893c57.129 0 70.685 60.667 70.685 94.893Z" transform="translate(-242.352 -147.915)" fill="#2f2e41"/><circle cx="708.732" cy="356.135" r="47.564" transform="rotate(-45 409.007 574.722)" fill="#ffb8b8"/><path d="M775.688 423.695a29.37 29.37 0 0 0-2.91-2.46 30.92 30.92 0 0 0-22.63-5.99l-87.65 11.09a31.12 31.12 0 0 0-27.15 33.78c.25 2.8.53 5.75.84 8.82.4 3.85.85 7.89 1.37 12.07.86 7.03 1.91 14.45 3.16 22 1.09 6.5 2.33 13.09 3.75 19.6q.616 2.82 1.28 5.62a.036.036 0 0 0 .01.03c.05.23.1.46.16.68a.074.074 0 0 0 .01.05q.93 3.9 1.95 7.71c.26.94.51 1.87.77 2.79.7 2.5 1.44 4.95 2.2 7.36 5.71 17.93 13.26 33.2 23.23 41.32.13.12.26.22.4.33l.4.31.58-.18 2.46-.73 2.1-.64 27.36-8.23 6.81-2.05 21.88-6.59h.01l20.01-6.02 2.44-.74 17.19-5.17.55-6.42.74-8.52.44-5.12 3.48-40.38 2.03-23.56 2.2-25.58a31.077 31.077 0 0 0-9.47-25.18Z" transform="translate(-242.352 -147.915)" fill="#2f2e41"/><path d="M824.698 619.085c-.23-.67-.45-1.34-.68-2-10.28-30-25.44-52.69-47.75-65.05-.01 0-.01-.01-.02-.01l-.38-.21-19.44 6.73-2.4.83-2.5.87-.03.01-18.2 6.3-.03.01-14.28 4.94h-.01l-13.21 4.57h-.01l-3.07 1.07-23.09 7.99-2.68.93-2.4.83-.37.13-.07 1.14-1.65 28.92-.11 2-2.06 36.09-68.41 96.91h46.8a308.163 308.163 0 0 0 46.84-3.57l43.91-47.32a2.908 2.908 0 0 1 4.94 1.44l6.45 32a309.23 309.23 0 0 0 88-48.42c-3.08-24.85-7.58-47.5-14.09-67.13ZM653.776 351.469h18.813l8.3-23.24 1.659 23.24h8.992l4.841-13.556.968 13.556h66.812a50.35 50.35 0 0 0-50.35-50.351h-9.684a50.35 50.35 0 0 0-50.35 50.35Z" transform="translate(-242.352 -147.915)" fill="#2f2e41"/><path d="M538.061 603.472a22.788 22.788 0 0 1-31.059-16.008l-80.466-9.113 26.973-32.3 72.277 13.605a22.911 22.911 0 0 1 12.275 43.816Z" transform="translate(-242.352 -147.915)" fill="#a0616a"/><path d="m494.678 543.685-34.01-6.08-2.47-.44a14.213 14.213 0 0 1-11.11-18.09l16.7-55.49.5-1.65a32.468 32.468 0 0 0-15.23-37.51 32.277 32.277 0 0 0-47.02 20.54l-21.3 86.93-.79 3.22a43.439 43.439 0 0 0 38.17 53.6c.07.01.13.01.2.02l12.75 1.13 16.54 1.47 20.8 1.85 19.41 1.73a10.174 10.174 0 0 0 10.94-8.38c.03-.14.05-.28.07-.42l4.12-30.76.04-.28a10.17 10.17 0 0 0-8.31-11.39Z" transform="translate(-242.352 -147.915)" fill="#ccc"/><path d="M442.28 310.617c-13.577 26.693-24.277 54.224-54.224 54.224a54.224 54.224 0 0 1-54.224-54.224c0-29.948 24.279-53.85 54.224-54.225 30.435-.38 79.494 4.541 54.224 54.225ZM476.338 659.815l-1.23-12.28-.92.05-161.69 7.79.42 12.43.71 21.29a308.81 308.81 0 0 0 82.39 44.85l1.05-8.14a2.904 2.904 0 0 1 5.68-.36l3.19 11.89a305.319 305.319 0 0 0 79.59 14.41Z" transform="translate(-242.352 -147.915)" fill="#2f2e41"/><circle cx="390.724" cy="318.332" r="47.564" transform="rotate(-45 91 536.92)" fill="#a0616a"/><path d="m485.628 648.365-9.43-29.28-.16-.5-.48-1.5-2.69-8.34c-.87-2.71-1.7-5.43-2.47-8.16q-1.065-3.69-1.99-7.4-1.32-5.16-2.4-10.36a256.725 256.725 0 0 1-4.87-35.33q-.33-4.935-.47-9.89a255.64 255.64 0 0 1 5.43-60.31 81.786 81.786 0 0 0-40.34-88.57 80.416 80.416 0 0 0-32.64-9.79c-.79-.06-1.58-.11-2.38-.16a80.962 80.962 0 0 0-64.94 26.26 82.574 82.574 0 0 0-11.32 15.68 81.446 81.446 0 0 0-9.32 51.69l11.24 75.47-2.56 31.77-3.02 37.44-.16 2-3.22 39.92a8.694 8.694 0 0 0 5.48 8.8 8.51 8.51 0 0 0 3.2.61c.16 0 .31 0 .47-.01l159.75-8.59 1.46-.08a8.704 8.704 0 0 0 7.83-11.37Z" transform="translate(-242.352 -147.915)" fill="#ccc"/><path d="M441.197 291.452a64.691 64.691 0 0 1-36.97 11.425 39.643 39.643 0 0 0 15.713 6.464 130.445 130.445 0 0 1-53.283.3 34.485 34.485 0 0 1-11.155-3.831c-3.377-2.05-6.203-5.316-6.884-9.208-1.17-6.678 4.034-12.746 9.442-16.835a69.653 69.653 0 0 1 58.532-11.696c6.539 1.69 13.089 4.545 17.336 9.796s5.504 13.346 1.458 18.753Z" transform="translate(-242.352 -147.915)" fill="#2f2e41"/><path d="M443.63 593.578a22.788 22.788 0 0 1-31.4-15.333l-80.643-7.369L357.854 538l72.554 12.038a22.911 22.911 0 0 1 13.221 43.54Z" transform="translate(-242.352 -147.915)" fill="#a0616a"/><path d="m398.968 534.745-18.23-2.85-18.39-2.88a14.211 14.211 0 0 1-11.5-17.84l15.96-57.5a32.469 32.469 0 0 0-16.04-37.17 31.983 31.983 0 0 0-28.61-.75 32.078 32.078 0 0 0-17.95 22.29l-20.13 90.61a43.464 43.464 0 0 0 39.51 52.78l69.63 4.67a10.185 10.185 0 0 0 10.76-8.61c.03-.14.04-.28.06-.42l3.45-30.84.03-.28a10.179 10.179 0 0 0-8.55-11.21Z" transform="translate(-242.352 -147.915)" fill="#ccc"/><path d="m707.445 486.945-4.173 2.276-51.412 28.052-4.173 2.277a8.715 8.715 0 0 0-3.472 11.811L682.5 601.53a8.715 8.715 0 0 0 11.812 3.472l.01-.005 59.737-32.594.01-.006a8.715 8.715 0 0 0 3.473-11.811l-38.285-70.168a8.715 8.715 0 0 0-11.812-3.472Z" transform="translate(-242.352 -147.915)" fill="#e6e6e6"/><path d="m708.646 489.144-4.943 2.697-49.873 27.212-4.942 2.697a6.206 6.206 0 0 0-2.473 8.41L684.7 600.33a6.206 6.206 0 0 0 8.412 2.472l.01-.005 59.736-32.594.011-.006a6.206 6.206 0 0 0 2.473-8.41l-38.285-70.169a6.206 6.206 0 0 0-8.411-2.473Z" transform="translate(-242.352 -147.915)" fill="#fff"/><path d="M710.048 508.955a1.46 1.46 0 0 0-1.97-.58l-1.99 1.09-20.29 11.07a1.452 1.452 0 0 0 1.39 2.55l22.28-12.16a1.46 1.46 0 0 0 .58-1.97ZM717.638 510.385a1.435 1.435 0 0 0-1.96-.57l-27.53 15.02a1.448 1.448 0 1 0 1.39 2.54l1.28-.7 8.01-4.37h.01l18.22-9.95a1.44 1.44 0 0 0 .58-1.97ZM687.718 534.325l-8.74-16.03a.702.702 0 0 0-.95-.27l-4.24 2.31-2.2 1.2-11.81 6.44-2.29 1.25a.702.702 0 0 0-.27.95l.56 1.03 8.18 15a.693.693 0 0 0 .94.27l14.1-7.69 2.2-1.2 4.24-2.31a.697.697 0 0 0 .28-.95ZM721.098 529.295a1.447 1.447 0 0 0-1.96-.58l-30.22 16.49a1.45 1.45 0 0 0-.73 1.53 1.211 1.211 0 0 0 .15.44 1.473 1.473 0 0 0 .29.37l.01.01a1.462 1.462 0 0 0 1.67.2l30.22-16.49a1.447 1.447 0 0 0 .57-1.97ZM728.698 530.725a1.45 1.45 0 0 0-1.97-.57l-35.47 19.35a1.415 1.415 0 0 0-.73 1.51v.01a1.21 1.21 0 0 0 .15.44 1.4 1.4 0 0 0 .3.38 1.43 1.43 0 0 0 1.67.2l35.47-19.35a1.457 1.457 0 0 0 .58-1.97Z" transform="translate(-242.352 -147.915)" fill="#e6e6e6"/><circle cx="436.444" cy="407.191" r="6.15" fill="#e6e6e6"/><path d="m725.445 459.945-4.173 2.276-51.412 28.052-4.173 2.277a8.715 8.715 0 0 0-3.472 11.811L700.5 574.53a8.715 8.715 0 0 0 11.812 3.472l.01-.005 59.737-32.594.01-.006a8.715 8.715 0 0 0 3.473-11.811l-38.285-70.168a8.715 8.715 0 0 0-11.812-3.472Z" transform="translate(-242.352 -147.915)" fill="#ccc"/><path d="m726.646 462.144-4.943 2.697-49.873 27.212-4.942 2.697a6.206 6.206 0 0 0-2.473 8.41L702.7 573.33a6.206 6.206 0 0 0 8.412 2.472l.01-.005 59.736-32.594.011-.006a6.206 6.206 0 0 0 2.473-8.41l-38.285-70.169a6.206 6.206 0 0 0-8.411-2.473Z" transform="translate(-242.352 -147.915)" fill="#fff"/><path d="M728.048 481.955a1.46 1.46 0 0 0-1.97-.58l-10.26 5.6-2.86 1.56-9.16 5a1.452 1.452 0 0 0 1.39 2.55l10.8-5.89 2.26-1.24 9.22-5.03a1.46 1.46 0 0 0 .58-1.97ZM735.638 483.385a1.435 1.435 0 0 0-1.96-.57l-14.31 7.81-2.2 1.2-11.02 6.01a1.448 1.448 0 1 0 1.39 2.54l11.02-6.01 2.2-1.2 14.3-7.81a1.44 1.44 0 0 0 .58-1.97Z" transform="translate(-242.352 -147.915)" fill="#ccc"/><path d="m705.718 507.325-6.97-12.78-1.2-2.2-.57-1.05a.702.702 0 0 0-.95-.27l-14.15 7.72-6.39 3.48a.702.702 0 0 0-.27.95l.57 1.04.62 1.15.58 1.05v.01l6.97 12.78a.693.693 0 0 0 .94.27l20.54-11.2a.697.697 0 0 0 .28-.95Z" transform="translate(-242.352 -147.915)" fill="#6c63ff"/><path d="M739.098 502.295a1.447 1.447 0 0 0-1.96-.58l-9.03 4.93-2.2 1.2-8.72 4.75-10.27 5.61a1.452 1.452 0 0 0 1.39 2.55l18.99-10.36 2.2-1.2 9.03-4.93a1.447 1.447 0 0 0 .57-1.97ZM746.698 503.725a1.45 1.45 0 0 0-1.97-.57l-14.27 7.79-2.2 1.2-19 10.36a1.448 1.448 0 1 0 1.39 2.54l18.99-10.36 2.2-1.2 14.28-7.79a1.457 1.457 0 0 0 .58-1.97Z" transform="translate(-242.352 -147.915)" fill="#ccc"/><circle cx="454.444" cy="380.191" r="6.15" fill="#ccc"/><path d="M700.928 562.683a19.791 19.791 0 0 1 3.067.55l69.75-61.877-4.51-22.198 32.61-11.185 11.804 38.52a15.04 15.04 0 0 1-6.125 16.98l-88.675 58.22a19.736 19.736 0 1 1-17.921-19.01Z" transform="translate(-242.352 -147.915)" fill="#ffb8b8"/><path d="m821.758 473.515-19.76-37.74a23.477 23.477 0 0 0-29.22-14.54c-.22.06-.43.13-.65.21a23.527 23.527 0 0 0-14.46 29.93l7.93 41.71a8.446 8.446 0 0 0 4.08 5.74 8.251 8.251 0 0 0 3.78 1.12 8.139 8.139 0 0 0 3.23-.45l4.24-1.48 27.22-9.48 8.9-3.1a8.47 8.47 0 0 0 4.71-11.92Z" transform="translate(-242.352 -147.915)" fill="#6c63ff"/><path d="M896.352 619.085h-653a1 1 0 0 1 0-2h653a1 1 0 0 1 0 2Z" transform="translate(-242.352 -147.915)" fill="#3f3d56"/><path d="M355.848 600.585v.5a17.515 17.515 0 0 0 10.43 16 17.232 17.232 0 0 0 7.07 1.5h161.5v-18Z" transform="translate(-242.352 -147.915)" fill="#3f3d56"/><path d="M647.608 481.955a32.593 32.593 0 0 0-11.42-13.02 31.973 31.973 0 0 0-7.15-3.54 32.375 32.375 0 0 0-10.69-1.81h-155a32.538 32.538 0 0 0-32.5 32.5v90a31.373 31.373 0 0 0 .22 3.78 32.785 32.785 0 0 0 1.14 5.54 31.94 31.94 0 0 0 2.06 5.18 32.465 32.465 0 0 0 29.08 18h155a32.488 32.488 0 0 0 32.5-32.5v-90a32.222 32.222 0 0 0-3.24-14.13Z" transform="translate(-242.352 -147.915)" fill="#3f3d56"/><circle cx="306.996" cy="393.17" r="8" fill="#fff"/></svg>