<svg width="1000" height="800" xmlns="http://www.w3.org/2000/svg"><g transform="translate(127 102)" fill="none"><path d="m627 344 3-3h1a32 32 0 0 1-3-63v13l7-14a32 32 0 0 1 34 31v1l6-9c3-7 3-15 3-24l-2-57c-16-2-28-14-29-30v-7a27 27 0 0 1 2-6l1-2v-1c7-14 23-21 38-17v18l7-15c12 7 19 21 16 35v1a23 23 0 0 1-1 3l-1 1v1l-1 1-1 3-1 1-1 1-1 1a24 24 0 0 1-1 2l-2 2-2 2h-1l-2 2h-1l-2 1-1 1a38 38 0 0 1-7 2h-1l2 24a32 32 0 0 1 44-14l-5 15 12-11a32 32 0 0 1 9 31 32 32 0 0 1-59 9v3c0 8 0 18-4 28-3 6-7 11-12 16a195 195 0 0 1-36 29l-4 2-9 6h2c14-1 27 8 31 21l-20 16 22-5a32 32 0 0 1-46 29l2 2 3 4c13 16 16 32 10 44l-8-4c6-12-3-27-9-35l-3-3c-9-11-18-23-18-37 0-22 22-35 39-45zM491 205l-2-4v-1c14 6 30 2 39-11 8-12 7-29-3-40l-7 11 2-16a32 32 0 0 0-45 8l-1 2v-12c1-7 5-14 10-22l33-46c14 7 31 3 40-10l2-3 1-3h1v-3h1v-4l1-1v-2c1-15-8-29-23-34l-9 15 1-16c-14-1-27 8-31 21l-1 1v1l-1 2v10a30 30 0 0 0 1 8l1 1 1 2v1l1 2 1 1a63 63 0 0 0 3 4l1 1 1 1-14 20a32 32 0 0 0-30-36l-3 16-4-16a32 32 0 1 0 20 61l-1 2c-5 6-11 15-12 25-1 7 0 14 1 20a200 200 0 0 0 15 44l2 4 5 10-1-1c-12-8-27-8-39 1l9 24-16-16a32 32 0 0 0 23 49l-2 1-5 1c-19 7-31 19-32 32l9 1c1-13 17-21 26-24l5-2c12-4 27-9 34-21 12-19 1-41-8-59zm-327-59h-6a32 32 0 0 0-26-57l6 11-13-9a32 32 0 0 0-15 43v1l-10-5c-6-5-9-11-13-20L62 59a32 32 0 0 0 10-43v-1l-2-2-1-2-1-1-2-2h-1l-1-1-1-1C50-3 33-2 22 9l8 15-13-9c-8 12-6 27 3 38l1 1 1 1 1 1 1 1 1 1 3 2 2 1 1 1a22 22 0 0 0 3 1h3l2 1h10a29 29 0 0 0 5-1l10 21a32 32 0 0 0-46 9l13 11-16-5a32 32 0 0 0 6 32 32 32 0 0 0 56-19l2 2c3 7 8 17 16 23 5 4 12 7 18 9a194 194 0 0 0 46 9h4l11 1-2 1c-12 6-20 19-18 33l25 5-22 6a32 32 0 0 0 55 4l-1 2-1 5c-3 21 1 36 12 44l5-7c-11-8-10-25-8-35l1-5c3-13 6-28-1-41-11-19-36-20-55-22z" fill="#F2F2F2"/><path fill="#3F3D56" d="M57 435h74v153H57z"/><path fill="#000" opacity=".1" d="M57 435h74v153H57z"/><path d="M474 222a184 184 0 0 0-369 3v334c0 18 15 33 33 33h336c101 0 184-84 184-186s-83-184-184-184z" fill="#5770BE"/><path d="M105 473h84v119h-52c-17 0-32-15-32-33v-86z" fill="#5F5478"/><path fill="#D4A1A1" d="M131 414h90v90h-90z"/><path fill="#000" opacity=".1" d="M131 422h90v90h-90z"/><path d="M293 412s88 40 85 60-21 23-21 23l-52-25-37-30 25-28z" fill="#5F5478"/><path d="M209 454v12l-7 12c-3 6-2 13 1 19a79 79 0 0 0 39 29 103 103 0 0 0 40 1l4-2c6-5 12-10 16-16 6-9 7-20 3-29-4-10-12-17-15-27-2-7-1-15-1-22l-1-4-5-2a261 261 0 0 0-65 0c-4 0-13 1-14 6-1 3 2 8 2 11l3 12z" fill="#FBBEBE"/><path d="M209 454v12l-7 12c-3 6-2 13 1 19a79 79 0 0 0 39 29 103 103 0 0 0 40 1l4-2c6-5 12-10 16-16 6-9 7-20 3-29-4-10-12-17-15-27-2-7-1-15-1-22l-1-4-5-2a261 261 0 0 0-65 0c-4 0-13 1-14 6-1 3 2 8 2 11l3 12z" fill="#000" opacity=".1"/><circle fill="#D4A1A1" cx="146.5" cy="380.5" r="68.5"/><circle fill="#FBBEBE" cx="248.5" cy="389.5" r="68.5"/><path d="m288 352-9 5c-8 4-18 3-27 1-5-1-11-4-12-8 0-6 5-10 6-15-7-1-15 0-22 4-8 6-15 15-24 17h-5c-2-1-4-2-4-4-5-9 1-19 3-29 1-8-1-18 5-24 5-6 16-6 24-7 6-2 11-4 15-8l4-4 6-2c8-1 16 1 23 5 4 3 9 7 14 9l9 1c12 2 22 11 26 22l3 7c2 4 7 5 11 8 3 3 5 7 6 12 4 11 6 23 7 36 0 6 0 14-4 19l-3 3c-3 4-2 10-2 16-1 4-3 8-6 11l-3 1-3-2-5-13c-1-4-5-8-10-7l-3 1c-3 0-7-2-9-4l-3-9c-2-9-2-19-1-28 0-3 2-10 1-13s-6-2-8-1z" fill="#FFF"/><path d="M257 514c-11-4-20-12-26-22-5-8-7-16-12-23-7-11-21-5-33-5-17 0-30-3-43 7-9 6-18 13-21 23-2 9 2 19 0 28l-1 18c-1 9-2 17 2 25l16 26 167 1h120a58 58 0 0 0-10-33l-30-58c-6-11-12-22-23-29l-19-7c-8-4-10-1-19-4-9-2-25-8-29 0-4 6-3 13-4 20-1 6-5 12-8 17l-12 13c-5 3-10 5-15 3z" fill="#3F3D56"/><path d="M256 548s-57 4-56 16l54 14 2-30z" fill="#FBBEBE"/><path d="M186 522s5 34 20 41c16 6 66 7 66 7l34 22H139s-7-90 0-90c8 0 47 20 47 20z" fill="#3F3D56"/><path d="m318 509 39 33-106 2s-16 19-9 25c6 5 36 9 36 9l28 14h116l-39-70-65-13z" fill="#3F3D56"/><path d="m318 509 39 33-106 2s-16 19-9 25c6 5 36 9 36 9l28 14h116l-39-70-65-13z" fill="#000" opacity=".1"/><path fill="#5F5478" d="m339 459-68 56 50 39 56-74z"/><path d="M303 519s45-8 53-12 41-18 32-7c-8 11-12 12-12 12s34 2 33 9c-2 6-5 7-5 7s14 9 11 11c-4 2-2 10-2 11-1 2 4 11-1 12-4 1-50-1-60-4-10-2-54 1-54 1l5-40z" fill="#E0AAAA"/><path d="M94 446s-18 21 0 47c17 26 53 55 73 60 19 5 149 7 149 7s6-59 0-61-112 5-126-6c-15-11-59-43-72-44l-24-3z" fill="#5F5478"/><path d="m191 332-15-5c-25-5-49 25-43 49 3 10 9 19 8 29s-9 17-10 27v6l7 8c3 5 0 11-5 14s-11 3-17 4l-21 3-11 5c-7 6-8 18-6 27 3 9 9 17 13 26 4 8 6 19 2 27-4 9-15 16-14 26l1 8c-1 6-8 11-14 10s-12-5-15-10c-7-8-11-18-12-28s1-20-2-30c-2-9-7-17-12-25-16-26-25-56-25-86 0-7 0-15 3-22 3-9 8-17 12-26 5-9 15-36 25-60 9-25 34-41 61-39h10c6-1 11-4 17-6 17-4 36 4 45 19l7 13 9 10 5 5" fill="#3F3D56"/><path d="M474 221a184 184 0 0 0-323-120 184 184 0 0 1 296 145 184 184 0 0 1 139 305 184 184 0 0 0-112-330z" fill="#000" opacity=".1"/></g></svg>