<?xml version="1.0" encoding="UTF-8"?>
<svg width="1000px" height="800px" viewBox="0 0 1000 800" version="1.1" xmlns="http://www.w3.org/2000/svg" xmlns:xlink="http://www.w3.org/1999/xlink">
    <title>contact_medecin</title>
    <defs>
        <linearGradient x1="49.9777586%" y1="99.9920101%" x2="49.9777586%" y2="-0.0136237968%" id="linearGradient-1">
            <stop stop-color="#808080" stop-opacity="0.25" offset="0%"></stop>
            <stop stop-color="#808080" stop-opacity="0.12" offset="54%"></stop>
            <stop stop-color="#808080" stop-opacity="0.1" offset="100%"></stop>
        </linearGradient>
    </defs>
    <g id="contact_medecin" stroke="none" stroke-width="1" fill="none" fill-rule="evenodd">
        <g id="Group" transform="translate(179.000000, 19.000000)" fill-rule="nonzero">
            <path d="M225.311652,106.979387 C213.27636,106.553986 201.311968,102.751968 190.481978,96.8583976 C169.796874,85.6118694 153.259426,68.2236202 134.789951,53.5650247 C96.415272,23.0159446 48.8235806,4.57305638 0,-4.54747351e-13 L0,162.113076 L274.214995,162.113076 L274.897409,161.395213 L225.311652,106.979387 Z M250.295074,102.548131 L276.785124,131.626034 L276.785124,94.8997824 C267.869436,96.0253215 260.105875,98.6397626 250.295074,102.512681 L250.295074,102.548131 Z M276.785124,556.432839 L276.785124,425.00178 L220.29547,425.00178 C220.15367,424.443442 219.994144,423.876241 219.816894,423.309041 C219.985282,423.876241 220.135945,424.443442 220.286607,425.00178 L0,425.00178 L0,520.043363 C2.09155292,521.594303 4.1565183,523.233867 6.20375865,524.882295 L6.20375865,524.882295 C8.4134784,526.690247 10.6084273,528.518879 12.7886053,530.36819 L14.9865084,532.185005 C16.0411474,533.071256 17.1135114,533.957507 18.1770129,534.799446 C20.3099242,536.518773 22.4576063,538.220376 24.6200593,539.904253 C25.7012859,540.755054 26.7884207,541.591085 27.8814639,542.412344 C45.1918423,555.641905 63.4504606,567.582283 82.5099901,578.137132 C86.7817211,580.521147 91.0977646,582.816538 95.4403956,585.058754 C98.3295747,586.547656 101.239433,588.007016 104.16997,589.436835 C108.565776,591.581563 112.997033,593.649482 117.463739,595.640593 C117.463739,595.640593 117.463739,595.640593 117.463739,595.640593 C158.644105,614.125916 202.1902,626.80797 246.856419,633.323996 C256.770617,634.783356 266.729126,635.935483 276.731949,636.780376 L276.731949,556.415114 L277.6182,556.415114 L276.785124,556.432839 Z M0,165.888506 L0,294.820336 L276.785124,294.820336 L276.785124,165.888506 L0,165.888506 Z M0,298.595767 L0,421.208625 L276.785124,421.208625 L276.785124,298.613492 L0,298.595767 Z M298.267854,94.7225321 L298.267854,135.755964 L332.069476,98.6486251 C320.86726,96.7993142 309.600053,95.4906166 298.267854,94.7225321 Z M298.267854,298.613492 L298.267854,421.208625 L567.466667,421.208625 L567.466667,298.613492 L298.267854,298.613492 Z M566.518378,566.155015 L567.466667,425.00178 L298.267854,425.00178 L298.267854,638.20724 C315.607606,638.928292 332.973562,638.718244 350.290801,637.578002 L350.290801,637.578002 L350.592127,637.578002 C358.863805,637.046251 367.097079,636.289984 375.291949,635.309199 L375.478061,635.309199 C419.21045,630.218678 461.970328,618.796539 502.415826,601.401227 M619.400989,318.74912 C618.378846,316.385783 617.330115,314.022446 616.254797,311.65911 C614.251869,307.227854 612.142591,302.920673 609.962413,298.622354 L588.958259,298.622354 L588.958259,421.208625 L642.053571,421.208625 C642.009258,386.485302 633.217646,351.035252 619.400989,318.74912 L619.400989,318.74912 Z M588.958259,425.00178 L588.958259,546.4182 C603.909318,532.087517 616.556123,515.683007 625.64906,496.929931 C636.594263,474.339387 641.601583,449.896578 642.018121,424.992918 L588.958259,425.00178 Z M588.958259,262.888704 L588.958259,294.793749 L607.994936,294.793749 C602.224234,283.826103 595.869552,273.175797 588.958259,262.888704 L588.958259,262.888704 Z M406.390504,118.784253 C404.990227,118.24364 403.581088,117.703027 402.171949,117.189001 C387.314235,111.697882 372.130176,107.133785 356.70726,103.523007 L304.967913,160.296261 L304.967913,160.296261 L303.957587,161.38635 L304.622275,162.104214 L488.767557,162.104214 C463.119414,144.455497 435.466926,129.913769 406.390504,118.784253 L406.390504,118.784253 Z M494.173689,165.888506 L302.043284,165.888506 L298.267854,169.336024 L298.267854,294.820336 L331.369337,294.820336 L331.369337,294.820336 L567.466667,294.820336 L567.466667,234.023501 C546.118189,208.206483 521.477241,185.299638 494.173689,165.888506 Z" id="Shape" fill="#5770BE" opacity="0.1"></path>
            <rect id="Rectangle" fill="#5770BE" opacity="0.1" x="221.013333" y="171.312364" width="55.7629278" height="123.49911"></rect>
            <path d="M277.662512,556.459426 C277.370049,556.459426 277.077587,556.459426 276.776261,556.406251 L276.776261,636.833551 C266.785256,636.012291 256.8297,634.863119 246.909594,633.386034 C202.227872,626.872289 158.664705,614.196439 117.463739,595.720356 C105.570247,590.355582 93.9189977,584.509278 82.5099901,578.181444 C63.4564942,567.621265 45.2012042,555.681126 27.8903264,542.456657 C23.5299703,539.124352 19.234606,535.718193 15.0042334,532.23818 C12.0707418,529.809852 9.16383778,527.328348 6.20375865,524.926607 C4.16538081,523.269318 2.10041543,521.629753 2.84217094e-14,520.069951 L2.84217094e-14,425.00178 L220.286607,425.00178 C220.127082,424.43458 219.985282,423.876241 219.825757,423.309041 C219.994144,423.876241 220.15367,424.43458 220.29547,425.00178 L276.785124,425.00178 L276.785124,556.397389 C277.077587,556.406251 277.370049,556.432839 277.662512,556.459426 Z" id="Path" fill="#5770BE" opacity="0.1"></path>
            <path d="M422.218952,162.113076 L385.882651,162.113076 L385.882651,150.822235 L402.163086,150.822235 L402.163086,117.189001 C403.57518,117.708935 404.981365,118.240686 406.381642,118.784253 L406.381642,150.822235 L422.210089,150.822235 L422.218952,162.113076 Z" id="Path" fill="#5770BE" opacity="0.1"></path>
            <path d="M509.771711,294.820336 L331.369337,294.820336 C331.38682,294.823446 331.40503,294.823446 331.422512,294.820336 L331.34275,294.820336 L298.267854,294.820336 L298.267854,171.321227 L307.644392,171.321227 L307.644392,262.605104 L350.485776,262.605104 L350.485776,208.543778 L385.891513,208.543778 L385.891513,165.888506 L422.227814,165.888506 L422.227814,208.570366 L457.615826,208.570366 L457.615826,262.631691 L509.780574,262.631691 L509.771711,294.820336 Z" id="Path" fill="#5770BE" opacity="0.1"></path>
            <path d="M298.267854,298.613492 L298.267854,421.208625 L509.780574,421.208625 L509.780574,298.613492 L298.267854,298.613492 Z M567.165341,565.508051 L567.466667,468.463541 L509.780574,468.463541 L509.780574,425.03723 L298.267854,425.03723 L298.267854,638.20724 C315.607606,638.928292 332.973562,638.718244 350.290801,637.578002 L350.290801,637.578002 L350.592127,637.578002 C358.863805,637.046251 367.097079,636.289984 375.291949,635.309199 L375.478061,635.309199 C419.21045,630.218678 461.970328,618.796539 502.415826,601.401227" id="Shape" fill="#5770BE" opacity="0.1"></path>
            <path d="M592.680514,425.00178 L642.018121,425.00178 C641.59272,449.896578 636.594263,474.348249 625.64906,496.929931 C616.556123,515.691869 603.909318,532.09638 588.958259,546.427062 L588.958259,468.436954 L592.680514,468.436954 L592.680514,425.00178 Z" id="Path" fill="#5770BE" opacity="0.1"></path>
            <path d="M642.053571,421.208625 L592.680514,421.208625 L592.680514,318.74912 L619.400989,318.74912 C633.217646,351.035252 642.009258,386.485302 642.053571,421.208625 Z" id="Path" fill="#5770BE" opacity="0.1"></path>
            <rect id="Rectangle" fill="#5770BE" opacity="0.1" x="246.909594" y="205.645737" width="29.8755292" height="38.7203165"></rect>
            <rect id="Rectangle" fill="#5770BE" opacity="0.1" x="246.909594" y="285.904649" width="29.8755292" height="8.91568744"></rect>
            <rect id="Rectangle" fill="#5770BE" opacity="0.1" x="246.909594" y="298.604629" width="29.8755292" height="26.0114738"></rect>
            <rect id="Rectangle" fill="#5770BE" opacity="0.1" x="246.909594" y="366.163561" width="29.8755292" height="38.7203165"></rect>
            <rect id="Rectangle" fill="#5770BE" opacity="0.1" x="246.909594" y="446.422473" width="29.8755292" height="38.7203165"></rect>
            <path d="M276.785124,556.397389 C277.077587,556.397389 277.370049,556.397389 277.671375,556.459426 C277.378912,556.459426 277.086449,556.459426 276.785124,556.406251 L276.785124,565.401701 L246.909594,565.401701 L246.909594,526.681385 L276.785124,526.681385 L276.785124,556.397389 Z" id="Path" fill="#5770BE" opacity="0.1"></path>
            <path d="M276.785124,606.931434 L276.785124,636.833551 C266.78821,636.012291 256.8297,634.863119 246.909594,633.386034 L246.909594,606.931434 L276.785124,606.931434 Z" id="Path" fill="#5770BE" opacity="0.1"></path>
            <rect id="Rectangle" fill="#5770BE" opacity="0.1" x="350.290801" y="310.489258" width="25.2049852" height="25.2049852"></rect>
            <rect id="Rectangle" fill="#5770BE" opacity="0.1" x="446.511098" y="310.489258" width="25.2049852" height="25.2049852"></rect>
            <rect id="Rectangle" fill="#5770BE" opacity="0.1" x="350.290801" y="372.659782" width="25.2049852" height="25.2049852"></rect>
            <rect id="Rectangle" fill="#5770BE" opacity="0.1" x="446.511098" y="372.659782" width="25.2049852" height="25.2049852"></rect>
            <rect id="Rectangle" fill="#5770BE" opacity="0.1" x="350.290801" y="434.821444" width="25.2049852" height="25.2049852"></rect>
            <rect id="Rectangle" fill="#5770BE" opacity="0.1" x="446.511098" y="434.821444" width="25.2049852" height="25.2049852"></rect>
            <rect id="Rectangle" fill="#5770BE" opacity="0.1" x="350.290801" y="496.991968" width="25.2049852" height="25.2049852"></rect>
            <rect id="Rectangle" fill="#5770BE" opacity="0.1" x="446.511098" y="496.991968" width="25.2049852" height="25.2049852"></rect>
            <rect id="Rectangle" fill="#5770BE" opacity="0.1" x="350.290801" y="559.162493" width="25.2049852" height="25.2049852"></rect>
            <rect id="Rectangle" fill="#5770BE" opacity="0.1" x="446.511098" y="559.162493" width="25.2049852" height="25.2049852"></rect>
            <polygon id="Path" fill="#5770BE" opacity="0.1" points="350.290801 637.578002 350.290801 621.324154 375.486924 621.324154 375.486924 635.264886"></polygon>
            <ellipse id="Oval" fill="#5770BE" opacity="0.1" cx="386.653689" cy="749.733096" rx="86.3563205" ry="13.8698318"></ellipse>
            <path d="M464.847636,411.566212 C464.847636,411.566212 461.355806,411.078773 461.355806,406.000554 C461.355806,400.922334 458.856578,391.412859 458.856578,391.412859 L458.856578,391.412859 C458.856578,391.412859 456.694125,374.866548 453.707458,372.243244 C450.720791,369.619941 446.883323,354.216894 446.883323,354.216894 C446.883323,354.216894 446.227498,345.859545 444.889258,344.060455 C443.551019,342.261365 441.743066,337.856696 439.07545,331.573175 C436.407834,325.289654 425.311968,320.982473 425.311968,320.982473 C425.311968,320.982473 405.202928,309.319407 399.504332,305.517389 L399.504332,305.517389 C398.983164,305.202297 398.496075,304.83401 398.05088,304.418437 C397.058279,303.12451 392.733373,303.097923 392.733373,303.097923 C392.281385,300.235331 391.847122,296.956202 391.705321,293.98726 C391.705321,293.66821 391.705321,293.349159 391.705321,293.030109 C398.059661,289.274003 402.845866,283.351822 405.185203,276.350861 C405.291553,276.014085 405.380178,275.668447 405.477666,275.322809 C406.264248,275.080053 406.909375,274.512342 407.250168,273.763007 C407.755331,272.619743 407.773056,271.290366 408.411157,270.218002 C409.155608,268.959525 410.57361,268.285974 411.690287,267.346548 C414.508566,264.944807 415.235292,260.912364 415.102354,257.252146 C415.013729,254.274342 414.535153,251.278813 414.721266,248.327596 C414.721266,248.079446 414.721266,247.831296 414.774441,247.583145 C414.827616,247.148882 414.889654,246.696894 414.969416,246.271494 C415.40368,244.073591 416.351968,241.999763 416.883719,239.819585 C417.41547,237.639407 417.468645,235.184491 416.227893,233.305638 C414.411078,230.549397 410.626785,229.999921 407.303343,229.760633 C403.536775,229.441583 400.213333,229.849258 397.758417,226.720791 C396.632345,225.086821 395.362942,223.556419 393.965262,222.147735 C393.468961,221.686884 388.647755,218.735668 388.647755,218.549555 C383.930529,216.356311 378.57904,215.943931 373.581484,217.388566 C371.073393,218.115292 368.724827,219.302868 366.181286,219.896657 C360.721978,221.190584 354.429594,219.790307 349.785638,222.918773 C347.197784,224.691276 345.646845,227.518417 344.193393,230.256934 C343.011724,232.51392 341.812331,234.773861 340.595213,237.036756 C338.627735,240.750148 336.642532,244.525579 335.818318,248.637784 C335.645879,249.535986 335.536309,250.445123 335.490406,251.358576 L335.490406,251.358576 C335.490406,251.686489 335.490406,252.014402 335.490406,252.342315 C335.490406,252.484115 335.490406,252.625915 335.490406,252.767715 C335.490406,253.069041 335.490406,253.370366 335.543581,253.653966 C335.596756,253.937567 335.543581,254.017329 335.605618,254.203442 C335.667656,254.389555 335.685381,254.806093 335.738556,255.089693 C335.791731,255.373294 335.898081,255.878457 336.004431,256.259545 C336.004431,256.427933 336.110781,256.587458 336.163956,256.755846 C336.217132,256.924233 336.358932,257.349634 336.474144,257.642097 C336.589357,257.93456 336.59822,257.952285 336.66912,258.102948 C336.802057,258.413136 336.961583,258.714461 337.121108,258.989199 C337.192008,259.104411 337.245183,259.219624 337.316083,259.334837 C337.55911,259.749689 337.831594,260.146567 338.131434,260.522413 C340.019149,262.888704 342.819703,264.395331 344.884669,266.610959 C344.884669,266.699585 344.884669,266.78821 344.884669,266.876835 C344.884669,267.116123 344.884669,267.35541 344.884669,267.603561 C345.141255,277.637019 350.343812,286.894118 358.781088,292.32997 C358.781088,292.666746 358.825401,293.012384 358.843126,293.358022 C359.015947,295.985764 358.983352,298.622989 358.745638,301.245658 C358.013065,300.386795 356.931758,299.904767 355.803284,299.934006 C355.422482,299.915089 355.040873,299.947884 354.668882,300.031494 L354.58912,299.969456 L354.58912,299.969456 L354.58912,300.049219 C352.639367,300.527794 350.237626,302.55731 347.942235,308.326805 C347.942235,308.326805 340.958576,316.196716 335.641068,315.868803 C330.323561,315.54089 316.861405,324.066627 316.861405,324.066627 C316.861405,324.066627 303.727161,332.583501 300.908882,341.268764 C299.333396,346.194931 297.441753,351.014329 295.245737,355.696934 L278.965302,389.12633 L278.965302,389.12633 L275.978635,415.713867 C275.978635,415.713867 277.635925,427.509871 277.308012,429.317824 C276.980099,431.125776 284.123284,447.344174 284.123284,447.344174 C284.123284,447.344174 307.724154,488.803007 317.366568,490.93001 L318.057844,490.451434 C318.472258,490.660527 318.909411,490.821114 319.360633,490.93001 L321.345836,489.538595 C321.468729,491.096483 321.415215,492.663268 321.186311,494.209139 C319.865796,498.312483 321.691474,525.024095 324.013452,530.26184 C326.33543,535.499585 325.511217,604.184055 325.511217,604.184055 L325.183304,610.237151 C325.183304,610.237151 325.183304,610.432127 325.263066,610.768902 L325.183304,612.204629 L325.422591,612.328704 C325.670873,614.254466 325.589957,616.208422 325.183304,618.107062 C324.350227,620.765816 324.013452,628.272364 324.013452,628.272364 C324.013452,628.272364 317.366568,670.706073 320.521622,679.23181 C323.676677,687.757547 326.344293,697.098635 326.344293,697.098635 C326.344293,697.098635 329.667735,707.73365 326.503818,709.506152 C323.339901,711.278655 314.379901,714.424847 316.205579,718.84724 C317.889456,722.941721 324.279327,733.913511 325.227616,735.517626 L325.147854,736.403877 L323.845064,750.52186 C324.056025,752.385938 324.561571,754.204709 325.342829,755.910267 C326.769693,758.994421 329.534797,762.176063 334.816855,761.830425 C335.703106,761.768388 336.722295,761.6709 337.723759,761.537962 C347.375035,760.235173 359.250801,755.927992 359.250801,755.927992 C358.635054,755.538007 358.072086,755.070357 357.575786,754.536578 L357.575786,754.536578 C356.617085,753.607934 356.081972,752.326226 356.095747,750.991573 C356.237547,748.412582 351.425203,736.173452 350.219901,733.151335 L349.945163,732.477784 C349.945163,732.477784 360.916954,721.000831 359.091276,710.844392 C359.091276,710.844392 346.949634,703.754382 350.946627,699.854876 C354.94362,695.955371 362.086805,684.788605 362.086805,684.788605 C362.086805,684.788605 362.414718,643.00186 362.086805,636.771513 C361.744985,632.438088 361.95044,628.078862 362.698318,623.796795 C362.831256,623.158694 362.990781,622.529456 363.159169,621.900218 C368.691762,622.735134 374.278639,623.158741 379.873867,623.167557 C381.918154,623.167557 383.986073,623.126198 386.077626,623.043482 C386.077626,623.634316 386.104214,624.272417 386.157389,624.957784 C386.618239,635.309199 387.477903,653.468487 388.178042,660.212859 C389.170643,669.872997 394.656538,695.937646 394.656538,695.937646 C394.656538,695.937646 384.189911,702.646568 396.482216,719.210603 C396.482216,719.210603 396.482216,725.201662 395.666864,726.07905 L395.666864,726.07905 C394.795743,728.921098 394.094367,731.812424 393.566449,734.737725 C393.052423,737.848467 392.839723,741.012384 393.672799,742.643086 C395.666864,746.560317 407.631256,746.241266 407.631256,746.241266 L407.631256,746.241266 C407.727435,746.218868 407.825222,746.204052 407.923719,746.196954 C412.485722,745.714751 417.049905,747.088158 420.588249,750.007834 C425.134718,753.659189 442.381167,752.063937 451.731118,750.894085 C455.391335,750.424372 457.837389,750.007834 457.837389,750.007834 C457.955011,749.593329 457.99704,749.161032 457.961464,748.731632 L457.961464,748.731632 C457.863976,746.436241 456.064886,741.402334 443.870069,736.909041 C443.870069,736.909041 432.401978,729.198655 432.561503,722.48087 L432.304491,722.48087 L430.983976,722.48087 C431.817052,722.454283 432.401978,722.454283 432.401978,722.454283 C432.401978,722.454283 427.908684,706.067498 429.743225,704.729258 C431.577765,703.391019 426.083007,685.231731 426.083007,685.231731 C426.083007,685.231731 422.936815,654.744688 422.759565,652.617685 C422.771284,650.78459 423.051967,648.963138 423.592641,647.211553 L422.759565,630.487992 C422.759565,630.487992 422.60004,624.931197 422.759565,623.123244 C422.741858,621.553859 422.617496,619.987493 422.387339,618.434975 C422.307577,617.814599 422.227814,617.167636 422.139189,616.529535 C426.437507,615.439446 429.229199,614.437982 429.229199,614.437982 L428.732898,556.255589 C432.384253,549.165579 433.057804,533.603007 433.040079,522.578042 C433.040079,515.488032 432.721029,510.241424 432.721029,510.241424 L437.710623,502.096775 C437.710623,502.096775 438.86275,492.348012 437.037072,490.212146 C436.230584,489.246133 436.593947,488.244669 437.258635,487.420455 C437.60839,487.133816 437.97865,486.873153 438.366449,486.640554 C438.322811,486.578801 438.284279,486.513593 438.251236,486.445579 C438.599632,486.154505 438.970006,485.890798 439.35905,485.656815 C439.35905,485.656815 437.586548,482.909436 439.172938,481.748447 C440.66184,482.758773 441.991217,483.565262 443.001543,484.141325 C442.930643,484.788289 442.859743,485.160514 442.859743,485.160514 L443.285143,484.274263 C444.26002,484.823739 444.853808,485.160514 444.853808,485.160514 C444.853808,485.160514 452.670544,469.58908 452.502156,467.302552 C452.333769,465.016024 457.819664,455.33816 457.819664,455.33816 C457.819664,455.33816 458.484352,450.251078 461.479881,448.124075 C464.47541,445.997072 463.80186,430.585163 463.80186,430.585163 C463.80186,430.585163 464.634936,422.555727 466.629001,419.28546 C468.623066,416.015193 464.847636,411.566212 464.847636,411.566212 Z M315.283877,404.733215 L315.43454,408.446607 C314.548289,407.019743 313.910188,406.000554 313.910188,406.000554 L315.283877,404.733215 Z" id="Shape" fill="url(#linearGradient-1)"></path>
            <path d="M445.314659,478.425005 L443.400356,486.578516 C443.400356,486.578516 428.06821,478.735193 425.311968,468.809179 C422.555727,458.883165 429.929337,455.098872 429.929337,455.098872 L444.22457,461.143106 L445.314659,478.425005 Z" id="Path" fill="#FFFFFF"></path>
            <path d="M445.314659,478.425005 L443.400356,486.578516 C443.400356,486.578516 428.06821,478.735193 425.311968,468.809179 C422.555727,458.883165 429.929337,455.098872 429.929337,455.098872 L444.22457,461.143106 L445.314659,478.425005 Z" id="Path" fill="#000000" opacity="0.1"></path>
            <path d="M359.268526,755.91913 C359.268526,755.91913 345.088506,761.130287 335.339743,761.786113 C330.164036,762.131751 327.443244,758.958971 326.042967,755.901405 C325.282089,754.215087 324.785863,752.421498 324.57179,750.583897 L325.856855,736.536815 L326.530406,729.065717 L347.242097,723.67731 L350.175589,732.655035 L350.450326,733.328586 C351.620178,736.332977 356.35276,748.510069 356.210959,751.05361 C356.187885,752.383025 356.70987,753.663968 357.655549,754.598615 C358.135088,755.105348 358.67709,755.549076 359.268526,755.91913 L359.268526,755.91913 Z" id="Path" fill="#FFFFFF"></path>
            <path d="M456.082611,748.775945 C456.119169,749.205351 456.077123,749.637824 455.958536,750.052146 C455.958536,750.052146 425.631019,755.103778 419.42726,750.052146 C415.901098,747.068289 411.281323,745.70745 406.700692,746.303304 C406.700692,746.303304 394.966726,746.622354 393.008111,742.758299 C392.19276,741.136459 392.40546,737.990267 392.910623,734.89725 C393.4266,731.987988 394.113152,729.111572 394.966726,726.282888 L395.436439,725.910663 L398.228131,723.668447 L430.913076,722.702433 L431.161227,722.702433 C431.001701,729.384768 442.248229,737.050841 442.248229,737.050841 C454.221484,741.482097 455.985124,746.489416 456.082611,748.775945 Z" id="Path" fill="#FFFFFF"></path>
            <path d="M456.091474,748.775945 C456.122839,749.205857 456.077831,749.637928 455.958536,750.052146 C455.958536,750.052146 425.631019,755.103778 419.436123,750.052146 C415.907772,747.065866 411.28425,745.704871 406.700692,746.303304 C406.700692,746.303304 394.957864,746.622354 392.999248,742.758299 C392.19276,741.136459 392.396597,737.990267 392.901761,734.888388 C397.421642,735.340376 404.555964,736.465915 407.356518,739.160119 C411.592799,743.236874 418.771434,747.31363 423.16724,747.641543 C426.641345,747.854243 447.299862,748.510069 456.091474,748.775945 Z" id="Path" fill="#000000" opacity="0.1"></path>
            <path d="M359.268526,755.91913 C359.268526,755.91913 345.088506,761.130287 335.339743,761.786113 C330.164036,762.131751 327.443244,758.958971 326.042967,755.901405 C329.658872,757.115569 334.666192,758.382908 337.298358,757.221919 C340.417962,755.830504 351.478378,754.944253 357.682136,754.563165 C358.149905,755.082024 358.683175,755.537836 359.268526,755.91913 L359.268526,755.91913 Z" id="Path" fill="#000000" opacity="0.1"></path>
            <path d="M380.308131,335.933531 C368.609614,331.387062 353.561068,316.365104 357.318773,309.345994 C358.149247,307.573256 358.645008,305.662324 358.781088,303.709436 C359.022919,301.057442 359.058475,298.390674 358.887438,295.733175 C358.623598,291.377936 358.099776,287.042351 357.318773,282.749594 C357.318773,282.749594 393.841187,283.573808 391.714184,288.953353 C391.093808,290.539743 390.987458,293.278259 391.164708,296.335826 C391.341958,299.393393 391.776222,302.87636 392.237072,305.809852 C392.866311,309.82457 393.513274,312.899862 393.513274,312.899862 C393.513274,312.899862 391.271058,316.028328 389.968269,316.196716 C388.66548,316.365104 397.093729,342.447478 380.308131,335.933531 Z" id="Path" fill="#CF6F80"></path>
            <path d="M350.414876,733.284273 L350.140138,733.585598 C339.221523,720.380455 326.01638,736.847003 326.01638,736.847003 L325.821405,736.492502 L326.494955,729.021405 L347.206647,723.632997 L350.140138,732.610722 L350.414876,733.284273 Z" id="Path" fill="#000000" opacity="0.1"></path>
            <path d="M431.178952,723.632997 C431.178952,723.632997 423.20269,723.473472 418.948684,727.231177 C414.694679,730.988882 394.13365,728.037666 395.019901,727.231177 C395.278392,726.8219 395.436316,726.35724 395.480752,725.875213 L398.272443,723.632997 L430.957389,722.666983 C431.081464,723.287359 431.178952,723.632997 431.178952,723.632997 Z" id="Path" fill="#000000" opacity="0.1"></path>
            <path d="M364.001108,619.93274 C363.408232,621.401844 362.957147,622.924257 362.654006,624.479209 C361.914933,628.738379 361.709512,633.073052 362.042493,637.383027 C362.370406,643.586785 362.042493,685.160831 362.042493,685.160831 C362.042493,685.160831 355.032245,696.247834 351.115015,700.156202 C347.197784,704.06457 359.091276,711.08368 359.091276,711.08368 C360.863778,721.195806 350.122413,732.610722 350.122413,732.610722 C339.203798,719.405579 325.998655,735.863264 325.998655,735.863264 C325.998655,735.863264 318.82002,723.455747 317.029792,719.024491 C315.239565,714.593234 324.04004,711.535668 327.133056,709.727715 C330.226073,707.919763 326.973531,697.320198 326.973531,697.320198 C326.973531,697.320198 324.367953,688.023422 321.266073,679.541998 C318.164194,671.060574 324.687003,628.848427 324.687003,628.848427 C324.687003,628.848427 325.023778,621.341879 325.830267,618.727438 C326.232728,616.840252 326.313628,614.898655 326.069555,612.98453 C326.01638,612.337567 325.954342,611.805816 325.91003,611.433591 C325.865717,611.061365 325.830267,610.90184 325.830267,610.90184 L325.954342,610.689139 L330.385598,602.429278 C330.385598,602.429278 366.128111,614.730445 364.001108,619.93274 Z" id="Path" fill="#5770BE"></path>
            <path d="M431.178952,722.658121 C431.178952,722.658121 423.20269,722.489733 418.948684,726.203126 C414.694679,729.916518 394.13365,727.018477 395.019901,726.203126 C395.906152,725.387774 395.82639,719.361266 395.82639,719.361266 C383.76451,702.885856 394.053887,696.203521 394.053887,696.203521 C394.053887,696.203521 388.674342,670.280673 387.699466,660.664847 C387.017052,653.955925 386.175114,635.849812 385.723126,625.595885 C385.52815,621.164629 385.412938,618.107062 385.412938,618.107062 L395.179426,616.166172 L396.446766,615.918022 L420.216024,611.141128 C420.216024,611.141128 420.87185,615.572384 421.314975,619.197151 C421.539098,620.744268 421.660485,622.304532 421.678338,623.867695 C421.527676,625.640198 421.678338,631.196993 421.678338,631.196993 L422.493689,647.823066 C421.967629,649.568387 421.693083,651.379793 421.678338,653.202611 C421.846726,655.329614 424.939743,685.648269 424.939743,685.648269 C424.939743,685.648269 430.319288,703.745519 428.484748,705.048309 C426.650208,706.351098 431.178952,722.658121 431.178952,722.658121 Z" id="Path" fill="#5770BE"></path>
            <path d="M391.714184,288.979941 C391.093808,290.56633 390.987458,293.304847 391.164708,296.362413 C381.181896,302.373879 368.63889,302.139688 358.887438,295.759763 C358.623598,291.404523 358.099776,287.068938 357.318773,282.776182 C357.318773,282.776182 393.841187,283.600396 391.714184,288.979941 Z" id="Path" fill="#000000" opacity="0.1"></path>
            <path d="M405.814441,269.411513 C406.015121,286.156044 392.60368,299.892851 375.859149,300.093531 C359.114619,300.294211 345.377811,286.88277 345.177132,270.138239 C345.177132,269.890089 345.177132,269.659664 345.177132,269.411513 C345.177132,252.662088 358.755224,239.083996 375.504649,239.083996 C392.254074,239.083996 405.832166,252.662088 405.832166,269.411513 L405.814441,269.411513 Z" id="Path" fill="#CF6F80"></path>
            <path d="M380.308131,335.933531 C368.609614,331.387062 353.561068,316.365104 357.318773,309.345994 C358.149247,307.573256 358.645008,305.662324 358.781088,303.709436 L374.795648,316.87913 L384.703937,325.006053 L392.237072,305.836439 C392.866311,309.851157 393.513274,312.926449 393.513274,312.926449 C393.513274,312.926449 391.271058,316.054916 389.968269,316.223304 C388.66548,316.391691 397.093729,342.447478 380.308131,335.933531 Z" id="Path" fill="#000000" opacity="0.1"></path>
            <polygon id="Path" fill="#5770BE" points="421.722651 394.13365 408.34912 618.798338 390.907695 619.941602 345.73547 489.671533 353.14453 335.01183 354.713195 302.335747 374.795648 318.828882 384.703937 326.955806 392.458635 307.218991 406.877943 319.786034"></polygon>
            <path d="M364.001108,619.93274 C363.408232,621.401844 362.957147,622.924257 362.654006,624.479209 C349.950638,622.523166 337.612603,618.672384 326.05183,613.05543 L325.812542,612.931355 L325.892305,611.504491 L325.892305,610.76004 L330.323561,602.500178 C330.323561,602.500178 366.128111,614.730445 364.001108,619.93274 Z" id="Path" fill="#000000" opacity="0.1"></path>
            <path d="M395.471889,624.514659 C392.22768,625.069244 388.955426,625.444991 385.669951,625.640198 C385.474975,621.208942 385.359763,618.151375 385.359763,618.151375 L395.179426,616.166172 L395.471889,624.514659 Z" id="Path" fill="#000000" opacity="0.1"></path>
            <path d="M421.350425,619.197151 C415.049179,620.836716 405.309278,622.680119 396.606291,621.527992 L396.482216,615.918022 L420.251474,611.141128 C420.251474,611.141128 420.880712,615.536934 421.350425,619.197151 Z" id="Path" fill="#000000" opacity="0.1"></path>
            <path d="M396.446766,622.556044 C360.110465,628.759802 326.831731,610.97274 326.831731,610.97274 L327.150781,604.946231 C327.150781,604.946231 327.974995,536.625124 325.688467,531.387379 C323.401939,526.149634 321.620574,499.624135 322.9145,495.573966 C324.208427,491.523798 318.190781,430.372463 318.190781,430.372463 L317.215905,405.557428 L281.508843,391.049496 L297.461365,357.788487 C299.615544,353.126187 301.468655,348.330599 303.009298,343.431217 C305.783264,334.790267 318.660495,326.308843 318.660495,326.308843 C318.660495,326.308843 331.865638,317.836281 337.085658,318.155331 C342.305678,318.474382 349.147537,310.657646 349.147537,310.657646 C354.199169,297.780415 358.772226,303.567636 358.772226,303.567636 C358.772226,304.188012 358.772226,303.567636 358.524075,305.473076 C356.751573,319.608783 387.18544,364.275846 387.619703,365.073472 L387.619703,365.073472 L390.553195,435.672245 L393.486686,525.015232 L396.446766,622.556044 Z" id="Path" fill="#000000" opacity="0.1"></path>
            <path d="M395.471889,622.556044 C359.135589,628.759802 325.847992,610.97274 325.847992,610.97274 L326.175905,604.946231 C326.175905,604.946231 326.991256,536.625124 324.704728,531.387379 C322.4182,526.149634 320.636835,499.597547 321.939624,495.511929 C323.242413,491.426311 317.189318,430.337013 317.189318,430.337013 L316.205579,405.521978 L280.507379,391.014045 L296.459901,357.753037 C298.60906,353.091642 300.46205,348.299324 302.007834,343.404629 C304.7818,334.790267 317.703343,326.29998 317.703343,326.29998 C317.703343,326.29998 330.908487,317.827418 336.119644,318.146469 C341.330801,318.465519 348.208111,310.657646 348.208111,310.657646 C353.268605,297.780415 358.843126,303.567636 358.843126,303.567636 C358.843126,304.188012 358.311375,304.453887 358.594975,305.473076 C362.494481,319.183383 386.281464,364.275846 386.715727,365.073472 L386.715727,365.073472 L389.649219,435.672245 L392.520673,525.059545 L395.471889,622.556044 Z" id="Path" fill="#FFFFFF"></path>
            <path d="M385.678813,367.067537 C381.770445,365.436835 361.067616,341.800514 361.067616,341.800514 L361.067616,336.420969 C360.314303,334.648467 355.829871,335.729693 352.205104,336.970445 L353.764906,304.294362 L355.537409,305.765539 C359.410326,319.466983 385.253412,366.278773 385.678813,367.067537 Z" id="Path" fill="#000000" opacity="0.1"></path>
            <path d="M386.662552,365.117784 C382.745321,363.47822 362.042493,339.850762 362.042493,339.850762 L362.042493,334.462354 C361.289179,332.689852 356.81361,333.771078 353.17998,335.01183 L354.713195,302.371197 L356.485697,303.833511 C360.394065,317.51723 386.228289,364.320158 386.662552,365.117784 Z" id="Path" fill="#FFFFFF"></path>
            <path d="M326.831731,482.989199 C327.319169,482.989199 352.098754,480.38362 352.098754,480.38362 C352.098754,480.38362 367.102987,509.895786 366.119248,517.065559 C365.135509,524.235331 363.354144,530.598615 357.318773,529.473076 C351.283403,528.347537 324.837666,530.359327 324.837666,530.359327 L326.831731,482.989199 Z" id="Path" fill="#000000" opacity="0.1"></path>
            <path d="M325.847992,481.030584 C326.344293,481.030584 351.123877,478.425005 351.123877,478.425005 C351.123877,478.425005 366.119248,507.981484 365.144372,515.071494 C364.169496,522.161503 362.370406,528.60455 356.343897,527.479011 C350.317389,526.353472 323.853927,528.365262 323.853927,528.365262 L325.847992,481.030584 Z" id="Path" fill="#FFFFFF"></path>
            <path d="M344.521306,467.213927 C344.521306,467.213927 367.262512,479.444194 367.749951,483.166449 C368.237389,486.888704 356.175509,481.535747 353.569931,480.879921 C351.853862,480.472361 350.108525,480.199744 348.349911,480.06457 L330.970524,480.534283 L344.521306,467.213927 Z" id="Path" fill="#CF6F80"></path>
            <circle id="Oval" fill="#000000" opacity="0.1" cx="379.324392" cy="366.199011" r="2.39287834"></circle>
            <circle id="Oval" fill="#3F3D56" cx="379.324392" cy="365.224135" r="2.39287834"></circle>
            <circle id="Oval" fill="#000000" opacity="0.1" cx="383.72906" cy="469.784055" r="2.39287834"></circle>
            <circle id="Oval" fill="#3F3D56" cx="383.72906" cy="468.800317" r="2.39287834"></circle>
            <circle id="Oval" fill="#000000" opacity="0.1" cx="381.71727" cy="417.991533" r="2.39287834"></circle>
            <circle id="Oval" fill="#3F3D56" cx="381.71727" cy="417.016657" r="2.39287834"></circle>
            <path d="M436.877547,479.568269 C436.877547,479.568269 438.508249,482.014322 436.877547,483.113274 C435.246845,484.212226 437.037072,487.030504 437.037072,487.030504 C437.037072,487.030504 432.969179,489.405658 434.759407,491.559248 C436.549634,493.712839 435.415232,503.38184 435.415232,503.38184 L430.523126,511.526489 C430.523126,511.526489 430.815589,516.746508 430.833314,523.801068 C430.833314,534.808309 430.18635,550.282255 426.605895,557.336815 L427.084471,615.217883 C427.084471,615.217883 409.953234,621.48368 395.613689,619.569377 L393.486686,526.690247 C393.486686,526.690247 396.588566,474.020336 397.73183,463.917072 C398.400975,458.671878 398.673532,453.383682 398.547181,448.097488 C398.547181,448.097488 398.059743,432.286766 396.420178,424.957468 C396.420178,424.957468 394.647676,393.158773 394.470425,384.358299 C394.390663,380.148605 394.612226,367.865163 394.860376,356.184372 C395.135114,343.413492 395.445302,331.369337 395.445302,331.369337 L392.210485,305.765539 C392.210485,305.765539 395.445302,305.446489 396.420178,306.740415 C396.856854,307.14834 397.331702,307.513379 397.83818,307.830504 L397.83818,307.830504 C403.430425,311.605935 423.158378,323.215826 423.158378,323.215826 C423.158378,323.215826 434.076993,327.558457 436.691434,333.779941 C439.305875,340.001424 441.12269,344.414955 442.39003,346.187458 C443.657369,347.95996 444.348645,356.290722 444.348645,356.290722 C444.348645,356.290722 448.10635,371.622868 451.039842,374.219585 C453.973333,376.816301 456.082611,393.300574 456.082611,393.300574 L430.159763,413.684352 C430.159763,413.684352 427.882097,447.592324 427.394659,448.903976 C426.907221,450.215628 436.877547,479.568269 436.877547,479.568269 Z" id="Path" fill="#FFFFFF"></path>
            <path d="M437.861286,479.568269 C437.861286,479.568269 439.483126,482.014322 437.861286,483.113274 C436.239446,484.212226 438.011949,487.030504 438.011949,487.030504 C438.011949,487.030504 433.944055,489.405658 435.734283,491.559248 C437.52451,493.712839 436.390109,503.38184 436.390109,503.38184 L431.515727,511.526489 C431.515727,511.526489 431.80819,516.746508 431.834777,523.801068 C431.834777,534.808309 431.187814,550.282255 427.607359,557.336815 L428.094797,615.217883 C428.094797,615.217883 410.963561,621.48368 396.624016,619.569377 L394.505875,526.690247 C394.505875,526.690247 397.598892,474.020336 398.751019,463.917072 C399.420894,458.671983 399.690502,453.383508 399.557507,448.097488 C399.557507,448.097488 399.070069,432.286766 397.439367,424.957468 C397.439367,424.957468 395.666864,393.158773 395.480752,384.358299 C395.400989,380.148605 395.622552,367.865163 395.870702,356.184372 C396.14544,343.413492 396.455628,331.369337 396.455628,331.369337 L392.183897,305.419901 C392.183897,305.419901 396.455628,305.419901 397.439367,306.740415 C397.871944,307.153147 398.347299,307.518576 398.857369,307.830504 L398.857369,307.830504 C404.440752,311.605935 424.168704,323.215826 424.168704,323.215826 C424.168704,323.215826 435.060732,327.558457 437.719486,333.779941 C440.378239,340.001424 442.150742,344.414955 443.418081,346.187458 C444.68542,347.95996 445.376696,356.290722 445.376696,356.290722 C445.376696,356.290722 449.134402,371.622868 452.067893,374.219585 C455.001385,376.816301 457.119525,393.300574 457.119525,393.300574 L431.196677,413.684352 C431.196677,413.684352 428.919011,447.592324 428.42271,448.903976 C427.926409,450.215628 437.861286,479.568269 437.861286,479.568269 Z" id="Path" fill="#FFFFFF"></path>
            <path d="M406.815905,338.89361 L409.164471,345.717745 L396.836716,358.125262 C397.111454,345.354382 397.421642,333.310227 397.421642,333.310227 L393.149911,307.369654 C393.149911,307.369654 397.421642,307.369654 398.405381,308.690168 C398.837958,309.1029 399.313313,309.468329 399.823383,309.780257 L399.823383,309.780257 L410.298872,339.992562 L406.815905,338.89361 Z" id="Path" fill="#000000" opacity="0.1"></path>
            <path d="M405.814441,336.934995 L408.163007,343.750267 L395.844115,356.157784 C396.10999,343.386904 396.429041,331.34275 396.429041,331.34275 L392.148447,305.393314 C392.148447,305.393314 396.429041,305.393314 397.403917,306.713828 C397.838615,307.124079 398.313701,307.489301 398.821919,307.803917 L398.821919,307.803917 L409.359446,338.042809 L405.814441,336.934995 Z" id="Path" fill="#FFFFFF"></path>
            <path d="M405.814441,269.411513 C405.817904,272.604855 405.315373,275.778577 404.325539,278.814639 C403.988436,278.87099 403.642911,278.787808 403.368388,278.584214 C403.1291,270.607953 399.211869,263.110267 394.3818,256.738121 C393.023362,254.816155 391.379659,253.112681 389.507418,251.686489 C387.61214,250.264076 385.255516,249.597524 382.895984,249.816499 C380.23723,250.179862 377.888665,251.987814 375.203323,252.218239 C371.658318,252.510702 368.485539,250.055786 364.967122,249.940574 C362.072745,249.96459 359.329784,251.237531 357.442849,253.432404 C355.592724,255.614532 354.219199,258.159326 353.410406,260.903501 C352.016945,265.067487 351.258087,269.417473 351.159327,273.807319 C351.115015,276.288823 350.875727,279.399565 348.571474,280.303541 C348.92406,276.616233 347.711751,272.950367 345.230307,270.200277 L345.177132,270.138239 C345.177132,269.890089 345.177132,269.659664 345.177132,269.411513 C345.177132,252.662088 358.755224,239.083996 375.504649,239.083996 C392.254074,239.083996 405.832166,252.662088 405.832166,269.411513 L405.814441,269.411513 Z" id="Path" fill="#000000" opacity="0.1"></path>
            <path d="M388.089416,221.261484 C383.484079,219.095157 378.246084,218.685446 373.359921,220.109357 C370.905005,220.836083 368.591889,222.014797 366.101523,222.608586 C360.784016,223.89365 354.580257,222.502235 350.016063,225.612977 C347.481385,227.38548 345.957033,230.186034 344.539031,232.915687 L340.994026,239.660059 C339.061998,243.355727 337.112245,247.113432 336.305757,251.181325 C335.499268,255.249219 335.986706,259.80455 338.565697,263.08368 C340.435687,265.458833 343.218516,266.956597 345.256894,269.198813 C347.732646,271.962435 348.94076,275.634973 348.589199,279.328665 C350.893452,278.442413 351.123877,275.313947 351.177052,272.832443 C351.276617,268.442676 352.035454,264.092809 353.428131,259.928625 C354.236924,257.18445 355.610449,254.639655 357.460574,252.457527 C359.346582,250.260302 362.08932,248.984234 364.984847,248.956835 C368.529852,249.08091 371.711494,251.535826 375.221048,251.2345 C377.879802,251.012938 380.23723,249.204985 382.913709,248.841622 C385.273636,248.618326 387.631792,249.285311 389.525143,250.711612 C391.398835,252.133324 393.040253,253.837529 394.390663,255.763244 C399.229594,262.144253 403.155687,269.606489 403.386113,277.609337 C404.387577,278.336063 405.832166,277.378912 406.328467,276.24451 C406.824768,275.110109 406.842493,273.780732 407.471731,272.699505 C408.198457,271.449891 409.589871,270.77634 410.67996,269.836914 C413.445064,267.452898 414.13634,263.43818 414.02999,259.795687 C413.92364,256.153195 413.214639,252.457527 413.905915,248.877072 C414.322453,246.688032 415.261879,244.623066 415.775905,242.451751 C416.289931,240.280435 416.351968,237.843244 415.137804,235.973254 C413.365302,233.234738 409.634184,232.685262 406.381642,232.428249 C402.685974,232.109199 399.380257,232.516874 397.022829,229.406133 C395.913475,227.784901 394.668235,226.260964 393.300574,224.850801 C392.813136,224.381088 388.089416,221.456459 388.089416,221.261484 Z" id="Path" fill="#512E4E"></path>
            <path d="M291.736182,408.154144 L282.483719,391.040633 L279.550227,417.45092 C279.550227,417.45092 281.18093,429.184886 280.853017,430.983976 C280.525104,432.783066 287.535351,448.912839 287.535351,448.912839 C287.535351,448.912839 310.693096,490.167834 320.149397,492.285974 L352.054441,469.456142 L343.581879,458.697052 C343.581879,458.697052 340.648388,457.553788 339.912799,458.697052 C339.912799,458.697052 324.172977,431.63094 322.551137,429.681187 C320.929298,427.731434 321.239486,423.805341 321.239486,423.805341 C321.239486,423.805341 318.793432,421.199763 319.608783,418.753709 C320.424135,416.307656 314.929377,407.835094 314.929377,407.835094 L319.981009,403.111375 L291.736182,408.154144 Z" id="Path" fill="#000000" opacity="0.1"></path>
            <path d="M282.971157,389.082018 L280.525104,391.040633 L277.591612,417.45092 C277.591612,417.45092 279.222315,429.184886 278.894402,430.983976 C278.566489,432.783066 285.585598,448.912839 285.585598,448.912839 C285.585598,448.912839 308.734481,490.167834 318.190781,492.285974 L350.149001,469.456142 L341.667577,458.697052 C341.667577,458.697052 338.734085,457.553788 337.998497,458.697052 C337.998497,458.697052 322.267537,431.63094 320.636835,429.681187 C319.006133,427.731434 319.334045,423.805341 319.334045,423.805341 C319.334045,423.805341 316.887992,421.199763 317.703343,418.753709 C318.518694,416.307656 312.970762,407.835094 312.970762,407.835094 L318.022394,403.111375 L282.971157,389.082018 Z" id="Path" fill="#FFFFFF"></path>
            <path d="M434.759407,492.578437 C436.531909,494.732028 435.415232,504.409891 435.415232,504.409891 L430.523126,512.501365 C430.523126,512.501365 430.815589,517.730247 430.833314,524.784807 L422.608902,527.354936 C421.098364,527.825765 419.453383,527.536974 418.193548,526.579781 C416.933712,525.622587 416.214596,524.115194 416.263343,522.533729 L417.690208,476.803165 L436.877547,484.132463 C435.246845,485.266864 437.037072,488.049693 437.037072,488.049693 C437.037072,488.049693 432.969179,490.424847 434.759407,492.578437 Z" id="Path" fill="#000000" opacity="0.1"></path>
            <path d="M435.734283,491.603561 C437.506785,493.748289 436.390109,503.426152 436.390109,503.426152 L431.515727,511.526489 C431.515727,511.526489 431.80819,516.746508 431.834777,523.801068 L423.459703,526.415509 C421.984039,526.878192 420.375689,526.597859 419.143577,525.663214 C417.911466,524.728569 417.208063,523.255273 417.255945,521.709515 L418.682809,475.819426 L437.861286,483.166449 C436.221721,484.300851 438.011949,487.08368 438.011949,487.08368 C438.011949,487.08368 433.944055,489.44997 435.734283,491.603561 Z" id="Path" fill="#FFFFFF"></path>
            <path d="M442.097567,469.784055 C442.097567,469.784055 440.794777,478.105955 437.533373,478.593393 C434.271968,479.080831 432.809654,492.055549 429.557112,491.603561 C426.30457,491.151573 428.45816,479.532819 428.573373,477.281741 C428.688586,475.030663 425.028368,465.7073 427.758022,463.589159 C430.487676,461.471019 439.172938,463.589159 439.172938,463.589159 L442.097567,469.784055 Z" id="Path" fill="#CF6F80"></path>
            <path d="M448.992601,405.708091 L455.134322,393.300574 C455.134322,393.300574 457.589238,402.756874 457.589238,407.808506 C457.589238,412.860138 461.010168,413.356439 461.010168,413.356439 C461.010168,413.356439 464.759011,417.787695 462.782671,421.022512 C460.80633,424.257329 460.017567,432.269041 460.017567,432.269041 C460.017567,432.269041 460.66453,447.592324 457.731039,449.710465 C454.797547,451.828605 454.141721,456.8891 454.141721,456.8891 C454.141721,456.8891 448.762176,466.504926 448.930564,468.791454 C449.098952,471.077982 441.432878,486.560791 441.432878,486.560791 C441.432878,486.560791 445.181721,467.320277 423.335628,459.00724 C423.335628,459.00724 423.16724,452.484431 424.797943,450.694204 C426.428645,448.903976 428.972186,448.03545 427.376934,439.031137 C425.781682,430.026825 426.916083,419.170247 426.916083,416.998932 C426.916083,414.827616 431.80819,401.29456 431.80819,401.29456 L448.992601,405.708091 Z" id="Path" fill="#000000" opacity="0.1"></path>
            <path d="M451.722255,391.528071 L457.092938,393.300574 C457.092938,393.300574 459.547854,402.756874 459.547854,407.808506 C459.547854,412.860138 462.968783,413.356439 462.968783,413.356439 C462.968783,413.356439 466.717626,417.787695 464.741286,421.022512 C462.764946,424.257329 461.967319,432.269041 461.967319,432.269041 C461.967319,432.269041 462.623145,447.592324 459.689654,449.710465 C456.756162,451.828605 456.144649,456.8891 456.144649,456.8891 C456.144649,456.8891 450.765104,466.504926 450.933492,468.791454 C451.101879,471.077982 443.426944,486.560791 443.426944,486.560791 C443.426944,486.560791 447.175786,467.320277 425.329693,459.00724 C425.329693,459.00724 425.170168,452.484431 426.80087,450.694204 C428.431573,448.903976 430.975114,448.03545 429.379862,439.031137 C427.784609,430.026825 428.919011,419.170247 428.919011,416.998932 C428.919011,414.827616 433.811118,401.29456 433.811118,401.29456 L451.722255,391.528071 Z" id="Path" fill="#FFFFFF"></path>
            <path d="M333.07094,713.122057 C333.07094,713.122057 341.632127,707.742512 347.250959,711.65088 C352.869792,715.559248 333.07094,713.122057 333.07094,713.122057 Z" id="Path" fill="#000000" opacity="0.1"></path>
            <path d="M399.610682,696.487122 C399.610682,696.487122 407.188131,695.512245 413.551414,702.362967 C419.914698,709.213689 399.610682,696.487122 399.610682,696.487122 Z" id="Path" fill="#000000" opacity="0.1"></path>
            <path d="M410.67996,267.887161 C409.589871,268.83545 408.189594,269.500138 407.462868,270.749753 C406.842493,271.822117 406.824768,273.151494 406.328467,274.294758 C405.832166,275.438022 404.387577,276.386311 403.37725,275.659585 C403.146825,267.683323 399.220732,260.1945 394.390663,253.813492 C393.040091,251.890467 391.398632,250.18921 389.525143,248.770722 C387.629545,247.341473 385.268627,246.67144 382.904847,246.891869 C380.246093,247.255232 377.90639,249.063185 375.221048,249.29361 C371.676044,249.586073 368.494402,247.131157 364.975984,247.015945 C362.083664,247.037865 359.342604,248.311423 357.460574,250.507774 C355.610449,252.689903 354.236924,255.234697 353.428131,257.978872 C352.035454,262.143056 351.276617,266.492923 351.177052,270.88269 C351.123877,273.355331 350.893452,276.439486 348.606924,277.361187 C348.660084,278.018895 348.660084,278.67982 348.606924,279.337527 C350.92004,278.451276 351.150465,275.322809 351.20364,272.841306 C351.303205,268.451538 352.062041,264.101671 353.454718,259.937488 C354.263512,257.193312 355.637036,254.648518 357.487161,252.46639 C359.370423,250.270534 362.109887,248.994487 365.002572,248.965697 C368.547577,249.089773 371.738081,251.544688 375.247636,251.243363 C377.90639,251.0218 380.263818,249.213848 382.931434,248.850485 C385.29408,248.627531 387.654883,249.294371 389.551731,250.720475 C391.425423,252.142187 393.066841,253.846391 394.41725,255.772107 C399.247319,262.153116 403.173412,269.615351 403.403838,277.6182 C404.414164,278.344926 405.858754,277.387774 406.355054,276.253373 C406.851355,275.118971 406.86908,273.789594 407.489456,272.708368 C408.216182,271.458754 409.616459,270.785203 410.706548,269.845776 C413.471652,267.461761 414.162928,263.447043 414.056578,259.80455 C414.056578,259.689337 414.056578,259.582987 414.056578,259.467774 C413.879327,262.640554 413.037389,265.857646 410.67996,267.887161 Z" id="Path" fill="#000000"></path>
            <path d="M345.248032,267.266785 C343.218516,265.02457 340.435687,263.517943 338.565697,261.142789 C336.986266,259.046139 336.086304,256.516349 335.986706,253.893254 C335.708602,257.173137 336.624446,260.443112 338.565697,263.101405 C340.435687,265.476558 343.218516,266.974322 345.248032,269.216538 C347.208351,271.408592 348.386502,274.188779 348.598061,277.121899 C348.867348,273.51807 347.657832,269.959918 345.248032,267.266785 Z" id="Path" fill="#000000"></path>
            <path d="M415.775905,240.501998 C415.253017,242.673314 414.322453,244.738279 413.897052,246.927319 C413.641586,248.407565 413.549454,249.91139 413.622315,251.411751 C413.651507,250.564191 413.743337,249.71995 413.897052,248.885935 C414.322453,246.696894 415.253017,244.631929 415.775905,242.460613 C416.076323,241.26229 416.175162,240.022315 416.068368,238.791533 C416.011209,239.367854 415.913479,239.939427 415.775905,240.501998 L415.775905,240.501998 Z" id="Path" fill="#000000"></path>
        </g>
    </g>
</svg>