<svg width="1000" height="800" xmlns="http://www.w3.org/2000/svg" xmlns:xlink="http://www.w3.org/1999/xlink"><defs><path id="a" d="M1 0h768v587H1z"/></defs><g transform="translate(116 107)" fill="none" fill-rule="evenodd"><mask id="b" fill="#fff"><use xlink:href="#a"/></mask><use fill="#3F3D56" fill-rule="nonzero" xlink:href="#a"/><g mask="url(#b)"><g transform="translate(462 281)"><ellipse fill="#5770BE" cx="148.8" cy="152.6" rx="55.3" ry="55.1"/><g transform="translate(149 136)"><ellipse fill="#5770BE" cx="103.1" cy="14.8" rx="7.4" ry="14.8"/><path stroke="#5770BE" stroke-width="3" stroke-linecap="square" d="M101 15H1"/></g><g transform="matrix(-1 0 0 1 153 136)"><ellipse fill="#5770BE" cx="103.1" cy="14.8" rx="7.4" ry="14.8"/><path stroke="#5770BE" stroke-width="3" stroke-linecap="square" d="M101 15H1"/></g><g transform="matrix(0 -1 -1 0 164 151)"><ellipse fill="#5770BE" cx="103.1" cy="14.8" rx="7.4" ry="14.8"/><path stroke="#5770BE" stroke-width="3" stroke-linecap="square" d="M101 15H1"/></g><g transform="matrix(0 1 1 0 134 146)"><ellipse fill="#5770BE" cx="103.1" cy="14.8" rx="7.4" ry="14.8"/><path stroke="#5770BE" stroke-width="3" stroke-linecap="square" d="M101 15H1"/></g><g><g transform="rotate(45 -87 266)"><ellipse fill="#5770BE" cx="98.5" cy="15.1" rx="7.1" ry="15.1"/><path stroke="#5770BE" stroke-width="3" stroke-linecap="square" d="M97 15H1"/></g><g transform="scale(-1 1) rotate(-45 87 266)"><ellipse fill="#5770BE" cx="98.5" cy="15.1" rx="7.1" ry="15.1"/><path stroke="#5770BE" stroke-width="3" stroke-linecap="square" d="M97 15H1"/></g><g transform="scale(1 -1) rotate(45 276 115)"><ellipse fill="#5770BE" cx="98.5" cy="15.1" rx="7.1" ry="15.1"/><path stroke="#5770BE" stroke-width="3" stroke-linecap="square" d="M97 15H1"/></g><g transform="scale(-1 1) rotate(45 -239 -101)"><ellipse fill="#5770BE" cx="98.5" cy="15.1" rx="7.1" ry="15.1"/><path stroke="#5770BE" stroke-width="3" stroke-linecap="square" d="M97 15H1"/></g></g><g><g transform="rotate(23 -275 465)"><ellipse fill="#5770BE" cx="75.8" cy="11.1" rx="5.5" ry="11.1"/><path stroke="#5770BE" stroke-width="3" stroke-linecap="square" d="M74 11H1"/></g><g transform="scale(-1 1) rotate(-23 273 459)"><ellipse fill="#5770BE" cx="75.8" cy="11.1" rx="5.5" ry="11.1"/><path stroke="#5770BE" stroke-width="3" stroke-linecap="square" d="M74 11H1"/></g><g transform="scale(1 -1) rotate(68 198 44)"><ellipse fill="#5770BE" cx="75.8" cy="11.1" rx="5.5" ry="11.1"/><path stroke="#5770BE" stroke-width="3" stroke-linecap="square" d="M74 11H1"/></g><g transform="scale(-1 1) rotate(68 -179 -33)"><ellipse fill="#5770BE" cx="75.8" cy="11.1" rx="5.5" ry="11.1"/><path stroke="#5770BE" stroke-width="3" stroke-linecap="square" d="M74 11H1"/></g></g><g><g transform="rotate(68 -28 194)"><ellipse fill="#5770BE" cx="75.9" cy="11.6" rx="5.5" ry="11.6"/><path stroke="#5770BE" stroke-width="3" stroke-linecap="square" d="M74 12H1"/></g><g transform="scale(-1 1) rotate(-68 28 194)"><ellipse fill="#5770BE" cx="75.9" cy="11.6" rx="5.5" ry="11.6"/><path stroke="#5770BE" stroke-width="3" stroke-linecap="square" d="M74 12H1"/></g><g transform="scale(1 -1) rotate(23 483 310)"><ellipse fill="#5770BE" cx="75.9" cy="11.6" rx="5.5" ry="11.6"/><path stroke="#5770BE" stroke-width="3" stroke-linecap="square" d="M74 12H1"/></g><g transform="scale(-1 1) rotate(23 -424 -301)"><ellipse fill="#5770BE" cx="75.9" cy="11.6" rx="5.5" ry="11.6"/><path stroke="#5770BE" stroke-width="3" stroke-linecap="square" d="M74 12H1"/></g></g></g></g><g mask="url(#b)"><g transform="translate(-168 241)"><ellipse fill="#5770BE" cx="148.8" cy="152.6" rx="55.3" ry="55.1"/><g transform="translate(149 136)"><ellipse fill="#5770BE" cx="103.1" cy="14.8" rx="7.4" ry="14.8"/><path stroke="#5770BE" stroke-width="3" stroke-linecap="square" d="M101 15H1"/></g><g transform="matrix(-1 0 0 1 153 136)"><ellipse fill="#5770BE" cx="103.1" cy="14.8" rx="7.4" ry="14.8"/><path stroke="#5770BE" stroke-width="3" stroke-linecap="square" d="M101 15H1"/></g><g transform="matrix(0 -1 -1 0 164 151)"><ellipse fill="#5770BE" cx="103.1" cy="14.8" rx="7.4" ry="14.8"/><path stroke="#5770BE" stroke-width="3" stroke-linecap="square" d="M101 15H1"/></g><g transform="matrix(0 1 1 0 134 146)"><ellipse fill="#5770BE" cx="103.1" cy="14.8" rx="7.4" ry="14.8"/><path stroke="#5770BE" stroke-width="3" stroke-linecap="square" d="M101 15H1"/></g><g><g transform="rotate(45 -87 266)"><ellipse fill="#5770BE" cx="98.5" cy="15.1" rx="7.1" ry="15.1"/><path stroke="#5770BE" stroke-width="3" stroke-linecap="square" d="M97 15H1"/></g><g transform="scale(-1 1) rotate(-45 87 266)"><ellipse fill="#5770BE" cx="98.5" cy="15.1" rx="7.1" ry="15.1"/><path stroke="#5770BE" stroke-width="3" stroke-linecap="square" d="M97 15H1"/></g><g transform="scale(1 -1) rotate(45 276 115)"><ellipse fill="#5770BE" cx="98.5" cy="15.1" rx="7.1" ry="15.1"/><path stroke="#5770BE" stroke-width="3" stroke-linecap="square" d="M97 15H1"/></g><g transform="scale(-1 1) rotate(45 -239 -101)"><ellipse fill="#5770BE" cx="98.5" cy="15.1" rx="7.1" ry="15.1"/><path stroke="#5770BE" stroke-width="3" stroke-linecap="square" d="M97 15H1"/></g></g><g><g transform="rotate(23 -275 465)"><ellipse fill="#5770BE" cx="75.8" cy="11.1" rx="5.5" ry="11.1"/><path stroke="#5770BE" stroke-width="3" stroke-linecap="square" d="M74 11H1"/></g><g transform="scale(-1 1) rotate(-23 273 459)"><ellipse fill="#5770BE" cx="75.8" cy="11.1" rx="5.5" ry="11.1"/><path stroke="#5770BE" stroke-width="3" stroke-linecap="square" d="M74 11H1"/></g><g transform="scale(1 -1) rotate(68 198 44)"><ellipse fill="#5770BE" cx="75.8" cy="11.1" rx="5.5" ry="11.1"/><path stroke="#5770BE" stroke-width="3" stroke-linecap="square" d="M74 11H1"/></g><g transform="scale(-1 1) rotate(68 -179 -33)"><ellipse fill="#5770BE" cx="75.8" cy="11.1" rx="5.5" ry="11.1"/><path stroke="#5770BE" stroke-width="3" stroke-linecap="square" d="M74 11H1"/></g></g><g><g transform="rotate(68 -28 194)"><ellipse fill="#5770BE" cx="75.9" cy="11.6" rx="5.5" ry="11.6"/><path stroke="#5770BE" stroke-width="3" stroke-linecap="square" d="M74 12H1"/></g><g transform="scale(-1 1) rotate(-68 28 194)"><ellipse fill="#5770BE" cx="75.9" cy="11.6" rx="5.5" ry="11.6"/><path stroke="#5770BE" stroke-width="3" stroke-linecap="square" d="M74 12H1"/></g><g transform="scale(1 -1) rotate(23 483 310)"><ellipse fill="#5770BE" cx="75.9" cy="11.6" rx="5.5" ry="11.6"/><path stroke="#5770BE" stroke-width="3" stroke-linecap="square" d="M74 12H1"/></g><g transform="scale(-1 1) rotate(23 -424 -301)"><ellipse fill="#5770BE" cx="75.9" cy="11.6" rx="5.5" ry="11.6"/><path stroke="#5770BE" stroke-width="3" stroke-linecap="square" d="M74 12H1"/></g></g></g></g><g mask="url(#b)"><g transform="translate(480 -151)"><ellipse fill="#5770BE" cx="148.8" cy="152.6" rx="55.3" ry="55.1"/><g transform="translate(149 136)"><ellipse fill="#5770BE" cx="103.1" cy="14.8" rx="7.4" ry="14.8"/><path stroke="#5770BE" stroke-width="3" stroke-linecap="square" d="M101 15H1"/></g><g transform="matrix(-1 0 0 1 153 136)"><ellipse fill="#5770BE" cx="103.1" cy="14.8" rx="7.4" ry="14.8"/><path stroke="#5770BE" stroke-width="3" stroke-linecap="square" d="M101 15H1"/></g><g transform="matrix(0 -1 -1 0 164 151)"><ellipse fill="#5770BE" cx="103.1" cy="14.8" rx="7.4" ry="14.8"/><path stroke="#5770BE" stroke-width="3" stroke-linecap="square" d="M101 15H1"/></g><g transform="matrix(0 1 1 0 134 146)"><ellipse fill="#5770BE" cx="103.1" cy="14.8" rx="7.4" ry="14.8"/><path stroke="#5770BE" stroke-width="3" stroke-linecap="square" d="M101 15H1"/></g><g><g transform="rotate(45 -87 266)"><ellipse fill="#5770BE" cx="98.5" cy="15.1" rx="7.1" ry="15.1"/><path stroke="#5770BE" stroke-width="3" stroke-linecap="square" d="M97 15H1"/></g><g transform="scale(-1 1) rotate(-45 87 266)"><ellipse fill="#5770BE" cx="98.5" cy="15.1" rx="7.1" ry="15.1"/><path stroke="#5770BE" stroke-width="3" stroke-linecap="square" d="M97 15H1"/></g><g transform="scale(1 -1) rotate(45 276 115)"><ellipse fill="#5770BE" cx="98.5" cy="15.1" rx="7.1" ry="15.1"/><path stroke="#5770BE" stroke-width="3" stroke-linecap="square" d="M97 15H1"/></g><g transform="scale(-1 1) rotate(45 -239 -101)"><ellipse fill="#5770BE" cx="98.5" cy="15.1" rx="7.1" ry="15.1"/><path stroke="#5770BE" stroke-width="3" stroke-linecap="square" d="M97 15H1"/></g></g><g><g transform="rotate(23 -275 465)"><ellipse fill="#5770BE" cx="75.8" cy="11.1" rx="5.5" ry="11.1"/><path stroke="#5770BE" stroke-width="3" stroke-linecap="square" d="M74 11H1"/></g><g transform="scale(-1 1) rotate(-23 273 459)"><ellipse fill="#5770BE" cx="75.8" cy="11.1" rx="5.5" ry="11.1"/><path stroke="#5770BE" stroke-width="3" stroke-linecap="square" d="M74 11H1"/></g><g transform="scale(1 -1) rotate(68 198 44)"><ellipse fill="#5770BE" cx="75.8" cy="11.1" rx="5.5" ry="11.1"/><path stroke="#5770BE" stroke-width="3" stroke-linecap="square" d="M74 11H1"/></g><g transform="scale(-1 1) rotate(68 -179 -33)"><ellipse fill="#5770BE" cx="75.8" cy="11.1" rx="5.5" ry="11.1"/><path stroke="#5770BE" stroke-width="3" stroke-linecap="square" d="M74 11H1"/></g></g><g><g transform="rotate(68 -28 194)"><ellipse fill="#5770BE" cx="75.9" cy="11.6" rx="5.5" ry="11.6"/><path stroke="#5770BE" stroke-width="3" stroke-linecap="square" d="M74 12H1"/></g><g transform="scale(-1 1) rotate(-68 28 194)"><ellipse fill="#5770BE" cx="75.9" cy="11.6" rx="5.5" ry="11.6"/><path stroke="#5770BE" stroke-width="3" stroke-linecap="square" d="M74 12H1"/></g><g transform="scale(1 -1) rotate(23 483 310)"><ellipse fill="#5770BE" cx="75.9" cy="11.6" rx="5.5" ry="11.6"/><path stroke="#5770BE" stroke-width="3" stroke-linecap="square" d="M74 12H1"/></g><g transform="scale(-1 1) rotate(23 -424 -301)"><ellipse fill="#5770BE" cx="75.9" cy="11.6" rx="5.5" ry="11.6"/><path stroke="#5770BE" stroke-width="3" stroke-linecap="square" d="M74 12H1"/></g></g></g></g><path fill="#E6E6E6" fill-rule="nonzero" mask="url(#b)" d="M286-13h171v24H286z"/><g mask="url(#b)"><g transform="translate(62 46)"><ellipse fill="#5770BE" cx="220.4" cy="221" rx="80.5" ry="80.8"/><g transform="translate(220 200)"><ellipse fill="#5770BE" cx="146.3" cy="21.3" rx="10.6" ry="21.3"/><path stroke="#5770BE" stroke-width="3" stroke-linecap="square" d="M143 21H2"/></g><g transform="matrix(-1 0 0 1 225 200)"><ellipse fill="#5770BE" cx="146.3" cy="21.3" rx="10.6" ry="21.3"/><path stroke="#5770BE" stroke-width="3" stroke-linecap="square" d="M143 21H2"/></g><g transform="matrix(0 -1 -1 0 240 219)"><ellipse fill="#5770BE" cx="146.3" cy="21.3" rx="10.6" ry="21.3"/><path stroke="#5770BE" stroke-width="3" stroke-linecap="square" d="M143 21H2"/></g><g transform="matrix(0 1 1 0 197 215)"><ellipse fill="#5770BE" cx="146.3" cy="21.3" rx="10.6" ry="21.3"/><path stroke="#5770BE" stroke-width="3" stroke-linecap="square" d="M143 21H2"/></g><g><g transform="rotate(45 -128 389)"><ellipse fill="#5770BE" cx="143.3" cy="22.1" rx="10.3" ry="22.1"/><path stroke="#5770BE" stroke-width="3" stroke-linecap="square" d="M140 22H2"/></g><g transform="scale(-1 1) rotate(-45 128 389)"><ellipse fill="#5770BE" cx="143.3" cy="22.1" rx="10.3" ry="22.1"/><path stroke="#5770BE" stroke-width="3" stroke-linecap="square" d="M140 22H2"/></g><g transform="scale(1 -1) rotate(45 403 169)"><ellipse fill="#5770BE" cx="143.3" cy="22.1" rx="10.3" ry="22.1"/><path stroke="#5770BE" stroke-width="3" stroke-linecap="square" d="M140 22H2"/></g><g transform="scale(-1 1) rotate(45 -350 -147)"><ellipse fill="#5770BE" cx="143.3" cy="22.1" rx="10.3" ry="22.1"/><path stroke="#5770BE" stroke-width="3" stroke-linecap="square" d="M140 22H2"/></g></g><g><g transform="rotate(23 -403 681)"><ellipse fill="#5770BE" cx="110.2" cy="16.2" rx="8" ry="16.2"/><path stroke="#5770BE" stroke-width="3" stroke-linecap="square" d="M108 16H1"/></g><g transform="scale(-1 1) rotate(-23 399 672)"><ellipse fill="#5770BE" cx="110.2" cy="16.2" rx="8" ry="16.2"/><path stroke="#5770BE" stroke-width="3" stroke-linecap="square" d="M108 16H1"/></g><g transform="scale(1 -1) rotate(68 289 64)"><ellipse fill="#5770BE" cx="110.2" cy="16.2" rx="8" ry="16.2"/><path stroke="#5770BE" stroke-width="3" stroke-linecap="square" d="M108 16H1"/></g><g transform="scale(-1 1) rotate(68 -262 -48)"><ellipse fill="#5770BE" cx="110.2" cy="16.2" rx="8" ry="16.2"/><path stroke="#5770BE" stroke-width="3" stroke-linecap="square" d="M108 16H1"/></g></g><g><g transform="rotate(68 -41 285)"><ellipse fill="#5770BE" cx="110.4" cy="16.9" rx="8" ry="16.9"/><path stroke="#5770BE" stroke-width="3" stroke-linecap="square" d="M108 17H1"/></g><g transform="scale(-1 1) rotate(-68 41 285)"><ellipse fill="#5770BE" cx="110.4" cy="16.9" rx="8" ry="16.9"/><path stroke="#5770BE" stroke-width="3" stroke-linecap="square" d="M108 17H1"/></g><g transform="scale(1 -1) rotate(23 707 456)"><ellipse fill="#5770BE" cx="110.4" cy="16.9" rx="8" ry="16.9"/><path stroke="#5770BE" stroke-width="3" stroke-linecap="square" d="M108 17H1"/></g><g transform="scale(-1 1) rotate(23 -621 -441)"><ellipse fill="#5770BE" cx="110.4" cy="16.9" rx="8" ry="16.9"/><path stroke="#5770BE" stroke-width="3" stroke-linecap="square" d="M108 17H1"/></g></g></g></g></g></svg>