<svg data-name="Layer 1" xmlns="http://www.w3.org/2000/svg" viewBox="0 0 844.7 595.3">
  <circle cx="431.4" cy="548" r="46" fill="#6c63ff"/>
  <path d="M706.2 591.4c25.7-7.7 53-15.8 73.5-34.1 18.2-16.5 30.6-41.5 23-66.2-7.5-24.5-30.1-41-53.4-49-13.3-4.7-27.1-7.2-41-9.3-15-2.2-30-4-45.2-5.7q-91.6-10.5-184-12.8a2296 2296 0 00-91.2-.3c-27.1.4-55.7.4-80.9-11.1-19.5-9-37.3-25.3-42.8-46.8-6.3-24.7 5.4-50 22-67.9a178 178 0 0129.7-24.7c11.4-8 23.3-15.3 35.5-22.2A494.6 494.6 0 01426 207c12.8-4.7 25.7-8.7 38.8-12.4 11-3 22-6.2 32.7-10.4 20.6-8.2 40.1-22.1 45.4-45 5-21.5-3.4-45-18-61-17-18.5-42.6-26.7-67.1-28-27.6-1.5-54.5 5.4-80.3 14.2-27.6 9.3-54.6 20-82.8 27.6a557 557 0 01-85.2 15.8c-14.1 1.5-28.6 3.2-42.8 2A51.7 51.7 0 01134.4 97 32 32 0 01124 69.2c.2-1.9 3.1-1 2.8.8-1.8 12.8 6.8 24.5 17.5 30.6 12.4 7 27.4 7 41.2 6.1A537.8 537.8 0 00274 94a711.3 711.3 0 0083.7-25.8c26.1-9.5 52.9-18.7 80.8-20.8 24.3-1.8 49.8 1.8 70.9 14.4a78.4 78.4 0 0136.6 51 59.1 59.1 0 01-17.4 56.4c-16.4 15-38.7 21.5-59.6 27.4a545.6 545.6 0 00-77.4 27.7 485.8 485.8 0 00-72.8 41c-22.2 15.1-44.2 34.3-51.2 61.4a56.6 56.6 0 002.8 38 69.4 69.4 0 0022.2 26.4c22.4 16.4 50.5 19.8 77.5 20 30.2.5 60.5-.6 90.8 0q92.6 1.5 184.8 11.2 23.1 2.5 46.2 5.4c13.8 1.8 27.7 3.6 41.3 6.7 24.1 5.6 47.6 16.4 62.7 36.9a61.3 61.3 0 0111.9 30.4c1 11.6-1.8 23.1-7 33.4-11.5 22.6-33.1 37-56 46.6-12.3 5-25 8.9-37.8 12.7-1.9.6-2.6-2.3-.8-2.9z" fill="#f2f2f2"/>
  <circle cx="125.9" cy="69.5" r="24" fill="#f2f2f2"/>
  <circle cx="292.4" cy="115" r="24" fill="#f2f2f2"/>
  <circle cx="433.4" cy="24" r="24" fill="#f2f2f2"/>
  <circle cx="521.4" cy="126" r="24" fill="#f2f2f2"/>
  <circle cx="402.4" cy="244" r="24" fill="#f2f2f2"/>
  <circle cx="251.4" cy="301" r="24" fill="#f2f2f2"/>
  <circle cx="411.4" cy="390" r="24" fill="#f2f2f2"/>
  <circle cx="583.4" cy="440" r="24" fill="#f2f2f2"/>
  <circle cx="784.4" cy="429" r="24" fill="#f2f2f2"/>
  <path d="M426.5 68c-72 .5-130.8 59-131.8 130.8v11.5a33.7 33.7 0 0033.7 33.7 33.8 33.8 0 0033.8-33.8V203a64 64 0 1198.5 53.9s-48 31-62.7 73.3a94 94 0 00-3.8 26.8c0 3.7.2 36.3.6 62.8a34.8 34.8 0 0034.8 34.2 34.8 34.8 0 0034.8-35l-.2-54.5c0-26 25.1-52 45.7-69 23.8-19.4 41-46 47.8-76a86.8 86.8 0 002.5-18.8A132.8 132.8 0 00426.5 68z" fill="#6c63ff"/>
  <path d="M843.5 595.3H1.2a1.2 1.2 0 010-2.4h842.3a1.2 1.2 0 010 2.4z" fill="#3f3d56"/>
  <circle cx="628.4" cy="243" r="30" fill="#2f2e41"/>
  <path fill="#a0616a" d="M573 582.1h-12.2l-5.9-47.3H573v47.3z"/>
  <path d="M552 578.6h23.6v15h-38.5a14.9 14.9 0 0114.9-15z" fill="#2f2e41"/>
  <path fill="#a0616a" d="M668 582.1h-12.2l-5.9-47.3H668v47.3z"/>
  <path d="M647 578.6h23.6v15h-38.5a14.9 14.9 0 0114.9-15z" fill="#2f2e41"/>
  <circle cx="623.9" cy="248.6" r="24.6" fill="#a0616a"/>
  <path d="M638.5 352.4l11-25.2a31.4 31.4 0 00-7-35.6 31.9 31.9 0 00-3-2.7 31 31 0 00-19-6.6 32.2 32.2 0 00-13.4 3l-1 .5-2 1a31.7 31.7 0 00-15.8 24l-4.8 40.6c-1.3 3.2-44.8 118.4-29.6 206.3a4.5 4.5 0 003.9 3.7l15.4 2a4.5 4.5 0 005-3.4l25.9-123.5a3.5 3.5 0 016.8-.2l36.6 129.8a4.5 4.5 0 004.3 3.3 5.1 5.1 0 00.8-.1l18.9-3.6a4.5 4.5 0 003.6-4.8c-2.7-31-17.5-185.7-36.6-208.5z" fill="#2f2e41"/>
  <path d="M528.4 269a10 10 0 0010.6 11.3l13.8 33 10.3-15.4-14.6-29a10.1 10.1 0 00-20 .1zM622.5 385.6a10 10 0 008.5-12.9l28.8-21-17.4-6.5-24.7 21a10.1 10.1 0 004.8 19.4z" fill="#a0616a"/>
  <path d="M575.4 335.2a17 17 0 01-3.3-.3 16.3 16.3 0 01-12-9.6L541 301.8a4.5 4.5 0 011-6.6l13.8-8.5a4.5 4.5 0 016.2 1.5l13.5 22.3 26-19.2a9.7 9.7 0 0111.3 15.6l-26 23.6a16.3 16.3 0 01-11.4 4.7zM645.6 370.5h-.1a4.5 4.5 0 01-3.3-1.6L630 354.7a4.5 4.5 0 011-6.6l22.7-15.2-20.6-24.8a9.7 9.7 0 0114.9-12.2l25 24.5a16.5 16.5 0 01-3.6 27L648.9 369a4.5 4.5 0 01-3.3 1.4z" fill="#2f2e41"/>
  <path d="M617.6 318.2a4.6 4.6 0 01-.5 0 4.5 4.5 0 01-3.7-3l-9.2-28.1a3 3 0 011.6-3.7l.3-.2.8-.4a32.6 32.6 0 0113.6-3 31.3 31.3 0 0117.2 5.2 3.1 3.1 0 01.9 4.3L621.4 316a4.5 4.5 0 01-3.8 2.1z" fill="#e6e6e6"/>
  <circle cx="652.1" cy="219.8" r="9.8" fill="#2f2e41"/>
  <path d="M618.4 209a26 26 0 00-26 26v11H606l6.4-11 2 11h41l-11-11a26 26 0 00-26-26zM657.1 213a15.2 15.2 0 0116.5-10.3c6.3 1 11.2 6 14.2 11.7s4.3 11.9 6.3 17.9 4.8 12 9.8 16 12.6 5 17.5 1a20.1 20.1 0 01-37.4 7.1c-2.6-4.6-3.3-10-4-15.3s-1.8-10.6-5-14.9-8.8-7-13.7-5.1z" fill="#2f2e41"/>
  <path d="M338 228a33.7 33.7 0 01-33.8-33.7v-11.4a131.5 131.5 0 0115.4-60 131.8 131.8 0 00-25.4 76v11.4a33.7 33.7 0 0033.7 33.7 33.8 33.8 0 0032.5-24.6A33.6 33.6 0 01338 228zM428.8 139.1a64 64 0 0155.6 89.4 64 64 0 10-107.4-67 63.9 63.9 0 0151.8-22.4zM439.1 438a34.8 34.8 0 01-34.8-34.2c-.4-26.4-.6-59-.6-62.8a94 94 0 013.9-26.7 95 95 0 015.5-12.7 110 110 0 00-15.5 28.7 94 94 0 00-3.9 26.7c0 3.8.2 36.4.6 62.8a34.8 34.8 0 0034.8 34.2 34.8 34.8 0 0033.4-25 34.7 34.7 0 01-23.4 9z" fill="#3f3d56"/>
  <path fill="#ffb8b8" d="M126.5 582.6h12.3l5.8-47.3h-18v47.3z"/>
  <path d="M162.4 594H124v-15h23.7a14.9 14.9 0 0114.8 15z" fill="#2f2e41"/>
  <path fill="#ffb8b8" d="M82.5 582.6h12.3l5.8-47.3h-18v47.3z"/>
  <path d="M118.4 594H80v-15h23.7a14.9 14.9 0 0114.8 15zM93.3 568l-12-.6a4.7 4.7 0 01-4.4-5L91.2 404l65.9 17.8 6.3-1.8-19.8 140.3a4.7 4.7 0 01-4.4 4l-12.9.6a4.7 4.7 0 01-5-4.8l2.4-84.2a1.6 1.6 0 00-3-.4L98 564.3a4.6 4.6 0 01-4.6 3.7h-.2z" fill="#2f2e41"/>
  <circle cx="128.7" cy="249.8" r="24.6" fill="#ffb8b8"/>
  <path d="M87.8 322l2.8 58.2 1 21.2a4.6 4.6 0 003 4.2l63.3 22.9a4.5 4.5 0 001.6.3 4.6 4.6 0 004.7-4.8l-2.6-104.8a37 37 0 00-30.7-35.6l-1.9-.3a36.2 36.2 0 00-29.2 9.4 37.2 37.2 0 00-12 29.2z" fill="#ccc"/>
  <path d="M188.2 416.9a10 10 0 01-5.4-15.3l-21.5-28.5 18.6-1.2 17.5 27.3a10.1 10.1 0 01-9.2 17.7z" fill="#ffb8b8"/>
  <path d="M173 396.5a4.6 4.6 0 01-2.5-2.5l-32.3-77.1a12.5 12.5 0 1123-9.7l32.3 77.1a4.7 4.7 0 01-2.5 6.1l-14.3 6a4.6 4.6 0 01-3.6 0z" fill="#ccc"/>
  <path d="M120.8 393.8l31.1-59.5a4.9 4.9 0 016.6-2.1l45.1 23.5a4.9 4.9 0 012 6.6l-31 59.5a4.9 4.9 0 01-6.6 2.1l-45-23.6a4.9 4.9 0 01-2.2-6.5z" fill="#3f3d56"/>
  <path d="M141.7 366.6a10 10 0 00-15.5-4.5l-29.8-19.7v18.5l28.2 16a10.1 10.1 0 0017-10.3z" fill="#ffb8b8"/>
  <path d="M104 370.7l-24.3-19.2a17.2 17.2 0 01-7.8-27.2l22-29a10.1 10.1 0 0117.2 10.4l-17.5 28.6 25.7 12.1a4.7 4.7 0 012 6.8l-10.4 16.4a4.7 4.7 0 01-3.2 2v.1a4.7 4.7 0 01-3.7-1z" fill="#ccc"/>
  <path d="M110.2 266.2a2.1 2.1 0 011.8-2.8 5 5 0 013.5 1.7 13.8 13.8 0 003 2.6c1.3.6 2.9.6 3.6-.6.6-1 .2-2.5-.2-3.7a37 37 0 01-1.7-9.8c0-3.7.5-7.6 2.5-10.5 2.7-3.7 7.4-5.1 11.9-5s8.8 1.5 13.3 2.4c1.5.3 3.3.4 4.3-.8 1.1-1.2.7-3.3.2-5-1.2-4.4-2.4-9-5.2-12.5a18.9 18.9 0 00-12-6.8 29 29 0 00-13.6 1.5 36.1 36.1 0 00-17.6 12.3 29.2 29.2 0 00-5.6 21.6 26.7 26.7 0 009.9 16.9z" fill="#2f2e41"/>
  <path d="M421.3 582.8a46 46 0 01-17.1-71.5 46 46 0 1062.6 66.5 46 46 0 01-45.5 5z" fill="#3f3d56"/>
</svg>
