<?xml version="1.0" encoding="UTF-8"?>
<svg width="1000px" height="800px" viewBox="0 0 1000 800" version="1.1" xmlns="http://www.w3.org/2000/svg" xmlns:xlink="http://www.w3.org/1999/xlink">
    <title>depistage</title>
    <g id="depistage" stroke="none" stroke-width="1" fill="none" fill-rule="evenodd">
        <g id="undraw_Questions_re_1fy7(1)" transform="translate(86.000000, 102.000000)" fill-rule="nonzero">
            <circle id="Oval" fill="#5770BE" cx="431.39281" cy="548" r="46"></circle>
            <path d="M706.19945,591.41565 C731.93395,583.68697 759.29326,575.62779 779.70258,557.25465 C797.94021,540.83652 810.25282,515.76553 802.69733,491.14315 C795.15733,466.57128 772.57312,450.18686 749.25568,442.03783 C736.03068,437.41595 722.19481,434.85175 708.36421,432.83746 C693.32936,430.64779 678.22806,428.85373 663.13395,427.12734 C602.01579,420.13692 540.667837,415.866587 479.09009,414.31634 C448.70553,413.55109 418.32651,413.56952 387.93766,414.01064 C360.79829,414.40464 332.21551,414.39481 307.03866,402.86013 C287.4602,393.89034 269.69066,377.57132 264.23536,356.12661 C257.93808,331.37194 269.55336,306.16279 286.21529,288.23461 C294.99794,278.7845 305.2626,270.83076 315.8515,263.51718 C327.3389,255.58302 339.22689,248.21075 351.37234,241.32905 C375.293423,227.781817 400.302263,216.252391 426.13904,206.86055 C438.88459,202.2261 451.81951,198.22774 464.86663,194.53912 C475.88363,191.42443 486.93495,188.3053 497.58251,184.06164 C518.166,175.85793 537.74351,161.96179 542.97715,139.18022 C547.93739,117.58877 539.5741,94.14955 524.91215,78.10965 C507.94933,59.55265 482.37266,51.41784 457.85208,50.10165 C430.32366,48.624 403.42962,55.51365 377.5553,64.2575 C349.95857,73.5835 322.95676,84.30674 294.77703,91.86072 C266.832828,99.3441296 238.348056,104.639001 209.58129,107.69727 C195.49902,109.19678 180.9911,110.89 166.82503,109.74202 C154.95257,108.77991 143.14077,105.28827 134.39095,96.86238 C126.88843,89.63761 122.41911,79.70838 123.95565,69.23 C124.23474,67.32682 127.12587,68.13593 126.84849,70.02752 C124.97809,82.78265 133.6484,94.53615 144.33264,100.55682 C156.68081,107.51514 171.70672,107.52462 185.45444,106.72882 C215.263355,104.928438 244.870533,100.648441 273.96896,93.93321 C302.56148,87.40262 330.13278,78.06688 357.67287,68.09413 C383.82881,58.6226 410.56952,49.37834 438.51296,47.32684 C462.75907,45.54677 488.26461,49.07906 509.38722,61.74997 C527.95109,72.88597 541.60204,91.45719 545.95173,112.7681 C550.20217,133.59272 544.31541,154.5531 528.55173,169.08524 C512.23026,184.13157 489.85103,190.56433 468.99518,196.48892 C442.54295,204.00329 416.65792,212.78701 391.6027,224.19202 C366.20618,235.719743 341.849506,249.41301 318.8026,265.12007 C296.55635,280.32235 274.6019,299.45065 267.56602,326.57133 C264.28863,339.20446 264.89375,352.60345 270.37762,364.53594 C275.25367,375.14587 283.28418,384.07063 292.63931,390.95447 C314.96005,407.3789 343.09197,410.75112 370.05352,411.08659 C400.33495,411.46337 430.61734,410.44141 460.9086,410.93859 C522.641133,411.95177 584.247343,415.70932 645.72723,422.21124 C661.132563,423.841867 676.518427,425.644237 691.88482,427.61835 C705.7064,429.39435 719.57449,431.15893 733.16331,434.31299 C757.32553,439.92121 780.8372,450.70466 795.85509,471.19099 C802.520428,480.070841 806.649679,490.593812 807.80218,501.63692 C808.85352,513.16076 806.03233,524.70622 800.82202,534.95775 C789.28969,557.64817 767.68839,572.08061 744.74865,581.56246 C732.46182,586.64106 719.71698,590.48846 706.99705,594.30855 C705.14405,594.86506 704.35218,591.97055 706.19953,591.41572 L706.19945,591.41565 Z" id="Path" fill="#F2F2F2"></path>
            <circle id="Oval" fill="#F2F2F2" cx="125.89281" cy="69.5" r="24"></circle>
            <circle id="Oval" fill="#F2F2F2" cx="292.39281" cy="115" r="24"></circle>
            <circle id="Oval" fill="#F2F2F2" cx="433.39281" cy="24" r="24"></circle>
            <circle id="Oval" fill="#F2F2F2" cx="521.39281" cy="126" r="24"></circle>
            <circle id="Oval" fill="#F2F2F2" cx="402.39281" cy="244" r="24"></circle>
            <circle id="Oval" fill="#F2F2F2" cx="251.39281" cy="301" r="24"></circle>
            <circle id="Oval" fill="#F2F2F2" cx="411.39281" cy="390" r="24"></circle>
            <circle id="Oval" fill="#F2F2F2" cx="583.39281" cy="440" r="24"></circle>
            <circle id="Oval" fill="#F2F2F2" cx="784.39281" cy="429" r="24"></circle>
            <path d="M426.46532,67.9999513 C354.57347,68.51124 295.70921,126.93329 294.68797,198.81977 C294.67851,199.48346 294.674681,204.15025 294.674681,210.25399 C294.674681,228.890152 309.782438,243.997831 328.4186,243.99999 L328.41867,243.99999 C337.378424,243.998027 345.970111,240.435404 352.302179,234.096469 C358.634248,227.757533 362.187558,219.161991 362.17981,210.20224 C362.17638,206.05013 362.1743,203.1764 362.1743,202.99997 C362.167919,172.309987 383.947939,145.935584 414.08543,140.138453 C444.222921,134.341321 474.23321,150.753541 485.612822,179.255814 C496.992435,207.758086 486.537644,240.326103 460.69457,256.87937 L460.70628,256.89359 C460.70628,256.89359 412.67796,287.81315 398.03539,330.22904 L398.04784,330.23204 C395.47309,338.921318 394.168409,347.937262 394.1743,356.99998 C394.1743,360.72536 394.39346,393.32136 394.81691,419.77765 C395.124971,438.770422 410.61173,454.004444 429.607,453.999981 L429.60707,453.999981 C438.872483,453.999981 447.755123,450.303928 454.286383,443.731978 C460.817642,437.160028 464.458088,428.254606 464.40091,418.98937 C464.25385,394.76025 464.1743,366.54769 464.1743,364.49998 C464.1743,338.45525 489.29955,312.50523 509.93797,295.58257 C533.70384,276.09563 550.80589,249.53966 557.67503,219.58348 C559.195023,213.416062 560.033136,207.100374 560.1743,200.74998 C560.1743,165.376302 546.056218,131.465559 520.953068,106.543099 C495.849919,81.6206388 461.838075,67.7478821 426.46532,67.9999513 Z" id="Path" fill="#5770BE"></path>
            <path d="M843.48469,595.26156 L1.19069,595.26156 C0.534439981,595.259658 0.00345063401,594.727128 0.00345063401,594.070875 C0.00345063401,593.414622 0.534439981,592.882092 1.19069,592.88019 L843.48469,592.88019 C844.142287,592.88019 844.675375,593.413278 844.675375,594.070875 C844.675375,594.728472 844.142287,595.26156 843.48469,595.26156 L843.48469,595.26156 Z" id="Path" fill="#3F3D56"></path>
            <circle id="Oval" fill="#2F2E41" cx="628.44885" cy="242.9959" r="30"></circle>
            <polygon id="Path" fill="#A0616A" points="573.012 582.129 560.753 582.129 554.92 534.841 573.015 534.841"></polygon>
            <path d="M551.99554,578.62562 L575.63941,578.62562 L575.63941,593.51249 L537.10868,593.51249 L537.10868,593.51249 C537.10868,589.564248 538.677109,585.777714 541.468937,582.985884 C544.260765,580.194054 548.047298,578.62562 551.99554,578.62562 Z" id="Path" fill="#2F2E41"></path>
            <polygon id="Path" fill="#A0616A" points="668.012 582.129 655.753 582.129 649.92 534.841 668.015 534.841"></polygon>
            <path d="M646.99554,578.62562 L670.63941,578.62562 L670.63941,593.51249 L632.10868,593.51249 L632.10868,593.51249 C632.10868,589.564248 633.677109,585.777714 636.468937,582.985884 C639.260765,580.194054 643.047298,578.62562 646.99554,578.62562 Z" id="Path" fill="#2F2E41"></path>
            <circle id="Oval" fill="#A0616A" cx="623.88979" cy="248.61007" r="24.56103"></circle>
            <path d="M638.52892,352.40588 L649.51867,327.15588 C654.988826,315.016489 652.203118,300.746659 642.56896,291.55588 C641.603434,290.601397 640.577908,289.70958 639.49865,288.88588 C634.076165,284.6438 627.393545,282.331773 620.5089,282.31588 C615.879919,282.333849 611.309302,283.350307 607.109,285.29588 C606.74865,285.45588 606.399,285.62588 606.03869,285.79588 C605.34875,286.12588 604.66906,286.48588 604.0089,286.85588 C595.278236,291.868855 589.450196,300.733309 588.30871,310.73588 L583.45861,351.37588 C582.23888,354.56588 538.71886,469.76588 553.93908,557.71588 C554.271391,559.643651 555.819382,561.130927 557.7589,561.38588 L573.18908,563.48588 C575.526446,563.805571 577.713474,562.264538 578.19884,559.95588 L604.08898,436.54588 C604.420945,434.967917 605.78716,433.82037 607.398742,433.765859 C609.010324,433.711348 610.450959,434.763955 610.88879,436.31588 L647.46886,566.09588 C648.004592,568.033971 649.768148,569.37588 651.77892,569.37588 C652.070709,569.37588 652.361808,569.347284 652.64904,569.29588 L671.49865,565.66588 C673.769834,565.241442 675.343526,563.156405 675.12902,560.85588 C672.359,529.96588 657.63879,375.2359 638.52892,352.40588 Z" id="Path" fill="#2F2E41"></path>
            <path d="M528.43935,269.04987 C528.094292,272.005757 529.076237,274.962664 531.120961,277.12494 C533.165685,279.287216 536.063147,280.432743 539.03369,280.25328 L552.76263,313.24564 L563.14763,297.85134 L548.51826,268.88134 C547.87185,263.799433 543.526621,260.004163 538.403949,260.046795 C533.281276,260.090151 529.000361,263.957819 528.43934,269.04986 L528.43935,269.04987 Z" id="Path" fill="#A0616A"></path>
            <path d="M622.52794,385.62631 C625.48286,385.27313 628.129575,383.629242 629.755903,381.136984 C631.382231,378.644726 631.821111,375.560111 630.95445,372.71315 L659.83978,351.67469 L642.44942,345.16245 L617.68555,366.13932 C612.894151,367.952065 610.215822,373.062007 611.451243,378.033655 C612.686665,383.005302 617.44534,386.267198 622.52794,385.62632 L622.52794,385.62631 Z" id="Path" fill="#A0616A"></path>
            <path d="M575.43957,335.241021 C574.332174,335.23995 573.227514,335.13104 572.14123,334.91583 C566.80571,333.90033 562.326096,330.294816 560.19372,325.29962 L540.95934,301.84649 C540.136696,300.843313 539.786949,299.533946 539.999793,298.254178 C540.212637,296.974411 540.967366,295.848734 542.07043,295.16583 L555.75475,286.69513 C556.775209,286.063297 558.005789,285.865295 559.172939,286.145138 C560.340088,286.424982 561.347085,287.159481 561.97008,288.18536 L575.52648,310.51936 L601.48791,291.33278 C605.760589,289.092577 611.029782,290.32471 613.866058,294.227252 C616.702335,298.129794 616.247547,303.521984 612.79769,306.89434 L586.88583,330.53106 C583.840971,333.549298 579.726868,335.242188 575.43957,335.241021 Z" id="Path" fill="#2F2E41"></path>
            <path d="M645.58969,370.51348 C645.55454,370.51348 645.51914,370.51348 645.48398,370.51248 C644.207823,370.481432 643.004664,369.910773 642.17319,368.94217 L630.00693,354.74881 C629.168733,353.771067 628.78964,352.48104 628.965612,351.20527 C629.141583,349.929499 629.855751,348.79027 630.92734,348.07595 L653.70883,332.88845 L633.07041,308.07595 C630.588764,303.938844 631.516723,298.60763 635.250286,295.552352 C638.983848,292.497074 644.393273,292.64223 647.95761,295.89334 L673.04111,320.40603 C677.048481,324.066848 679.002586,329.462184 678.268911,334.840133 C677.535236,340.218082 674.207341,344.892833 669.36582,347.34646 L648.8646,369.10037 C648.013694,370.001656 646.829189,370.51348 645.58969,370.51348 L645.58969,370.51348 Z" id="Path" fill="#2F2E41"></path>
            <path d="M617.64476,318.214367 C617.449506,318.214367 617.25445,318.201916 617.06076,318.17725 C615.330669,317.966906 613.881487,316.768313 613.35031,315.1084 L604.20797,287.07911 C603.734281,285.613703 604.414817,284.023533 605.80197,283.3545 L606.0986,283.21436 C606.3676,283.08643 606.634,282.95997 606.90597,282.83887 C611.169162,280.861777 615.809663,279.830516 620.50897,279.81587 C626.60951,279.827132 632.574022,281.619379 637.67035,284.97261 C639.091854,285.918611 639.492896,287.82933 638.57171,289.26704 L621.42162,316.13478 C620.604264,317.431567 619.177639,318.217082 617.64476,318.214367 Z" id="Path" fill="#E6E6E6"></path>
            <circle id="Oval" fill="#2F2E41" cx="652.1011" cy="219.78616" r="9.81668"></circle>
            <path d="M618.44884,208.99591 L618.44884,208.99591 C604.08946,208.99591 592.44884,220.63647 592.44884,234.99585 L592.44884,245.99591 L605.97814,245.99591 L612.44884,234.99591 L614.39025,245.99591 L655.44884,245.99591 L644.44884,234.99585 C644.448807,220.63647 632.80822,208.99591 618.44884,208.99591 L618.44884,208.99591 Z" id="Path" fill="#2F2E41"></path>
            <path d="M657.14652,213.06199 C659.387494,206.054961 666.338387,201.670555 673.62733,202.66641 C679.88333,203.71227 684.82961,208.74096 687.77677,214.35748 C690.72393,219.974 692.08483,226.26 694.06612,232.28541 C696.04741,238.31082 698.85736,244.36903 703.85918,248.26941 C708.861,252.16979 716.53639,253.22781 721.44884,249.21548 C720.297973,257.790765 713.793177,264.669817 705.295605,266.298096 C696.798034,267.926375 688.211076,263.939159 683.97178,256.39672 C681.37972,251.785 680.71057,246.37988 679.9419,241.14572 C679.17323,235.91156 678.1745,230.49592 675.07979,226.20529 C671.98508,221.91466 666.19207,219.11236 661.27605,221.0667 L657.14652,213.06199 Z" id="Path" fill="#2F2E41"></path>
            <path d="M337.94652,228.03833 L337.94652,228.03833 C319.310303,228.036198 304.203484,212.928547 304.20238,194.29233 C304.20189,188.18857 304.20628,183.52182 304.21556,182.85813 C304.499902,161.951528 309.765125,141.414048 319.57445,122.94938 C303.457995,145.012276 294.596386,171.538421 294.21556,198.85813 C294.20628,199.52182 294.202343,204.18857 294.202343,210.29233 C294.203484,228.928547 309.310303,244.036198 327.94652,244.03833 L327.94652,244.03833 C343.057612,244.032599 356.325859,233.989642 360.43431,219.44778 C354.255515,224.988566 346.24578,228.048361 337.94652,228.03833 Z" id="Path" fill="#3F3D56"></path>
            <path d="M428.75269,139.10926 C449.75448,140.112303 468.924141,151.366337 480.035588,169.216184 C491.147035,187.066031 492.782899,209.234773 484.41187,228.52226 C500.705067,209.386973 504.29,182.486448 493.576616,159.752094 C482.863231,137.01774 459.834952,122.658481 434.705697,123.043196 C409.576442,123.427911 386.998516,138.485375 376.98609,161.53703 C389.825928,146.432462 408.951627,138.146294 428.75269,139.10926 L428.75269,139.10926 Z" id="Path" fill="#3F3D56"></path>
            <path d="M439.13451,438.03833 L439.13451,438.03833 C420.13934,438.042567 404.652736,422.80865 404.34451,403.81598 C403.92117,377.35969 403.70193,344.76368 403.70193,341.03833 C403.696039,331.975612 405.00072,322.959668 407.57547,314.27039 L407.56326,314.26739 C409.083676,309.905923 410.919919,305.661057 413.0574,301.56652 C406.495751,310.310755 401.273696,319.983929 397.56326,330.26739 L397.57547,330.27039 C395.00072,338.959668 393.696039,347.975612 393.70191,357.03833 C393.70191,360.76368 393.92117,393.35969 394.34451,419.81598 C394.652736,438.80865 410.13934,454.042567 429.13451,454.038331 L429.13451,454.038331 C444.596486,454.035619 458.202739,443.832122 462.53636,428.98987 C456.139468,434.822677 447.791398,438.050506 439.13451,438.03833 L439.13451,438.03833 Z" id="Path" fill="#3F3D56"></path>
            <polygon id="Path" fill="#FFB8B8" points="126.541 582.585 138.8 582.584 144.633 535.296 126.538 535.297"></polygon>
            <path d="M123.913602,579.081442 L162.444302,579.081442 L162.444302,593.968312 L138.800432,593.968312 C130.578658,593.968312 123.913602,587.303226 123.913602,579.081442 L123.913602,579.081442 L123.913602,579.081442 Z" id="Path" fill="#2F2E41" transform="translate(143.178952, 586.524877) rotate(179.997380) translate(-143.178952, -586.524877) "></path>
            <polygon id="Path" fill="#FFB8B8" points="82.541 582.585 94.8 582.584 100.633 535.296 82.538 535.297"></polygon>
            <path d="M79.9136024,579.08144 L118.444302,579.08144 L118.444302,593.96831 L94.8004324,593.96831 C86.5786584,593.96831 79.9136024,587.303224 79.9136024,579.08144 L79.9136024,579.08144 L79.9136024,579.08144 Z" id="Path" fill="#2F2E41" transform="translate(99.178952, 586.524875) rotate(179.997380) translate(-99.178952, -586.524875) "></path>
            <path d="M93.25428,568.04146 L81.27928,567.41158 C80.0320358,567.34601 78.862929,566.783936 78.0328041,565.850764 C77.2026793,564.917592 76.7806114,563.690972 76.86077,562.44458 L91.17345,403.97864 L157.08445,421.76426 L163.43468,420.03185 L143.57637,560.31661 C143.227878,562.490492 141.415963,564.13046 139.21821,564.26119 L126.30931,564.86266 C125.004313,564.935119 123.728589,564.457874 122.791572,563.546684 C121.854556,562.635493 121.341852,561.373602 121.37782,560.06709 L123.71682,475.87068 C123.739491,475.063642 123.141948,474.372965 122.340042,474.279314 C121.538136,474.185664 120.797522,474.720066 120.63362,475.51061 L98.07669,564.32306 C97.6376049,566.495996 95.7244032,568.05595 93.50756,568.048586 C93.42369,568.048586 93.33923,568.04653 93.25428,568.04146 Z" id="Path" fill="#2F2E41"></path>
            <circle id="Oval" fill="#FFB8B8" cx="128.74202" cy="249.75879" r="24.56103"></circle>
            <path d="M87.84962,321.91771 L90.55018,380.18519 L91.52643,401.38371 C91.6060227,403.271436 92.8217726,404.922588 94.60075,405.55905 L157.93675,428.50247 C158.448378,428.692671 158.990473,428.787717 159.53629,428.783093 C160.796786,428.788995 162.005593,428.282376 162.885102,427.379408 C163.764612,426.47644 164.239245,425.25472 164.2,423.99482 L161.60339,319.22768 C161.251566,301.49598 148.344839,286.518102 130.85969,283.55052 C130.24706,283.45707 129.62377,283.36357 129.00049,283.28046 C118.361002,281.959763 107.682643,285.416535 99.83549,292.72168 C91.7094913,300.195543 87.3190587,310.890032 87.84959,321.91768 L87.84962,321.91771 Z" id="Path" fill="#CCCCCC"></path>
            <path d="M188.19221,416.8759 C185.15468,415.933308 182.741484,413.610321 181.683908,410.610887 C180.626332,407.611452 181.048856,404.288614 182.82344,401.64931 L161.34544,373.08931 L179.87968,371.94224 L197.43407,399.23917 C201.313107,402.238231 202.481331,407.58818 200.205529,411.931223 C197.929727,416.274265 192.865886,418.358544 188.19223,416.8759 L188.19221,416.8759 Z" id="Path" fill="#FFB8B8"></path>
            <path d="M173.09101,396.481 C171.941661,396.01452 171.02667,395.10766 170.54995,393.96252 L138.19169,316.86818 C136.464344,312.761628 137.060288,308.045357 139.754833,304.497552 C142.449378,300.949746 146.832715,299.109986 151.252186,299.67192 C155.671657,300.233853 159.455113,303.112016 161.17607,307.22125 L193.53427,384.31659 C194.530058,386.696593 193.411488,389.433531 191.03379,390.43481 L176.66837,396.46381 C175.526104,396.94732 174.237833,396.953528 173.09096,396.48105 L173.09101,396.481 Z" id="Path" fill="#CCCCCC"></path>
            <path d="M120.84545,393.76164 L151.92469,334.25283 C153.172611,331.869923 156.113918,330.946841 158.49963,332.18939 L203.61115,355.74949 C205.994053,356.997414 206.917131,359.938721 205.67458,362.32443 L174.59531,421.83324 C173.347386,424.216142 170.406083,425.139223 168.02037,423.89668 L122.90889,400.33658 C120.525983,399.088659 119.602901,396.147352 120.84545,393.76164 L120.84545,393.76164 Z" id="Path" fill="#3F3D56"></path>
            <path d="M141.68831,366.57356 C140.56798,363.597016 138.106555,361.325229 135.049923,360.44662 C131.993291,359.568011 128.70122,360.185994 126.17131,362.1133 L96.39286,342.35924 L96.34225,360.92887 L124.62809,376.84078 C127.850976,380.535961 133.260582,381.386233 137.461663,378.857939 C141.662745,376.329645 143.44436,371.151552 141.68831,366.5736 L141.68831,366.57356 Z" id="Path" fill="#FFB8B8"></path>
            <path d="M104.03829,370.74961 L79.70152,351.47185 C74.3572825,349.677373 70.23503,345.37287 68.6732881,339.956046 C67.1115463,334.539221 68.309472,328.700841 71.87809,324.33667 L93.97524,295.37716 C97.1493337,291.498411 102.68837,290.535402 106.985345,293.11524 C111.282321,295.695078 113.03619,301.036637 111.10484,305.66151 L93.621,334.26151 L119.315,346.44837 C120.52358,347.021542 121.428649,348.085085 121.801111,349.369789 C122.173572,350.654493 121.977723,352.037215 121.26314,353.16795 L110.89139,369.58201 C110.182347,370.702344 109.031548,371.469529 107.72468,371.69311 C107.69903,371.69759 107.67319,371.70157 107.64738,371.70541 C106.363953,371.899336 105.057504,371.553348 104.03829,370.74961 Z" id="Path" fill="#CCCCCC"></path>
            <path d="M110.18306,266.20525 C109.969487,265.580491 110.057017,264.892066 110.42014,264.340632 C110.783262,263.789198 111.381108,263.436817 112.03942,263.3862 C113.383656,263.459317 114.639537,264.078912 115.51552,265.10115 C116.404389,266.126024 117.439182,267.014572 118.58667,267.73826 C119.77479,268.33715 121.3862,268.2518 122.06352,267.11002 C122.69957,266.03781 122.26375,264.60202 121.8787,263.35655 C120.898872,260.187913 120.350633,256.901659 120.24879,253.58655 C120.13787,249.88623 120.65994,246.02455 122.70851,243.13848 C125.35238,239.41373 130.07993,237.99965 134.55395,238.10218 C139.02797,238.20471 143.42942,239.5858 147.86108,240.45883 C149.391,240.76022 151.18934,240.91433 152.21261,239.72858 C153.30066,238.46776 152.90105,236.42718 152.43824,234.72482 C151.2373,230.30739 149.96324,225.74021 147.17299,222.17258 C144.15602,218.465479 139.846453,216.039227 135.11218,215.38244 C130.567008,214.819421 125.953105,215.343236 121.64982,216.91082 C114.638683,219.120634 108.469377,223.418426 103.96697,229.22942 C99.325666,235.409168 97.3201243,243.175281 98.38888,250.82961 C99.4330009,257.496223 102.965634,263.51913 108.27467,267.68423 L110.18306,266.20525 Z" id="Path" fill="#2F2E41"></path>
            <path d="M421.25812,582.78 C408.010022,577.009972 398.243784,565.349325 394.887694,551.294362 C391.531603,537.239399 394.975877,522.424303 404.18779,511.2912 C389.807352,521.790836 382.778418,539.646948 386.142968,557.131774 C389.507518,574.6166 402.661122,588.589051 419.911167,593.002132 C437.161212,597.415214 455.408786,591.476132 466.75671,577.7552 C453.562048,587.399026 436.239232,589.312133 421.25812,582.78 L421.25812,582.78 Z" id="Path" fill="#3F3D56"></path>
        </g>
    </g>
</svg>