<svg xmlns="http://www.w3.org/2000/svg" viewBox="0 0 1000 800">
  <g transform="translate(1 14)" fill-rule="nonzero" fill="none">
    <path d="M443.4 175.7a368 368 0 01-120.7-20.2c-52-18-94.7-42.9-126.7-73.8C135.4 23 85.7 14.3 54.6 17.2A99.4 99.4 0 001.3 37.7L0 36.2c.2-.2 20.1-17.7 54.3-21 20-1.9 41 1.4 62.3 9.9 26.6 10.5 53.8 29 80.8 55.1 31.8 30.8 74.2 55.5 126 73.4 95 32.8 202.1 24.9 293.9-21.9 30.3-15.4 60.4-26 89.2-31.4 36.3-6.7 70.8-5.1 102.5 4.7 69.5 21.6 117 20.5 144.6 15.7 29.8-5.1 43.3-15.4 43.5-15.5l1.2 1.5c-.6.5-14 10.8-44.3 16-27.9 4.8-75.7 6-145.6-15.8-70.8-22-142.5 2.3-190.2 26.6a383.9 383.9 0 01-174.8 42.2z" fill="#3F3D56"/>
    <circle fill="#5770BE" cx="439.4" cy="180.3" r="20.3"/>
    <circle fill="#5770BE" cx="753.4" cy="99.3" r="20.3"/>
    <circle fill="#5770BE" cx="100.4" cy="20.3" r="20.3"/>
    <path d="M584.7 484.5v195.8h30.8V501.7h123.2v178.6h30.8V288.7h-30.8c-10.2 0-25.9 53-25.9 106.5 0 40.2 4.7 74.7 11.4 89.3H584.7zm154 0h-.3l.3-.7v.7z" fill="#3F3D56"/>
    <path d="M698.8 191.7c-25.2 0-45.7 22.8-45.7 50.8v35.7h11l6.3-13.3-1.6 13.3h70.4l5.8-12-1.4 12h8v-28c0-32.3-23.7-58.5-52.8-58.5zM646.4 424.6l-28 11.9-97.7 79.4a28.7 28.7 0 00-6.3 15.4c-.8 9.2-30.3 57-19.7 63.2 10.5 6.4 48.5 25.3 50.6 12.7 2-12.7 13.3-66.7 13.3-66.7l94.1-84.3-6.3-31.6z" fill="#2F2E41"/>
    <path d="M536.1 596.7l-12 35s12.7 13.4 6.4 24.7V695h-9.8l-2.8-20.4S506.7 694.7 501 695c-11.9.5-35.3 4.8-36-1.6-.7-6.3 17.7-12.5 17.7-12.5l19.7-54 8.4-33 25.3 2.8zM719.5 415.4s6.3 61.8-12 73c-18.2 11.3-99 47.1-99 47.1s34.4 32.4 27.4 40c-7 7.8-38.7 28.9-42.9 24.7-4.2-4.2-51.3-54.8-45.6-71 5.6-16.1 83.6-68.8 83.6-68.8l9-33 2.9-26.7 29.5-19 47 33.7z" fill="#2F2E41"/>
    <circle fill="#FFB9B9" cx="687.3" cy="242.2" r="29.3"/>
    <path d="M710 254.2s-1.4 26.7 20.4 35.1c21.7 8.5-54.1 63.3-54.1 63.3v-61.2s9.8-10.5 0-26.7l33.7-10.5zM756.7 379.6L751 407 734.2 501s14 40-4.9 39.4c-19-.7-9.8-43.6-9.8-43.6l9.8-78v-30.2l27.4-9.1zM635.9 366.3l-6.3 24.5-28.8 69.6s-19.7 33-3.6 32.3c16.2-.7 16.2-32.3 16.2-32.3l33-56.2v-31.6l-10.5-6.3z" fill="#FFB9B9"/>
    <path d="M631 571.4L654 593s16.2-3.5 22.5 15.5c6.3 19 10.6 30.9 10.6 30.9l-8.5 5-10.5-14.8s-6.3 26.7-12.7 28.8c-6.3 2-37.9 16.1-35 0l15.4-22.5s2-25.3-4.2-27.4c-6.4-2.1-23.2-23.2-23.2-23.2l22.5-14z" fill="#2F2E41"/>
    <path d="M720.6 437.2s-66-23.9-70.3-21.8a31.7 31.7 0 01-9.9 2.6l.1-9.6s21.8-7.7 33.7-2.8c12 5 48.5 26.7 48.5 26.7l-2.1 4.9z" fill="#3F3D56"/>
    <path d="M680.5 338.5s19-21.8 24.6-35.1c3.5-8.1 10-14.5 18.2-18 0 0 42.2 9.6 41.5 26.4-.7 16.9-26.7 42.9-26.7 42.9s3.5 93.4-15.5 92c-4-4.9-7-10.7-8.4-16.9-2.1-9.8-67.4-20.3-67.4-20.3s-5.7 9.8-6.4 5.6a4186 4186 0 015.7-107.5l33.5-22.1.9 53z" fill="#D0CDE1"/>
    <path d="M759.4 305l.4.3c3 1.7 5 5 5 8.4V366c0 2.8 1.3 5.6 3.4 7.4 2.8 2.3 5.3 5.6 0 7.4-8.3 2.8-41.4 16.8-42 11.9-.8-5-2.2-10.5 0-10.5 1.6 0 11.4-50.4 19.3-72a9.7 9.7 0 0113.9-5zM655.5 305.1l-9.8 2.8-11.2 48.5s-13.4 2.8-9.2 7.7c4.3 5 21.8 17.6 21.8 17.6l8.4-76.6z" fill="#D0CDE1"/>
    <path d="M711.9 205.7a24 24 0 00-19-9.6h-.9c-17.3 0-31.3 15.6-31.3 35h5.8l.9-7.2 1.4 7.2h34.4l2.9-6-.7 6h6.7c3.2 15.7-1.3 31.4-13.6 47H710l5.8-12-1.4 12h22l4.3-27.7a47 47 0 00-28.8-44.7z" fill="#2F2E41"/>
    <path d="M123.5 529.7c7.4-16 12.6-54.2 12.6-98.7 0-59-17.3-117.8-28.6-117.8h-34v433h34V548.8h136.2v197.4h34V529.7H123.5zm-16-.7l.4.7h-.4v-.7z" fill="#3F3D56"/>
    <path d="M265.4 450.7s41 17 28 27-40-12-39-15-4-10-4-10l15-2z" fill="#9F616A"/>
    <path d="M229.4 316.7l13 12 3 35 10 37s17 35 14 42 3 9 3 9l-23 9s-25-28-25-34 5-110 5-110z" fill="#575A88"/>
    <path d="M229.4 316.7l13 12 3 35 10 37s17 35 14 42 3 9 3 9l-23 9s-25-28-25-34 5-110 5-110z" fill="#000" opacity=".1"/>
    <path d="M352.4 676.7s-5 23-6 25 19 9 19 9l24-17s-10-22-10-26l-27 9z" fill="#575A88"/>
    <path d="M221.4 452.7l7 8s145 18 148 46 24 160 12 164-43 19-43 11-20-118-16-138c0 0-173-22-177-47s4-36 4-36l65-8z" fill="#2F2E41"/>
    <path d="M221.4 452.7l7 8s145 18 148 46 24 160 12 164-43 19-43 11-20-118-16-138c0 0-173-22-177-47s4-36 4-36l65-8z" fill="#000" opacity=".1"/>
    <path d="M350.4 699.7s-4-9-6-6-9 38-2 38 71 16 80 14 26 1 24-9-12-11-12-11-37-22-39-33-13-5-13-5v7s-21 16-32 5z" fill="#2F2E41"/>
    <path d="M160.4 240.7s7 34-8 37 19 23 19 23l22 12 16-16s-14.5-29.5-3.5-51.5-45.5-4.5-45.5-4.5z" fill="#9F616A"/>
    <path d="M209.4 296.7l-16 16-22-12s-34-20-19-23c9.7-1.9 10.2-16.7 9.4-27a93 93 0 00-1.4-10s56.5-17.5 45.5 4.5c-1.6 3.4-2.8 7-3.4 10.8a77.2 77.2 0 007 40.7z" fill="#9F616A"/>
    <path fill="#575A88" d="M265.4 705.7v23h38l3-9-4-24z"/>
    <path d="M108.4 472.7s0 59 24 61 110 13 110 13 5 98 14 130 1 34 9 36 42-5 41-12-5-184-5-184 9-38-111-56l-82 12z" fill="#2F2E41"/>
    <path d="M268.4 721.7s-6-13-7-9-13 39-1 42 50 19 75 18 28-2 28-2 7-10-2-16-46-41-48-45-17-7-17 0-21 21-28 12z" fill="#2F2E41"/>
    <path d="M206 245.2c-1.7 3.4-2.9 7-3.5 10.8-5 3-8.3 2.2-14.6 2.2-9.2 0-13-11.8-19-18-.4-5.7-8.5.5-8.5.5s56.5-17.5 45.5 4.5z" fill="#000" opacity=".1"/>
    <circle fill="#9F616A" cx="185.4" cy="224.7" r="33"/>
    <path d="M242.4 328.7s-5 36-8 49-7 73-9 81-14 10-38 7l-4.5-.3c-14.8-.5-31.7 5-47.3 9.4a119 119 0 01-25.2 5c-11.4.4-14.7-12.2-14.3-25.9.4-12.7 4-26.4 7.3-31.2 6.1-8.7.1-86.6 2.4-112.3.3-4 .8-6.6 1.6-7.7 6-8 45-28 49.4-27.2 4.4.8 41.6 24.2 41.6 24.2 9 0 8.7-9.7 8.7-9.7s6.3 11.7 18.3 14.7 17 24 17 24z" fill="#575A88"/>
    <path d="M175.6 458.4s64.4 2 53.1 9.7c-11.3 7.6-61.3 14.6-62.3 4.6s9.2-14.3 9.2-14.3z" fill="#9F616A"/>
    <path d="M182.9 465.4c.2 3.8-10.1 12.5-13.5 18.3-1.8 3.3-16.1-1-33.8-9-13.6-6-26.8-13-39.5-20.8.4-12.7 4-26.4 7.3-31.2 6.1-8.7.1-86.6 2.4-112.3l1.6-.7h12c41 19-6 101-6 101s62 51 68 53c.8.2 1.4.9 1.5 1.7z" fill="#000" opacity=".1"/>
    <path d="M119.4 303.7h-12s-11 3-20 23-42 82-13 106 91 52 95 45 18-18 12-20-68-53-68-53 47-82 6-101z" fill="#575A88"/>
    <path d="M180.4 209.4s1.4-20 19.3-11.9c17.8 8.2 16.7-14.4 11.3-18.3-5.4-4-5.3-5-25-2.3-19.7 2.6-58 7.1-45.7 46.8 12.4 39.7 23.6 29.5 23.6 29.5s-9.8-35.7.2-28.9l10 6.8 5.2-1.1 1-20.6z" fill="#2F2E41"/>
    <path d="M917.5 498c0-18-134-32.6-299.6-32.6-165.4 0-299.5 14.6-299.5 32.6 0 7 20.1 13.5 54.4 18.8v223.6h16.4V519.1c55 7.1 137 11.6 228.7 11.6 92.5 0 175.2-4.5 230.2-11.7v221.4h16.3V516.6c33.5-5.3 53.1-11.7 53.1-18.6z" fill="#3F3D56"/>
    <ellipse fill="#F2F2F2" cx="655.5" cy="483.7" rx="61" ry="15"/>
    <ellipse fill="#D0CDE1" cx="655.5" cy="483.7" rx="50" ry="12.3"/>
    <ellipse fill="#F2F2F2" cx="428.5" cy="495.7" rx="61" ry="15"/>
    <ellipse fill="#D0CDE1" cx="428.5" cy="495.7" rx="50" ry="12.3"/>
    <ellipse fill="#9F616A" cx="654.1" cy="478.1" rx="29.1" ry="4.6"/>
    <ellipse fill="#5770BE" cx="638.6" cy="471.4" rx="9.2" ry="5"/>
    <ellipse fill="#5770BE" cx="635.1" cy="471.4" rx="9.2" ry="5"/>
    <ellipse fill="#5770BE" cx="675.3" cy="472.5" rx="9.2" ry="5"/>
    <ellipse fill="#5770BE" cx="654.3" cy="471.4" rx="9.2" ry="5"/>
    <ellipse fill="#5770BE" cx="669.9" cy="471.4" rx="9.2" ry="5"/>
    <path d="M681.8 468.3a94.2 94.2 0 01-55.9 0v-.8c0-12.1 9.6-22.1 21.7-22.8 5-.2 9.9-.2 14.8 0 11 .7 19.4 9.8 19.4 20.7v3zM673.7 489.4a183.6 183.6 0 01-37 0c-6-.6-10.6-5.6-10.6-11.7h58.2c0 6-4.6 11.1-10.6 11.7z" fill="#3F3D56"/>
    <path d="M646.2 451.9a11 11 0 01-8.4 0 11 11 0 018.4 0zM654.6 455.3a11 11 0 01-8.4 0 11 11 0 018.4 0zM655.4 449.2a11 11 0 01-8.4 0 11 11 0 018.4 0zM671 449.2a11 11 0 01-8.3 0 11 11 0 018.4 0zM666.9 452.6a11 11 0 01-8.4 0 11 11 0 018.4 0z" fill="#D0CDE1"/>
    <ellipse fill="#9F616A" cx="428.1" cy="490.1" rx="29.1" ry="4.6"/>
    <ellipse fill="#5770BE" cx="412.6" cy="483.4" rx="9.2" ry="5"/>
    <ellipse fill="#5770BE" cx="409.1" cy="483.4" rx="9.2" ry="5"/>
    <ellipse fill="#5770BE" cx="449.3" cy="484.5" rx="9.2" ry="5"/>
    <ellipse fill="#5770BE" cx="428.3" cy="483.4" rx="9.2" ry="5"/>
    <ellipse fill="#5770BE" cx="443.9" cy="483.4" rx="9.2" ry="5"/>
    <path d="M455.8 480.3a94.2 94.2 0 01-55.9 0v-.8c0-12.1 9.6-22.1 21.7-22.8 5-.2 9.9-.2 14.8 0 11 .7 19.4 9.8 19.4 20.7v3zM447.7 501.4a183.6 183.6 0 01-37 0c-6-.6-10.6-5.6-10.6-11.7h58.2c0 6-4.6 11.1-10.6 11.7z" fill="#3F3D56"/>
    <path d="M420.2 463.9a11 11 0 01-8.4 0 11 11 0 018.4 0zM428.6 467.3a11 11 0 01-8.4 0 11 11 0 018.4 0zM429.4 461.2a11 11 0 01-8.4 0 11 11 0 018.4 0zM445 461.2a11 11 0 01-8.3 0 11 11 0 018.4 0zM440.9 464.6a11 11 0 01-8.4 0 11 11 0 018.4 0z" fill="#D0CDE1"/>
    <path d="M708 479.7l.1 3 .2 4s-18.5 1.1-22.2 5l-.2.3-7.4-1.6v-3.6l.3-.2h.1c9-4.5 19-6.9 29-7z" fill="#5770BE"/>
    <path d="M708 479.7l.1 3c-8.2.3-23.7 5.2-23.7 5.2l-5.6-1.3a67 67 0 0129.2-7z" fill="#000" opacity=".1"/>
    <path d="M679 486.5l5.4 1.4 1.7 3.8-.2.3-7.4-1.6v-3.6l.3-.2h.1z" fill="#FFF" opacity=".1"/>
    <path d="M485 492.7l.1 3 .2 4s-18.5 1.1-22.2 5l-.2.3-7.4-1.6v-3.6l.3-.2h.1c9-4.5 19-6.9 29-7z" fill="#5770BE"/>
    <path d="M485 492.7l.1 3c-8.2.3-23.7 5.2-23.7 5.2l-5.6-1.3a67 67 0 0129.2-7z" fill="#000" opacity=".1"/>
    <path d="M456 499.5l5.4 1.4 1.7 3.8-.2.3-7.4-1.6v-3.6l.3-.2h.1z" fill="#FFF" opacity=".1"/>
    <path d="M819 386.9a18.5 18.5 0 00-5.4-3.8v-38.8c0-1-.7-1.8-1.7-1.8h-9.6c-1 0-1.7.8-1.7 1.8v38c-7.1 2.4-12 9.1-12 16.6v83.4a7.6 7.6 0 007.7 7.6h20.6c4.2 0 7.6-3.4 7.6-7.6V400c0-4.9-2-9.6-5.4-13z" fill="#3F3D56"/>
    <path fill="#5770BE" d="M788.6 411.1h35.8v47.4h-35.8zM814.4 345.2h-.8v-1c0-.9-.7-1.7-1.7-1.7h-9.6c-1 0-1.7.8-1.7 1.8v.9h-.8v4h.8v20.3h13v-20.3h.8v-4z"/>
    <path d="M532 420.6l-1.9-4c-16 4-26.8.7-28.5 0-.8 1.6-6 11.6-8 21.2-2 8.7-.9 14.5 3.2 17.2v.1h.1a204.1 204.1 0 0014.2 8.6l1.6 2.2a8.4 8.4 0 011.5 4.1v43h-.3c-10.2.2-16.6 2-16.6 3.4 0 1.7 7.6 3.5 18.6 3.5 10.9 0 18.5-1.8 18.5-3.5 0-1.5-6.2-3.2-16.3-3.4h-.3l.3-39.7a17.5 17.5 0 013-9.8h.1l1.6-1a206 206 0 0012-7.4c3.8-2.4 5-7.4 3.9-14.8-1.1-7-4.2-14.6-6.6-19.7z" fill="#D0CDE1"/>
    <path d="M533 454.2c-4.4 3-8 5.1-10.8 6.7-4-.3-8-.2-12.1.3-2.9-1.6-6.7-3.8-11.4-7h-.1c-4.4-3-4.5-9.3-3-15.8 3.5-.4 9.2-.2 16.9 2.5 9 3.3 18.6 1.4 24.1-.2 1 5.7.4 11-3.6 13.5z" fill="#5770BE"/>
    <circle fill="#5770BE" cx="506.9" cy="434.8" r="1.2"/>
    <circle fill="#FFF" cx="503.4" cy="446.3" r="1.2"/>
    <circle fill="#5770BE" cx="509.9" cy="437.8" r="1"/>
    <circle fill="#FFF" cx="512.9" cy="452" r="1"/>
    <circle fill="#FFF" cx="507.6" cy="452.7" r="1"/>
    <circle fill="#5770BE" cx="522.8" cy="427.9" r="1"/>
    <path d="M590.5 380.1l-2-4c-16.1 4-26.8.7-28.5.1-.9 1.6-6 11.6-8.1 21.2-1.9 8.6-.8 14.4 3.2 17.2h.2a204.1 204.1 0 0014.2 8.6v.1l1.6 2.1a8.4 8.4 0 011.5 4.2v42.9h-.3c-10.3.2-16.6 2-16.6 3.5 0 1.6 7.6 3.4 18.5 3.4 11 0 18.6-1.8 18.6-3.4 0-1.5-6.3-3.2-16.3-3.5h-.3l.2-39.7a17.5 17.5 0 013-9.8h.1l1.7-1a206 206 0 0012-7.3c3.7-2.5 5-7.5 3.9-14.8-1.2-7-4.2-14.6-6.6-19.8z" fill="#D0CDE1"/>
    <path d="M591.4 413.8c-4.4 2.9-8 5-10.8 6.6-4-.3-8.1-.1-12.1.4-2.9-1.6-6.7-4-11.4-7l-.2-.1c-4.3-3-4.4-9.3-3-15.8 3.6-.4 9.3-.2 17 2.6 9 3.2 18.6 1.4 24.1-.3 1 5.7.4 11-3.6 13.6z" fill="#5770BE"/>
    <circle fill="#5770BE" cx="565.3" cy="394.4" r="1.2"/>
    <circle fill="#FFF" cx="561.8" cy="405.8" r="1.2"/>
    <circle fill="#5770BE" cx="568.3" cy="397.3" r="1"/>
    <circle fill="#FFF" cx="571.3" cy="411.5" r="1"/>
    <circle fill="#FFF" cx="566" cy="412.3" r="1"/>
    <circle fill="#5770BE" cx="581.2" cy="387.4" r="1"/>
  </g>
</svg>
