<?xml version="1.0" encoding="UTF-8"?>
<svg width="1000" height="800" viewBox="0 0 1000 800" version="1.1" xmlns="http://www.w3.org/2000/svg" xmlns:xlink="http://www.w3.org/1999/xlink">
    <title>noel</title>
    <g id="noel" stroke="none" stroke-width="1" fill="none" fill-rule="evenodd">
        <g id="undraw_special_event_4aj8" transform="translate(1.000000, 14.000000)" fill-rule="nonzero">
            <path d="M443.4375,175.71849 C402.347666,175.750218 361.542602,168.900603 322.71533,155.45373 C270.66311,137.45662 228.0205,112.63293 195.97311,81.67199 C135.35205,23.10607 85.65185,14.2799 54.63965,17.18615 C21.06933,20.33361 1.52881,37.52404 1.33545,37.69738 L0,36.20862 C0.19726,36.03138 20.14062,18.45081 54.32324,15.20716 C74.36865,13.30628 95.33105,16.61829 116.62988,25.05433 C143.19043,35.57433 170.35302,54.13933 197.36279,80.23352 C229.19922,110.99085 271.59379,135.66272 323.36865,153.56311 C418.41601,186.42444 525.53808,178.46839 617.26757,131.73401 C647.63867,116.2594 677.65625,105.6969 706.48535,100.34001 C742.83886,93.58317 777.31543,95.15153 808.96484,104.99821 C878.51367,126.63542 926.01855,125.48796 953.62304,120.71745 C983.40722,115.56945 996.9209,105.26677 997.05371,105.16325 L998.28222,106.74187 C997.72265,107.17687 984.23632,117.45573 953.96289,122.68815 C926.14062,127.49772 878.29589,128.66276 808.37109,106.90739 C737.57031,84.88298 665.8623,109.21939 618.17578,133.51532 C572.836993,156.737453 523.329762,170.70371 472.53911,174.60021 C462.803723,175.34533 453.103187,175.71849 443.4375,175.71849 Z" id="Path" fill="#3F3D56"></path>
            <circle id="Oval" fill="#5770BE" cx="439.40025" cy="180.26772" r="20.26772"></circle>
            <circle id="Oval" fill="#5770BE" cx="753.40025" cy="99.26772" r="20.26772"></circle>
            <circle id="Oval" fill="#5770BE" cx="100.40025" cy="20.26772" r="20.26772"></circle>
            <path d="M584.74378,484.48244 L584.74378,680.30947 L615.53419,680.30947 L615.53419,501.72507 L738.69584,501.72507 L738.69584,680.30947 L769.48626,680.30947 L769.48626,288.65541 L738.69584,288.65541 C728.49276,288.65541 712.83189,341.79428 712.83189,395.19024 C712.83189,435.43773 717.53224,469.93024 724.21589,484.48244 L584.74378,484.48244 Z M738.69584,484.48244 L738.39636,484.48244 C738.49694,484.26344 738.59616,484.03231 738.69584,483.80431 L738.69584,484.48244 Z" id="Shape" fill="#3F3D56"></path>
            <path d="M698.84521,191.72833 L698.84511,191.72833 C673.57122,191.72833 653.08267,214.46611 653.08267,242.51457 L653.08267,278.15045 L664.04267,278.15045 L670.38786,264.94707 L668.80154,278.15045 L739.24797,278.15045 L745.01633,266.14738 L743.57425,278.15045 L751.50576,278.15045 L751.50576,250.1699 C751.50576,217.89355 727.92883,191.72833 698.84521,191.72833 Z" id="Path" fill="#2F2E41"></path>
            <path d="M646.4095,424.55421 L618.31174,436.49576 L520.67205,515.87191 C517.081728,520.283967 514.881511,525.662271 514.35005,531.32568 C513.64761,540.45745 484.14497,588.22363 494.68163,594.54563 C505.21829,600.86763 543.15025,619.83363 545.25763,607.18963 C547.36501,594.54563 558.60407,540.45746 558.60407,540.45746 L652.73154,456.1642 L646.4095,424.55421 Z" id="Path" fill="#2F2E41"></path>
            <path d="M536.12581,596.65296 L524.18427,631.77515 C524.18427,631.77515 536.82827,645.12158 530.50627,656.36069 L530.50627,694.9951 L520.67206,694.9951 L517.86228,674.62423 C517.86228,674.62423 506.66106,694.73774 501.00363,694.9951 C489.14363,695.53461 465.65755,699.75325 464.9551,693.43125 C464.25265,687.10925 482.7401,680.94625 482.7401,680.94625 L502.40853,626.85807 L510.83785,593.84321 L536.12581,596.65296 Z" id="Path" fill="#2F2E41"></path>
            <path d="M719.46366,415.42244 C719.46366,415.42244 725.78566,477.2375 707.52211,488.4766 C689.25856,499.7157 608.47753,535.54034 608.47753,535.54034 C608.47753,535.54034 642.89728,567.85276 635.87284,575.57964 C628.8484,583.30652 597.23843,604.37984 593.02376,600.16518 C588.80909,595.95052 541.74536,545.37456 547.36491,529.21835 C552.98446,513.06214 630.95573,460.37885 630.95573,460.37885 L640.0875,427.36399 L642.89728,400.67112 L672.39992,381.70512 L719.46366,415.42244 Z" id="Path" fill="#2F2E41"></path>
            <circle id="Oval" fill="#FFB9B9" cx="687.28129" cy="242.21767" r="29.2837"></circle>
            <path d="M709.98067,254.21162 C709.98067,254.21162 708.57578,280.90448 730.35154,289.33381 C752.1273,297.76314 676.26336,352.55376 676.26336,352.55376 L676.26336,291.4411 C676.26336,291.4411 686.09758,280.90444 676.26336,264.74824 L709.98067,254.21162 Z" id="Path" fill="#FFB9B9"></path>
            <path d="M756.69318,379.59781 L751.07363,406.99312 L734.21498,501.12062 C734.21498,501.12062 748.26386,541.15992 729.29787,540.45748 C710.33188,539.75504 719.46366,496.90596 719.46366,496.90596 L729.29787,418.93469 L729.29787,388.72962 L756.69318,379.59781 Z" id="Path" fill="#FFB9B9"></path>
            <path d="M635.87284,366.25137 L629.55084,390.83691 L600.75064,460.37885 C600.75064,460.37885 581.08221,493.39371 597.23842,492.69127 C613.39463,491.98883 613.39463,460.37885 613.39463,460.37885 L646.40949,404.18334 L646.40949,372.57334 L635.87284,366.25137 Z" id="Path" fill="#FFB9B9"></path>
            <path d="M630.95573,571.36498 L654.13638,593.14074 C654.13638,593.14074 670.29259,589.62852 676.61458,608.5945 C682.93657,627.56048 687.15124,639.50203 687.15124,639.50203 L678.72192,644.41914 L668.18526,629.66782 C668.18526,629.66782 661.86326,656.36069 655.54126,658.46802 C649.21926,660.57535 617.60926,674.62423 620.41907,658.46802 L635.87283,635.98981 C635.87283,635.98981 637.98016,610.70181 631.65817,608.5945 C625.33618,606.48719 608.47752,585.41386 608.47752,585.41386 L630.95573,571.36498 Z" id="Path" fill="#2F2E41"></path>
            <path d="M720.57722,437.1982 C720.57722,437.1982 654.54749,413.31511 650.33283,415.42244 C647.195567,416.808428 643.854038,417.675718 640.43873,417.99044 L640.49862,408.39803 C640.49862,408.39803 662.27438,400.67115 674.21592,405.58826 C686.15746,410.50537 722.68455,432.28113 722.68455,432.28113 L720.57722,437.1982 Z" id="Path" fill="#3F3D56"></path>
            <path d="M680.47803,338.50484 C680.47803,338.50484 699.44403,316.72908 705.06356,303.38265 C708.618966,295.291634 715.145027,288.874432 723.2947,285.45562 C723.2947,285.45562 765.4737,294.95336 764.77129,311.81201 C764.06888,328.67066 738.07842,354.66109 738.07842,354.66109 C738.07842,354.66109 741.59064,448.08609 722.62466,446.68123 C718.533841,441.799064 715.646574,436.024534 714.19533,429.82258 C712.088,419.98837 646.76072,409.45171 646.76072,409.45171 C646.76072,409.45171 641.14117,419.28592 640.43872,415.07126 C639.73627,410.8566 646.05827,307.59735 646.05827,307.59735 L679.55569,285.45562 L680.47803,338.50484 Z" id="Path" fill="#D0CDE1"></path>
            <path d="M759.36035,305.02609 L759.83072,305.29009 C762.887431,307.005439 764.779668,310.237654 764.77918,313.74278 L764.77197,365.87321 C764.782608,368.741186 766.053157,371.459565 768.24661,373.30731 C770.95249,375.60889 773.46169,378.92545 768.28351,380.65151 C759.85418,383.46129 726.83932,397.51016 726.13688,392.59306 C725.43444,387.67596 724.02954,382.0564 726.13688,382.0564 C727.78665,382.0564 737.61632,331.6854 745.5146,310.14869 C746.490912,307.480176 748.589001,305.374472 751.253961,304.3885 C753.918921,303.402528 756.882305,303.635606 759.36035,305.02609 L759.36035,305.02609 Z" id="Path" fill="#D0CDE1"></path>
            <path d="M655.54127,305.13876 L645.70705,307.94853 L634.46795,356.41716 C634.46795,356.41716 621.12152,359.22693 625.33618,364.14404 C629.55084,369.06115 647.11194,381.70514 647.11194,381.70514 L655.54127,305.13876 Z" id="Path" fill="#D0CDE1"></path>
            <path d="M711.85464,205.71826 C707.391147,199.724438 700.390324,196.151862 692.91776,196.05462 L692.01931,196.05462 C674.69653,196.05462 660.65372,211.72974 660.65372,231.066 L660.65372,231.06608 L666.45812,231.06608 L667.39552,223.93094 L668.76993,231.06608 L703.19553,231.06608 L706.07974,225.02962 L705.35867,231.06608 L712.13117,231.06608 C715.291463,246.760873 710.750653,262.455663 698.50874,278.15045 L710.04553,278.15045 L715.81389,266.07753 L714.37182,278.15045 L736.36376,278.15045 L740.69005,250.38267 C740.69005,229.58717 728.60726,211.95301 711.85464,205.71826 Z" id="Path" fill="#2F2E41"></path>
            <path d="M123.53497,529.72833 C130.92489,513.6385 136.12191,475.50124 136.12191,431.00094 C136.12191,371.96282 118.80622,313.20894 107.52501,313.20894 L73.48111,313.20894 L73.48111,746.24771 L107.52501,746.24771 L107.52501,548.79293 L243.70072,548.79293 L243.70072,746.24771 L277.74465,746.24771 L277.74465,529.72833 L123.53497,529.72833 Z M107.52497,528.97855 C107.63518,529.23064 107.7449,529.48622 107.8561,529.72833 L107.52497,529.72833 L107.52497,528.97855 Z" id="Shape" fill="#3F3D56"></path>
            <path d="M265.43323,450.72833 C265.43323,450.72833 306.43323,467.72833 293.43323,477.72833 C280.43323,487.72833 253.43323,465.72833 254.43323,462.72833 C255.43323,459.72833 250.43323,452.72833 250.43323,452.72833 L265.43323,450.72833 Z" id="Path" fill="#9F616A"></path>
            <path d="M229.43323,316.72833 L242.43323,328.72833 L245.43323,363.72833 L255.43323,400.72833 C255.43323,400.72833 272.43323,435.72833 269.43323,442.72833 C266.43323,449.72833 272.43323,451.72833 272.43323,451.72833 L249.43323,460.72833 C249.43323,460.72833 224.43323,432.72833 224.43323,426.72833 C224.43323,420.72833 229.43323,316.72833 229.43323,316.72833 Z" id="Path" fill="#575A88"></path>
            <path d="M229.43323,316.72833 L242.43323,328.72833 L245.43323,363.72833 L255.43323,400.72833 C255.43323,400.72833 272.43323,435.72833 269.43323,442.72833 C266.43323,449.72833 272.43323,451.72833 272.43323,451.72833 L249.43323,460.72833 C249.43323,460.72833 224.43323,432.72833 224.43323,426.72833 C224.43323,420.72833 229.43323,316.72833 229.43323,316.72833 Z" id="Path" fill="#000000" opacity="0.1"></path>
            <path d="M352.43323,676.72833 C352.43323,676.72833 347.43323,699.72833 346.43323,701.72833 C345.43323,703.72833 365.43323,710.72833 365.43323,710.72833 L389.43323,693.72833 C389.43323,693.72833 379.43323,671.72833 379.43323,667.72833 L352.43323,676.72833 Z" id="Path" fill="#575A88"></path>
            <path d="M221.43323,452.72833 L228.43323,460.72833 C228.43323,460.72833 373.43323,478.72833 376.43323,506.72833 C379.43323,534.72833 400.43323,666.72833 388.43323,670.72833 C376.43323,674.72833 345.43323,689.72833 345.43323,681.72833 C345.43323,673.72833 325.43323,563.72833 329.43323,543.72833 C329.43323,543.72833 156.43323,521.72833 152.43323,496.72833 C148.43323,471.72833 156.43323,460.72833 156.43323,460.72833 L221.43323,452.72833 Z" id="Path" fill="#2F2E41"></path>
            <path d="M221.43323,452.72833 L228.43323,460.72833 C228.43323,460.72833 373.43323,478.72833 376.43323,506.72833 C379.43323,534.72833 400.43323,666.72833 388.43323,670.72833 C376.43323,674.72833 345.43323,689.72833 345.43323,681.72833 C345.43323,673.72833 325.43323,563.72833 329.43323,543.72833 C329.43323,543.72833 156.43323,521.72833 152.43323,496.72833 C148.43323,471.72833 156.43323,460.72833 156.43323,460.72833 L221.43323,452.72833 Z" id="Path" fill="#000000" opacity="0.1"></path>
            <path d="M350.43323,699.72833 C350.43323,699.72833 346.43323,690.72833 344.43323,693.72833 C342.43323,696.72833 335.43323,731.72833 342.43323,731.72833 C349.43323,731.72833 413.43323,747.72833 422.43323,745.72833 C431.43323,743.72833 448.43323,746.72833 446.43323,736.72833 C444.43323,726.72833 434.43323,725.72833 434.43323,725.72833 C434.43323,725.72833 397.43323,703.72833 395.43323,692.72833 C393.43323,681.72833 382.43323,687.72833 382.43323,687.72833 L382.43323,694.72833 C382.43323,694.72833 361.43323,710.72833 350.43323,699.72833 Z" id="Path" fill="#2F2E41"></path>
            <path d="M160.43323,240.72833 C160.43323,240.72833 167.43323,274.72833 152.43323,277.72833 C137.43323,280.72833 171.43323,300.72833 171.43323,300.72833 L193.43323,312.72833 L209.43323,296.72833 C209.43323,296.72833 194.93323,267.22833 205.93323,245.22833 C216.93323,223.22833 160.43323,240.72833 160.43323,240.72833 Z" id="Path" fill="#9F616A"></path>
            <path d="M209.43323,296.72833 L193.43323,312.72833 L171.43323,300.72833 C171.43323,300.72833 137.43323,280.72833 152.43323,277.72833 C162.08323,275.79833 162.62317,261.03833 161.79323,250.75833 C161.522322,247.392786 161.068317,244.044494 160.43323,240.72833 C160.43323,240.72833 216.93323,223.22833 205.93323,245.22833 C204.26188,248.62559 203.102668,252.251561 202.49329,255.98833 C199.12317,275.7583 209.43323,296.72833 209.43323,296.72833 Z" id="Path" fill="#9F616A"></path>
            <polygon id="Path" fill="#575A88" points="265.433 705.728 265.433 728.728 303.433 728.728 306.433 719.728 302.433 695.728"></polygon>
            <path d="M108.43323,472.72833 C108.43323,472.72833 108.43323,531.72833 132.43323,533.72833 C156.43323,535.72833 242.43323,546.72833 242.43323,546.72833 C242.43323,546.72833 247.43323,644.72833 256.43323,676.72833 C265.43323,708.72833 257.43323,710.72833 265.43323,712.72833 C273.43323,714.72833 307.43323,707.72833 306.43323,700.72833 C305.43323,693.72833 301.43323,516.72833 301.43323,516.72833 C301.43323,516.72833 310.43323,478.72833 190.43323,460.72833 L108.43323,472.72833 Z" id="Path" fill="#2F2E41"></path>
            <path d="M268.43323,721.72833 C268.43323,721.72833 262.43323,708.72833 261.43323,712.72833 C260.43323,716.72833 248.43323,751.72833 260.43323,754.72833 C272.43323,757.72833 310.43323,773.72833 335.43323,772.72833 C360.43323,771.72833 363.43323,770.72833 363.43323,770.72833 C363.43323,770.72833 370.43323,760.72833 361.43323,754.72833 C352.43323,748.72833 315.43323,713.72833 313.43323,709.72833 C311.43323,705.72833 296.43323,702.72833 296.43323,709.72833 C296.43323,716.72833 275.43323,730.72833 268.43323,721.72833 Z" id="Path" fill="#2F2E41"></path>
            <path d="M205.93323,245.22833 C204.26188,248.62559 203.102668,252.251561 202.49329,255.98833 C197.51329,258.99833 194.18323,258.22833 187.93323,258.22833 C178.66323,258.22833 174.92323,246.37833 168.93323,240.22833 C168.46323,234.51833 160.43323,240.72833 160.43323,240.72833 C160.43323,240.72833 216.93323,223.22833 205.93323,245.22833 Z" id="Path" fill="#000000" opacity="0.1"></path>
            <circle id="Oval" fill="#9F616A" cx="185.43324" cy="224.72833" r="33"></circle>
            <path d="M242.43323,328.72833 C242.43323,328.72833 237.43323,364.72833 234.43323,377.72833 C231.43323,390.72833 227.43323,450.72833 225.43323,458.72833 C223.43323,466.72833 211.43323,468.72833 187.43323,465.72833 C185.926585,465.538642 184.411322,465.425164 182.89323,465.38833 C168.11323,464.91833 151.20329,470.44833 135.553239,474.78833 C126.553239,477.28833 117.96323,479.38833 110.43323,479.72833 C99.03323,480.24833 95.69323,467.60833 96.08323,453.92833 C96.45323,441.19833 100.06323,427.54833 103.43323,422.72833 C109.5033,414.04833 103.53323,336.11833 105.77332,310.41833 L105.77332,310.40833 C106.11317,306.48833 106.64319,303.78833 107.43323,302.72833 C113.43323,294.72833 152.43323,274.72833 156.80323,275.53833 C161.16323,276.34833 198.43323,299.72833 198.43323,299.72833 C207.43323,299.72833 207.14323,289.96833 207.14323,289.96833 C207.14323,289.96833 213.43323,301.72833 225.43323,304.72833 C237.43323,307.72833 242.43323,328.72833 242.43323,328.72833 Z" id="Path" fill="#575A88"></path>
            <path d="M175.58593,458.37108 C175.58593,458.37108 240.00193,460.42214 228.71758,468.07523 C217.43323,475.72832 167.43323,482.72833 166.43323,472.72833 C165.43323,462.72833 175.58593,458.37108 175.58593,458.37108 Z" id="Path" fill="#9F616A"></path>
            <path d="M182.89319,465.3883 C183.10319,469.2283 172.77332,477.8783 169.43319,483.7283 C167.58319,486.9683 153.26327,482.6983 135.55319,474.7883 C121.962889,468.688402 108.779007,461.720685 96.08319,453.9283 C96.45319,441.1983 100.06319,427.5483 103.43319,422.7283 C109.50326,414.0483 103.53319,336.1183 105.77328,310.4183 L105.77328,310.4083 C106.30731,310.137174 106.862429,309.909763 107.43319,309.7283 L119.43319,309.7283 C160.43319,328.7283 113.43319,410.7283 113.43319,410.7283 C113.43319,410.7283 175.43319,461.7283 181.43319,463.7283 C182.242747,463.8817 182.84441,464.565783 182.89319,465.3883 L182.89319,465.3883 Z" id="Path" fill="#000000" opacity="0.1"></path>
            <path d="M119.43323,303.72833 L107.43323,303.72833 C107.43323,303.72833 96.43323,306.72833 87.43323,326.72833 C78.43323,346.72833 45.43323,408.72833 74.43323,432.72833 C103.43323,456.72833 165.43323,484.72833 169.43323,477.72833 C173.43323,470.72833 187.43323,459.72833 181.43323,457.72833 C175.43323,455.72833 113.43323,404.72833 113.43323,404.72833 C113.43323,404.72833 160.43323,322.72833 119.43323,303.72833 Z" id="Path" fill="#575A88"></path>
            <path d="M180.35639,209.37262 C180.35639,209.37262 181.80459,189.32511 199.67026,197.49935 C217.53593,205.67359 216.37015,183.14269 210.97126,179.16122 C205.57237,175.17975 205.74333,174.19446 185.99734,176.85833 C166.25135,179.5222 127.91562,184.03558 140.31126,223.73883 C152.7069,263.44208 163.93326,253.22838 163.93326,253.22838 C163.93326,253.22838 154.08026,217.50066 164.0637,224.30738 L174.04711,231.11411 L179.3154,229.99824 L180.35639,209.37262 Z" id="Path" fill="#2F2E41"></path>
            <path d="M917.53535,498.04616 C917.53535,479.99631 783.40585,465.36399 617.94879,465.36399 C452.49173,465.36399 318.36222,479.99631 318.36222,498.04616 C318.36222,505.04179 338.52128,511.52327 372.83251,516.83931 L372.83251,740.43893 L389.17359,740.43893 L389.17359,519.14475 C444.12794,526.22906 526.21544,530.72833 617.94879,530.72833 C710.44022,530.72833 793.13089,526.15484 848.08574,518.96905 L848.08574,740.43893 L864.42682,740.43893 L864.42682,516.62493 C897.9049,511.34931 917.53535,504.94828 917.53535,498.04616 Z" id="Path" fill="#3F3D56"></path>
            <ellipse id="Oval" fill="#F2F2F2" cx="655.48109" cy="483.72833" rx="61" ry="15"></ellipse>
            <ellipse id="Oval" fill="#D0CDE1" cx="655.48109" cy="483.72833" rx="50" ry="12.29508"></ellipse>
            <ellipse id="Oval" fill="#F2F2F2" cx="428.48109" cy="495.72833" rx="61" ry="15"></ellipse>
            <ellipse id="Oval" fill="#D0CDE1" cx="428.48109" cy="495.72833" rx="50" ry="12.29508"></ellipse>
            <ellipse id="Oval" fill="#9F616A" cx="654.06147" cy="478.07756" rx="29.08039" ry="4.59164"></ellipse>
            <ellipse id="Oval" fill="#5770BE" cx="638.56469" cy="471.38142" rx="9.18328" ry="4.97428"></ellipse>
            <ellipse id="Oval" fill="#5770BE" cx="635.12096" cy="471.38142" rx="9.18328" ry="4.97428"></ellipse>
            <ellipse id="Oval" fill="#5770BE" cx="675.29781" cy="472.52933" rx="9.18328" ry="4.97428"></ellipse>
            <ellipse id="Oval" fill="#5770BE" cx="654.25279" cy="471.38142" rx="9.18328" ry="4.97428"></ellipse>
            <ellipse id="Oval" fill="#5770BE" cx="669.9409" cy="471.38142" rx="9.18328" ry="4.97428"></ellipse>
            <path d="M681.802695,468.32033 C665.20567,473.952417 646.584003,473.952417 625.937626,468.32033 L625.937626,467.54533 C625.93044,455.384162 635.461406,445.35399 647.60711,444.74086 C652.528927,444.493177 657.460243,444.499492 662.38141,444.75978 C673.30527,445.396095 681.829876,454.454277 681.802695,465.39662 L681.802695,468.32033 Z" id="Path" fill="#3F3D56"></path>
            <path d="M673.65444,489.40642 C661.388933,490.64521 649.029827,490.64521 636.76432,489.40642 C630.736722,488.814977 626.1385,483.751468 626.129,477.69493 L684.28977,477.69493 C684.280265,483.75147 679.68204,488.814977 673.65444,489.40642 L673.65444,489.40642 Z" id="Path" fill="#3F3D56"></path>
            <path d="M646.21742,451.86695 C643.52366,452.989348 640.49318,452.989348 637.79942,451.86695 C640.49318,450.744552 643.52366,450.744552 646.21742,451.86695 L646.21742,451.86695 Z" id="Path" fill="#D0CDE1"></path>
            <path d="M654.63543,455.31068 C651.94167,456.433078 648.91119,456.433078 646.21743,455.31068 C648.91119,454.188282 651.94167,454.188282 654.63543,455.31068 L654.63543,455.31068 Z" id="Path" fill="#D0CDE1"></path>
            <path d="M655.4007,449.18849 C652.706939,450.310887 649.676461,450.310887 646.9827,449.18849 C649.67646,448.066092 652.70694,448.066092 655.4007,449.18849 L655.4007,449.18849 Z" id="Path" fill="#D0CDE1"></path>
            <path d="M671.0888,449.18849 C668.39504,450.31089 665.36456,450.31089 662.6708,449.18849 C665.36456,448.06609 668.39504,448.06609 671.0888,449.18849 L671.0888,449.18849 Z" id="Path" fill="#D0CDE1"></path>
            <path d="M666.8798,452.63222 C664.18604,453.754618 661.15556,453.754618 658.4618,452.63222 C661.15556,451.509822 664.18604,451.509822 666.8798,452.63222 L666.8798,452.63222 Z" id="Path" fill="#D0CDE1"></path>
            <ellipse id="Oval" fill="#9F616A" cx="428.06147" cy="490.07756" rx="29.08039" ry="4.59164"></ellipse>
            <ellipse id="Oval" fill="#5770BE" cx="412.56469" cy="483.38142" rx="9.18328" ry="4.97428"></ellipse>
            <ellipse id="Oval" fill="#5770BE" cx="409.12096" cy="483.38142" rx="9.18328" ry="4.97428"></ellipse>
            <ellipse id="Oval" fill="#5770BE" cx="449.29781" cy="484.52933" rx="9.18328" ry="4.97428"></ellipse>
            <ellipse id="Oval" fill="#5770BE" cx="428.25279" cy="483.38142" rx="9.18328" ry="4.97428"></ellipse>
            <ellipse id="Oval" fill="#5770BE" cx="443.9409" cy="483.38142" rx="9.18328" ry="4.97428"></ellipse>
            <path d="M455.802695,480.32033 C439.20567,485.952417 420.584003,485.952417 399.937626,480.32033 L399.937626,479.54533 C399.93044,467.384162 409.461406,457.35399 421.60711,456.74086 C426.528927,456.493177 431.460243,456.499492 436.38141,456.75978 C447.30527,457.396095 455.829876,466.454277 455.802695,477.39662 L455.802695,480.32033 Z" id="Path" fill="#3F3D56"></path>
            <path d="M447.65444,501.40642 C435.388933,502.64521 423.029827,502.64521 410.76432,501.40642 C404.736722,500.814977 400.1385,495.751468 400.129,489.69493 L458.28977,489.69493 C458.280265,495.75147 453.68204,500.814977 447.65444,501.40642 Z" id="Path" fill="#3F3D56"></path>
            <path d="M420.21742,463.86695 C417.52366,464.989348 414.49318,464.989348 411.79942,463.86695 C414.49318,462.744552 417.52366,462.744552 420.21742,463.86695 Z" id="Path" fill="#D0CDE1"></path>
            <path d="M428.63543,467.31068 C425.94167,468.433078 422.91119,468.433078 420.21743,467.31068 C422.911191,466.188283 425.941669,466.188283 428.63543,467.31068 Z" id="Path" fill="#D0CDE1"></path>
            <path d="M429.4007,461.18849 C426.706939,462.310887 423.676461,462.310887 420.9827,461.18849 C423.676461,460.066093 426.706939,460.066093 429.4007,461.18849 Z" id="Path" fill="#D0CDE1"></path>
            <path d="M445.0888,461.18849 C442.39504,462.31089 439.36456,462.31089 436.6708,461.18849 C439.36456,460.06609 442.39504,460.06609 445.0888,461.18849 L445.0888,461.18849 Z" id="Path" fill="#D0CDE1"></path>
            <path d="M440.8798,464.63222 C438.18604,465.754618 435.15556,465.754618 432.4618,464.63222 C435.155561,463.509823 438.186039,463.509823 440.8798,464.63222 Z" id="Path" fill="#D0CDE1"></path>
            <path d="M707.95811,479.66397 L708.09862,482.76144 L708.27785,486.77892 C708.27785,486.77892 689.82618,487.82171 686.10911,491.74952 C686.022925,491.833936 685.943626,491.925107 685.87197,492.02216 L678.48111,490.40432 L678.46279,486.76338 C678.46279,486.76338 678.56472,486.70663 678.76294,486.59969 C678.80826,486.57627 678.86489,486.5462 678.92155,486.51614 C687.965528,482.087541 697.888387,479.745903 707.95811,479.66397 L707.95811,479.66397 Z" id="Path" fill="#5770BE"></path>
            <path d="M707.95811,479.66397 L708.09862,482.76144 C699.91639,483.01444 684.43143,487.89187 684.43143,487.89187 L678.7629,486.59969 C687.846075,482.112919 697.827506,479.741694 707.95811,479.66397 L707.95811,479.66397 Z" id="Path" fill="#000000" opacity="0.1"></path>
            <path d="M678.92153,486.51614 L684.43145,487.89187 L686.10913,491.74952 C686.022945,491.833936 685.943646,491.925107 685.87199,492.02216 L678.48111,490.40432 L678.46279,486.76338 C678.46279,486.76338 678.56472,486.70663 678.76294,486.59969 C678.80824,486.57627 678.86487,486.5462 678.92153,486.51614 Z" id="Path" fill="#FFFFFF" opacity="0.1"></path>
            <path d="M484.95811,492.66397 L485.09862,495.76144 L485.27785,499.77892 C485.27785,499.77892 466.82618,500.82171 463.10911,504.74952 C463.022925,504.833936 462.943626,504.925107 462.87197,505.02216 L455.48111,503.40432 L455.46279,499.76338 C455.46279,499.76338 455.56472,499.70663 455.76294,499.59969 C455.80826,499.57627 455.86489,499.5462 455.92155,499.51614 C464.965528,495.087541 474.888387,492.745903 484.95811,492.66397 L484.95811,492.66397 Z" id="Path" fill="#5770BE"></path>
            <path d="M484.95811,492.66397 L485.09862,495.76144 C476.91639,496.01444 461.43143,500.89187 461.43143,500.89187 L455.7629,499.59969 C464.846075,495.112919 474.827506,492.741694 484.95811,492.66397 L484.95811,492.66397 Z" id="Path" fill="#000000" opacity="0.1"></path>
            <path d="M455.92153,499.51614 L461.43145,500.89187 L463.10913,504.74952 C463.022945,504.833936 462.943646,504.925107 462.87199,505.02216 L455.48111,503.40432 L455.46279,499.76338 C455.46279,499.76338 455.56472,499.70663 455.76294,499.59969 C455.80824,499.57627 455.86487,499.5462 455.92153,499.51614 Z" id="Path" fill="#FFFFFF" opacity="0.1"></path>
            <path d="M819.08656,386.8837 C817.512402,385.311004 815.666834,384.035913 813.63893,383.11997 L813.63893,344.26379 C813.63893,343.315031 812.869809,342.54591 811.92105,342.54591 L802.30196,342.54591 C801.353201,342.54591 800.58408,343.315031 800.58408,344.26379 L800.58408,382.37462 C793.452605,384.739968 788.637966,391.407202 788.63558,398.92071 L788.63558,482.27256 C788.63558,484.298336 789.440317,486.241141 790.872758,487.673579 C792.305198,489.106018 794.248004,489.91075 796.27378,489.91075 L816.8783,489.91075 C821.077201,489.91075 824.481103,486.506871 824.481103,482.30797 L824.481103,399.90313 C824.486991,395.018389 822.545537,390.332787 819.08656,386.8837 Z" id="Path" fill="#3F3D56"></path>
            <rect id="Rectangle" fill="#5770BE" x="788.63559" y="411.13916" width="35.8455" height="47.35147"></rect>
            <path d="M814.41337,345.20113 L813.63893,345.20113 L813.63893,344.26379 C813.63893,343.315031 812.869809,342.54591 811.92105,342.54591 L802.30196,342.54591 C801.353201,342.54591 800.58408,343.315031 800.58408,344.26379 L800.58408,345.20113 L799.80964,345.20113 L799.80964,349.18397 L800.58408,349.18397 L800.58408,369.54067 L813.63893,369.54067 L813.63893,349.18397 L814.41337,349.18397 L814.41337,345.20113 Z" id="Path" fill="#5770BE"></path>
            <path d="M532.07517,420.60993 C531.12646,418.58529 530.37771,417.15321 530.11562,416.66036 C514.02555,420.63102 503.29028,417.27568 501.59735,416.68225 C500.76955,418.2457 495.60102,428.23925 493.51204,437.82053 C491.62496,446.46282 492.72025,452.25653 496.76761,455.04083 L496.88754,455.12626 L496.91386,455.14384 C501.38153,458.0877 505.64341,460.69494 509.57986,462.89237 C510.110307,463.187577 510.61037,463.461893 511.08005,463.71532 L511.13031,463.74261 L511.16569,463.78748 C511.706171,464.468319 512.209208,465.178062 512.67257,465.91356 C513.542482,467.129786 514.070327,468.55704 514.20111,470.04662 L514.20111,512.97062 L513.92996,512.97634 C503.66657,513.18558 497.31387,514.92554 497.31387,516.41734 C497.31387,518.05402 504.93152,519.87784 515.86223,519.87784 C526.79294,519.87784 534.41047,518.05402 534.41047,516.41734 C534.41047,514.94768 528.16531,513.21743 518.07611,512.9844 L517.80388,512.97793 L518.05756,473.27275 C518.063604,470.584485 518.688529,467.933707 519.88391,465.52583 C520.08765,465.1211 520.3066,464.72747 520.53461,464.35655 C520.71775,464.05811 520.91179,463.76689 521.11122,463.49196 L521.14778,463.44143 L521.20257,463.41143 C521.70799,463.13543 522.244657,462.836343 522.81257,462.51417 L522.87922,462.47793 C526.60484,460.37379 530.61908,457.90655 534.81171,455.14303 C538.55501,452.67525 539.85836,447.68754 538.68552,440.31883 C537.56803,433.29294 534.47392,425.72308 532.07517,420.60993 Z" id="Path" fill="#D0CDE1"></path>
            <path d="M533.03662,454.24326 C528.64095,457.14052 525.01191,459.31346 522.23662,460.87907 L522.23411,460.87907 C518.185345,460.60267 514.11937,460.716863 510.0925,461.22007 C507.2475,459.63207 503.40938,457.35458 498.68765,454.24326 C498.64285,454.21339 498.59805,454.18352 498.55325,454.15116 L498.55325,454.14867 C494.22225,451.16926 494.11525,444.85951 495.52405,438.40788 C499.1083,438.00963 504.82318,438.18388 512.50191,440.92681 C521.59444,444.17502 531.11258,442.3381 536.62833,440.66794 C537.53435,446.3604 536.98177,451.64219 533.03662,454.24326 Z" id="Path" fill="#5770BE"></path>
            <circle id="Oval" fill="#5770BE" cx="506.90154" cy="434.82862" r="1.24453"></circle>
            <circle id="Oval" fill="#FFFFFF" cx="503.41686" cy="446.27828" r="1.24453"></circle>
            <circle id="Oval" fill="#5770BE" cx="509.8884" cy="437.81549" r="1"></circle>
            <circle id="Oval" fill="#FFFFFF" cx="512.87527" cy="452.00311" r="1"></circle>
            <circle id="Oval" fill="#FFFFFF" cx="507.64825" cy="452.74983" r="1"></circle>
            <circle id="Oval" fill="#5770BE" cx="522.83149" cy="427.85927" r="1"></circle>
            <path d="M590.4536,380.14421 C589.50489,378.11956 588.75614,376.68748 588.49405,376.19463 C572.40398,380.16529 561.66871,376.80995 559.97578,376.21652 C559.14798,377.77997 553.97945,387.77352 551.89047,397.3548 C550.00339,405.9971 551.09868,411.7908 555.14603,414.57511 L555.26597,414.66053 L555.29229,414.67811 C559.75996,417.62197 564.02184,420.22921 567.95829,422.42664 C568.488743,422.721847 568.988807,422.996163 569.45848,423.24959 L569.50874,423.27688 L569.54412,423.32175 C570.084601,424.002593 570.587638,424.712338 571.051,425.44784 C571.920923,426.664072 572.448772,428.091338 572.57955,429.58093 L572.57955,472.50493 L572.3084,472.51064 C562.04501,472.71989 555.69231,474.45984 555.69231,475.95164 C555.69231,477.58833 563.30996,479.41214 574.24067,479.41214 C585.17138,479.41214 592.78891,477.58833 592.78891,475.95164 C592.78891,474.48198 586.54375,472.75173 576.45455,472.5187 L576.18231,472.51223 L576.436,432.80705 C576.442039,430.118785 577.066965,427.468005 578.26235,425.06013 C578.46609,424.6554 578.68504,424.26177 578.91305,423.89085 C579.09619,423.59241 579.29023,423.30119 579.48966,423.02627 L579.52622,422.97573 L579.58101,422.94573 C580.08643,422.66973 580.623097,422.37064 581.19101,422.04846 L581.25766,422.01222 C584.98328,419.90808 588.99751,417.44084 593.19015,414.67732 C596.93345,412.20954 598.2368,407.22184 597.06396,399.85312 C595.94646,392.82722 592.85235,385.25735 590.4536,380.14421 Z" id="Path" fill="#D0CDE1"></path>
            <path d="M591.41505,413.77753 C587.01938,416.67479 583.39034,418.84773 580.61505,420.41334 L580.61256,420.41334 C576.563795,420.13694 572.49782,420.251133 568.47095,420.75434 C565.62595,419.16634 561.78783,416.88885 557.0661,413.77753 C557.0213,413.74766 556.9765,413.71779 556.93169,413.68543 L556.93169,413.68294 C552.60069,410.70354 552.49369,404.39378 553.9025,397.94216 C557.48675,397.5439 563.20163,397.71816 570.88036,400.46108 C579.97289,403.70929 589.49103,401.87237 595.00678,400.20221 C595.91278,405.89468 595.3602,411.17646 591.41505,413.77753 Z" id="Path" fill="#5770BE"></path>
            <circle id="Oval" fill="#5770BE" cx="565.27997" cy="394.3629" r="1.24453"></circle>
            <circle id="Oval" fill="#FFFFFF" cx="561.79529" cy="405.81255" r="1.24453"></circle>
            <circle id="Oval" fill="#5770BE" cx="568.26683" cy="397.34976" r="1"></circle>
            <circle id="Oval" fill="#FFFFFF" cx="571.2537" cy="411.53738" r="1"></circle>
            <circle id="Oval" fill="#FFFFFF" cx="566.02668" cy="412.2841" r="1"></circle>
            <circle id="Oval" fill="#5770BE" cx="581.20992" cy="387.39354" r="1"></circle>
        </g>
    </g>
</svg>