<?xml version="1.0" encoding="UTF-8"?>
<svg width="1000px" height="800px" viewBox="0 0 1000 800" version="1.1" xmlns="http://www.w3.org/2000/svg" xmlns:xlink="http://www.w3.org/1999/xlink">
    <title>gestes_barrieres</title>
    <g id="gestes_barrieres" stroke="none" stroke-width="1" fill="none" fill-rule="evenodd">
        <g id="undraw_social_distancing_2g0u" transform="translate(159.000000, 61.000000)">
            <ellipse id="Oval" fill="#E6E6E6" fill-rule="nonzero" cx="123.57123" cy="230.54811" rx="95.37247" ry="194.59837"></ellipse>
            <path d="M122.69563,232.56651 C127.45303,147.85923 137.03841,90.64211 137.13472,90.07403 L135.05499,89.72174 C134.95868,90.29034 125.35631,147.59914 120.59118,232.4156 C116.19379,310.69624 115.13281,429.10039 135.05448,548.62939 L137.13523,548.28329 C117.24757,428.95721 118.30596,310.73229 122.69563,232.56651 Z" id="Path" fill="#3F3D56" fill-rule="nonzero"></path>
            <rect id="Rectangle" fill="#3F3D56" fill-rule="nonzero" transform="translate(166.194214, 215.090730) rotate(-28.156900) translate(-166.194214, -215.090730) " x="117.291054" y="214.03587" width="97.80632" height="2.10972"></rect>
            <rect id="Rectangle" fill="#3F3D56" fill-rule="nonzero" transform="translate(75.167921, 238.211315) rotate(-61.858400) translate(-75.167921, -238.211315) " x="74.1130613" y="189.308155" width="2.10972" height="97.80632"></rect>
            <ellipse id="Oval" fill="#5770BE" fill-rule="nonzero" cx="635.81992" cy="378.96817" rx="46.22863" ry="94.32509"></ellipse>
            <path d="M635.77921,383.03196 L636.05283,383.54355 L677.85068,361.17148 L676.90732,359.40781 L635.86632,381.37481 C638.13744,339.57342 642.78246,311.51214 642.87609,310.95959 L640.90441,310.62559 C640.80218,311.22899 635.28319,344.55211 633.32427,392.77049 L591.93078,370.61485 L590.98742,372.37852 L632.78527,394.75059 L633.28427,393.81779 C631.71695,433.61516 632.59543,483.37743 640.90396,533.22813 L642.87662,532.90001 C633.8179,478.54752 633.61838,424.29722 635.77921,383.03196 Z" id="Path" fill="#3F3D56" fill-rule="nonzero"></path>
            <path d="M633.560527,585.76573 C454.258345,507.81847 291.672361,511.97081 186.853524,529.18073 C73.2954236,547.82532 1.23698575,585.36927 0.522667678,585.74622 L0,583.87903 C0.716451651,583.5011 72.9444906,545.86829 186.680726,527.19446 C253.582721,516.22345 321.084372,513.852165 388.307321,520.11146 C471.759383,527.868478 554.239679,549.269009 634,583.85946 L633.560527,585.76573 Z" id="Path" fill="#3F3D56" fill-rule="nonzero"></path>
            <path d="M316.51176,563.73657 C316.51176,563.73657 317.20233,549.26674 331.35889,550.94866" id="Path" fill="#3F3D56" fill-rule="nonzero"></path>
            <circle id="Oval" fill="#5770BE" fill-rule="nonzero" cx="312.51176" cy="542.88148" r="7.08526"></circle>
            <rect id="Rectangle" fill="#3F3D56" fill-rule="nonzero" x="311.35889" y="554.81263" width="2" height="14"></rect>
            <path d="M574.51176,566.73657 C574.51176,566.73657 575.20233,552.26674 589.35889,553.94866" id="Path" fill="#3F3D56" fill-rule="nonzero"></path>
            <circle id="Oval" fill="#5770BE" fill-rule="nonzero" cx="570.51176" cy="545.88148" r="7.08526"></circle>
            <rect id="Rectangle" fill="#3F3D56" fill-rule="nonzero" x="569.35889" y="557.81263" width="2" height="14"></rect>
            <path d="M149.51176,541.73657 C149.51176,541.73657 150.20233,527.26674 164.35889,528.94866" id="Path" fill="#3F3D56" fill-rule="nonzero"></path>
            <circle id="Oval" fill="#5770BE" fill-rule="nonzero" cx="145.51176" cy="520.88148" r="7.08526"></circle>
            <rect id="Rectangle" fill="#3F3D56" fill-rule="nonzero" x="144.35889" y="532.81263" width="2" height="14"></rect>
            <path d="M258.51176,522.73657 C258.51176,522.73657 259.20233,508.26674 273.35889,509.94866" id="Path" fill="#3F3D56" fill-rule="nonzero"></path>
            <circle id="Oval" fill="#5770BE" fill-rule="nonzero" cx="254.51176" cy="501.88148" r="7.08526"></circle>
            <rect id="Rectangle" fill="#3F3D56" fill-rule="nonzero" x="253.35889" y="513.81263" width="2" height="14"></rect>
            <path d="M531.51176,549.73657 C531.51176,549.73657 532.20233,535.26674 546.35889,536.94866" id="Path" fill="#3F3D56" fill-rule="nonzero"></path>
            <circle id="Oval" fill="#5770BE" fill-rule="nonzero" cx="527.51176" cy="528.88148" r="7.08526"></circle>
            <rect id="Rectangle" fill="#3F3D56" fill-rule="nonzero" x="526.35889" y="540.81263" width="2" height="14"></rect>
            <polygon id="Path" fill="#2F2E41" fill-rule="nonzero" points="399.191 130.876 451.677 142.887 473.853 101.062 428.974 83.54"></polygon>
            <path d="M427.07706,356.02688 C427.07706,356.02688 410.2055,394.69088 410.2055,405.93857 C410.2055,405.93857 416.88383,436.51827 414.77488,444.95405 L407.39357,460.77114 L391.92798,454.44431 L387.71009,412.26541 L388.41309,344.77917 L427.07706,356.02688 Z" id="Path" fill="#FFB9B9" fill-rule="nonzero"></path>
            <path d="M436.56731,124.74591 C436.56731,124.74591 437.97331,147.94431 435.16131,154.97412 C432.34931,162.00393 445.70603,175.36059 445.70603,175.36059 L466.79557,147.94431 C466.79557,147.94431 452.73594,133.88468 456.25085,118.41908 L436.56731,124.74591 Z" id="Path" fill="#FFB9B9" fill-rule="nonzero"></path>
            <path d="M392.63096,285.37722 C392.63096,285.37722 372.24449,323.33822 391.92796,320.5263 C411.61143,317.71438 404.93314,284.32273 404.93314,284.32273" id="Path" fill="#E6E6E6" fill-rule="nonzero"></path>
            <polyline id="Path" fill="#FFB9B9" fill-rule="nonzero" points="404.933 284.323 411.611 217.891 411.26 177.47 395.794 180.281 395.794 217.539 392.631 285.377"></polyline>
            <path d="M388.06157,449.52343 L418.28979,437.57273 L421.8047,497.32617 C421.8047,497.32617 428.13157,515.60373 426.02257,522.63353 C426.02257,522.63353 427.42857,534.58421 423.91362,535.2872 C420.39867,535.99019 410.55697,537.39614 409.85399,536.6932 C409.15101,535.99026 409.15099,533.88127 409.15099,533.88127 C409.15099,533.88127 402.12117,538.80214 401.41819,544.426 C401.41819,544.426 371.89296,553.56476 371.18998,545.129 C370.487,536.69324 385.95259,529.6634 385.95259,529.6634 L397.90328,511.38588 L388.06157,449.52343 Z" id="Path" fill="#2F2E41" fill-rule="nonzero"></path>
            <path d="M489.99392,356.02688 C489.99392,356.02688 473.12236,394.69088 473.12236,405.93857 C473.12236,405.93857 479.80068,436.51827 477.69174,444.95405 L470.31043,460.77114 L454.84483,454.44431 L450.62694,412.26541 L451.32994,344.77917 L489.99392,356.02688 Z" id="Path" fill="#FFB9B9" fill-rule="nonzero"></path>
            <path d="M452.03291,449.52343 L482.26112,437.57273 L485.77603,497.32617 C485.77603,497.32617 492.10286,515.60369 489.99392,522.63351 C489.99392,522.63351 491.39992,534.58419 487.88492,535.28718 C484.36992,535.99017 474.52827,537.39612 473.82529,536.69318 C473.12231,535.99024 473.12229,533.88125 473.12229,533.88125 C473.12229,533.88125 466.09247,538.80212 465.38949,544.42598 C465.38949,544.42598 435.86426,553.56474 435.16128,545.12898 C434.4583,536.69322 449.92389,529.66338 449.92389,529.66338 L461.87458,511.38586 L452.03291,449.52343 Z" id="Path" fill="#2F2E41" fill-rule="nonzero"></path>
            <path d="M466.09741,108.58073 C466.092415,120.043331 457.469765,129.669318 446.076805,130.930946 C434.683844,132.192574 424.16402,124.686377 421.65122,113.50259 C421.281271,111.888219 421.096519,110.236943 421.100476,108.58073 C421.10882,96.1610447 431.179287,86.0972895 443.598975,86.0972895 C456.018663,86.0972895 466.08913,96.1610447 466.09741,108.58073 Z" id="Path" fill="#FFB9B9" fill-rule="nonzero"></path>
            <path d="M446.40905,153.56816 L463.86579,144.50279 L471.71639,150.75623 C471.71639,150.75623 490.6969,150.05323 497.72672,158.48903 C504.75654,166.92483 508.62293,188.36573 508.62293,188.36573 C508.62293,188.36573 485.42454,183.44486 488.23646,203.12835 L484.01857,191.88066 L480.15217,201.37091 L433.0524,217.53949 L411.96295,181.68743 C411.96295,181.68743 397.90332,177.46954 392.98245,187.31128 C392.98245,187.31128 394.03692,151.81071 407.74506,150.75628 C416.96411,150.04713 423.91364,150.05328 423.91364,150.05328 L431.64644,148.64728 L436.59838,146.88983 L446.40905,153.56816 Z" id="Path" fill="#575A89" fill-rule="nonzero"></path>
            <path d="M476.28569,230.54473 C476.28569,230.54473 513.19231,341.26429 502.64759,356.72989 C502.64759,356.72989 463.28059,376.41337 384.54667,349.70007 L416.53227,225.62383 C436.17973,221.605763 456.097537,223.246063 476.28569,230.54473 Z" id="Path" fill="#2F2E41" fill-rule="nonzero"></path>
            <path d="M476.28569,230.54473 L486.67274,194.85037 C474.21281,181.29999 484.96698,151.25261 484.96698,151.25261 L469.93271,148.03098 C469.93271,148.03098 454.84483,188.71727 439.37924,183.7964 C423.91365,178.87553 432.34942,147.2414 432.34942,147.2414 L418.28979,148.6474 L411.96295,173.25176 L416.53227,225.62391 C435.58891,223.98928 455.57524,225.89138 476.28569,230.54473 Z" id="Path" fill="#575A89" fill-rule="nonzero"></path>
            <polyline id="Path" fill="#FFB9B9" fill-rule="nonzero" points="494.563 284.323 499.484 217.539 500.89 177.47 485.425 180.281 485.425 217.539 482.261 285.377"></polyline>
            <path d="M482.26112,285.37722 C482.26112,285.37722 461.87465,323.33822 481.55812,320.5263 C501.24159,317.71438 494.5633,284.32273 494.5633,284.32273" id="Path" fill="#FFFFFF" fill-rule="nonzero"></path>
            <path d="M508.62293,188.36573 C508.62293,188.36573 506.12404,152.26361 485.22956,152.388316 L485.22956,194.13904 C485.22956,194.13904 500.89013,184.85084 508.62293,188.36573 Z" id="Path" fill="#575A89" fill-rule="nonzero"></path>
            <path d="M450.79244,114.38597 C450.548693,114.386124 450.331462,114.232233 450.250761,114.002232 C450.170061,113.772232 450.243514,113.516348 450.43392,113.36417 L461.90683,104.18584 C462.066797,104.056125 462.284003,104.022067 462.475995,104.096596 C462.667987,104.171124 462.805326,104.342812 462.835877,104.546483 C462.866428,104.750155 462.785506,104.954581 462.62383,105.08216 L451.15092,114.26049 C451.049115,114.34176 450.922706,114.38597 450.79244,114.38597 Z" id="Path" fill="#FFFFFF" fill-rule="nonzero"></path>
            <path d="M451.66067,128.15347 C451.4083,128.46319 451.15593,128.77298 450.89208,129.0598 C444.727419,131.854875 437.631943,131.725905 431.572929,128.708649 C425.513914,125.691394 421.135348,120.106543 419.65122,113.50254 L430.52246,111.50254 L451.66067,113.50254 C446.81914,119.39963 447.40427,121.44173 451.66067,128.15347 Z" id="Path" fill="#FFFFFF" fill-rule="nonzero"></path>
            <path d="M430.89595,77.09115 C430.89595,77.09115 419.26906,79.27815 416.58028,93.77903 C416.159673,96.2244528 416.083031,98.7166732 416.35258,101.18332 C416.62106,103.97458 416.23158,109.87004 410.17083,116.81188 C406.216151,121.314306 402.531252,126.04671 399.13544,130.9843 L399.13544,130.9843 L411.28451,134.21854 L416.71268,114.08973 C419.344385,104.330816 423.39861,95.012558 428.74493,86.43473 L428.85653,86.25567 C428.85653,86.25567 432.89164,97.03737 443.70683,98.51543 L440.37214,94.12499 C440.37214,94.12499 453.01514,101.43361 460.17814,103.66625 C461.844087,104.185842 463.085761,105.584602 463.404165,107.300404 C463.722569,109.016205 463.065424,110.767332 461.69682,111.85005 C461.64602,111.89001 461.594277,111.93001 461.54159,111.97005 C456.27306,115.97168 445.52484,125.51996 449.7711,134.75664 C454.01736,143.99332 449.06555,145.67741 449.06555,145.67741 L458.19666,142.20366 L462.37595,140.414 L461.95365,143.50405 L482.35573,143.93148 C482.35573,143.93148 487.8689,143.89799 478.07598,129.18163 C478.07598,129.18163 475.71303,123.66357 477.65291,119.44796 C479.209807,116.255455 479.984942,112.738391 479.91431,109.18719 C479.29757,94.35034 473.04742,64.16615 430.89595,77.09115 Z" id="Path" fill="#2F2E41" fill-rule="nonzero"></path>
            <path d="M144.69592,499.71293 C144.69592,499.71293 144.69592,595.17483 122.78663,620.21402 C122.78663,620.21402 118.09178,632.73362 116.52683,637.42847 C115.651809,640.100918 114.606368,642.714524 113.39694,645.25321 L113.39694,651.51301 C113.39694,651.51301 71.14331,646.81816 66.44846,635.86352 L74.2732,626.47382 C74.2732,626.47382 75.83815,624.90887 74.2732,620.21402 C72.70825,615.51917 77.4031,615.51918 77.4031,615.51918 L88.35775,590.47999 L86.7928,487.19333 L94.61757,344.78295 L161.91039,341.65305 L144.69592,499.71293 Z" id="Path" fill="#2F2E41" fill-rule="nonzero"></path>
            <path d="M110.26704,642.12331 C110.26704,642.12331 121.22168,674.98725 110.26704,676.5522 C99.3124,678.11715 3.85049,679.6821 5.41544,667.1625 C6.98039,654.6429 38.27937,656.20786 38.27937,656.20786 L71.14331,635.86352 L110.26704,642.12331 Z" id="Path" fill="#2F2E41" fill-rule="nonzero"></path>
            <path d="M207.29389,344.78295 C207.29389,344.78295 210.42379,365.12729 197.9042,387.03658 C185.38461,408.94587 193.20935,482.49849 193.20935,482.49849 L304.32075,579.52534 C304.32075,579.52534 282.41146,617.08412 274.58675,615.51918 C266.76204,613.95424 143.13097,513.79747 143.13097,513.79747 L94.61757,351.04273 L207.29389,344.78295 Z" id="Path" fill="#2F2E41" fill-rule="nonzero"></path>
            <path d="M302.79382,575.37873 C302.79382,575.37873 336.41629,583.71973 331.87356,593.81015 C327.33083,603.90057 277.54734,685.36855 267.81068,677.34441 C258.07402,669.32027 276.15168,643.72194 276.15168,643.72194 L276.56183,605.07272 L302.79382,575.37873 Z" id="Path" fill="#2F2E41" fill-rule="nonzero"></path>
            <path d="M182.254611,53.70502 C182.267049,61.9495278 179.432884,69.9455579 174.23102,76.34186 C165.847652,86.7317903 152.391692,91.6122746 139.29694,89.01247 C136.079948,88.3907188 132.966459,87.3193435 130.04806,85.82986 C120.66813,81.1021478 113.823297,72.5106621 111.311,62.31151 C110.611598,59.4962699 110.260356,56.6058331 110.265102,53.70502 C110.265102,33.8256906 126.380531,17.71031 146.25986,17.71031 C166.139189,17.71031 182.254611,33.8256906 182.254611,53.70502 L182.254611,53.70502 Z" id="Path" fill="#A0616A" fill-rule="nonzero"></path>
            <path d="M174.58145,66.40226 L172.98945,112.7196 L142.70332,124.68606 C142.70332,124.68606 139.73324,77.26014 135.54067,74.63087 C131.3481,72.0016 174.58145,66.40226 174.58145,66.40226 Z" id="Path" fill="#A0616A" fill-rule="nonzero"></path>
            <path d="M135.30623,130.38489 C135.30623,130.38489 177.55986,88.13126 188.5145,89.69621 C199.46914,91.26116 199.46915,95.95601 199.46915,99.08591 C199.46915,102.21581 196.33925,103.78076 199.46915,105.34571 C202.59905,106.91066 205.72894,105.34571 205.72894,110.04055 C205.72894,114.73539 233.89803,161.68388 224.50834,213.32721 C215.11865,264.97054 204.164,290.00972 208.85884,318.17881 C213.55368,346.3479 210.42379,352.60769 210.42379,352.60769 C210.42379,352.60769 93.05257,361.99739 91.48765,351.04273 C89.92273,340.08807 96.18249,346.34788 88.35775,338.52313 C80.53301,330.69838 83.6629,330.69838 83.6629,326.00354 C83.6629,321.3087 118.09178,130.38489 135.30623,130.38489 Z" id="Path" fill="#575A89" fill-rule="nonzero"></path>
            <path d="M157.21557,343.218 C157.21557,343.218 138.43612,388.60153 124.35157,377.64688 C110.26702,366.69223 130.61137,329.13345 130.61137,329.13345 L157.21557,343.218 Z" id="Path" fill="#FFFFFF" fill-rule="nonzero"></path>
            <path d="M202.59905,133.51479 C202.59905,133.51479 239.36759,137.72428 225.67816,205.25979 C211.98873,272.7953 158.78047,351.04273 158.78047,351.04273 L122.78663,333.82828 L169.73511,241.49628 L158.78047,183.59317 C158.78047,183.59317 152.52067,128.81995 202.59905,133.51479 Z" id="Path" fill="#575A89" fill-rule="nonzero"></path>
            <polygon id="Path" fill="#000000" fill-rule="nonzero" opacity="0.2" points="170.518 242.279 118.874 328.351 123.569 333.046"></polygon>
            <polygon id="Path" fill="#000000" fill-rule="nonzero" opacity="0.2" points="197.853 282.389 156.433 350.26 170.518 350.26"></polygon>
            <rect id="Rectangle" fill="#000000" fill-rule="nonzero" opacity="0.2" transform="translate(123.840242, 460.114139) rotate(-20.876860) translate(-123.840242, -460.114139) " x="122.726852" y="402.333364" width="2.22678" height="115.56155"></rect>
            <circle id="Oval" fill="#D0CDE1" fill-rule="nonzero" cx="135.52808" cy="136.75108" r="2.22625"></circle>
            <line x1="135.52808" y1="136.75108" x2="116.60494" y2="197.973" id="Path"></line>
            <path d="M116.60495,199.08614 C117.093136,199.08614 117.524271,198.767807 117.66807,198.30128 L136.59121,137.07991 C136.709556,136.699836 136.61587,136.285494 136.345521,135.993306 C136.075172,135.701119 135.66934,135.575593 135.281235,135.664117 C134.89313,135.752642 134.581869,136.041732 134.46496,136.42225 L115.54182,197.64473 C115.438015,197.982323 115.50045,198.349142 115.710096,198.633384 C115.919742,198.917625 116.251758,199.08614 116.60495,199.08614 L116.60495,199.08614 Z" id="Path" fill="#D0CDE1" fill-rule="nonzero"></path>
            <path d="M139.04302,81.27264 L130.04802,89.82986 C120.78419,85.16803 111.83622,72.60642 109.31096,62.31151 L121.11286,57.36578 C121.88332,67.86598 129.3367,74.84673 139.04302,81.27264 Z" id="Path" fill="#FFFFFF" fill-rule="nonzero"></path>
            <path d="M141.28575,61.8483237 C141.250115,61.8484329 141.214517,61.8459933 141.17923,61.84102 L120.26073,58.85266 C119.996428,58.8151257 119.772228,58.6394394 119.672583,58.3917804 C119.572938,58.1441214 119.612987,57.862115 119.777643,57.6519904 C119.942299,57.4418657 120.206548,57.3355457 120.47085,57.37308 L141.38935,60.36143 C141.777485,60.4164258 142.057113,60.762049 142.029866,61.1531125 C142.002618,61.5441761 141.677761,61.8476813 141.28575,61.8483237 L141.28575,61.8483237 Z" id="Path" fill="#FFFFFF" fill-rule="nonzero"></path>
            <path d="M138.29593,81.2726404 C138.030411,81.2729263 137.784728,81.1321355 137.650736,80.9029047 C137.516744,80.6736739 137.514617,80.390518 137.64515,80.1593 L144.57615,67.82065 C144.706551,67.5872686 144.951763,67.4413993 145.219084,67.4381322 C145.486406,67.4349734 145.735053,67.5749071 145.871025,67.8050869 C146.006998,68.0352668 146.009551,68.3205735 145.87772,68.55315 L138.94672,80.8918 C138.814733,81.1272025 138.565809,81.2728719 138.29593,81.2726404 L138.29593,81.2726404 Z" id="Path" fill="#FFFFFF" fill-rule="nonzero"></path>
            <path d="M162.55215,75.33091 C159.63823,73.79024 156.25336,73.4726 153.09938,72.51497 C141.81538,69.08887 134.25619,56.33286 136.66954,44.78974 C137.115484,43.3092138 137.315692,41.7655933 137.2622,40.22029 C136.84033,36.80156 133.34215,34.59567 129.98774,33.81236 C126.63333,33.02905 123.06429,33.14282 119.85818,31.88322 C114.9079,29.93838 111.61963,24.85111 110.9068,19.58047 C110.19397,14.30983 111.75787,8.93434 114.30158,4.26347 L115.51324,7.75009 C117.361121,6.18583683 118.732816,4.13429571 119.47224,1.82891 C122.27241,2.29946721 124.626346,4.19242059 125.68676,6.82641 C127.63165,7.97326 127.91182,3.26349 130.0601,2.56869 C130.95966,2.27775 131.88469,2.83044 132.74152,3.23007 C137.07036,5.24907 142.09979,3.52282 146.74336,2.40368 C154.784294,0.47490586 163.166227,0.465036629 171.21168,2.37487 C176.55678,3.64978 181.84748,5.86987 185.67226,9.81528 C188.81335,13.05545 190.77048,17.24539 192.43689,21.43922 C196.53915,31.76334 199.2492,42.93437 197.89496,53.96079 C196.767153,62.9838915 192.992257,71.4708532 187.0465,78.35099 C183.94908,81.91964 173.84357,94.36973 168.30257,92.24714 C161.34022,89.58002 170.75557,79.6683 162.55215,75.33091 Z" id="Path" fill="#2F2E41" fill-rule="nonzero"></path>
        </g>
    </g>
</svg>