<?xml version="1.0" encoding="UTF-8"?>
<svg width="1000px" height="800px" viewBox="0 0 1000 800" version="1.1" xmlns="http://www.w3.org/2000/svg" xmlns:xlink="http://www.w3.org/1999/xlink">
    <title>grossesse</title>
    <g id="grossesse" stroke="none" stroke-width="1" fill="none" fill-rule="evenodd">
        <g id="undraw_smart_resize_wpn8" transform="translate(149.000000, 61.000000)" fill-rule="nonzero">
            <rect id="Rectangle" fill="#3F3D56" x="35.8453568" y="335.436552" width="176.656441" height="1.85356812"></rect>
            <rect id="Rectangle" fill="#3F3D56" x="441.99127" y="335.436552" width="176.656441" height="1.85356812"></rect>
            <circle id="Oval" fill="#5770BE" cx="124.173689" cy="336.363679" r="10.7314921"></circle>
            <circle id="Oval" fill="#5770BE" cx="601.312178" cy="336.363679" r="10.7314921"></circle>
            <path d="M116.486821,154.892261 C128.334652,190.549018 124.173689,224.028499 124.173689,224.028499 C124.173689,224.028499 100.803596,199.696914 88.9557646,164.040158 C77.1079333,128.383401 81.2688971,94.9039203 81.2688971,94.9039203 C81.2688971,94.9039203 104.63899,119.235496 116.486821,154.892261 Z" id="Path" fill="#5770BE"></path>
            <path d="M131.860556,154.892261 C120.012725,190.549018 124.173689,224.028499 124.173689,224.028499 C124.173689,224.028499 147.543791,199.696914 159.391622,164.040158 C171.239453,128.383401 167.07848,94.9039203 167.07848,94.9039203 C167.07848,94.9039203 143.708387,119.235496 131.860556,154.892261 Z" id="Path" fill="#5770BE"></path>
            <path d="M136.632419,155.277841 C137.426571,192.843049 123.568063,223.602215 123.568063,223.602215 C123.568063,223.602215 108.421974,193.456182 107.627813,155.890973 C106.833652,118.325765 120.692169,87.5665431 120.692169,87.5665431 C120.692169,87.5665431 135.838258,117.712623 136.632419,155.277841 Z" id="Path" fill="#3F3D56"></path>
            <circle id="Oval" fill="#5770BE" cx="122.13012" cy="122.078675" r="3.67746061"></circle>
            <circle id="Oval" fill="#5770BE" cx="114.9795" cy="151.49836" r="2.04303058"></circle>
            <circle id="Oval" fill="#3F3D56" cx="90.0544856" cy="131.272326" r="2.04303058"></circle>
            <circle id="Oval" fill="#3F3D56" cx="162.173587" cy="111.454893" r="2.04303058"></circle>
            <circle id="Oval" fill="#3F3D56" cx="100.678258" cy="150.47684" r="2.04303058"></circle>
            <circle id="Oval" fill="#3F3D56" cx="143.581974" cy="138.627247" r="2.04303058"></circle>
            <circle id="Oval" fill="#3F3D56" cx="101.904078" cy="180.509444" r="2.04303058"></circle>
            <circle id="Oval" fill="#3F3D56" cx="145.625005" cy="168.864152" r="2.04303058"></circle>
            <circle id="Oval" fill="#5770BE" cx="125.807581" cy="170.907183" r="2.04303058"></circle>
            <polygon id="Path" fill="#3F3D56" points="136.899907 247.246525 136.430955 245.452271 246.041705 216.823911 200.435589 42.2131603 2.30491196 93.9629286 36.1047266 223.367933 34.3104727 223.836886 0.0435588508 92.6376274 201.76089 39.9508804 201.995366 40.8480074 248.303985 218.148285"></polygon>
            <path d="M519.640185,159.242854 C536.099926,208.779462 530.319249,255.291158 530.319249,255.291158 C530.319249,255.291158 497.852076,221.488221 481.392335,171.95164 C464.932595,122.41506 470.713262,75.9033364 470.713262,75.9033364 C470.713262,75.9033364 503.180445,109.706274 519.640185,159.242854 Z" id="Path" fill="#5770BE"></path>
            <path d="M540.998323,159.242854 C524.538582,208.779462 530.319249,255.291158 530.319249,255.291158 C530.319249,255.291158 562.786432,221.488221 579.246172,171.95164 C595.705913,122.41506 589.925236,75.9033364 589.925236,75.9033364 C589.925236,75.9033364 557.458054,109.706274 540.998323,159.242854 Z" id="Path" fill="#5770BE"></path>
            <path d="M547.627683,159.778526 C548.730982,211.966441 529.477887,254.699027 529.477887,254.699027 C529.477887,254.699027 508.435996,212.818304 507.332706,160.630445 C506.229416,108.442586 525.482502,65.7099351 525.482502,65.7099351 C525.482502,65.7099351 546.524393,107.590593 547.627683,159.778526 Z" id="Path" fill="#3F3D56"></path>
            <circle id="Oval" fill="#5770BE" cx="527.480195" cy="113.656191" r="5.10895273"></circle>
            <circle id="Oval" fill="#5770BE" cx="517.546117" cy="154.527841" r="2.83831325"></circle>
            <circle id="Oval" fill="#3F3D56" cx="482.91874" cy="126.428582" r="2.83831325"></circle>
            <circle id="Oval" fill="#3F3D56" cx="583.111047" cy="98.896988" r="2.83831325"></circle>
            <circle id="Oval" fill="#3F3D56" cx="497.677952" cy="153.108693" r="2.83831325"></circle>
            <circle id="Oval" fill="#3F3D56" cx="557.282437" cy="136.646497" r="2.83831325"></circle>
            <circle id="Oval" fill="#3F3D56" cx="499.380936" cy="194.831835" r="2.83831325"></circle>
            <circle id="Oval" fill="#3F3D56" cx="560.120751" cy="178.653466" r="2.83831325"></circle>
            <circle id="Oval" fill="#5770BE" cx="532.589147" cy="181.491779" r="2.83831325"></circle>
            <polygon id="Path" fill="#3F3D56" points="547.908248 287.197405 547.439296 285.404078 700.065802 245.539388 636.525487 2.2613531 360.571826 74.3382762 407.620019 254.464319 405.825765 254.933272 358.309546 73.012975 637.850788 0 638.085264 0.896200185 702.329008 246.86469"></polygon>
            <circle id="Oval" fill="#5770BE" cx="557.560723" cy="81.2844578" r="12.3824838"></circle>
            <circle id="Oval" fill="#3F3D56" cx="500.601288" cy="87.8884523" r="6.60399444"></circle>
            <circle id="Oval" fill="#3F3D56" cx="124.173689" cy="380.36747" r="17.6088971"></circle>
            <circle id="Oval" fill="#3F3D56" cx="530.319249" cy="380.36747" r="17.6088971"></circle>
            <path d="M308.948656,676.938369 L308.086135,676.938369 C263.419036,676.938369 221.024551,674.717349 188.712456,670.68443 L187.409166,670.513364 C186.525378,670.397516 185.652447,670.281066 184.790371,670.164013 C179.718851,669.495171 174.755487,668.744875 170.042373,667.934847 C146.641529,663.86025 134.777516,659.003689 134.777516,653.5 C134.777516,648.934866 142.55924,644.95531 158.567535,641.335032 C166.26962,639.594597 175.777757,637.989917 186.827665,636.565348 C188.840519,636.29658 190.913114,636.045848 193.032317,635.805097 C224.684171,632.101585 265.545477,630.061566 308.086135,630.061566 C316.49507,630.061566 325.004467,630.143021 333.377201,630.302317 C404.666719,631.668953 481.394754,639.510417 481.394754,653.499963 C481.394754,661.855505 453.652326,667.247878 430.379092,670.300639 C397.981928,674.549008 354.857053,676.906691 308.948656,676.938369 Z M308.086135,631.915125 C265.615171,631.915125 224.830343,633.950612 193.245014,637.645987 C191.134856,637.886728 189.076138,638.13924 187.06886,638.403522 C176.0719,639.820853 166.621687,641.414643 158.976627,643.143336 C138.808211,647.703948 136.631084,651.905246 136.631084,653.499963 C136.631084,655.525496 139.917368,660.80835 170.358239,666.108397 C175.045561,666.913902 179.98494,667.660575 185.037905,668.327609 C185.899972,668.446172 186.770195,668.560232 187.649917,668.675153 L188.949129,668.846209 C221.180667,672.869212 263.493253,675.084801 308.086135,675.084801 L308.948211,675.084801 C410.992697,675.014208 479.541186,663.867461 479.541186,653.5 C479.541186,644.385079 424.855496,633.909018 333.341928,632.155913 C324.980936,631.995681 316.483309,631.915125 308.086135,631.915125 Z" id="Shape" fill="#3F3D56"></path>
            <path d="M224.432104,633.811233 L223.437442,633.43835 C223.218869,633.355987 201.464791,625.021297 191.274235,606.12266 C181.083234,587.223142 186.07329,564.468054 186.124884,564.24089 L186.35975,563.204588 L187.353957,563.577479 C187.57253,563.659833 209.326154,571.994532 219.517164,590.89317 C229.708174,609.792688 224.718109,632.547766 224.666515,632.77494 L224.432104,633.811233 Z M192.906061,605.242938 C201.521807,621.221816 218.712567,629.412632 223.068184,631.282493 C223.896311,626.61418 226.493392,607.736386 217.885338,591.772892 C209.278193,575.811205 192.080649,567.60772 187.723225,565.733336 C186.894643,570.404365 184.298471,589.280343 192.906061,605.242938 Z" id="Shape" fill="#3F3D56"></path>
            <path d="M199.062178,599.493327 C217.375959,610.511501 224.429184,632.396636 224.429184,632.396636 C224.429184,632.396636 201.789898,636.417776 183.476117,625.399601 C165.162335,614.381427 158.10911,592.496293 158.10911,592.496293 C158.10911,592.496293 180.748397,588.475153 199.062178,599.493327 Z" id="Path" fill="#5770BE"></path>
            <path d="M341.543744,243.248063 C341.543744,243.248063 326.211029,241.057674 318.544671,269.532734 C310.878313,298.007794 308.687924,300.198165 308.687924,300.198165 C308.687924,300.198165 353.590899,306.769333 354.68607,304.578943 C355.781242,302.388554 364.542827,249.819231 341.543744,243.248063 Z" id="Path" fill="#2F2E41"></path>
            <circle id="Oval" fill="#FFB8B8" cx="332.782187" cy="202.725867" r="29.5702502"></circle>
            <path d="M319.639852,226.820148 C319.639852,226.820148 329.496599,252.00962 326.211019,255.295209 C322.92544,258.580797 366.733216,262.961566 366.733216,262.961566 C366.733216,262.961566 370.018804,246.533652 356.876469,236.676895 C356.876469,236.676895 351.400491,220.248981 352.49569,216.963392 C353.59089,213.677804 319.639852,226.820148 319.639852,226.820148 Z" id="Path" fill="#FFB8B8"></path>
            <path d="M334.924523,237.772095 C323.698087,242.011386 324.585323,248.75323 316.354272,257.485598 C303.211937,271.723123 296.640769,276.103902 296.640769,276.103902 C296.640769,276.103902 281.308054,281.57987 286.784013,307.864541 C287.729218,312.401521 294.313072,318.269358 289.90625,320 C281.547766,323.282533 258.688922,329.052734 258.688922,360.433865 C258.688922,402.098771 273.033232,402.553545 280.174883,407.989733 C281.745312,409.185136 281.392903,410.856297 279.117655,413.003216 C279.117655,413.003216 178.359759,624.375765 212.310788,638.613299 C246.261816,652.850834 276.927266,657.231603 279.117655,653.946015 C281.308044,650.660426 320.735042,479.810083 320.735042,479.810083 C320.735042,479.810083 331.686988,662.707572 359.06683,662.707572 C386.446673,662.707572 431.349666,655.041214 431.349666,655.041214 L375.494745,436.002289 C375.494745,436.002289 388.637081,398.765672 355.781242,372.481001 L351.400463,360.433865 C369.569574,360.443133 377.875107,245.448063 359.066821,235.581687 C359.066858,235.581705 343.68608,232.296117 334.924523,237.772095 Z" id="Path" fill="#2F2E41"></path>
            <path d="M318.544652,296.912595 L309.211937,337.434791 L296.060547,370.039063 C296.060547,370.039063 250.986571,376.927734 264.128906,376.927734 C267.023397,376.927734 256.352152,365.770832 255.732422,370.039062 C255.204771,373.673118 259.527128,388.674049 263.134766,390.242188 C274.528798,395.194852 308.560515,390.242188 308.560515,390.242188 C315.096616,385.98402 322.286731,374.880504 330.130859,356.931641 C337.974987,338.982777 344.699792,318.246299 350.305273,294.722206 L318.544652,296.912595 Z" id="Path" fill="#FFB8B8"></path>
            <ellipse id="Oval" fill="#2F2E41" cx="245.714217" cy="651.755635" rx="19.1659036" ry="10.9519462"></ellipse>
            <ellipse id="Oval" fill="#2F2E41" cx="392.470287" cy="651.755635" rx="19.1659036" ry="10.9519462"></ellipse>
            <path d="M344.197563,161.259064 L344.197451,161.259064 C342.674954,161.262033 341.156354,161.41304 339.663086,161.709954 C336.96515,160.400238 334.005762,159.718165 331.006728,159.714856 L330.221019,159.714856 C315.072994,159.714856 302.793216,173.422085 302.793216,190.330806 L302.793216,190.330862 L307.868925,190.330862 L308.688684,184.091529 L309.890491,190.330862 L314.118721,190.330862 C312.803532,195.33729 312.143405,200.493188 312.154866,205.669472 L312.154866,236.831557 L319.828888,236.831557 L324.271891,225.285728 L323.161084,236.831557 L372.487433,236.831557 L376.526506,226.335375 L375.516682,236.831557 L381.07038,236.831557 L381.07038,212.363707 C381.07038,184.139444 364.561816,161.259064 344.197563,161.259064 Z" id="Path" fill="#2F2E41"></path>
        </g>
    </g>
</svg>