<svg width="1000" height="800" xmlns="http://www.w3.org/2000/svg"><defs><linearGradient x1="50%" y1="100%" x2="50%" y2="0%" id="a"><stop stop-color="gray" stop-opacity=".3" offset="0%"/><stop stop-color="gray" stop-opacity=".1" offset="54%"/><stop stop-color="gray" stop-opacity=".1" offset="100%"/></linearGradient></defs><g transform="translate(0 19)" fill-rule="nonzero" fill="none"><path d="M877 563a91 91 0 01-47 23l-16 2a494 494 0 01-179-37c-32-12-64-29-97-24-16 3-32 10-48 12-11 2-23 1-34-2l-16-5c-11-5-22-12-32-19-25-17-47-38-72-53a281 281 0 00-108-32l-44-8c-14-2-28-6-41-13-8-6-16-14-23-22a256 256 0 01-33-52c-13-28-22-58-28-89l-1-3c-5-31-7-62-6-94v-3c0-15 1-31 3-46 1-11 2-22 8-31 5-9 14-15 23-20 40-21 79-27 122-17a778 778 0 0136 10c36 10 72 21 109 24a265 265 0 0033 1 370 370 0 0070-9 692 692 0 0080-22l31-10A477 477 0 01674 0a261 261 0 01176 58c14 11 27 23 37 38a139 139 0 0119 51 222 222 0 01-4 94v3c-7 26-15 52-13 79a118 118 0 002 13c4 22 14 43 19 65 11 41 8 84-8 124-6 14-14 28-25 38z" fill="#5770BE" opacity=".1"/><path d="M830 147h76v-3h-76V43l-16-10v111H674V0a214 214 0 00-16 2v142H457L567 24l-31 10-80 88V56l-16 3v66l-54-60h-22l72 79H244V40l-16-4v108H52v3h176v94H58l1 3h169v89H87l2 3h139v92l16 2v-94h196v196l16 5V336h202v225l16 5V336h140v252l16-2V336h61v-3h-61v-89h72v-3h-72v-94zm-16 0v94H674v-94h140zm-156 94H456v-94h202v94zm-414-94h194l2 2v92H244v-94zm0 186v-89h196v89H244zm212 0v-89h202v89H456zm358 0H674v-89h140v89z" fill="#5770BE" opacity=".1"/><path d="M747 82h-2l2-2c0-2-2-4-5-4h-37c-3 0-5 2-5 4s2 3 5 3h2l-2 3c0 1 2 3 4 3h-10c-3 0-6 2-6 3 0 2 3 4 6 4h36c3 0 5-2 5-4 0-1-2-3-4-3h11c2 0 5-1 5-3s-3-4-5-4zM353 115h-2l2-2c0-2-2-4-5-4h-37c-3 0-5 2-5 4s2 3 5 3h2l-2 3c0 1 2 3 4 3h-10c-3 0-6 2-6 3 0 2 3 4 6 4h36c3 0 5-2 5-4 0-1-2-3-4-3h11c2 0 5-1 5-3s-3-4-5-4zM802 256h-1l2-2c0-2-3-4-6-4h-36c-3 0-5 2-5 4s2 3 5 3h1l-1 3c0 1 2 3 4 3h-11c-2 0-5 2-5 4s3 3 5 3h37c3 0 5-1 5-3s-2-3-4-4h10c3 0 6-1 6-3s-3-4-6-4z" fill="#5770BE" opacity=".1"/><ellipse fill="#5770BE" opacity=".1" cx="484.9" cy="671.9" rx="389.8" ry="43"/><path d="M566 366v135l-1 7c-3 11-13 19-25 19H426a26 26 0 01-26-26V366a26 26 0 0126-26h114a26 26 0 0126 26z" fill="#E9CCDB"/><path d="M402 366v135l-1 7-1-7V366l1-7 1 7z" fill="#000" opacity=".1"/><rect fill="#E9CCDB" x="200" y="340.2" width="200.5" height="186.3" rx="27.7"/><path d="M566 366v135l-1 7-1-7V366l1-7 1 7z" fill="#000" opacity=".1"/><rect fill="#E9CCDB" x="565.9" y="340.2" width="200.5" height="186.3" rx="27.7"/><path d="M390 540H207l-1-16c-1-18 22-32 51-32h125c10 0 17 5 16 11l-8 37z" fill="#000" opacity=".1"/><path d="M390 542H207l-1-16c-1-18 22-33 51-33h125c10 0 17 6 16 12l-8 37z" fill="#CAA4BC"/><path d="M574 541h183l1-16c1-18-22-32-51-32H582c-10 0-17 5-16 11l8 37z" fill="#000" opacity=".1"/><path d="M574 543h183l1-16c1-18-22-33-51-33H582c-10 0-17 6-16 12l8 37z" fill="#CAA4BC"/><path d="M422 493h124a26 26 0 0127 26v16H393v-14c0-15 13-28 29-28z" fill="#000" opacity=".1"/><path d="M422 494h124a26 26 0 0127 27v16H393v-14c0-16 13-29 29-29z" fill="#CAA4BC"/><path d="M220 511h148c14 0 25 11 25 25v33H209v-47c0-6 5-11 11-11z" fill="#E9CCDB"/><path d="M412 511h141c13 0 25 11 25 25v33H388v-35c0-13 11-23 24-23z" fill="#000" opacity=".1"/><path d="M415 511h141c14 0 25 11 25 25v33H392v-35c0-13 10-23 23-23z" fill="#000" opacity=".1"/><path d="M413 511h142c13 0 24 11 24 25v33H390v-35c0-13 10-23 23-23z" fill="#E9CCDB"/><path d="M585 511h151c13 0 24 11 24 24v34H575v-48c0-6 5-10 10-10z" fill="#000" opacity=".1"/><path d="M587 511h151c13 0 24 11 24 24v34H577v-48a10 10 0 0110-10z" fill="#E9CCDB"/><path d="M211 647v26c0 7-5 12-12 12h-9c-7 0-13-5-13-12v-26h34zM792 647v26c0 7-6 12-13 12h-8c-7 0-13-5-13-12v-26h34z" fill="#9C7AA5"/><path d="M221 482a34 34 0 10-41 33v137h38V495c2-4 3-8 3-13zM747 482a34 34 0 1140 33v137h-37V495c-2-4-3-8-3-13z" fill="#E9CCDB"/><path d="M221 482a34 34 0 10-41 33v137h38V495c2-4 3-8 3-13zM747 482a34 34 0 1140 33v137h-37V495c-2-4-3-8-3-13z" fill="#000" opacity=".1"/><path fill="#9C7AA5" d="M200 628h570v26H200z"/><path fill="#000" opacity=".1" d="M206 570h560v60H206z"/><path fill="#CAA4BC" d="M206 568h560v60H206z"/><path fill="#000" opacity=".1" d="M758 647h34v9h-34z"/><path d="M756 485a34 34 0 1140 33v136h-38V498c-2-4-2-9-2-13z" fill="#E9CCDB"/><path fill="#000" opacity=".1" d="M177 647h34v9h-34z"/><path d="M213 485a34 34 0 10-40 33v136h38V498l2-13z" fill="#E9CCDB"/><path fill="#000" opacity=".1" d="M218 568h532v1H218z"/><circle fill="#CAA4BC" cx="177.2" cy="484.1" r="15.2"/><circle fill="#CAA4BC" cx="792" cy="484.1" r="15.2"/><path d="M338 458c-14-3-45-41-45-41-11-9-35-57-35-57s-9-4-17 14c-8 19-53 34-67 37-8 1-7 4-5 7l6 4c6 2 24 24 24 24 16 11 35 64 41 77 4 8 8 4 10-1 6-9 13-17 21-23 24-16 49-23 51-23s31-14 16-18z" fill="#000" opacity=".1"/><path d="M145 413c-2 0-4-2-6-4-2-3-3-7 5-8 14-3 61-19 68-41 7-21 17-16 17-16s28 55 41 64c0 0 35 43 50 47 16 4-14 20-16 20s-28 8-51 26c-9 7-16 16-21 26-3 6-6 10-10 1-8-15-31-75-50-88 0 0-20-24-27-27z" fill="#5770BE"/><path d="M145 413c-2 0-4-2-6-4-2-3-3-7 5-8 14-3 61-19 68-41 7-21 17-16 17-16s28 55 41 64c0 0 35 43 50 47 16 4-14 20-16 20s-28 8-51 26c-9 7-16 16-21 26-3 6-6 10-10 1-8-15-31-75-50-88 0 0-20-24-27-27z" fill="#000" opacity=".1"/><path d="M155 412c-2 0-4-2-5-4-2-2-3-6 4-7 14-3 58-19 65-38 7-20 16-16 16-16s26 50 38 58c0 0 32 39 47 43 14 3-14 18-16 18s-26 7-49 25c-8 6-15 14-20 24-2 5-6 9-10 1-6-14-27-68-45-80 0 0-19-22-25-24z" fill="#5770BE"/><path d="M207 430s-5 4 18-4c24-9-18 4-18 4zM226 452s4 1 17-5c13-5-17 5-17 5zM225 493l17-6-17 6zM765 402v17l-8 18c-11 15-9 63-10 76 0 7-5 5-9 2-8-6-18-10-27-12-27-6-52-3-54-3-2 1-32-1-20-9 11-7 25-47 25-47 8-11 12-57 12-57s6-6 20 6c13 13 55 11 71 9z" fill="#000" opacity=".1"/><path d="M775 408l3-5c1-3 1-6-7-5-13 3-59 5-73-7-13-13-20-7-20-7s-4 47-11 57c0 0-14 40-26 48-11 7 19 9 21 8 2 0 27-3 53 3 10 2 19 6 27 12 4 3 9 5 10-2 0-13-1-61 10-76 0 0 8-23 13-26z" fill="#5770BE"/><path d="M775 408l3-5c1-3 1-6-7-5-13 3-59 5-73-7-13-13-20-7-20-7s-4 47-11 57c0 0-14 40-26 48-11 7 19 9 21 8 2 0 27-3 53 3 10 2 19 6 27 12 4 3 9 5 10-2 0-13-1-61 10-76 0 0 8-23 13-26z" fill="#000" opacity=".1"/><path d="M771 410l4-5c1-3 0-5-7-4-12 2-56 5-69-7s-19-7-19-7-4 45-11 54c0 0-13 38-24 46-11 7 18 9 19 8 2-1 26-3 51 3 9 2 18 6 26 11 4 3 8 4 8-2 1-13-1-58 10-72 0 0 8-22 12-25z" fill="#5770BE"/><path d="M739 435l-19 7c-15 6 16-2 19-7zM737 452s-10 7-14 8c-5 1 11-1 14-8zM745 488s-10 8-15 9c-4 0 12-1 15-9z" fill="#000" opacity=".1"/><path d="M598 495l-4-1-2-1h-1c-5-1-9-4-12-8-5-5-17-11-17-11s-9-8-15-8c-6-1-22-17-36-32s-35-32-35-32l-9-10s-11-8-13-12c-2-2-6-3-10-4l-16-1c-2 1-8 6-14 13l5-63c0-2-1-3-3-4l-16 8-2 3-4 67-20 14-3-6c-11-14-27 12-34 24l-1 1-14-9v-1l-7-8a177 177 0 00-25-24l-3-4c-3-5-8-6-11-7l-7-5c-2-1-7-9-10-14-3-6-21-6-21-6 0-7 1-15 5-21v-1a34 34 0 0023-43l7-2c4-1 7-4 7-7 1-2 0-5-1-7l-4-5c-5-5-12-8-18-10-8-3-17-5-25-5-9 1-17 4-23 11l-3 3c-2 2-5 2-7 2-8 0-16-3-24 0s-11 14-13 23c-1 10-1 20-4 29-2 10-7 19-16 23l-8 4c-2 2-4 4-4 7 0 4 4 7 5 10l3 6a9 9 0 000 1h1v1h1v1c4 4 11 1 16 4l3 2 4 6 1 1h1v1h1v1c4 4 10 6 16 6l10-1 4-3 5 4 15 10c6 5 12 12 12 17 0 7 10 20 14 26v2l20 28s1 5 9 5c-2 9-1 24 6 26 8 1 20 0 22 2s32-1 32-1 17-4 28 0c7 1 15 1 21-2 0 0 12-1 14-6l1-1v-2c1-2 3-2 2-3 1-1 2-1-1-1h-6l2-2h1c5 0 4-2 8-3l15-2c6-1 13-4 15-8 3-3 14-1 16-6 3-5-6-9-11-9l-3 1c-3 2-13 2-17 3l-7-3 11-17c7-11 12-14 12-14l5-7c6 14 38 37 53 40 17 2 33 16 33 16l-1 9c0 2 3 2 7 3 2 2 15 1 20 1 5-1 20 2 33 3 12 1 23-5 16-5z" fill="url(#a)"/><path d="M291 390l-1 15 7 15 11 9 10 7 11 7 10-9s-15-10-16-13l-8-10-10-9-8-7-6-5z" fill="#E6E6E6"/><path d="M291 390l-1 15 7 15 11 9 10 7 11 7 10-9s-15-10-16-13l-8-10-10-9-8-7-6-5z" fill="#000" opacity=".1"/><path d="M245 333c-3 8-6 18-3 30 7 22-42-9-42-9s11-15 14-29v-11c-5-14 38 10 38 10l-7 9z" fill="#FFBEC5"/><path d="M239 354s18 0 21 6c2 5 8 13 10 14l28 22c2 0 22 22 22 24s21 15 35 17c13 2 34 27 40 26s19 3 19 3 14 0 17-3c3-2 16 3 13 8s-14 4-16 7-9 6-14 7l-15 2c-5 1-4 4-10 2-7-1-33-47-33-47l-30-14s-11-9-11-12l-22-22-28-21-26-19z" fill="#000" opacity=".1"/><path d="M241 354s18 0 20 6c3 5 8 13 10 14l28 22c2 0 23 22 23 24s21 15 34 17c14 2 34 27 41 26 6-1 18 3 18 3s14 0 17-3c4-2 16 3 13 8s-13 4-16 7c-2 3-8 6-14 7l-15 2c-4 1-3 4-10 2-7-1-33-47-33-47l-29-14s-11-9-12-12l-22-22-28-21-25-19z" fill="#E6E6E6"/><path d="M335 454l29-26 18-14c10-8 20-16 29-26 7-6 13-13 15-13 5-1 17-1 19 3l13 12 9 10s21 16 34 31c14 14 29 30 35 31s14 8 14 8 13 6 17 11 12 9 19 9c7 1-4 6-16 6-12-1-27-5-32-4-6 1-20 1-20-2l1-8s-16-14-32-17c-17-3-53-29-52-42 0 0-6 0-11 9 0 0-5 3-12 13l-15 25s-13 26-24 26l-21-2-14-9-1-12-2-19z" fill="#FFBEC5"/><path d="M335 454l29-26 18-14c10-8 20-16 29-26 7-6 13-13 15-13 5-1 17-1 19 3l13 12 9 10s21 16 34 31c14 14 29 30 35 31s14 8 14 8 13 6 17 11 12 9 19 9c7 1-4 6-16 6-12-1-27-5-32-4-6 1-20 1-20-2l1-8s-16-14-32-17c-17-3-53-29-52-42 0 0-6 0-11 9 0 0-5 3-12 13l-15 25s-13 26-24 26l-21-2-14-9-1-12-2-19z" fill="#000" opacity=".1"/><path d="M342 455l28-25 35-27s23-26 28-27c4-1 16 0 18 4 3 4 13 11 13 11l9 10s21 16 34 31c14 15 30 31 35 31 6 1 15 8 15 8s12 6 16 11c5 5 12 10 19 10 8 0-4 6-16 5s-27-4-32-3c-5 0-20 1-20-2l2-9s-17-14-33-16c-17-3-52-30-52-42 0 0-5-1-11 8l-11 14-16 24s-13 26-23 26l-22-1-14-10-1-12-1-19z" fill="#FFBEC5"/><path d="M429 470l-2 1-5 2h13c2 0 5-2 2-4-2-2-6 0-8 1zM408 473h8l2 1 4 3a51 51 0 01-12 2l-2-1c-3-3-5-4 0-5zM252 324l-7 9c-11 3-23 0-31-8v-11c-5-14 38 10 38 10z" fill="#000" opacity=".1"/><circle fill="#FFBEC5" cx="236.7" cy="300.7" r="32.9"/><path fill="#504F88" d="M241 354l-2 3 21 23 10 7 6-8z"/><path d="M274 379s10-2 15 6c3 5 5 10 5 16 0 0 5 4 5 6-1 1-1 3-3 3l-9-5-7-8-6-7v-11z" fill="#504F88"/><path d="M210 347s-16 1-18 12c-2 12-2 18 4 26 5 8 17 12 17 12s18 14 19 23c0 8 15 28 15 28s29 21 27 28-3 27 5 28c8 2 20 1 22 3s31-1 31-1 17-4 28-1c6 2 14 2 20-1 0 0 13-1 14-6 0-6 6-5 1-6-6-1-9 2-13 0-4-1-7-6-16-5h-12c-1 0 6-5 2-14-4-8-11-14-10-19 0-5-14-20-14-20s-6-10-15-13c-8-3-24-23-24-23s-14-21-22-22c-7-1-31-23-31-23s-21-9-30-6z" fill="#000" opacity=".1"/><path d="M210 348s-17 1-19 12c-1 12-2 18 4 26s18 12 18 12 18 14 18 22c0 9 16 29 16 29s29 21 27 28c-3 7-3 27 5 28 7 2 20 1 21 3 2 2 32-1 32-1s16-4 27-1c7 2 14 2 21-1 0 0 12-1 13-7 1-5 7-4 1-5-5-1-9 2-12 0-4-1-8-6-17-5h-12c-1 0 6-6 2-14-3-8-10-14-10-19 1-5-13-20-13-20s-7-10-15-13c-9-3-25-23-25-23s-14-21-21-22-32-23-32-23-21-9-29-6z" fill="#E6E6E6"/><path d="M316 477c-1 2-1 5 1 7l4 2c2 1 5 3 6 6l1 2 2 1c8 4 16 6 25 6-3-3-6-5-10-6l-10-1-7-7-1-2v-7l-5-7c-2 0-5 5-6 6zM433 422c1-1 11-3 8-6-3-4-6 5-8 6z" fill="#000" opacity=".1"/><path d="M399 330l16-8-6 80-16-3 4-66c0-2 1-3 2-3z" fill="#CBE3FF"/><path d="M415 322l-6 80c2 0 3-1 3-2l6-74c0-2-1-3-3-4z" fill="#C8BFCA"/><path d="M393 398l-51 37a4 4 0 00-1 6l5 5 64-47-15-1h-2z" fill="#F1F1F2"/><path fill="#7E7A98" d="M391 402l-34 24 5 5 40-28z"/><path d="M346 446l64-47c1 2 1 4-1 6l-56 42c-2 1-5 1-7-1z" fill="#C8BFCA"/><path d="M335 434s23-45 36-28-20 36-20 36l-16-8z" fill="#FFBEC5"/><path d="M216 360c-9 2-16 9-18 18-2 5-2 10 3 14 11 8 27 14 35 27 4 9 7 19 9 29l19 28s3 9 22 2l30-11 22-11 2-1c3 0 19-14 20-15 0-2-17-10-23-8 0 0-1 4-14 3s-18 5-18 5l-10-2c-4 0-11-4-17-3 0 0 3-6-1-11-3-4-7-4-8-9l-6-21c-3-11-9-20-17-28-6-5-12-8-18-8l-12 2z" fill="#000" opacity=".1"/><path d="M217 357c-9 3-16 9-19 18-1 5-1 11 4 14 11 9 27 15 34 28 5 9 8 19 9 29l19 28s3 9 23 2l29-11 22-11 3-1c2 0 18-14 19-16s-16-9-23-8c0 0-1 4-14 4-13-1-17 5-17 5s-7-3-11-3c-4 1-11-3-16-3 0 0 2-5-1-10-4-4-7-4-9-10l-6-21c-3-10-9-20-17-27-5-5-12-9-18-8l-11 1z" fill="#000" opacity=".1"/><path d="M216 358c-9 3-16 9-18 18-2 5-2 11 3 14 11 9 27 14 35 28 4 9 7 19 9 28l19 29s3 8 22 1l30-10 22-11 2-1c3 0 19-14 20-16 0-2-17-10-23-8 0 0-1 4-14 4-13-1-18 4-18 4l-10-2c-4 1-11-3-17-3 0 0 3-5-1-10-3-5-7-4-8-10l-6-21c-3-10-9-20-17-27-6-5-12-9-18-8l-12 1z" fill="#E6E6E6"/><path d="M275 289c4-1 7-4 7-8l-1-6c-4-7-13-11-21-14s-16-5-24-5c-9 1-17 4-23 11l-3 3-7 2c-7-1-15-4-23-1-8 4-11 14-12 24l-4 28c-3 9-8 18-16 22l-7 4c-3 2-5 4-5 7 0 4 4 7 5 10l4 7c4 4 11 2 16 4l10 11c4 4 10 6 16 6l9-1c6-2 9-9 9-15 0-7-1-13-3-19v-6l3-4c7-5 17-7 21-15 2-5 2-12 2-17 0-3 1-5 3-6 1-2 4-2 7-2 8-1 15-4 21-9l7-9c2-2 6-1 9-2z" fill="#000" opacity=".1"/><path d="M275 288c3-1 6-4 6-7l-1-7c-4-7-13-11-21-14s-16-5-24-4c-9 0-17 3-23 10l-3 3c-2 2-4 2-7 2-7-1-15-4-22-1-9 4-12 14-13 24-1 9-1 19-4 28-2 9-8 18-16 23l-7 3c-3 2-5 4-5 7 0 4 4 7 6 10 1 3 1 6 3 7 4 4 11 2 16 5 4 2 6 7 10 10 4 4 10 6 16 6l9-1c6-2 9-9 9-15s-1-13-3-19v-6l3-3c7-6 17-8 21-16 2-5 2-11 2-17 0-2 1-5 3-6 1-2 4-2 7-2 8-1 15-4 21-9l7-8c2-3 6-2 10-3z" fill="#FFE2DA"/><g opacity=".1" fill="#000"><path d="M158 374c-5-2-11-1-15-4l1 2c4 4 11 2 16 5l3 2-5-5zM280 274l-4-5 2 2 1 7c0 3-3 6-7 7-3 1-7 0-10 3l-6 8c-6 5-14 8-21 9-3 0-6 0-8 2l-2 6c-1 6 0 12-2 17-4 8-14 10-21 16l-3 3v7l3 18c-1 6-4 13-9 15-3 2-6 2-10 1-5 0-11-1-15-5h-1l3 2c4 4 10 6 16 6l9-1c6-2 9-9 9-15s-1-13-3-19v-6l3-4c7-5 17-7 21-15 2-5 2-12 2-17 1-2 1-5 3-6 2-2 4-2 7-2 8-1 15-4 21-9l7-8c2-3 6-2 10-3 3-1 6-4 6-7 1-3 0-5-1-7z"/></g><ellipse fill="#5770BE" opacity=".1" cx="930.4" cy="715" rx="68.8" ry="10.6"/><ellipse fill="#5770BE" opacity=".1" cx="98.4" cy="756.4" rx="38.2" ry="5.9"/><path d="M86 515s7 8-3 21c-9 13-17 24-14 32 0 0 14-24 26-24s4-15-9-29z" fill="#5770BE"/><path d="M86 515l2 3c11 13 17 26 6 26-10 0-23 19-26 23l1 1s14-24 26-24 4-15-9-29z" fill="#000" opacity=".1"/><path d="M98 526v5l-1-5c0-3 0-2 1-2v2z" fill="#FFD037"/><path d="M103 529c-3 2-5 3-6 2l5-3h2l-1 1z" fill="#FFD037"/><path d="M51 515s-6 8 3 21c10 13 18 24 15 32 0 0-15-24-27-24-11 0-4-15 9-29z" fill="#5770BE"/><path d="M51 515l-1 3c-11 13-18 26-7 26s23 19 26 23v1s-15-24-27-24c-11 0-4-15 9-29z" fill="#000" opacity=".1"/><path d="M39 526l1 5 1-5c0-3-1-2-1-2-1 0-1-1-1 2zM35 529l5 2-4-3h-2s-2 0 1 1z" fill="#FFD037"/><ellipse fill="#5770BE" opacity=".1" cx="68.8" cy="623.8" rx="68.8" ry="10.6"/><path d="M104 557v3l-1 3v7l-1 4-5 43c-1 4-7 7-14 7H55c-7 0-14-3-14-7l-6-43v-5l-1-4v-5l-1-3c0-2 4-4 8-4h56c4 0 8 2 7 4z" fill="#65617D"/><path fill="#9D9CB5" d="M104 560l-1 3H34v-3zM103 565v4H35l-1-4zM103 570l-1 4H35v-4z"/></g></svg>