<?xml version="1.0" encoding="UTF-8"?>
<svg width="1000px" height="800px" viewBox="0 0 1000 800" version="1.1" xmlns="http://www.w3.org/2000/svg" xmlns:xlink="http://www.w3.org/1999/xlink">
    <title>isolement</title>
    <defs>
        <linearGradient x1="49.9984163%" y1="99.9954123%" x2="49.9984163%" y2="-0.0104058941%" id="linearGradient-1">
            <stop stop-color="#808080" stop-opacity="0.25" offset="0%"></stop>
            <stop stop-color="#808080" stop-opacity="0.12" offset="54%"></stop>
            <stop stop-color="#808080" stop-opacity="0.1" offset="100%"></stop>
        </linearGradient>
    </defs>
    <g id="isolement" stroke="none" stroke-width="1" fill="none" fill-rule="evenodd">
        <g id="undraw_relaxing_at_home_9tyc" transform="translate(0.000000, 19.000000)" fill-rule="nonzero">
            <path d="M876.99262,563.210332 C863.763838,575.97786 847.333948,582.942804 829.741697,586.273063 C824.555799,587.239702 819.320167,587.917254 814.059041,588.302583 C800.156827,589.372694 785.922509,588.662362 772.269373,587.177122 C738.82737,583.526077 705.845676,576.469169 673.837638,566.116236 C668.579336,564.418819 663.351784,562.632226 658.154982,560.756458 C650.313653,557.939729 642.54305,554.923124 634.843173,551.706642 C603.47786,538.597786 571.051661,521.881919 537.684502,527.066421 C521.512915,529.584871 506.319188,537.214022 490.110701,539.483395 C478.733971,540.971895 467.173696,540.143472 456.125461,537.04797 C450.776135,535.617025 445.53536,533.807416 440.442804,531.632841 C428.966805,526.657046 418.045764,520.488451 407.859779,513.228782 C383.413284,496.143911 361.476015,474.9631 335.738007,460.166052 C307.361624,443.846863 275.950185,436.088561 243.948339,430.304428 C238.739237,429.363469 233.511685,428.46556 228.265683,427.610701 C213.45941,425.166052 198.616236,422.905904 183.98524,420.230627 C169.889299,417.629151 155.54428,414.446494 143.274908,406.623616 C134.520295,401.042435 127.158672,393.311808 120.405904,385.166052 C107.949069,370.071842 97.2642643,353.598919 88.5608856,336.070111 C88.099631,335.147601 87.6476015,334.225092 87.204797,333.302583 C73.6531365,305.498155 64.5387454,275.184502 58.9483395,243.819188 C58.7822878,242.896679 58.6254613,241.97417 58.4686347,241.051661 C53.2103321,210.304428 51.2915129,178.51476 51.8726937,146.95572 L51.9280443,144.188192 C52.2878229,128.607011 53.2564576,113.090406 54.695572,97.795203 C55.7287823,87.0387454 57.1125461,75.8763838 62.6845018,66.8357934 C68.2564576,57.795203 77.3247232,51.9833948 86.402214,47.1494465 C126.346863,25.8671587 164.640221,19.9446494 207.610701,30.2583026 C214.51107,31.9095941 221.383764,33.6900369 228.256458,35.5350554 C233.487085,36.9372694 238.717712,38.3856089 243.939114,39.8431734 C280.046125,49.8892989 316.023985,60.599631 353.367159,63.800738 C356.971095,64.1143911 360.578106,64.3542435 364.188192,64.5202952 C371.328413,64.8523985 378.468635,64.9261993 385.608856,64.7416974 C404.00177,64.2254716 422.330578,62.3383197 440.442804,59.095941 C445.682657,58.1918819 450.910209,57.1894219 456.125461,56.0885609 C478.634686,51.3929889 500.940959,45.1291513 522.887454,38.201107 C527.370849,36.7865929 531.848093,35.3474785 536.319188,33.8837638 C546.392989,30.5904059 556.46679,27.2324723 566.559041,23.9667897 C596.688192,14.2066421 627.001845,5.28597786 658.154982,1.68819188 C660.817958,1.38683887 663.487085,1.11931119 666.162362,0.885608856 C668.717712,0.664206642 671.282288,0.488929889 673.837638,0.359778598 C722.223247,-2.22324723 771.162362,9.44649446 814.059041,33.3302583 C819.378844,36.2945879 824.606396,39.4434194 829.741697,42.7767528 C836.857319,47.4077491 843.754613,52.3892989 850.433579,57.7214022 C864.123616,68.6531365 876.937269,81.097786 886.697417,96.0516605 C896.208487,110.618081 902.380074,126.97417 905.931734,144.169742 C906.125461,145.092251 906.309963,146.01476 906.476015,146.937269 C911.688192,174.695572 910.064576,204.464945 904.215867,232.278598 C903.597786,235.193727 902.942804,238.118081 902.260148,241.03321 C902.04797,241.95572 901.826568,242.878229 901.605166,243.800738 C895.295203,270.101476 887.232472,296.328413 889.335793,323.219557 C889.603321,326.605166 890.027675,329.9631 890.581181,333.284133 C890.738007,334.206642 890.894834,335.129151 891.070111,336.051661 C895.184502,357.98893 904.538745,378.800738 910.147601,400.52583 C920.675996,441.808647 917.652041,485.382715 901.52214,524.815498 C895.608856,539.068266 887.850554,552.730627 876.99262,563.210332 Z" id="Path" fill="#5770BE" opacity="0.1"></path>
            <path d="M829.741697,146.937269 L906.476015,146.937269 C906.309963,146.01476 906.125461,145.092251 905.931734,144.169742 L829.741697,144.169742 L829.741697,42.7767528 C824.612546,39.4434194 819.384994,36.2945879 814.059041,33.3302583 L814.059041,144.169742 L673.837638,144.169742 L673.837638,0.359778598 C671.282288,0.488929889 668.717712,0.664206642 666.162362,0.885608856 C663.607011,1.10701107 660.821033,1.38376384 658.154982,1.68819188 L658.154982,144.169742 L457.97048,144.169742 L457.490775,143.643911 L566.559041,23.9667897 C556.46679,27.2324723 546.392989,30.5904059 536.319188,33.8837638 L456.125461,121.918819 L456.125461,56.0885609 C450.904059,57.1832718 445.676507,58.1857319 440.442804,59.095941 L440.442804,124.916974 L385.608856,64.7232472 C378.468635,64.895449 371.328413,64.8216482 364.188192,64.501845 L436.291513,143.625461 L435.811808,144.151292 L243.929889,144.151292 L243.929889,39.8154982 C238.708487,38.3579336 233.47786,36.9095941 228.247232,35.5073801 L228.247232,144.169742 L51.9095941,144.169742 L51.8542435,146.937269 L228.265683,146.937269 L228.265683,241.03321 L58.4501845,241.03321 C58.6070111,241.95572 58.7638376,242.878229 58.9298893,243.800738 L228.265683,243.800738 L228.265683,333.284133 L87.1863469,333.284133 C87.6291513,334.206642 88.0811808,335.129151 88.5424354,336.051661 L228.265683,336.051661 L228.265683,427.619926 C233.505535,428.474785 238.733087,429.372694 243.948339,430.313653 L243.948339,336.051661 L440.442804,336.051661 L440.442804,531.623616 C445.53536,533.798191 450.776135,535.6078 456.125461,537.038745 L456.125461,336.051661 L658.154982,336.051661 L658.154982,560.747232 C663.357934,562.629151 668.585486,564.415744 673.837638,566.107011 L673.837638,336.051661 L814.059041,336.051661 L814.059041,588.293358 C819.320167,587.908029 824.555799,587.230477 829.741697,586.263838 L829.741697,336.051661 L891.070111,336.051661 C890.894834,335.129151 890.738007,334.206642 890.581181,333.284133 L829.695572,333.284133 L829.695572,243.800738 L901.559041,243.800738 C901.780443,242.878229 902.001845,241.95572 902.214022,241.03321 L829.741697,241.03321 L829.741697,146.937269 Z M814.059041,146.937269 L814.059041,241.03321 L673.837638,241.03321 L673.837638,146.937269 L814.059041,146.937269 Z M658.154982,241.03321 L456.125461,241.03321 L456.125461,146.937269 L658.154982,146.937269 L658.154982,241.03321 Z M243.948339,146.937269 L437.675277,146.937269 L440.442804,149.45572 L440.442804,241.03321 L243.948339,241.03321 L243.948339,146.937269 Z M243.948339,333.284133 L243.948339,243.800738 L440.442804,243.800738 L440.442804,333.284133 L243.948339,333.284133 Z M456.125461,333.284133 L456.125461,243.800738 L658.154982,243.800738 L658.154982,333.284133 L456.125461,333.284133 Z M814.059041,333.284133 L673.837638,333.284133 L673.837638,243.800738 L814.059041,243.800738 L814.059041,333.284133 Z" id="Shape" fill="#5770BE" opacity="0.1"></path>
            <path d="M746.642066,82.1402214 L745.424354,82.1402214 C746.294584,81.6357977 746.85274,80.7274937 746.909594,79.7232472 L746.909594,79.7232472 C746.909594,77.8136531 744.575646,76.2546125 741.725092,76.2546125 L705.322878,76.2546125 C702.472325,76.2546125 700.129151,77.8136531 700.129151,79.7232472 L700.129151,79.7232472 C700.129151,81.6328413 702.472325,83.1918819 705.322878,83.1918819 L706.54059,83.1918819 C705.669152,83.6950641 705.11055,84.604092 705.055351,85.6088561 C705.055351,87.2324723 706.752768,88.597786 709.02214,88.9667897 L698.597786,88.9667897 C695.738007,88.9667897 693.404059,90.5258303 693.404059,92.4354244 C693.404059,94.3450185 695.738007,95.904059 698.597786,95.904059 L734.953875,95.904059 C737.813653,95.904059 740.147601,94.3357934 740.147601,92.4354244 C740.147601,90.8118081 738.440959,89.4372694 736.171587,89.0682657 L746.642066,89.0682657 C749.49262,89.0682657 751.826568,87.5092251 751.826568,85.6088561 C751.826568,83.7084871 749.49262,82.1402214 746.642066,82.1402214 Z" id="Path" fill="#5770BE" opacity="0.1"></path>
            <path d="M352.583026,115.129151 L351.365314,115.129151 C352.231966,114.621066 352.788817,113.714886 352.850554,112.712177 L352.850554,112.712177 C352.850554,110.811808 350.516605,109.252768 347.656827,109.252768 L311.300738,109.252768 C308.440959,109.252768 306.107011,110.811808 306.107011,112.712177 L306.107011,112.712177 C306.107011,114.621771 308.440959,116.180812 311.300738,116.180812 L312.509225,116.180812 C311.644929,116.689898 311.091347,117.596389 311.03321,118.597786 C311.03321,120.221402 312.730627,121.595941 315,121.964945 L304.52952,121.964945 C301.678967,121.964945 299.345018,123.523985 299.345018,125.424354 C299.345018,127.324723 301.678967,128.892989 304.52952,128.892989 L340.931734,128.892989 C343.782288,128.892989 346.125461,127.333948 346.125461,125.424354 C346.125461,123.800738 344.418819,122.435424 342.149446,122.066421 L352.619926,122.066421 C355.47048,122.066421 357.804428,120.50738 357.804428,118.597786 C357.804428,116.688192 355.433579,115.129151 352.583026,115.129151 Z" id="Path" fill="#5770BE" opacity="0.1"></path>
            <path d="M802.416974,256.328413 L801.199262,256.328413 C802.065914,255.820328 802.622765,254.914148 802.684502,253.911439 L802.684502,253.911439 C802.684502,252.001845 800.350554,250.442804 797.490775,250.442804 L761.134686,250.442804 C758.274908,250.442804 755.940959,252.001845 755.940959,253.911439 L755.940959,253.911439 C755.940959,255.821033 758.274908,257.380074 761.134686,257.380074 L762.343173,257.380074 C761.478878,257.88916 760.925296,258.795651 760.867159,259.797048 C760.867159,261.420664 762.564576,262.785978 764.833948,263.154982 L754.363469,263.154982 C751.512915,263.154982 749.178967,264.714022 749.178967,266.623616 C749.178967,268.53321 751.512915,270.092251 754.363469,270.092251 L790.728782,270.092251 C793.579336,270.092251 795.922509,268.53321 795.922509,266.623616 C795.922509,265 794.215867,263.625461 791.946494,263.256458 L802.416974,263.256458 C805.267528,263.256458 807.601476,261.697417 807.601476,259.797048 C807.601476,257.896679 805.267528,256.328413 802.416974,256.328413 Z" id="Path" fill="#5770BE" opacity="0.1"></path>
            <ellipse id="Oval" fill="#5770BE" opacity="0.1" cx="484.852399" cy="671.928044" rx="389.815498" ry="43.0350554"></ellipse>
            <path d="M565.8949,365.738007 L565.8949,501.070111 C565.90009,503.367958 565.589686,505.655637 564.972325,507.869004 C561.918542,518.93184 551.854811,526.595943 540.378229,526.595943 L425.987085,526.595943 C419.216464,526.598389 412.722446,523.909855 407.934894,519.122302 C403.147341,514.334749 400.458806,507.840732 400.461253,501.070111 L400.461253,365.738007 C400.458806,358.967386 403.147341,352.473369 407.934894,347.685816 C412.722446,342.898263 419.216464,340.209729 425.987085,340.212175 L540.378229,340.212175 C551.854811,340.212175 561.918542,347.876278 564.972325,358.939114 C565.589686,361.152481 565.90009,363.44016 565.8949,365.738007 Z" id="Path" fill="#E9CCDB"></path>
            <path d="M402.306277,365.738007 L402.306277,501.070111 C402.307539,503.370724 401.997216,505.660911 401.383764,507.878229 C400.770312,505.660911 400.459988,503.370724 400.461251,501.070111 L400.461251,365.738007 C400.459988,363.437394 400.770312,361.147207 401.383764,358.929889 C401.997216,361.147207 402.307539,363.437394 402.306277,365.738007 L402.306277,365.738007 Z" id="Path" fill="#000000" opacity="0.1"></path>
            <rect id="Rectangle" fill="#E9CCDB" x="199.972325" y="340.212177" width="200.48893" height="186.346863" rx="27.67"></rect>
            <path d="M565.894834,365.738007 L565.894834,501.070111 C565.90009,503.367958 565.589686,505.655637 564.972325,507.869004 C564.359475,505.654708 564.049155,503.36765 564.049814,501.070111 L564.049814,365.738007 C564.049155,363.440468 564.359475,361.15341 564.972325,358.939114 C565.589686,361.152481 565.90009,363.44016 565.894834,365.738007 Z" id="Path" fill="#000000" opacity="0.1"></path>
            <rect id="Rectangle" fill="#E9CCDB" x="565.894834" y="340.212177" width="200.498155" height="186.346863" rx="27.67"></rect>
            <path d="M390.313653,540.396679 L207.167897,540.396679 L206.245387,524.391144 C205.230627,506.420664 228.45941,491.50369 257.472325,491.50369 L382.121771,491.50369 C391.854244,491.50369 399.363469,496.798893 398.118081,502.776753 L390.313653,540.396679 Z" id="Path" fill="#000000" opacity="0.1"></path>
            <path d="M390.313653,542.241697 L207.167897,542.241697 L206.245387,526.236162 C205.230627,508.265683 228.45941,493.348708 257.472325,493.348708 L382.121771,493.348708 C391.854244,493.348708 399.363469,498.643911 398.118081,504.621771 L390.313653,542.241697 Z" id="Path" fill="#CAA4BC"></path>
            <path d="M573.837638,541.457565 L756.983395,541.457565 L757.905904,525.45203 C758.920664,507.48155 735.691882,492.564576 706.678967,492.564576 L582.02952,492.564576 C572.306273,492.564576 564.787823,497.859779 566.03321,503.837638 L573.837638,541.457565 Z" id="Path" fill="#000000" opacity="0.1"></path>
            <path d="M573.837638,543.302583 L756.983395,543.302583 L757.905904,527.297048 C758.920664,509.326568 735.691882,494.409594 706.678967,494.409594 L582.02952,494.409594 C572.306273,494.409594 564.787823,499.704797 566.03321,505.682657 L573.837638,543.302583 Z" id="Path" fill="#CAA4BC"></path>
            <path d="M422.02952,492.564574 L546.125461,492.564574 C553.120424,492.564574 559.828891,495.343314 564.775076,500.289499 C569.721262,505.235685 572.5,511.944152 572.5,518.939114 L572.5,535.322878 L393.081181,535.322878 L393.081181,521.48524 C393.091367,505.506211 406.050489,492.559479 422.02952,492.564574 L422.02952,492.564574 Z" id="Path" fill="#000000" opacity="0.1"></path>
            <path d="M422.02952,494.409593 L546.125461,494.409593 C553.120424,494.409593 559.828891,497.188332 564.775076,502.134518 C569.721262,507.080703 572.5,513.78917 572.5,520.784133 L572.5,537.167897 L393.081181,537.167897 L393.081181,523.330258 C393.091367,507.35123 406.050489,494.404497 422.02952,494.409593 L422.02952,494.409593 Z" id="Path" fill="#CAA4BC"></path>
            <path d="M219.677122,510.876384 L368.201107,510.876384 C381.957277,510.876384 393.108856,522.027963 393.108856,535.784133 L393.108856,569.45572 L208.634686,569.45572 L208.634686,521.918819 C208.649898,515.826563 213.584865,510.891595 219.677122,510.876384 Z" id="Path" fill="#E9CCDB"></path>
            <path d="M411.531365,510.876384 L552.675277,510.876384 C566.431447,510.876384 577.583026,522.027963 577.583026,535.784133 L577.583026,569.45572 L388.016605,569.45572 L388.016605,534.400369 C388.016605,521.412032 398.54303,510.881477 411.531365,510.876384 Z" id="Path" fill="#000000" opacity="0.1"></path>
            <path d="M415.221402,510.876384 L556.365314,510.876384 C570.121484,510.876384 581.273063,522.027963 581.273063,535.784133 L581.273063,569.45572 L391.706642,569.45572 L391.706642,534.400369 C391.706642,521.412032 402.233067,510.881477 415.221402,510.876384 Z" id="Path" fill="#000000" opacity="0.1"></path>
            <path d="M413.376384,510.876384 L554.520295,510.876384 C568.276465,510.876384 579.428044,522.027963 579.428044,535.784133 L579.428044,569.45572 L389.861624,569.45572 L389.861624,534.400369 C389.861624,521.412032 400.388048,510.881477 413.376384,510.876384 Z" id="Path" fill="#E9CCDB"></path>
            <path d="M585.221402,510.876384 L736.023985,510.876384 C749.143295,510.876384 759.778598,521.511686 759.778598,534.630996 L759.778598,569.45572 L575.332103,569.45572 L575.332103,520.765683 C575.332103,515.303974 579.759693,510.876384 585.221402,510.876384 Z" id="Path" fill="#000000" opacity="0.1"></path>
            <path d="M587.066421,510.876384 L737.869004,510.876384 C750.988314,510.876384 761.623616,521.511686 761.623616,534.630996 L761.623616,569.45572 L577.177122,569.45572 L577.177122,520.765683 C577.177122,518.142878 578.219027,515.627496 580.07363,513.772892 C581.928234,511.918289 584.443616,510.876384 587.066421,510.876384 Z" id="Path" fill="#E9CCDB"></path>
            <path d="M211.346863,647.407749 L211.346863,672.546125 C211.341776,679.549474 205.66571,685.22554 198.662362,685.230627 L189.898524,685.230627 C182.895176,685.22554 177.21911,679.549474 177.214022,672.546125 L177.214022,647.407749 L211.346863,647.407749 Z" id="Path" fill="#9C7AA5"></path>
            <path d="M792.038745,647.407749 L792.038745,672.546125 C792.033658,679.549474 786.357592,685.22554 779.354244,685.230627 L770.590406,685.230627 C763.587057,685.22554 757.910992,679.549474 757.905904,672.546125 L757.905904,647.407749 L792.038745,647.407749 Z" id="Path" fill="#9C7AA5"></path>
            <path d="M220.654999,482.416974 C220.654999,464.668161 206.878486,449.96665 189.167035,448.81562 C171.455585,447.664589 155.891824,460.459316 153.594947,478.058881 C151.298071,495.658447 163.056851,512.018971 180.47048,515.45203 L180.47048,651.559041 L218.293358,651.559041 L218.293358,494.843173 C219.85803,490.887355 220.659358,486.670993 220.654999,482.416974 Z" id="Path" fill="#E9CCDB"></path>
            <path d="M747.24168,482.416974 C747.24168,464.668161 761.018193,449.96665 778.729644,448.81562 C796.441094,447.664589 812.004855,460.459316 814.301732,478.058881 C816.598608,495.658447 804.839828,512.018971 787.426199,515.45203 L787.426199,651.559041 L749.603321,651.559041 L749.603321,494.843173 C748.038649,490.887355 747.237321,486.670993 747.24168,482.416974 L747.24168,482.416974 Z" id="Path" fill="#E9CCDB"></path>
            <path d="M220.654999,482.416974 C220.654999,464.668161 206.878486,449.96665 189.167035,448.81562 C171.455585,447.664589 155.891824,460.459316 153.594947,478.058881 C151.298071,495.658447 163.056851,512.018971 180.47048,515.45203 L180.47048,651.559041 L218.293358,651.559041 L218.293358,494.843173 C219.85803,490.887355 220.659358,486.670993 220.654999,482.416974 Z" id="Path" fill="#000000" opacity="0.1"></path>
            <path d="M747.24168,482.416974 C747.24168,464.668161 761.018193,449.96665 778.729644,448.81562 C796.441094,447.664589 812.004855,460.459316 814.301732,478.058881 C816.598608,495.658447 804.839828,512.018971 787.426199,515.45203 L787.426199,651.559041 L749.603321,651.559041 L749.603321,494.843173 C748.038649,490.887355 747.237321,486.670993 747.24168,482.416974 L747.24168,482.416974 Z" id="Path" fill="#000000" opacity="0.1"></path>
            <rect id="Rectangle" fill="#9C7AA5" x="199.972325" y="628.035055" width="569.953875" height="26.2915129"></rect>
            <rect id="Rectangle" fill="#000000" opacity="0.1" x="206.263838" y="569.45572" width="560.129151" height="60.4243542"></rect>
            <rect id="Rectangle" fill="#CAA4BC" x="206.263838" y="567.610701" width="560.129151" height="60.4243542"></rect>
            <rect id="Rectangle" fill="#000000" opacity="0.1" x="757.95203" y="647.407749" width="34.0774908" height="8.76383764"></rect>
            <path d="M755.571667,485.184502 C755.568744,467.431366 769.3497,452.725604 787.065662,451.57733 C804.781624,450.429056 820.34563,463.232802 822.634184,480.837811 C824.922737,498.442821 813.149523,514.800254 795.728782,518.219557 L795.728782,654.326568 L757.905904,654.326568 L757.905904,497.610701 C756.346374,493.654287 755.554292,489.437152 755.571667,485.184502 L755.571667,485.184502 Z" id="Path" fill="#E9CCDB"></path>
            <rect id="Rectangle" fill="#000000" opacity="0.1" x="177.214022" y="647.407749" width="33.6531365" height="8.76383764"></rect>
            <path d="M213.247232,485.184502 C213.244692,467.440016 199.471968,452.742768 181.765032,451.58899 C164.058097,450.435212 148.494592,463.220922 146.189401,480.815036 C143.884209,498.409151 155.628553,514.772751 173.035055,518.219557 L173.035055,654.326568 L210.857934,654.326568 L210.857934,497.610701 C212.436391,493.657989 213.247232,489.440728 213.247232,485.184502 Z" id="Path" fill="#E9CCDB"></path>
            <rect id="Rectangle" fill="#000000" opacity="0.1" x="218.284133" y="567.610701" width="531.50369" height="1.68819188"></rect>
            <circle id="Oval" fill="#CAA4BC" cx="177.214022" cy="484.123616" r="15.2214022"></circle>
            <circle id="Oval" fill="#CAA4BC" cx="792.02952" cy="484.123616" r="15.2214022"></circle>
            <path d="M338.210332,458.394834 C323.708487,454.769373 293.090406,416.54059 293.090406,416.54059 C281.577491,408.49631 258.099631,359.769373 258.099631,359.769373 C258.099631,359.769373 249.188192,355.571956 241.337638,374.446494 C233.487085,393.321033 187.832103,408.413284 174.160517,410.52583 C166.457565,411.715867 167.204797,415.138376 169.326568,417.905904 C170.756884,419.682295 172.654667,421.024162 174.806273,421.780443 C180.618081,423.98524 198.653137,445.636531 198.653137,445.636531 C215.47048,457.001845 234.123616,509.501845 240.322878,523.219557 C243.763838,530.848708 247.592251,527.195572 250.322878,522.444649 C255.595438,513.272036 262.816231,505.367897 271.476015,499.289668 C294.944649,482.785978 320.101476,475.940959 321.817343,475.913284 C323.98524,475.857934 352.712177,462.020295 338.210332,458.394834 Z" id="Path" fill="#000000" opacity="0.1"></path>
            <path d="M145.424354,413.431734 C143.055015,412.532399 140.968951,411.01642 139.381919,409.04059 C136.95572,405.931734 135.922509,402.075646 143.994465,400.738007 C158.238007,398.394834 205.304428,381.54059 212.260148,360.276753 C219.215867,339.012915 228.865314,343.773063 228.865314,343.773063 C228.865314,343.773063 256.983395,398.773063 269.677122,407.896679 C269.677122,407.896679 304.603321,451.097786 320.129151,455.239852 C335.654982,459.381919 306.365314,474.880074 304.086716,474.916974 C302.241697,474.916974 276.254613,482.583026 252.684502,501.107011 C243.874866,508.075003 236.798821,516.988736 232.01107,527.149446 C229.464945,532.5 225.682657,536.605166 221.52214,527.998155 C214.04059,512.509225 190.719557,453.274908 172.214022,440.359779 C172.214022,440.359779 151.697417,415.885609 145.424354,413.431734 Z" id="Path" fill="#5770BE"></path>
            <path d="M145.424354,413.431734 C143.055015,412.532399 140.968951,411.01642 139.381919,409.04059 C136.95572,405.931734 135.922509,402.075646 143.994465,400.738007 C158.238007,398.394834 205.304428,381.54059 212.260148,360.276753 C219.215867,339.012915 228.865314,343.773063 228.865314,343.773063 C228.865314,343.773063 256.983395,398.773063 269.677122,407.896679 C269.677122,407.896679 304.603321,451.097786 320.129151,455.239852 C335.654982,459.381919 306.365314,474.880074 304.086716,474.916974 C302.241697,474.916974 276.254613,482.583026 252.684502,501.107011 C243.874866,508.075003 236.798821,516.988736 232.01107,527.149446 C229.464945,532.5 225.682657,536.605166 221.52214,527.998155 C214.04059,512.509225 190.719557,453.274908 172.214022,440.359779 C172.214022,440.359779 151.697417,415.885609 145.424354,413.431734 Z" id="Path" fill="#000000" opacity="0.1"></path>
            <path d="M155.433579,412.287823 C153.234685,411.519904 151.288383,410.163874 149.806273,408.367159 C147.564576,405.599631 146.651292,402.057196 154.243542,400.728782 C167.702952,398.367159 212.361624,382.278598 219.225092,362.712177 C226.088561,343.145756 235.166052,347.380074 235.166052,347.380074 C235.166052,347.380074 260.848708,397.195572 272.675277,405.369004 C272.675277,405.369004 304.9631,444.317343 319.52952,447.869004 C334.095941,451.420664 306.254613,466.01476 304.105166,466.097786 C302.398524,466.153137 277.749077,473.47786 255.212177,490.811808 C246.86084,497.244877 240.071202,505.482004 235.350554,514.907749 C232.869004,519.833948 229.234317,523.643911 225.442804,515.830258 C218.625461,501.780443 197.5369,447.97048 180.285978,436.494465 C180.285978,436.494465 161.309963,414.47417 155.433579,412.287823 Z" id="Path" fill="#5770BE"></path>
            <path d="M207.167897,429.898524 C207.167897,429.898524 202.333948,434.446494 225.45203,425.728782 C248.570111,417.01107 207.167897,429.898524 207.167897,429.898524 Z" id="Path" fill="#000000" opacity="0.1"></path>
            <path d="M226.143911,452.084871 C226.143911,452.084871 229.667897,452.592251 242.924354,447.177122 C256.180812,441.761993 226.143911,452.084871 226.143911,452.084871 Z" id="Path" fill="#000000" opacity="0.1"></path>
            <path d="M224.98155,492.822878 C224.98155,492.822878 228.274908,492.822878 241.50369,487.343173 C254.732472,481.863469 224.98155,492.822878 224.98155,492.822878 Z" id="Path" fill="#000000" opacity="0.1"></path>
            <path d="M764.54797,401.623616 L764.54797,419.225092 C760.747232,427.084871 757.02952,437.121771 757.02952,437.121771 C745.95941,451.531365 747.712177,499.538745 746.983395,512.5 C746.577491,519.695572 741.863469,517.979705 737.758303,515.027675 C729.645171,509.245412 720.433779,505.185995 710.691882,503.099631 C683.939114,497.241697 659.031365,499.677122 657.444649,500.193727 C655.48893,500.839483 624.935424,498.782288 636.632841,491.300738 C648.330258,483.819188 662.315498,443.51476 662.315498,443.51476 C669.797048,433.440959 673.699262,386.946494 673.699262,386.946494 C673.699262,386.946494 680.156827,380.774908 693.856089,393.404059 C706.854244,405.516605 749.326568,404.04059 764.54797,401.623616 Z" id="Path" fill="#000000" opacity="0.1"></path>
            <path d="M774.612546,407.712177 C776.236813,406.478156 777.467515,404.79876 778.154982,402.878229 C779.077491,400 778.560886,397.020295 771.245387,398.487085 C758.284133,401.088561 712.121771,403.367159 698.468635,390.691882 C684.815498,378.016605 678.311808,384.188192 678.311808,384.188192 C678.311808,384.188192 674.409594,430.673432 666.928044,440.756458 C666.928044,440.756458 652.95203,481.060886 641.245387,488.542435 C629.538745,496.023985 660.101476,498.081181 662.057196,497.426199 C663.607011,496.909594 688.51476,494.483395 715.304428,500.341328 C725.044488,502.428382 734.255149,506.484338 742.370849,512.260148 C746.476015,515.212177 751.190037,516.937269 751.595941,509.732472 C752.324723,496.817343 750.590406,448.773063 761.642066,434.363469 C761.642066,434.363469 770.184502,411.309963 774.612546,407.712177 Z" id="Path" fill="#5770BE"></path>
            <path d="M774.612546,407.712177 C776.236813,406.478156 777.467515,404.79876 778.154982,402.878229 C779.077491,400 778.560886,397.020295 771.245387,398.487085 C758.284133,401.088561 712.121771,403.367159 698.468635,390.691882 C684.815498,378.016605 678.311808,384.188192 678.311808,384.188192 C678.311808,384.188192 674.409594,430.673432 666.928044,440.756458 C666.928044,440.756458 652.95203,481.060886 641.245387,488.542435 C629.538745,496.023985 660.101476,498.081181 662.057196,497.426199 C663.607011,496.909594 688.51476,494.483395 715.304428,500.341328 C725.044488,502.428382 734.255149,506.484338 742.370849,512.260148 C746.476015,515.212177 751.190037,516.937269 751.595941,509.732472 C752.324723,496.817343 750.590406,448.773063 761.642066,434.363469 C761.642066,434.363469 770.184502,411.309963 774.612546,407.712177 Z" id="Path" fill="#000000" opacity="0.1"></path>
            <path d="M771.273063,409.787823 C772.816536,408.609008 773.983345,407.00625 774.630996,405.175277 C775.553506,402.407749 775.01845,399.640221 768.081181,401.01476 C755.765683,403.47786 711.937269,405.627306 698.976015,393.634686 C686.01476,381.642066 679.833948,387.4631 679.833948,387.4631 C679.833948,387.4631 676.143911,431.595941 669.031365,441.162362 C669.031365,441.162362 655.765683,479.437269 644.649446,486.54059 C633.53321,493.643911 662.555351,495.590406 664.400369,494.972325 C665.876384,494.483395 689.52952,492.204797 714.9631,497.739852 C724.211105,499.715987 732.955344,503.568476 740.654982,509.059041 C744.557196,511.826568 749.031365,513.49631 749.418819,506.660517 C750.110701,494.354244 748.49631,448.782288 758.957565,435.092251 C758.957565,435.083026 767.066421,413.201107 771.273063,409.787823 Z" id="Path" fill="#5770BE"></path>
            <path d="M738.791513,435.230627 C738.791513,435.230627 735.562731,437.075646 720.110701,442.380074 C704.658672,447.684502 736.254613,440.304428 738.791513,435.230627 Z" id="Path" fill="#000000" opacity="0.1"></path>
            <path d="M737.177122,451.512915 C737.177122,451.512915 727.490775,459.446494 722.647601,460.138376 C717.804428,460.830258 734.409594,459.261993 737.177122,451.512915 Z" id="Path" fill="#000000" opacity="0.1"></path>
            <path d="M744.880074,488.154982 C744.880074,488.154982 735.193727,496.088561 730.350554,496.780443 C725.50738,497.472325 742.112546,495.922509 744.880074,488.154982 Z" id="Path" fill="#000000" opacity="0.1"></path>
            <path d="M597.979705,494.815498 C596.610915,494.75526 595.251362,494.560597 593.920664,494.234317 C593.828413,493.800738 593.090406,493.505535 591.531365,493.440959 L591.217712,493.440959 C586.42001,491.613518 582.116932,488.687931 578.653137,484.898524 C574.206642,480.009225 561.623616,473.892989 561.623616,473.892989 C561.623616,473.892989 552.730627,466.392989 546.863469,465.784133 C540.99631,465.175277 524.778598,448.809963 510.97786,433.662362 C497.177122,418.51476 475.848708,402.001845 475.848708,402.001845 L466.798893,391.909594 C466.798893,391.909594 456.245387,384.391144 453.800738,380.221402 C452.4631,377.961255 448.265683,376.798893 443.96679,376.392989 C439.354244,374.54797 431.743542,374.54797 428.191882,375.322878 C426.023985,375.811808 420.027675,381.48524 414.123616,387.527675 L418.976015,325.258303 C419.113088,323.479629 418.003495,321.842023 416.300738,321.309963 L399.972325,329.271218 C398.776177,329.849684 397.983378,331.02655 397.896679,332.352399 L393.51476,399.197417 L374.234317,413.293358 C373.795824,410.930985 372.781921,408.713074 371.282288,406.835793 C360.47048,392.739852 343.662362,419.483395 337.398524,430.673432 C337.103321,430.673432 336.817343,430.765683 336.549815,430.830258 C336.432667,431.159357 336.239923,431.456372 335.987085,431.697417 C331.220211,429.375259 326.696102,426.584774 322.48155,423.367159 C322.186211,423.042276 321.940619,422.675442 321.752768,422.278598 C320.830258,419.98155 317.204797,416.03321 315.110701,413.846863 C308.745387,406.678967 299.252768,397.075646 297.896679,396.46679 C297.177122,396.153137 293.773063,393.542435 289.54797,390.230627 C288.902008,388.830768 288.181415,387.466569 287.389299,386.143911 C284.381919,381.162362 279.252768,379.686347 275.664207,379.289668 C272.343173,376.706642 269.806273,374.778598 269.132841,374.446494 C266.835793,373.302583 261.54059,365.0369 258.98524,359.760148 C256.429889,354.483395 237.859779,353.800738 237.859779,353.800738 C237.717969,346.551389 239.399163,339.382523 242.749077,332.95203 C242.942804,332.583026 243.127306,332.223247 243.321033,331.872694 C252.156475,329.300991 259.550913,323.218808 263.778807,315.045461 C268.0067,306.872114 268.698179,297.322637 265.691882,288.625461 C268.071956,287.785978 270.97786,288.154982 273.47786,287.278598 C276.835793,286.107011 279.880074,283.394834 280.396679,279.898524 C280.620416,277.559957 280.076371,275.212147 278.846863,273.210332 C277.721176,271.21546 276.292741,269.407355 274.612546,267.850554 C270.055351,263.071956 263.49631,260.129151 257.084871,257.924354 C248.957565,255.156827 240.424354,253.02583 231.835793,253.49631 C223.247232,253.96679 214.54797,257.269373 209.012915,263.819188 C208.031423,265.171904 206.87428,266.38799 205.571956,267.435424 C203.597786,268.782288 201.070111,269.00369 198.680812,268.911439 C190.802583,268.625461 182.573801,265.516605 175.304428,268.560886 C166.568266,272.250923 163.51476,282.896679 162.389299,292.278598 C161.217712,301.937269 160.931734,311.761993 158.376384,321.143911 C155.821033,330.52583 150.553506,339.695572 141.99262,344.354244 C139.49262,345.710332 136.761993,346.660517 134.409594,348.265683 C132.057196,349.870849 130.055351,352.361624 130.046125,355.202952 C130.046125,359.077491 133.523985,361.928044 135.341328,365.350554 C136.263838,367.094096 136.798893,369.086716 137.712177,370.802583 L137.712177,370.802583 C137.804428,370.97786 137.896679,371.143911 137.998155,371.309963 L138.053506,371.402214 C138.136531,371.531365 138.219557,371.660517 138.311808,371.789668 C138.337209,371.836299 138.368187,371.879667 138.404059,371.918819 L138.662362,372.269373 C138.698407,372.310632 138.732278,372.353741 138.763838,372.398524 C138.892989,372.546125 139.02214,372.693727 139.160517,372.832103 C139.298893,372.97048 139.49262,373.145756 139.667897,373.284133 C139.843173,373.422509 139.935424,373.597786 140.083026,373.745387 C144.04059,377.739852 151.070111,375.479705 156.143911,377.905904 C157.111424,378.388968 158.003338,379.010511 158.791513,379.750923 C160.48893,381.595941 161.854244,383.874539 163.404059,385.922509 L163.49631,386.03321 L163.976015,386.642066 L164.225092,386.928044 C164.335793,387.066421 164.45572,387.204797 164.575646,387.333948 C164.695572,387.4631 165,387.795203 165.212177,388.00738 L165.627306,388.385609 C165.793358,388.570111 165.95941,388.754613 166.134686,388.929889 C170.304428,393.081181 176.46679,394.52952 182.352399,394.935424 C185.571956,395.147601 188.902214,395.092251 191.881919,393.837638 C193.241143,393.257093 194.489593,392.4456 195.571956,391.439114 C197.305608,392.796213 199.158131,393.994178 201.107011,395.01845 C205.95941,398.191882 211.337638,401.153137 216.411439,404.520295 C221.697417,409.54797 228.099631,416.678967 228.182657,421.872694 C228.302583,428.763838 237.776753,442.297048 242.020295,447.998155 C242.232472,449.132841 242.324723,449.778598 242.324723,449.778598 L261.798893,478.45941 C261.798893,478.45941 263.256458,482.933579 270.857934,483.182657 C269.45572,491.817343 269.935424,507.001845 276.678967,508.588561 C284.501845,510.433579 297.232472,508.892989 299.077491,511.190037 C300.922509,513.487085 331.282288,509.9631 331.282288,509.9631 C331.282288,509.9631 348.154982,506.143911 359.354244,509.51107 C366.321929,511.45081 373.747096,510.909493 380.359779,507.979705 C380.359779,507.979705 392.4631,506.835793 394.031365,502.103321 C394.336687,501.664442 394.541429,501.163611 394.630996,500.636531 C394.704507,500.120631 394.84082,499.615655 395.0369,499.132841 C396.254613,497.149446 398.145756,496.568266 397.435424,496.125461 C398.357934,495.332103 398.551661,495.147601 395.701107,494.667897 C393.813924,494.386811 391.891289,494.452462 390.027675,494.861624 C390.710332,494.172817 391.383764,493.444034 392.04797,492.675277 C392.471999,492.698794 392.897005,492.698794 393.321033,492.675277 C397.555351,492.915129 397.260148,491.079336 401.217712,490.092251 C405.830258,488.948339 410.442804,488.487085 416.402214,487.795203 C422.361624,487.103321 428.597786,483.671587 431.162362,480.415129 C433.726937,477.158672 444.501845,479.031365 447.490775,473.523985 C450.055351,468.819188 440.987085,464.778598 436.153137,465.147601 C434.991678,464.988035 433.809279,465.191008 432.767528,465.728782 C429.926199,467.573801 419.732472,468.422509 416.236162,468.643911 C415.47048,468.367159 412.389299,467.306273 408.763838,466.383764 C411.900369,461.245387 416.291513,454.243542 420.267528,448.597786 C427.48155,438.348708 431.771218,434.677122 431.771218,434.677122 C433.256906,432.281214 435.126934,430.146265 437.306273,428.357934 C442.702952,442.02952 474.54797,464.916974 489.889299,467.564576 C506.761993,470.47048 523.330258,484.234317 523.330258,484.234317 C523.330258,484.234317 521.798893,490.691882 521.798893,493.45941 C521.798893,494.695572 524.861624,495.304428 528.708487,495.608856 C531.291513,497.546125 543.828413,497.333948 548.634686,496.531365 C554.00369,495.608856 569.188192,499.437269 581.614391,500.221402 C594.04059,501.005535 605.48893,495.119926 597.979705,494.815498 Z" id="Path" fill="url(#linearGradient-1)"></path>
            <path d="M291.494465,390.276753 L290.341328,404.926199 L297.453875,420.350554 L307.509225,429.206642 L318.450185,435.664207 L328.597786,442.730627 L338.745387,433.616236 C338.745387,433.616236 323.883764,424.077491 322.555351,420.839483 C321.226937,417.601476 314.54797,411.042435 314.54797,411.042435 L305.119926,401.928044 L297.4631,394.944649 L291.494465,390.276753 Z" id="Path" fill="#E6E6E6"></path>
            <path d="M291.494465,390.276753 L290.341328,404.926199 L297.453875,420.350554 L307.509225,429.206642 L318.450185,435.664207 L328.597786,442.730627 L338.745387,433.616236 C338.745387,433.616236 323.883764,424.077491 322.555351,420.839483 C321.226937,417.601476 314.54797,411.042435 314.54797,411.042435 L305.119926,401.928044 L297.4631,394.944649 L291.494465,390.276753 Z" id="Path" fill="#000000" opacity="0.1"></path>
            <path d="M245.442804,333.404059 C241.752768,340.636531 238.634686,351.263838 242.195572,363.247232 C248.782288,385.387454 200.498155,354.409594 200.498155,354.409594 C200.498155,354.409594 210.904059,338.874539 213.948339,325.461255 C214.935424,321.116236 215.147601,316.983395 213.948339,313.680812 C209.160517,300.202952 251.983395,323.560886 251.983395,323.560886 C249.389086,326.547105 247.190756,329.855453 245.442804,333.404059 Z" id="Path" fill="#FFBEC5"></path>
            <path d="M239.308118,353.809963 C239.308118,353.809963 257.472325,354.483395 259.944649,359.649446 C262.416974,364.815498 267.573801,372.905904 269.824723,374.031365 C272.075646,375.156827 295.876384,394.695572 297.896679,395.590406 C299.916974,396.48524 320.359779,417.822878 320.359779,420.073801 C320.359779,422.324723 341.476015,435.350554 354.953875,437.370849 C368.431734,439.391144 389.086716,463.653137 395.156827,462.749077 C401.226937,461.845018 413.607011,466.346863 413.607011,466.346863 C413.607011,466.346863 427.5369,465.673432 430.904059,463.422509 C434.271218,461.171587 446.845018,465.673432 443.929889,471.060886 C441.01476,476.448339 430.45203,474.658672 427.979705,477.804428 C425.50738,480.950185 419.446494,484.317343 413.607011,484.990775 C407.767528,485.664207 403.274908,486.107011 398.782288,487.232472 C394.289668,488.357934 395.415129,490.599631 388.634686,489.483395 C381.854244,488.367159 355.618081,441.632841 355.618081,441.632841 L326.420664,428.385609 C326.420664,428.385609 315.415129,419.400369 314.51107,416.476015 C313.607011,413.551661 292.5,393.570111 292.5,393.570111 L264.870849,373.348708 L239.308118,353.809963 Z" id="Path" fill="#000000" opacity="0.1"></path>
            <path d="M240.654982,353.809963 C240.654982,353.809963 258.819188,354.483395 261.291513,359.649446 C263.763838,364.815498 268.929889,372.905904 271.171587,374.031365 C273.413284,375.156827 297.223247,394.695572 299.252768,395.590406 C301.282288,396.48524 321.706642,417.822878 321.706642,420.073801 C321.706642,422.324723 342.822878,435.350554 356.300738,437.370849 C369.778598,439.391144 390.433579,463.653137 396.50369,462.749077 C402.573801,461.845018 414.953875,466.346863 414.953875,466.346863 C414.953875,466.346863 428.883764,465.673432 432.250923,463.422509 C435.618081,461.171587 448.201107,465.673432 445.276753,471.060886 C442.352399,476.448339 431.798893,474.658672 429.326568,477.804428 C426.854244,480.950185 420.793358,484.317343 414.953875,484.990775 C409.114391,485.664207 404.584871,486.107011 400.101476,487.232472 C395.618081,488.357934 396.734317,490.599631 389.953875,489.483395 C383.173432,488.367159 356.937269,441.632841 356.937269,441.632841 L327.739852,428.385609 C327.739852,428.385609 316.734317,419.400369 315.830258,416.476015 C314.926199,413.551661 293.883764,393.570111 293.883764,393.570111 L266.208487,373.348708 L240.654982,353.809963 Z" id="Path" fill="#E6E6E6"></path>
            <path d="M335.258303,454.142066 C335.258303,454.142066 362.51845,430.027675 363.856089,428.238007 C364.520295,427.315498 373.145756,420.811808 381.688192,414.400369 C392.30405,406.480943 402.254212,397.706288 411.439114,388.164207 C417.592251,381.780443 424.178967,375.405904 426.448339,374.898524 C431.060886,373.846863 442.767528,374.298893 445.166052,378.339483 C447.564576,382.380074 457.896679,389.723247 457.896679,389.723247 L466.734317,399.594096 C466.734317,399.594096 487.555351,415.765683 501.03321,430.590406 C514.51107,445.415129 530.378229,461.439114 536.088561,462.038745 C541.798893,462.638376 550.461255,469.972325 550.461255,469.972325 C550.461255,469.972325 562.739852,475.968635 567.066421,480.756458 C571.392989,485.54428 578.597786,490.193727 585.931734,490.48893 C593.265683,490.784133 582.038745,496.48524 569.907749,495.728782 C557.776753,494.972325 542.961255,491.236162 537.712177,492.140221 C532.4631,493.04428 517.804428,493.182657 517.804428,490.48893 C517.804428,487.795203 519.298893,481.50369 519.298893,481.50369 C519.298893,481.50369 503.127306,468.062731 486.688192,465.221402 C470.249077,462.380074 434.243542,435.571956 434.538745,423.145756 C434.538745,423.145756 429.45572,422.693727 423.607011,431.678967 C423.607011,431.678967 419.418819,435.276753 412.380074,445.304428 C405.341328,455.332103 396.95572,469.704797 396.95572,469.704797 C396.95572,469.704797 383.929889,496.042435 373.450185,495.830258 C362.97048,495.618081 351.734317,494.409594 351.734317,494.409594 L337.804428,484.52952 L336.881919,472.5369 L335.258303,454.142066 Z" id="Path" fill="#FFBEC5"></path>
            <path d="M335.258303,454.142066 C335.258303,454.142066 362.51845,430.027675 363.856089,428.238007 C364.520295,427.315498 373.145756,420.811808 381.688192,414.400369 C392.30405,406.480943 402.254212,397.706288 411.439114,388.164207 C417.592251,381.780443 424.178967,375.405904 426.448339,374.898524 C431.060886,373.846863 442.767528,374.298893 445.166052,378.339483 C447.564576,382.380074 457.896679,389.723247 457.896679,389.723247 L466.734317,399.594096 C466.734317,399.594096 487.555351,415.765683 501.03321,430.590406 C514.51107,445.415129 530.378229,461.439114 536.088561,462.038745 C541.798893,462.638376 550.461255,469.972325 550.461255,469.972325 C550.461255,469.972325 562.739852,475.968635 567.066421,480.756458 C571.392989,485.54428 578.597786,490.193727 585.931734,490.48893 C593.265683,490.784133 582.038745,496.48524 569.907749,495.728782 C557.776753,494.972325 542.961255,491.236162 537.712177,492.140221 C532.4631,493.04428 517.804428,493.182657 517.804428,490.48893 C517.804428,487.795203 519.298893,481.50369 519.298893,481.50369 C519.298893,481.50369 503.127306,468.062731 486.688192,465.221402 C470.249077,462.380074 434.243542,435.571956 434.538745,423.145756 C434.538745,423.145756 429.45572,422.693727 423.607011,431.678967 C423.607011,431.678967 419.418819,435.276753 412.380074,445.304428 C405.341328,455.332103 396.95572,469.704797 396.95572,469.704797 C396.95572,469.704797 383.929889,496.042435 373.450185,495.830258 C362.97048,495.618081 351.734317,494.409594 351.734317,494.409594 L337.804428,484.52952 L336.881919,472.5369 L335.258303,454.142066 Z" id="Path" fill="#000000" opacity="0.05"></path>
            <path d="M341.549815,455.48893 C341.549815,455.48893 368.800738,431.383764 370.147601,429.584871 C371.494465,427.785978 405.332103,402.924354 405.332103,402.924354 C405.332103,402.924354 428.090406,377.324723 432.739852,376.273063 C437.389299,375.221402 449.059041,375.673432 451.457565,379.714022 C453.856089,383.754613 464.178967,391.097786 464.178967,391.097786 L473.016605,400.97786 C473.016605,400.97786 493.828413,417.149446 507.306273,431.97417 C520.784133,446.798893 536.660517,462.822878 542.361624,463.422509 C548.062731,464.02214 556.734317,471.365314 556.734317,471.365314 C556.734317,471.365314 569.012915,477.352399 573.339483,482.140221 C577.666052,486.928044 584.870849,491.577491 592.204797,491.872694 C599.538745,492.167897 588.311808,497.869004 576.180812,497.112546 C564.049815,496.356089 549.225092,492.629151 543.98524,493.523985 C538.745387,494.418819 524.086716,494.612546 524.086716,491.845018 C524.086716,489.077491 525.590406,482.859779 525.590406,482.859779 C525.590406,482.859779 509.418819,469.391144 492.942804,466.54059 C476.46679,463.690037 440.562731,436.918819 440.830258,424.501845 C440.830258,424.501845 435.738007,424.049815 429.898524,433.035055 C429.898524,433.035055 425.710332,436.632841 418.671587,446.660517 C411.632841,456.688192 403.247232,471.070111 403.247232,471.070111 C403.247232,471.070111 390.221402,497.380074 379.732472,497.187411 C369.243542,496.99262 358.02583,495.765683 358.02583,495.765683 L344.095941,485.885609 L343.173432,473.892989 L341.549815,455.48893 Z" id="Path" fill="#FFBEC5"></path>
            <path d="M429.261993,469.520295 C428.523985,469.833948 427.804428,470.212177 427.094096,470.590406 L422.48155,473.053506 C426.500057,473.717217 430.589501,473.838225 434.640221,473.413284 C436.891144,473.173432 440.055351,471.263838 437.490775,469.00369 C435.45203,467.232472 431.337638,468.616236 429.261993,469.520295 Z" id="Path" fill="#000000" opacity="0.1"></path>
            <path d="M408.182657,472.712177 C410.682657,472.214022 413.376384,471.725092 415.710332,472.712177 C416.509567,473.097633 417.26695,473.564428 417.97048,474.105166 L421.97417,476.99262 C418.525447,478.010347 414.978581,478.65973 411.392989,478.929889 C410.916776,478.994911 410.432861,478.976179 409.9631,478.874539 C409.347749,478.657922 408.789488,478.304672 408.330258,477.841328 C405.202952,475.239852 403.090406,473.726937 408.182657,472.712177 Z" id="Path" fill="#000000" opacity="0.1"></path>
            <path d="M252.001845,323.560886 C249.401059,326.546042 247.196495,329.854437 245.442804,333.404059 C234.278146,336.460409 222.328294,333.446694 213.948339,325.461255 C214.935424,321.116236 215.147601,316.983395 213.948339,313.680812 C209.178967,300.202952 252.001845,323.560886 252.001845,323.560886 Z" id="Path" fill="#000000" opacity="0.1"></path>
            <circle id="Oval" fill="#FFBEC5" cx="236.697417" cy="300.738007" r="32.9428044"></circle>
            <polygon id="Path" fill="#504F88" points="240.664207 353.809963 238.902214 356.651292 260.295203 379.870849 270.350554 386.900369 276.162362 379.105166"></polygon>
            <path d="M273.588561,378.726937 C273.588561,378.726937 284.132841,377.398524 289.00369,385.479705 C291.876017,390.146475 293.689848,395.386431 294.317343,400.830258 C294.317343,400.830258 299.178967,404.723247 298.736162,406.900369 C298.371669,408.296265 297.521198,409.516364 296.337638,410.341328 C296.337638,410.341328 286.900369,404.953875 286.826568,404.723247 C286.752768,404.49262 279.566421,396.559041 279.566421,396.559041 L273.588561,390.276753 L273.588561,378.726937 Z" id="Path" fill="#504F88"></path>
            <path d="M210.073801,346.623616 C210.073801,346.623616 193.607011,347.933579 191.95572,359.428044 C190.304428,370.922509 189.714022,377.472325 195.553506,385.405904 C201.392989,393.339483 213.367159,396.642066 213.367159,396.642066 C213.367159,396.642066 231.48524,410.867159 231.642066,419.54797 C231.798893,428.228782 247.066421,447.702952 247.066421,447.702952 C247.066421,447.702952 276.134686,469.261993 274.031365,476.153137 C271.928044,483.04428 271.319188,502.656827 278.957565,504.45572 C286.595941,506.254613 299.02214,504.750923 300.821033,507.001845 C302.619926,509.252768 332.269373,505.802583 332.269373,505.802583 C332.269373,505.802583 348.736162,502.057196 359.667897,505.350554 C366.474663,507.246953 373.729534,506.711971 380.184502,503.837638 C380.184502,503.837638 392.915129,502.638376 393.662362,497.546125 C394.409594,492.453875 400.119926,492.610701 394.714022,491.706642 C389.308118,490.802583 385.876384,493.653137 381.983395,492.306273 C378.090406,490.95941 374.797048,486.46679 365.811808,486.614391 C356.826568,486.761993 354.741697,486.918819 353.819188,486.761993 C352.896679,486.605166 359.51107,481.52214 355.913284,473.293358 C352.315498,465.064576 345.442804,458.634686 345.747232,454.02214 C346.051661,449.409594 332.269373,433.653137 332.269373,433.653137 C332.269373,433.653137 325.682657,424.077491 317.140221,420.931734 C308.597786,417.785978 292.583026,398.45941 292.583026,398.45941 C292.583026,398.45941 278.865314,377.103321 271.420664,375.95941 C263.976015,374.815498 239.575646,352.896679 239.575646,352.896679 C239.575646,352.896679 218.883764,344.363469 210.073801,346.623616 Z" id="Path" fill="#000000" opacity="0.1"></path>
            <path d="M209.630996,347.51845 C209.630996,347.51845 193.154982,348.856089 191.48524,360.322878 C189.815498,371.789668 189.243542,378.367159 195.083026,386.309963 C200.922509,394.252768 212.905904,397.5369 212.905904,397.5369 C212.905904,397.5369 231.023985,411.761993 231.171587,420.45203 C231.319188,429.142066 246.595941,448.597786 246.595941,448.597786 C246.595941,448.597786 275.682657,470.166052 273.588561,477.084871 C271.494465,484.00369 270.885609,503.588561 278.51476,505.387454 C286.143911,507.186347 298.588561,505.691882 300.378229,507.933579 C302.167897,510.175277 331.826568,506.734317 331.826568,506.734317 C331.826568,506.734317 348.302583,502.998155 359.234317,506.291513 C366.036937,508.183139 373.286433,507.641548 379.732472,504.760148 C379.732472,504.760148 392.4631,503.560886 393.210332,498.47786 C393.957565,493.394834 399.667897,493.53321 394.261993,492.638376 C388.856089,491.743542 385.424354,494.584871 381.531365,493.228782 C377.638376,491.872694 374.345018,487.389299 365.359779,487.546125 C356.374539,487.702952 354.289668,487.841328 353.367159,487.693727 C352.444649,487.546125 359.049815,482.453875 355.461255,474.215867 C351.872694,465.97786 344.98155,459.538745 345.313653,454.898524 C345.645756,450.258303 331.835793,434.52952 331.835793,434.52952 C331.835793,434.52952 325.249077,424.953875 316.715867,421.808118 C308.182657,418.662362 292.158672,399.345018 292.158672,399.345018 C292.158672,399.345018 278.431734,377.98893 270.99631,376.835793 C263.560886,375.682657 239.142066,353.819188 239.142066,353.819188 C239.142066,353.819188 218.431734,345.258303 209.630996,347.51845 Z" id="Path" fill="#E6E6E6"></path>
            <path d="M316.374539,477.084871 C315.359779,479.345018 315.138376,482.287823 316.881919,484.04059 C317.986392,484.943761 319.268906,485.603879 320.645756,485.97786 C323.45941,487.075646 326.180812,489.00369 327.103321,491.881919 C327.272108,492.678983 327.584716,493.438621 328.02583,494.123616 C328.494168,494.630493 329.075828,495.01932 329.723247,495.258303 C337.74719,498.881779 346.473849,500.683818 355.276753,500.535055 C352.361865,497.733152 348.66621,495.8805 344.677122,495.221402 C341.50369,494.704797 338.145756,494.944649 335.212177,493.625461 C332.278598,492.306273 330.322878,489.787823 328.404059,487.315498 C327.695233,486.50052 327.141807,485.562509 326.771218,484.54797 C326.079336,482.324723 327.186347,479.861624 326.549815,477.629151 C326.180812,476.346863 323.099631,471.761993 321.789668,471.476015 C319.787823,471.079336 317.04797,475.581181 316.374539,477.084871 Z" id="Path" fill="#000000" opacity="0.1"></path>
            <path d="M432.619926,421.50369 C434.464945,420.904059 443.846863,419.151292 441.01476,415.590406 C438.431734,412.324723 434.621771,420.811808 432.619926,421.50369 Z" id="Path" fill="#000000" opacity="0.1"></path>
            <path d="M398.920664,329.797048 L414.852399,322.038745 L409.317343,402.001845 L392.5369,398.671587 L396.891144,332.776753 C396.990857,331.493709 397.763259,330.359683 398.920664,329.797048 L398.920664,329.797048 Z" id="Path" fill="#CBE3FF"></path>
            <path d="M414.852399,322.038745 L414.852399,322.038745 L409.317343,402.001845 L409.317343,402.001845 C410.584883,402.000696 411.637927,401.024018 411.734317,399.760148 L417.5,325.913284 C417.632678,324.161391 416.532748,322.551736 414.852399,322.038745 Z" id="Path" fill="#C8BFCA"></path>
            <path d="M392.592251,398.219557 L342.038745,435.378229 C341.184998,435.990205 340.632531,436.937033 340.519817,437.981397 C340.407103,439.025761 340.744827,440.068663 341.448339,440.848708 L346.392989,446.476015 L410.359779,398.671587 L394.787823,397.555351 C393.999921,397.505661 393.220485,397.741457 392.592251,398.219557 L392.592251,398.219557 Z" id="Path" fill="#F1F1F2"></path>
            <polygon id="Path" fill="#7E7A98" points="391.291513 401.99262 357.241697 425.830258 361.983395 430.968635 401.706642 402.702952"></polygon>
            <path d="M346.411439,446.476015 L346.411439,446.476015 L410.359779,398.671587 L410.359779,398.671587 C411.404606,400.849221 410.763065,403.461762 408.828413,404.907749 L352.656827,447.038745 C350.741475,448.490015 348.036519,448.246289 346.411439,446.476015 Z" id="Path" fill="#C8BFCA"></path>
            <path d="M335.396679,433.625461 C335.396679,433.625461 357.721402,388.523985 370.904059,405.774908 C384.086716,423.02583 350.682657,441.752768 350.682657,441.752768 L335.396679,433.625461 Z" id="Path" fill="#FFBEC5"></path>
            <path d="M216.392989,359.51107 C207.397648,361.852538 200.268532,368.705575 197.573801,377.601476 C196.125461,382.555351 196.226937,387.98893 201.134686,391.623616 C212.370849,399.926199 228.238007,405.774908 235.581181,419.400369 C240.177281,428.311022 243.352142,437.885405 244.990775,447.776753 L264.012915,475.848708 C264.012915,475.848708 266.900369,484.833948 286.153137,477.804428 C305.405904,470.774908 315.931734,467.167897 315.931734,467.167897 C315.931734,467.167897 330.857934,459.160517 337.527675,456.236162 C338.467734,455.757563 339.466368,455.404009 340.498155,455.184502 C342.739852,455.184502 358.791513,441.448339 359.52952,439.557196 C360.267528,437.666052 343.302583,429.806273 336.52214,431.512915 C336.52214,431.512915 335.553506,435.571956 322.822878,434.972325 C310.092251,434.372694 305.295203,439.769373 305.295203,439.769373 C305.295203,439.769373 299.00369,437.51845 294.9631,437.739852 C290.922509,437.961255 283.588561,434.049815 278.118081,434.520295 C278.118081,434.520295 280.885609,428.98524 277.297048,424.372694 C273.708487,419.760148 270.405904,420.175277 268.911439,414.714022 C268.053506,411.595941 265.221402,401.678967 262.924354,393.708487 C259.930645,383.095526 253.964197,373.560093 245.728782,366.226937 C240.359779,361.494465 233.976015,357.647601 227.573801,357.878229 C223.797361,358.000802 220.046761,358.548538 216.392989,359.51107 L216.392989,359.51107 Z" id="Path" fill="#000000" opacity="0.1"></path>
            <path d="M216.789668,357.260148 C207.787826,359.606279 200.650988,366.460158 197.942804,375.359779 C196.50369,380.313653 196.595941,385.738007 201.512915,389.372694 C212.739852,397.675277 228.616236,403.523985 235.950185,417.149446 C240.556719,426.058124 243.740984,435.63271 245.387454,445.52583 L264.409594,473.607011 C264.409594,473.607011 267.287823,482.592251 286.549815,475.553506 C305.811808,468.51476 316.328413,464.926199 316.328413,464.926199 C316.328413,464.926199 331.254613,456.909594 337.915129,453.994465 C338.853857,453.512774 339.852911,453.159072 340.885609,452.942804 C343.136531,452.942804 359.188192,439.206642 359.916974,437.315498 C360.645756,435.424354 343.699262,427.564576 336.918819,429.271218 C336.918819,429.271218 335.950185,433.330258 323.219557,432.730627 C310.48893,432.130996 305.691882,437.51845 305.691882,437.51845 C305.691882,437.51845 299.400369,435.276753 295.359779,435.498155 C291.319188,435.719557 283.976015,431.808118 278.51476,432.278598 C278.51476,432.278598 281.282288,426.743542 277.684502,422.130996 C274.086716,417.51845 270.802583,417.942804 269.298893,412.472325 C268.450185,409.363469 265.608856,399.446494 263.321033,391.46679 C260.324953,380.85488 254.358894,371.320068 246.125461,363.98524 C240.747232,359.252768 234.372694,355.405904 227.97048,355.682657 C224.195914,355.784384 220.445038,356.313592 216.789668,357.260148 Z" id="Path" fill="#000000" opacity="0.1"></path>
            <path d="M216.392989,358.164207 C207.397648,360.505674 200.268532,367.358711 197.573801,376.254613 C196.125461,381.208487 196.226937,386.642066 201.134686,390.276753 C212.370849,398.579336 228.238007,404.428044 235.581181,418.053506 C240.177281,426.964159 243.352142,436.538542 244.990775,446.429889 L264.012915,474.501845 C264.012915,474.501845 266.900369,483.487085 286.153137,476.448339 C305.405904,469.409594 315.931734,465.821033 315.931734,465.821033 C315.931734,465.821033 330.857934,457.804428 337.527675,454.889299 C338.465824,454.406267 339.465063,454.052499 340.498155,453.837638 C342.739852,453.837638 358.791513,440.101476 359.52952,438.210332 C360.267528,436.319188 343.302583,428.45941 336.52214,430.166052 C336.52214,430.166052 335.553506,434.225092 322.822878,433.625461 C310.092251,433.02583 305.295203,438.413284 305.295203,438.413284 C305.295203,438.413284 299.00369,436.171587 294.9631,436.392989 C290.922509,436.614391 283.588561,432.702952 278.118081,433.173432 C278.118081,433.173432 280.885609,427.638376 277.297048,423.02583 C273.708487,418.413284 270.405904,418.837638 268.911439,413.376384 C268.053506,410.258303 265.221402,400.341328 262.924354,392.361624 C259.930472,381.751362 253.963908,372.218944 245.728782,364.889299 C240.359779,360.147601 233.976015,356.309963 227.573801,356.586716 C223.799466,356.691194 220.048898,357.220358 216.392989,358.164207 L216.392989,358.164207 Z" id="Path" fill="#E6E6E6"></path>
            <path d="M275.433579,288.680812 C278.708487,287.5369 281.688192,284.880074 282.195572,281.448339 C282.407719,279.149796 281.867027,276.844572 280.654982,274.880074 C276.559041,267.5 268.302583,263.570111 260.359779,260.821033 C252.416974,258.071956 244.095941,256.01476 235.710332,256.48524 C227.324723,256.95572 218.828413,260.175277 213.404059,266.632841 C212.448098,267.958421 211.318726,269.149846 210.046125,270.175277 C208.118081,271.494465 205.654982,271.706642 203.321033,271.623616 C195.627306,271.337638 187.592251,268.293358 180.498155,271.282288 C171.97417,274.861624 168.98524,285.313653 167.878229,294.501845 C166.734317,303.948339 166.457565,313.570111 163.957565,322.758303 C161.457565,331.946494 156.328413,340.922509 147.97048,345.479705 C145.52583,346.808118 142.859779,347.739852 140.590406,349.308118 C138.321033,350.876384 136.337638,353.321033 136.328413,356.107011 C136.328413,359.898524 139.723247,362.684502 141.494465,366.03321 C142.785978,368.47786 143.284133,371.402214 145.230627,373.357934 C149.095941,377.269373 155.950185,375.055351 160.913284,377.435424 C165.322878,379.557196 167.223247,384.750923 170.691882,388.210332 C174.769373,392.278598 180.784133,393.699262 186.52214,394.095941 C189.667897,394.308118 192.924354,394.252768 195.821033,393.02583 C201.595941,390.581181 204.658672,383.98524 205,377.730627 C205.341328,371.476015 203.542435,365.332103 202.232472,359.197417 C201.798893,357.177122 201.429889,355.01845 202.232472,353.090406 C202.917924,351.608593 203.984359,350.335238 205.322878,349.400369 C212.140221,344.012915 221.854244,341.549815 225.765683,333.791513 C228.394834,328.579336 227.610701,322.389299 228.238007,316.586716 C228.47786,314.47417 229.00369,312.232472 230.571956,310.784133 C232.490775,309.02214 235.359779,308.939114 237.95203,308.708487 C245.639299,307.933983 252.894291,304.783704 258.708487,299.695572 C261.531365,297.232472 263.238007,294.160517 265.691882,291.476015 C268.145756,288.791513 272.121771,289.815498 275.433579,288.680812 Z" id="Path" fill="#000000" opacity="0.1"></path>
            <path d="M274.51107,287.785978 C277.785978,286.632841 280.765683,283.976015 281.273063,280.54428 C281.480424,278.247787 280.936553,275.946048 279.723247,273.98524 C275.636531,266.605166 267.370849,262.675277 259.428044,259.916974 C251.48524,257.158672 243.154982,255.119926 234.778598,255.590406 C226.402214,256.060886 217.896679,259.280443 212.4631,265.738007 C211.510409,267.063347 210.384114,268.254798 209.114391,269.280443 C207.186347,270.599631 204.723247,270.821033 202.389299,270.728782 C194.695572,270.45203 186.660517,267.407749 179.557196,270.387454 C171.03321,273.976015 168.04428,284.428044 166.937269,293.607011 C165.802583,303.062731 165.52583,312.675277 163.02583,321.863469 C160.52583,331.051661 155.387454,340.0369 147.02952,344.584871 C144.584871,345.922509 141.918819,346.845018 139.649446,348.422509 C137.380074,350 135.396679,352.435424 135.396679,355.212177 C135.396679,359.00369 138.791513,361.798893 140.562731,365.147601 C141.845018,367.583026 142.352399,370.516605 144.252768,372.472325 C148.127306,376.374539 154.98155,374.160517 159.935424,376.549815 C164.354244,378.671587 166.254613,383.865314 169.723247,387.324723 C173.791513,391.383764 179.806273,392.813653 185.553506,393.201107 C188.690037,393.422509 191.95572,393.357934 194.852399,392.130996 C200.627306,389.686347 203.690037,383.099631 204.031365,376.845018 C204.372694,370.590406 202.564576,364.437269 201.263838,358.311808 C200.839483,356.291513 200.47048,354.132841 201.217712,352.204797 C201.909445,350.724245 202.978412,349.451666 204.317343,348.51476 C211.125461,343.136531 220.839483,340.673432 224.750923,332.915129 C227.380074,327.702952 226.595941,321.512915 227.232472,315.710332 C227.472325,313.588561 227.998155,311.346863 229.557196,309.907749 C231.48524,308.136531 234.354244,308.062731 236.937269,307.832103 C244.627116,307.050269 251.883791,303.897435 257.702952,298.809963 C260.52583,296.356089 262.223247,293.274908 264.686347,290.590406 C267.149446,287.905904 271.226937,288.948339 274.51107,287.785978 Z" id="Path" fill="#FFE2DA"></path>
            <g id="Group" opacity="0.1" transform="translate(142.066421, 269.372694)" fill="#000000">
                <path d="M15.6457565,104.446494 C11.0332103,102.232472 4.7601476,104.00369 0.793357934,101.088561 C1.16663198,101.813749 1.64194718,102.481675 2.20479705,103.071956 C6.07933579,106.97417 12.9335793,104.760148 17.8874539,107.149446 C19.0115145,107.69828 20.0296536,108.441584 20.8948339,109.345018 C19.5785517,107.302054 17.7746856,105.618657 15.6457565,104.446494 L15.6457565,104.446494 Z" id="Path"></path>
                <path d="M137.684502,4.61254613 C136.762354,2.94812915 135.620504,1.41531982 134.289668,0.0553505535 C134.720905,0.64736627 135.118222,1.26336138 135.479705,1.900369 C136.691668,3.86149413 137.232432,6.16379127 137.020295,8.45940959 C136.512915,11.8911439 133.53321,14.5479705 130.258303,15.701107 C126.983395,16.8542435 122.878229,15.7656827 120.433579,18.4686347 C117.98893,21.1715867 116.263838,24.2343173 113.440959,26.6881919 C107.624961,31.7749632 100.371425,34.9278335 92.6845018,35.7103321 C90.0830258,35.9501845 87.2140221,36.0147601 85.304428,37.7859779 C83.7361624,39.2250923 83.2103321,41.4760148 82.9797048,43.5885609 C82.3154982,49.3819188 83.1273063,55.5811808 80.498155,60.7933579 C76.5867159,68.5424354 66.8726937,71.0055351 60.0553506,76.3929889 C58.7195128,77.3307814 57.6537453,78.6033398 56.9649446,80.0830258 C56.2084871,82.001845 56.5774908,84.1697417 57.0110701,86.1900369 C58.3210332,92.3154982 60.1291513,98.4594096 59.7785978,104.723247 C59.4280443,110.987085 56.3653137,117.564576 50.599631,120.009225 C47.6937269,121.236162 44.4372694,121.291513 41.2915129,121.079336 C35.5535055,120.691882 29.5387454,119.234317 25.4612546,115.202952 L25.4059041,115.138376 C26.0982085,116.122002 26.8695188,117.047574 27.7121771,117.905904 C31.7804428,121.964945 37.795203,123.394834 43.5424354,123.782288 C46.6789668,124.00369 49.9446494,123.939114 52.8413284,122.712177 C58.6162362,120.267528 61.6789668,113.680812 62.0202952,107.426199 C62.3616236,101.171587 60.5535055,95.0184502 59.2527675,88.8929889 C58.8284133,86.8726937 58.4594096,84.7140221 59.2066421,82.7859779 C59.8983751,81.305426 60.9673419,80.0328465 62.3062731,79.095941 C69.1143911,73.7177122 78.8284133,71.2546125 82.7398524,63.49631 C85.3690037,58.2841328 84.5848708,52.0940959 85.2214022,46.2915129 C85.4612546,44.1697417 85.9870849,41.9280443 87.5553506,40.4889299 C89.4741697,38.7177122 92.3431734,38.6439114 94.9354244,38.4132841 C102.625271,37.6314494 109.881946,34.4786161 115.701107,29.3911439 C118.523985,26.9372694 120.221402,23.8560886 122.684502,21.1715867 C125.147601,18.4870849 129.206642,19.5756458 132.51845,18.404059 C135.830258,17.2324723 138.773063,14.5940959 139.280443,11.1623616 C139.472042,8.86385065 138.911969,6.56528454 137.684502,4.61254613 Z" id="Path"></path>
            </g>
            <ellipse id="Oval" fill="#5770BE" opacity="0.1" cx="930.396679" cy="714.9631" rx="68.8191882" ry="10.5627306"></ellipse>
            <ellipse id="Oval" fill="#5770BE" opacity="0.1" cx="98.4409594" cy="756.420664" rx="38.1918819" ry="5.85793358"></ellipse>
            <path d="M86.199262,514.815498 C86.199262,514.815498 92.7767528,523.422509 83.1642066,536.411439 C73.5516605,549.400369 65.6365314,560.396679 68.8099631,568.47786 C68.8099631,568.47786 83.3302583,544.345018 95.1383764,544.012915 C106.946494,543.680812 99.2343173,529.326568 86.199262,514.815498 Z" id="Path" fill="#5770BE"></path>
            <path d="M86.199262,514.815498 C86.7741399,515.644724 87.2276712,516.551787 87.5461255,517.509225 C99.0682657,531.051661 105.212177,543.690037 94.1328413,544.012915 C83.8099631,544.308118 71.4298893,562.758303 68.4594096,567.416974 C68.5608856,567.776753 68.6808118,568.136531 68.8099631,568.47786 C68.8099631,568.47786 83.3302583,544.345018 95.1383764,544.012915 C106.946494,543.680812 99.2343173,529.326568 86.199262,514.815498 Z" id="Path" fill="#000000" opacity="0.1"></path>
            <path d="M98.4317343,525.784133 C98.4317343,528.809963 98.0904059,531.263838 97.6752768,531.263838 C97.2601476,531.263838 96.9188192,528.809963 96.9188192,525.784133 C96.9188192,522.758303 97.3431734,524.178967 97.7583026,524.178967 C98.1734317,524.178967 98.4317343,522.749077 98.4317343,525.784133 Z" id="Path" fill="#FFD037"></path>
            <path d="M102.629151,529.400369 C99.9723247,530.848708 97.6568266,531.725092 97.4538745,531.356089 C97.2509225,530.987085 99.2435424,529.51107 101.909594,528.062731 C104.575646,526.614391 103.51476,527.675277 103.754613,528.062731 C103.994465,528.450185 105.295203,527.95203 102.629151,529.400369 Z" id="Path" fill="#FFD037"></path>
            <path d="M51.4298893,514.815498 C51.4298893,514.815498 44.8523985,523.422509 54.4649446,536.411439 C64.0774908,549.400369 71.9926199,560.396679 68.8099631,568.47786 C68.8099631,568.47786 54.298893,544.345018 42.4815498,544.012915 C30.6642066,543.680812 38.4317343,529.326568 51.4298893,514.815498 Z" id="Path" fill="#5770BE"></path>
            <path d="M51.4298893,514.815498 C50.8550114,515.644724 50.40148,516.551787 50.0830258,517.509225 C38.5608856,531.051661 32.4169742,543.690037 43.49631,544.012915 C53.8191882,544.308118 66.199262,562.758303 69.1605166,567.416974 C69.0673279,567.777987 68.950218,568.132399 68.8099631,568.47786 C68.8099631,568.47786 54.298893,544.345018 42.4815498,544.012915 C30.6642066,543.680812 38.4317343,529.326568 51.4298893,514.815498 Z" id="Path" fill="#000000" opacity="0.1"></path>
            <path d="M39.197417,525.784133 C39.197417,528.809963 39.5387454,531.263838 39.9538745,531.263838 C40.3690037,531.263838 40.7103321,528.809963 40.7103321,525.784133 C40.7103321,522.758303 40.2859779,524.178967 39.8708487,524.178967 C39.4557196,524.178967 39.197417,522.749077 39.197417,525.784133 Z" id="Path" fill="#FFD037"></path>
            <path d="M35,529.400369 C37.6568266,530.848708 39.9723247,531.725092 40.1752768,531.356089 C40.3782288,530.987085 38.3856089,529.51107 35.7195572,528.062731 C33.0535055,526.614391 34.1143911,527.675277 33.8745387,528.062731 C33.6346863,528.450185 32.3339483,527.95203 35,529.400369 Z" id="Path" fill="#FFD037"></path>
            <ellipse id="Oval" fill="#5770BE" opacity="0.1" cx="68.8191882" cy="623.763838" rx="68.8191882" ry="10.5627306"></ellipse>
            <path d="M104.234317,556.881919 L103.902214,559.566421 L103.440959,563.367159 L103.247232,564.944649 L102.785978,568.745387 L102.592251,570.332103 L102.130996,574.123616 L96.8634686,617.306273 C96.3929889,621.162362 90.0922509,624.160517 82.5,624.160517 L55.1291513,624.160517 C47.5276753,624.160517 41.2915129,621.162362 40.7749077,617.306273 L35.498155,574.132841 L35.0369004,570.341328 L34.8431734,568.754613 L34.3726937,564.953875 L34.1881919,563.376384 L33.7269373,559.575646 L33.3948339,556.891144 C33.1273063,554.714022 36.5313653,552.868969 40.8394834,552.868969 L96.798893,552.868969 C101.079336,552.859779 104.501845,554.704797 104.234317,556.881919 Z" id="Path" fill="#65617D"></path>
            <polygon id="Path" fill="#9D9CB5" points="103.911439 559.566421 103.450185 563.357934 34.1881919 563.357934 33.7269373 559.566421"></polygon>
            <polygon id="Path" fill="#9D9CB5" points="103.256458 564.944649 102.795203 568.745387 34.8523985 568.745387 34.3819188 564.944649"></polygon>
            <polygon id="Path" fill="#9D9CB5" points="102.592251 570.322878 102.130996 574.123616 35.498155 574.123616 35.0369004 570.322878"></polygon>
        </g>
    </g>
</svg>