<svg version="1" xmlns="http://www.w3.org/2000/svg" width="693.333" height="693.333" viewBox="0 0 520.000000 520.000000"><path d="M0 260v260h24V0H0v260zM40 260v260h480V0H40v260zm268.4-142c32.8 6.4 62.6 23.9 83.7 49.1l3.9 4.7-22 17.1c-12.1 9.4-22.4 17.1-22.8 17.1-.4 0-2.3-2.1-4.2-4.7-13-17.2-36-29.7-59.6-32.4-40.2-4.4-77.4 17.8-92.3 55.2-5.6 13.9-6.5 19.7-6.5 38.9s.9 25 6.5 38.9c8.3 20.8 25.5 39.2 44.4 47.6 27.1 11.9 59.5 10.4 83.6-4 8.2-4.9 19-14.3 23.9-20.8 1.9-2.6 3.8-4.7 4.3-4.7.4 0 10.6 7.6 22.7 16.9l22 17-3.2 3.8c-26.5 31.5-59.5 48.8-100.2 52.5-35.4 3.2-71.7-5.8-99.7-24.5-25.4-17-45.4-43.7-55.7-74.2-10.3-30.4-10.3-66.6 0-97 18.5-54.9 64.8-91.9 123.3-98.5 12.4-1.4 35.4-.4 47.9 2z"/></svg>